G04 EAGLE Gerber RS-274X export*
G75*
%MOMM*%
%FSLAX34Y34*%
%LPD*%
%AMOC8*
5,1,8,0,0,1.08239X$1,22.5*%
G01*
%ADD10C,0.177800*%
%ADD11C,0.152400*%
%ADD12R,1.350000X0.950000*%
%ADD13R,1.498600X1.168400*%
%ADD14R,1.168400X1.498600*%
%ADD15R,1.525000X0.650000*%
%ADD16R,1.879600X1.879600*%
%ADD17C,1.879600*%
%ADD18R,1.200000X0.800000*%
%ADD19C,2.184400*%
%ADD20C,1.100000*%
%ADD21C,0.254000*%


D10*
X703692Y300889D02*
X699233Y300889D01*
X699119Y300891D01*
X699005Y300897D01*
X698891Y300907D01*
X698778Y300920D01*
X698665Y300938D01*
X698553Y300959D01*
X698441Y300984D01*
X698331Y301013D01*
X698221Y301046D01*
X698113Y301082D01*
X698006Y301122D01*
X697901Y301166D01*
X697797Y301213D01*
X697695Y301264D01*
X697594Y301318D01*
X697496Y301376D01*
X697399Y301437D01*
X697305Y301501D01*
X697212Y301568D01*
X697123Y301639D01*
X697035Y301713D01*
X696951Y301789D01*
X696868Y301868D01*
X696789Y301951D01*
X696713Y302035D01*
X696639Y302123D01*
X696568Y302212D01*
X696501Y302305D01*
X696437Y302399D01*
X696376Y302496D01*
X696318Y302594D01*
X696264Y302695D01*
X696213Y302797D01*
X696166Y302901D01*
X696122Y303006D01*
X696082Y303113D01*
X696046Y303221D01*
X696013Y303331D01*
X695984Y303441D01*
X695959Y303553D01*
X695938Y303665D01*
X695920Y303778D01*
X695907Y303891D01*
X695897Y304005D01*
X695891Y304119D01*
X695889Y304233D01*
X695889Y310922D01*
X695891Y311036D01*
X695897Y311150D01*
X695907Y311264D01*
X695920Y311377D01*
X695938Y311490D01*
X695959Y311602D01*
X695984Y311714D01*
X696013Y311824D01*
X696046Y311934D01*
X696082Y312042D01*
X696122Y312149D01*
X696166Y312254D01*
X696213Y312358D01*
X696264Y312460D01*
X696318Y312561D01*
X696376Y312659D01*
X696437Y312756D01*
X696501Y312850D01*
X696568Y312943D01*
X696639Y313032D01*
X696713Y313120D01*
X696789Y313204D01*
X696868Y313287D01*
X696951Y313366D01*
X697035Y313442D01*
X697123Y313516D01*
X697212Y313587D01*
X697305Y313654D01*
X697399Y313718D01*
X697496Y313779D01*
X697594Y313837D01*
X697695Y313891D01*
X697797Y313942D01*
X697901Y313989D01*
X698006Y314033D01*
X698113Y314073D01*
X698221Y314109D01*
X698331Y314142D01*
X698441Y314171D01*
X698553Y314196D01*
X698665Y314217D01*
X698778Y314235D01*
X698891Y314248D01*
X699005Y314258D01*
X699119Y314264D01*
X699233Y314266D01*
X703692Y314266D01*
X710945Y314266D02*
X710945Y300889D01*
X710945Y314266D02*
X720978Y314266D01*
X721092Y314264D01*
X721206Y314258D01*
X721320Y314248D01*
X721433Y314235D01*
X721546Y314217D01*
X721658Y314196D01*
X721770Y314171D01*
X721880Y314142D01*
X721990Y314109D01*
X722098Y314073D01*
X722205Y314033D01*
X722310Y313989D01*
X722414Y313942D01*
X722516Y313891D01*
X722617Y313837D01*
X722715Y313779D01*
X722812Y313718D01*
X722906Y313654D01*
X722999Y313587D01*
X723088Y313516D01*
X723176Y313442D01*
X723260Y313366D01*
X723343Y313287D01*
X723422Y313204D01*
X723498Y313120D01*
X723572Y313032D01*
X723643Y312943D01*
X723710Y312850D01*
X723774Y312756D01*
X723835Y312659D01*
X723893Y312561D01*
X723947Y312460D01*
X723998Y312358D01*
X724045Y312254D01*
X724089Y312149D01*
X724129Y312042D01*
X724165Y311934D01*
X724198Y311824D01*
X724227Y311714D01*
X724252Y311602D01*
X724273Y311490D01*
X724291Y311377D01*
X724304Y311264D01*
X724314Y311150D01*
X724320Y311036D01*
X724322Y310922D01*
X724322Y300889D01*
X717634Y300889D02*
X717634Y314266D01*
X741184Y320955D02*
X741184Y300889D01*
X735610Y300889D01*
X735496Y300891D01*
X735382Y300897D01*
X735268Y300907D01*
X735155Y300920D01*
X735042Y300938D01*
X734930Y300959D01*
X734818Y300984D01*
X734708Y301013D01*
X734598Y301046D01*
X734490Y301082D01*
X734383Y301122D01*
X734278Y301166D01*
X734174Y301213D01*
X734072Y301264D01*
X733971Y301318D01*
X733873Y301376D01*
X733776Y301437D01*
X733682Y301501D01*
X733589Y301568D01*
X733500Y301639D01*
X733412Y301713D01*
X733328Y301789D01*
X733245Y301868D01*
X733166Y301951D01*
X733090Y302035D01*
X733016Y302123D01*
X732945Y302212D01*
X732878Y302305D01*
X732814Y302399D01*
X732753Y302496D01*
X732695Y302594D01*
X732641Y302695D01*
X732590Y302797D01*
X732543Y302901D01*
X732499Y303006D01*
X732459Y303113D01*
X732423Y303221D01*
X732390Y303331D01*
X732361Y303441D01*
X732336Y303553D01*
X732315Y303665D01*
X732297Y303778D01*
X732284Y303891D01*
X732274Y304005D01*
X732268Y304119D01*
X732266Y304233D01*
X732266Y310922D01*
X732268Y311036D01*
X732274Y311150D01*
X732284Y311264D01*
X732297Y311377D01*
X732315Y311490D01*
X732336Y311602D01*
X732361Y311714D01*
X732390Y311824D01*
X732423Y311934D01*
X732459Y312042D01*
X732499Y312149D01*
X732543Y312254D01*
X732590Y312358D01*
X732641Y312460D01*
X732695Y312561D01*
X732753Y312659D01*
X732814Y312756D01*
X732878Y312850D01*
X732945Y312943D01*
X733016Y313032D01*
X733090Y313120D01*
X733166Y313204D01*
X733245Y313287D01*
X733328Y313366D01*
X733412Y313442D01*
X733500Y313516D01*
X733589Y313587D01*
X733682Y313654D01*
X733776Y313718D01*
X733873Y313779D01*
X733971Y313837D01*
X734072Y313891D01*
X734174Y313942D01*
X734278Y313989D01*
X734383Y314033D01*
X734490Y314073D01*
X734598Y314109D01*
X734708Y314142D01*
X734818Y314171D01*
X734930Y314196D01*
X735042Y314217D01*
X735155Y314235D01*
X735268Y314248D01*
X735382Y314258D01*
X735496Y314264D01*
X735610Y314266D01*
X741184Y314266D01*
X752377Y300889D02*
X756836Y300889D01*
X752377Y300889D02*
X752263Y300891D01*
X752149Y300897D01*
X752035Y300907D01*
X751922Y300920D01*
X751809Y300938D01*
X751697Y300959D01*
X751585Y300984D01*
X751475Y301013D01*
X751365Y301046D01*
X751257Y301082D01*
X751150Y301122D01*
X751045Y301166D01*
X750941Y301213D01*
X750839Y301264D01*
X750738Y301318D01*
X750640Y301376D01*
X750543Y301437D01*
X750449Y301501D01*
X750356Y301568D01*
X750267Y301639D01*
X750179Y301713D01*
X750095Y301789D01*
X750012Y301868D01*
X749933Y301951D01*
X749857Y302035D01*
X749783Y302123D01*
X749712Y302212D01*
X749645Y302305D01*
X749581Y302399D01*
X749520Y302496D01*
X749462Y302594D01*
X749408Y302695D01*
X749357Y302797D01*
X749310Y302901D01*
X749266Y303006D01*
X749226Y303113D01*
X749190Y303221D01*
X749157Y303331D01*
X749128Y303441D01*
X749103Y303553D01*
X749082Y303665D01*
X749064Y303778D01*
X749051Y303891D01*
X749041Y304005D01*
X749035Y304119D01*
X749033Y304233D01*
X749032Y304233D02*
X749032Y310922D01*
X749033Y310922D02*
X749035Y311036D01*
X749041Y311150D01*
X749051Y311264D01*
X749064Y311377D01*
X749082Y311490D01*
X749103Y311602D01*
X749128Y311714D01*
X749157Y311824D01*
X749190Y311934D01*
X749226Y312042D01*
X749266Y312149D01*
X749310Y312254D01*
X749357Y312358D01*
X749408Y312460D01*
X749462Y312561D01*
X749520Y312659D01*
X749581Y312756D01*
X749645Y312850D01*
X749712Y312943D01*
X749783Y313032D01*
X749857Y313120D01*
X749933Y313204D01*
X750012Y313287D01*
X750095Y313366D01*
X750179Y313442D01*
X750267Y313516D01*
X750356Y313587D01*
X750449Y313654D01*
X750543Y313718D01*
X750640Y313779D01*
X750738Y313837D01*
X750839Y313891D01*
X750941Y313942D01*
X751045Y313989D01*
X751150Y314033D01*
X751257Y314073D01*
X751365Y314109D01*
X751475Y314142D01*
X751585Y314171D01*
X751697Y314196D01*
X751809Y314217D01*
X751922Y314235D01*
X752035Y314248D01*
X752149Y314258D01*
X752263Y314264D01*
X752377Y314266D01*
X756836Y314266D01*
X763349Y310922D02*
X763354Y311317D01*
X763368Y311711D01*
X763391Y312105D01*
X763424Y312499D01*
X763467Y312891D01*
X763518Y313283D01*
X763579Y313673D01*
X763650Y314061D01*
X763729Y314448D01*
X763818Y314832D01*
X763916Y315215D01*
X764023Y315595D01*
X764139Y315972D01*
X764264Y316347D01*
X764398Y316718D01*
X764541Y317086D01*
X764692Y317450D01*
X764852Y317811D01*
X765021Y318168D01*
X765064Y318288D01*
X765111Y318407D01*
X765162Y318525D01*
X765216Y318640D01*
X765274Y318754D01*
X765336Y318867D01*
X765401Y318977D01*
X765469Y319085D01*
X765541Y319191D01*
X765615Y319295D01*
X765693Y319396D01*
X765775Y319495D01*
X765859Y319591D01*
X765946Y319685D01*
X766036Y319776D01*
X766128Y319864D01*
X766224Y319949D01*
X766322Y320032D01*
X766422Y320111D01*
X766525Y320187D01*
X766631Y320259D01*
X766738Y320329D01*
X766848Y320395D01*
X766959Y320458D01*
X767073Y320517D01*
X767188Y320572D01*
X767305Y320624D01*
X767423Y320673D01*
X767543Y320717D01*
X767664Y320758D01*
X767787Y320795D01*
X767910Y320829D01*
X768035Y320858D01*
X768160Y320884D01*
X768286Y320906D01*
X768413Y320923D01*
X768540Y320937D01*
X768667Y320947D01*
X768795Y320953D01*
X768923Y320955D01*
X769051Y320953D01*
X769179Y320947D01*
X769306Y320937D01*
X769433Y320923D01*
X769560Y320906D01*
X769686Y320884D01*
X769811Y320858D01*
X769936Y320829D01*
X770059Y320795D01*
X770182Y320758D01*
X770303Y320717D01*
X770423Y320673D01*
X770541Y320624D01*
X770658Y320572D01*
X770773Y320517D01*
X770887Y320458D01*
X770998Y320395D01*
X771108Y320329D01*
X771215Y320259D01*
X771321Y320187D01*
X771424Y320111D01*
X771524Y320032D01*
X771622Y319949D01*
X771718Y319864D01*
X771810Y319776D01*
X771900Y319685D01*
X771987Y319591D01*
X772071Y319495D01*
X772153Y319396D01*
X772231Y319295D01*
X772305Y319191D01*
X772377Y319085D01*
X772445Y318977D01*
X772510Y318867D01*
X772572Y318754D01*
X772630Y318640D01*
X772684Y318525D01*
X772735Y318407D01*
X772782Y318288D01*
X772825Y318168D01*
X772994Y317811D01*
X773154Y317450D01*
X773305Y317086D01*
X773448Y316718D01*
X773582Y316346D01*
X773707Y315972D01*
X773823Y315595D01*
X773930Y315215D01*
X774028Y314832D01*
X774117Y314448D01*
X774196Y314061D01*
X774267Y313673D01*
X774328Y313283D01*
X774379Y312891D01*
X774422Y312499D01*
X774455Y312105D01*
X774478Y311711D01*
X774492Y311317D01*
X774497Y310922D01*
X763349Y310922D02*
X763354Y310527D01*
X763368Y310133D01*
X763391Y309739D01*
X763424Y309345D01*
X763467Y308953D01*
X763518Y308561D01*
X763579Y308171D01*
X763650Y307783D01*
X763729Y307396D01*
X763818Y307012D01*
X763916Y306629D01*
X764023Y306249D01*
X764139Y305872D01*
X764264Y305498D01*
X764398Y305126D01*
X764541Y304758D01*
X764692Y304394D01*
X764852Y304033D01*
X765021Y303676D01*
X765064Y303556D01*
X765111Y303437D01*
X765162Y303319D01*
X765216Y303204D01*
X765274Y303090D01*
X765336Y302977D01*
X765401Y302867D01*
X765469Y302759D01*
X765541Y302653D01*
X765615Y302549D01*
X765693Y302448D01*
X765775Y302349D01*
X765859Y302253D01*
X765946Y302159D01*
X766036Y302068D01*
X766128Y301980D01*
X766224Y301895D01*
X766322Y301812D01*
X766422Y301733D01*
X766525Y301657D01*
X766631Y301585D01*
X766738Y301515D01*
X766848Y301449D01*
X766959Y301386D01*
X767073Y301327D01*
X767188Y301272D01*
X767305Y301220D01*
X767423Y301171D01*
X767543Y301127D01*
X767664Y301086D01*
X767787Y301049D01*
X767910Y301015D01*
X768035Y300986D01*
X768160Y300960D01*
X768286Y300938D01*
X768413Y300921D01*
X768540Y300907D01*
X768667Y300897D01*
X768795Y300891D01*
X768923Y300889D01*
X772825Y303676D02*
X772994Y304033D01*
X773154Y304394D01*
X773305Y304758D01*
X773448Y305126D01*
X773582Y305498D01*
X773707Y305872D01*
X773823Y306249D01*
X773930Y306629D01*
X774028Y307012D01*
X774117Y307396D01*
X774196Y307783D01*
X774267Y308171D01*
X774328Y308561D01*
X774379Y308953D01*
X774422Y309345D01*
X774455Y309739D01*
X774478Y310133D01*
X774492Y310527D01*
X774497Y310922D01*
X772825Y303676D02*
X772782Y303556D01*
X772735Y303437D01*
X772684Y303319D01*
X772630Y303204D01*
X772572Y303090D01*
X772510Y302977D01*
X772445Y302867D01*
X772377Y302759D01*
X772305Y302653D01*
X772231Y302549D01*
X772153Y302448D01*
X772071Y302349D01*
X771987Y302253D01*
X771900Y302159D01*
X771810Y302068D01*
X771718Y301980D01*
X771622Y301895D01*
X771524Y301812D01*
X771424Y301733D01*
X771321Y301657D01*
X771215Y301585D01*
X771108Y301515D01*
X770998Y301449D01*
X770887Y301386D01*
X770773Y301327D01*
X770658Y301272D01*
X770541Y301220D01*
X770423Y301171D01*
X770303Y301127D01*
X770182Y301086D01*
X770059Y301049D01*
X769936Y301015D01*
X769811Y300986D01*
X769686Y300960D01*
X769560Y300938D01*
X769433Y300921D01*
X769306Y300907D01*
X769179Y300897D01*
X769051Y300891D01*
X768923Y300889D01*
X764464Y305348D02*
X773382Y316496D01*
X790620Y320955D02*
X790620Y300889D01*
X785046Y300889D01*
X784932Y300891D01*
X784818Y300897D01*
X784704Y300907D01*
X784591Y300920D01*
X784478Y300938D01*
X784366Y300959D01*
X784254Y300984D01*
X784144Y301013D01*
X784034Y301046D01*
X783926Y301082D01*
X783819Y301122D01*
X783714Y301166D01*
X783610Y301213D01*
X783508Y301264D01*
X783407Y301318D01*
X783309Y301376D01*
X783212Y301437D01*
X783118Y301501D01*
X783025Y301568D01*
X782936Y301639D01*
X782848Y301713D01*
X782764Y301789D01*
X782681Y301868D01*
X782602Y301951D01*
X782526Y302035D01*
X782452Y302123D01*
X782381Y302212D01*
X782314Y302305D01*
X782250Y302399D01*
X782189Y302496D01*
X782131Y302594D01*
X782077Y302695D01*
X782026Y302797D01*
X781979Y302901D01*
X781935Y303006D01*
X781895Y303113D01*
X781859Y303221D01*
X781826Y303331D01*
X781797Y303441D01*
X781772Y303553D01*
X781751Y303665D01*
X781733Y303778D01*
X781720Y303891D01*
X781710Y304005D01*
X781704Y304119D01*
X781702Y304233D01*
X781701Y304233D02*
X781701Y310922D01*
X781702Y310922D02*
X781704Y311036D01*
X781710Y311150D01*
X781720Y311264D01*
X781733Y311377D01*
X781751Y311490D01*
X781772Y311602D01*
X781797Y311714D01*
X781826Y311824D01*
X781859Y311934D01*
X781895Y312042D01*
X781935Y312149D01*
X781979Y312254D01*
X782026Y312358D01*
X782077Y312460D01*
X782131Y312561D01*
X782189Y312659D01*
X782250Y312756D01*
X782314Y312850D01*
X782381Y312943D01*
X782452Y313032D01*
X782526Y313120D01*
X782602Y313204D01*
X782681Y313287D01*
X782764Y313366D01*
X782848Y313442D01*
X782936Y313516D01*
X783025Y313587D01*
X783118Y313654D01*
X783212Y313718D01*
X783309Y313779D01*
X783407Y313837D01*
X783508Y313891D01*
X783610Y313942D01*
X783714Y313989D01*
X783819Y314033D01*
X783926Y314073D01*
X784034Y314109D01*
X784144Y314142D01*
X784254Y314171D01*
X784366Y314196D01*
X784478Y314217D01*
X784591Y314235D01*
X784704Y314248D01*
X784818Y314258D01*
X784932Y314264D01*
X785046Y314266D01*
X790620Y314266D01*
X801795Y300889D02*
X807369Y300889D01*
X801795Y300889D02*
X801681Y300891D01*
X801567Y300897D01*
X801453Y300907D01*
X801340Y300920D01*
X801227Y300938D01*
X801115Y300959D01*
X801003Y300984D01*
X800893Y301013D01*
X800783Y301046D01*
X800675Y301082D01*
X800568Y301122D01*
X800463Y301166D01*
X800359Y301213D01*
X800257Y301264D01*
X800156Y301318D01*
X800058Y301376D01*
X799961Y301437D01*
X799867Y301501D01*
X799774Y301568D01*
X799685Y301639D01*
X799597Y301713D01*
X799513Y301789D01*
X799430Y301868D01*
X799351Y301951D01*
X799275Y302035D01*
X799201Y302123D01*
X799130Y302212D01*
X799063Y302305D01*
X798999Y302399D01*
X798938Y302496D01*
X798880Y302594D01*
X798826Y302695D01*
X798775Y302797D01*
X798728Y302901D01*
X798684Y303006D01*
X798644Y303113D01*
X798608Y303221D01*
X798575Y303331D01*
X798546Y303441D01*
X798521Y303553D01*
X798500Y303665D01*
X798482Y303778D01*
X798469Y303891D01*
X798459Y304005D01*
X798453Y304119D01*
X798451Y304233D01*
X798451Y309807D01*
X798453Y309939D01*
X798459Y310071D01*
X798469Y310203D01*
X798482Y310334D01*
X798500Y310465D01*
X798521Y310596D01*
X798547Y310725D01*
X798576Y310854D01*
X798609Y310982D01*
X798645Y311109D01*
X798686Y311235D01*
X798730Y311360D01*
X798778Y311483D01*
X798829Y311605D01*
X798884Y311725D01*
X798943Y311843D01*
X799005Y311960D01*
X799071Y312075D01*
X799139Y312187D01*
X799212Y312298D01*
X799287Y312407D01*
X799366Y312513D01*
X799447Y312617D01*
X799532Y312718D01*
X799620Y312817D01*
X799711Y312913D01*
X799804Y313006D01*
X799900Y313097D01*
X799999Y313185D01*
X800100Y313270D01*
X800204Y313351D01*
X800310Y313430D01*
X800419Y313505D01*
X800530Y313578D01*
X800642Y313646D01*
X800757Y313712D01*
X800874Y313774D01*
X800992Y313833D01*
X801112Y313888D01*
X801234Y313939D01*
X801357Y313987D01*
X801482Y314031D01*
X801608Y314072D01*
X801735Y314108D01*
X801863Y314141D01*
X801992Y314170D01*
X802121Y314196D01*
X802252Y314217D01*
X802383Y314235D01*
X802514Y314248D01*
X802646Y314258D01*
X802778Y314264D01*
X802910Y314266D01*
X803042Y314264D01*
X803174Y314258D01*
X803306Y314248D01*
X803437Y314235D01*
X803568Y314217D01*
X803699Y314196D01*
X803828Y314170D01*
X803957Y314141D01*
X804085Y314108D01*
X804212Y314072D01*
X804338Y314031D01*
X804463Y313987D01*
X804586Y313939D01*
X804708Y313888D01*
X804828Y313833D01*
X804946Y313774D01*
X805063Y313712D01*
X805178Y313646D01*
X805290Y313578D01*
X805401Y313505D01*
X805510Y313430D01*
X805616Y313351D01*
X805720Y313270D01*
X805821Y313185D01*
X805920Y313097D01*
X806016Y313006D01*
X806109Y312913D01*
X806200Y312817D01*
X806288Y312718D01*
X806373Y312617D01*
X806454Y312513D01*
X806533Y312407D01*
X806608Y312298D01*
X806681Y312187D01*
X806749Y312075D01*
X806815Y311960D01*
X806877Y311843D01*
X806936Y311725D01*
X806991Y311605D01*
X807042Y311483D01*
X807090Y311360D01*
X807134Y311235D01*
X807175Y311109D01*
X807211Y310982D01*
X807244Y310854D01*
X807273Y310725D01*
X807299Y310596D01*
X807320Y310465D01*
X807338Y310334D01*
X807351Y310203D01*
X807361Y310071D01*
X807367Y309939D01*
X807369Y309807D01*
X807369Y307578D01*
X798451Y307578D01*
X814046Y300889D02*
X815161Y300889D01*
X814046Y300889D02*
X814046Y302004D01*
X815161Y302004D01*
X815161Y300889D01*
X813489Y296430D01*
X836400Y309807D02*
X843088Y309807D01*
X836400Y309807D02*
X836268Y309809D01*
X836136Y309815D01*
X836004Y309825D01*
X835873Y309838D01*
X835742Y309856D01*
X835611Y309877D01*
X835482Y309903D01*
X835353Y309932D01*
X835225Y309965D01*
X835098Y310001D01*
X834972Y310042D01*
X834847Y310086D01*
X834724Y310134D01*
X834602Y310185D01*
X834482Y310240D01*
X834364Y310299D01*
X834247Y310361D01*
X834132Y310427D01*
X834020Y310495D01*
X833909Y310568D01*
X833800Y310643D01*
X833694Y310722D01*
X833590Y310803D01*
X833489Y310888D01*
X833390Y310976D01*
X833294Y311067D01*
X833201Y311160D01*
X833110Y311256D01*
X833022Y311355D01*
X832937Y311456D01*
X832856Y311560D01*
X832777Y311666D01*
X832702Y311775D01*
X832629Y311886D01*
X832561Y311998D01*
X832495Y312113D01*
X832433Y312230D01*
X832374Y312348D01*
X832319Y312468D01*
X832268Y312590D01*
X832220Y312713D01*
X832176Y312838D01*
X832135Y312964D01*
X832099Y313091D01*
X832066Y313219D01*
X832037Y313348D01*
X832011Y313477D01*
X831990Y313608D01*
X831972Y313739D01*
X831959Y313870D01*
X831949Y314002D01*
X831943Y314134D01*
X831941Y314266D01*
X831941Y315381D01*
X831943Y315529D01*
X831949Y315678D01*
X831959Y315826D01*
X831973Y315973D01*
X831990Y316121D01*
X832012Y316268D01*
X832038Y316414D01*
X832067Y316559D01*
X832100Y316704D01*
X832137Y316848D01*
X832178Y316990D01*
X832223Y317132D01*
X832272Y317272D01*
X832324Y317411D01*
X832380Y317548D01*
X832439Y317684D01*
X832502Y317819D01*
X832569Y317951D01*
X832639Y318082D01*
X832713Y318211D01*
X832790Y318338D01*
X832870Y318462D01*
X832954Y318585D01*
X833041Y318705D01*
X833131Y318823D01*
X833224Y318939D01*
X833320Y319052D01*
X833419Y319162D01*
X833521Y319270D01*
X833626Y319375D01*
X833734Y319477D01*
X833844Y319576D01*
X833957Y319672D01*
X834073Y319765D01*
X834191Y319855D01*
X834311Y319942D01*
X834434Y320026D01*
X834558Y320106D01*
X834685Y320183D01*
X834814Y320257D01*
X834945Y320327D01*
X835077Y320394D01*
X835212Y320457D01*
X835348Y320516D01*
X835485Y320572D01*
X835624Y320624D01*
X835764Y320673D01*
X835906Y320718D01*
X836048Y320759D01*
X836192Y320796D01*
X836337Y320829D01*
X836482Y320858D01*
X836628Y320884D01*
X836775Y320906D01*
X836923Y320923D01*
X837070Y320937D01*
X837218Y320947D01*
X837367Y320953D01*
X837515Y320955D01*
X837663Y320953D01*
X837812Y320947D01*
X837960Y320937D01*
X838107Y320923D01*
X838255Y320906D01*
X838402Y320884D01*
X838548Y320858D01*
X838693Y320829D01*
X838838Y320796D01*
X838982Y320759D01*
X839124Y320718D01*
X839266Y320673D01*
X839406Y320624D01*
X839545Y320572D01*
X839682Y320516D01*
X839818Y320457D01*
X839953Y320394D01*
X840085Y320327D01*
X840216Y320257D01*
X840345Y320183D01*
X840472Y320106D01*
X840596Y320026D01*
X840719Y319942D01*
X840839Y319855D01*
X840957Y319765D01*
X841073Y319672D01*
X841186Y319576D01*
X841296Y319477D01*
X841404Y319375D01*
X841509Y319270D01*
X841611Y319162D01*
X841710Y319052D01*
X841806Y318939D01*
X841899Y318823D01*
X841989Y318705D01*
X842076Y318585D01*
X842160Y318462D01*
X842240Y318338D01*
X842317Y318211D01*
X842391Y318082D01*
X842461Y317951D01*
X842528Y317819D01*
X842591Y317684D01*
X842650Y317548D01*
X842706Y317411D01*
X842758Y317272D01*
X842807Y317132D01*
X842852Y316990D01*
X842893Y316848D01*
X842930Y316704D01*
X842963Y316559D01*
X842992Y316414D01*
X843018Y316268D01*
X843040Y316121D01*
X843057Y315973D01*
X843071Y315826D01*
X843081Y315678D01*
X843087Y315529D01*
X843089Y315381D01*
X843088Y315381D02*
X843088Y309807D01*
X843085Y309588D01*
X843077Y309369D01*
X843064Y309151D01*
X843045Y308933D01*
X843021Y308715D01*
X842991Y308498D01*
X842957Y308282D01*
X842917Y308067D01*
X842871Y307853D01*
X842821Y307640D01*
X842765Y307428D01*
X842704Y307218D01*
X842638Y307010D01*
X842567Y306803D01*
X842490Y306597D01*
X842409Y306394D01*
X842323Y306193D01*
X842232Y305994D01*
X842136Y305797D01*
X842035Y305603D01*
X841929Y305411D01*
X841819Y305222D01*
X841704Y305036D01*
X841585Y304852D01*
X841461Y304672D01*
X841333Y304495D01*
X841200Y304320D01*
X841064Y304149D01*
X840923Y303982D01*
X840778Y303818D01*
X840629Y303658D01*
X840476Y303501D01*
X840319Y303348D01*
X840159Y303199D01*
X839995Y303054D01*
X839828Y302913D01*
X839657Y302777D01*
X839482Y302644D01*
X839305Y302516D01*
X839125Y302392D01*
X838941Y302273D01*
X838755Y302158D01*
X838566Y302048D01*
X838374Y301942D01*
X838180Y301841D01*
X837983Y301745D01*
X837784Y301654D01*
X837583Y301568D01*
X837380Y301487D01*
X837174Y301410D01*
X836967Y301339D01*
X836759Y301273D01*
X836549Y301212D01*
X836337Y301156D01*
X836124Y301106D01*
X835910Y301060D01*
X835695Y301020D01*
X835479Y300986D01*
X835262Y300956D01*
X835044Y300932D01*
X834826Y300913D01*
X834608Y300900D01*
X834389Y300892D01*
X834170Y300889D01*
X850600Y308692D02*
X863977Y308692D01*
X877620Y320956D02*
X877761Y320954D01*
X877901Y320948D01*
X878042Y320938D01*
X878182Y320924D01*
X878321Y320907D01*
X878460Y320885D01*
X878599Y320860D01*
X878736Y320830D01*
X878873Y320797D01*
X879009Y320760D01*
X879144Y320719D01*
X879277Y320674D01*
X879409Y320626D01*
X879540Y320574D01*
X879669Y320518D01*
X879797Y320459D01*
X879923Y320396D01*
X880047Y320330D01*
X880169Y320260D01*
X880289Y320187D01*
X880407Y320110D01*
X880523Y320031D01*
X880637Y319948D01*
X880748Y319861D01*
X880857Y319772D01*
X880963Y319680D01*
X881067Y319585D01*
X881168Y319487D01*
X881266Y319386D01*
X881361Y319282D01*
X881453Y319176D01*
X881542Y319067D01*
X881629Y318956D01*
X881712Y318842D01*
X881791Y318726D01*
X881868Y318608D01*
X881941Y318488D01*
X882011Y318366D01*
X882077Y318242D01*
X882140Y318116D01*
X882199Y317988D01*
X882255Y317859D01*
X882307Y317728D01*
X882355Y317596D01*
X882400Y317463D01*
X882441Y317328D01*
X882478Y317192D01*
X882511Y317055D01*
X882541Y316918D01*
X882566Y316779D01*
X882588Y316640D01*
X882605Y316501D01*
X882619Y316361D01*
X882629Y316220D01*
X882635Y316080D01*
X882637Y315939D01*
X877620Y320955D02*
X877461Y320953D01*
X877302Y320947D01*
X877144Y320937D01*
X876985Y320924D01*
X876827Y320906D01*
X876670Y320885D01*
X876513Y320859D01*
X876357Y320830D01*
X876201Y320797D01*
X876047Y320760D01*
X875893Y320719D01*
X875741Y320675D01*
X875589Y320627D01*
X875439Y320575D01*
X875290Y320519D01*
X875143Y320460D01*
X874997Y320397D01*
X874852Y320330D01*
X874710Y320260D01*
X874569Y320187D01*
X874430Y320110D01*
X874293Y320030D01*
X874158Y319946D01*
X874025Y319859D01*
X873894Y319769D01*
X873765Y319675D01*
X873639Y319579D01*
X873515Y319479D01*
X873394Y319376D01*
X873275Y319270D01*
X873159Y319162D01*
X873046Y319050D01*
X872935Y318936D01*
X872828Y318819D01*
X872723Y318700D01*
X872621Y318578D01*
X872522Y318453D01*
X872427Y318327D01*
X872334Y318197D01*
X872245Y318066D01*
X872159Y317932D01*
X872076Y317797D01*
X871997Y317659D01*
X871921Y317519D01*
X871848Y317378D01*
X871779Y317235D01*
X871714Y317090D01*
X871652Y316943D01*
X871594Y316796D01*
X871539Y316646D01*
X871489Y316496D01*
X880965Y312037D02*
X881069Y312139D01*
X881170Y312244D01*
X881268Y312351D01*
X881364Y312461D01*
X881456Y312573D01*
X881545Y312688D01*
X881632Y312805D01*
X881715Y312924D01*
X881794Y313046D01*
X881871Y313170D01*
X881944Y313295D01*
X882013Y313423D01*
X882080Y313552D01*
X882142Y313684D01*
X882201Y313817D01*
X882257Y313951D01*
X882309Y314087D01*
X882357Y314224D01*
X882401Y314363D01*
X882442Y314502D01*
X882479Y314643D01*
X882512Y314785D01*
X882541Y314927D01*
X882566Y315070D01*
X882588Y315214D01*
X882606Y315358D01*
X882619Y315503D01*
X882629Y315648D01*
X882635Y315794D01*
X882637Y315939D01*
X880965Y312037D02*
X871489Y300889D01*
X882637Y300889D01*
X890027Y310922D02*
X890032Y311317D01*
X890046Y311711D01*
X890069Y312105D01*
X890102Y312499D01*
X890145Y312891D01*
X890196Y313283D01*
X890257Y313673D01*
X890328Y314061D01*
X890407Y314448D01*
X890496Y314832D01*
X890594Y315215D01*
X890701Y315595D01*
X890817Y315972D01*
X890942Y316347D01*
X891076Y316718D01*
X891219Y317086D01*
X891370Y317450D01*
X891530Y317811D01*
X891699Y318168D01*
X891742Y318288D01*
X891789Y318407D01*
X891840Y318525D01*
X891894Y318640D01*
X891952Y318754D01*
X892014Y318867D01*
X892079Y318977D01*
X892147Y319085D01*
X892219Y319191D01*
X892293Y319295D01*
X892371Y319396D01*
X892453Y319495D01*
X892537Y319591D01*
X892624Y319685D01*
X892714Y319776D01*
X892806Y319864D01*
X892902Y319949D01*
X893000Y320032D01*
X893100Y320111D01*
X893203Y320187D01*
X893309Y320259D01*
X893416Y320329D01*
X893526Y320395D01*
X893637Y320458D01*
X893751Y320517D01*
X893866Y320572D01*
X893983Y320624D01*
X894101Y320673D01*
X894221Y320717D01*
X894342Y320758D01*
X894465Y320795D01*
X894588Y320829D01*
X894713Y320858D01*
X894838Y320884D01*
X894964Y320906D01*
X895091Y320923D01*
X895218Y320937D01*
X895345Y320947D01*
X895473Y320953D01*
X895601Y320955D01*
X895729Y320953D01*
X895857Y320947D01*
X895984Y320937D01*
X896111Y320923D01*
X896238Y320906D01*
X896364Y320884D01*
X896489Y320858D01*
X896614Y320829D01*
X896737Y320795D01*
X896860Y320758D01*
X896981Y320717D01*
X897101Y320673D01*
X897219Y320624D01*
X897336Y320572D01*
X897451Y320517D01*
X897565Y320458D01*
X897676Y320395D01*
X897786Y320329D01*
X897893Y320259D01*
X897999Y320187D01*
X898102Y320111D01*
X898202Y320032D01*
X898300Y319949D01*
X898396Y319864D01*
X898488Y319776D01*
X898578Y319685D01*
X898665Y319591D01*
X898749Y319495D01*
X898831Y319396D01*
X898909Y319295D01*
X898983Y319191D01*
X899055Y319085D01*
X899123Y318977D01*
X899188Y318867D01*
X899250Y318754D01*
X899308Y318640D01*
X899362Y318525D01*
X899413Y318407D01*
X899460Y318288D01*
X899503Y318168D01*
X899672Y317811D01*
X899832Y317450D01*
X899983Y317086D01*
X900126Y316718D01*
X900260Y316346D01*
X900385Y315972D01*
X900501Y315595D01*
X900608Y315215D01*
X900706Y314832D01*
X900795Y314448D01*
X900874Y314061D01*
X900945Y313673D01*
X901006Y313283D01*
X901057Y312891D01*
X901100Y312499D01*
X901133Y312105D01*
X901156Y311711D01*
X901170Y311317D01*
X901175Y310922D01*
X890027Y310922D02*
X890032Y310527D01*
X890046Y310133D01*
X890069Y309739D01*
X890102Y309345D01*
X890145Y308953D01*
X890196Y308561D01*
X890257Y308171D01*
X890328Y307783D01*
X890407Y307396D01*
X890496Y307012D01*
X890594Y306629D01*
X890701Y306249D01*
X890817Y305872D01*
X890942Y305498D01*
X891076Y305126D01*
X891219Y304758D01*
X891370Y304394D01*
X891530Y304033D01*
X891699Y303676D01*
X891742Y303556D01*
X891789Y303437D01*
X891840Y303319D01*
X891894Y303204D01*
X891952Y303090D01*
X892014Y302977D01*
X892079Y302867D01*
X892147Y302759D01*
X892219Y302653D01*
X892293Y302549D01*
X892371Y302448D01*
X892453Y302349D01*
X892537Y302253D01*
X892624Y302159D01*
X892714Y302068D01*
X892806Y301980D01*
X892902Y301895D01*
X893000Y301812D01*
X893100Y301733D01*
X893203Y301657D01*
X893309Y301585D01*
X893416Y301515D01*
X893526Y301449D01*
X893637Y301386D01*
X893751Y301327D01*
X893866Y301272D01*
X893983Y301220D01*
X894101Y301171D01*
X894221Y301127D01*
X894342Y301086D01*
X894465Y301049D01*
X894588Y301015D01*
X894713Y300986D01*
X894838Y300960D01*
X894964Y300938D01*
X895091Y300921D01*
X895218Y300907D01*
X895345Y300897D01*
X895473Y300891D01*
X895601Y300889D01*
X899503Y303676D02*
X899672Y304033D01*
X899832Y304394D01*
X899983Y304758D01*
X900126Y305126D01*
X900260Y305498D01*
X900385Y305872D01*
X900501Y306249D01*
X900608Y306629D01*
X900706Y307012D01*
X900795Y307396D01*
X900874Y307783D01*
X900945Y308171D01*
X901006Y308561D01*
X901057Y308953D01*
X901100Y309345D01*
X901133Y309739D01*
X901156Y310133D01*
X901170Y310527D01*
X901175Y310922D01*
X899503Y303676D02*
X899460Y303556D01*
X899413Y303437D01*
X899362Y303319D01*
X899308Y303204D01*
X899250Y303090D01*
X899188Y302977D01*
X899123Y302867D01*
X899055Y302759D01*
X898983Y302653D01*
X898909Y302549D01*
X898831Y302448D01*
X898749Y302349D01*
X898665Y302253D01*
X898578Y302159D01*
X898488Y302068D01*
X898396Y301980D01*
X898300Y301895D01*
X898202Y301812D01*
X898102Y301733D01*
X897999Y301657D01*
X897893Y301585D01*
X897786Y301515D01*
X897676Y301449D01*
X897565Y301386D01*
X897451Y301327D01*
X897336Y301272D01*
X897219Y301220D01*
X897101Y301171D01*
X896981Y301127D01*
X896860Y301086D01*
X896737Y301049D01*
X896614Y301015D01*
X896489Y300986D01*
X896364Y300960D01*
X896238Y300938D01*
X896111Y300921D01*
X895984Y300907D01*
X895857Y300897D01*
X895729Y300891D01*
X895601Y300889D01*
X891142Y305348D02*
X900060Y316496D01*
X908566Y316496D02*
X914140Y320955D01*
X914140Y300889D01*
X908566Y300889D02*
X919714Y300889D01*
X927104Y306463D02*
X927106Y306611D01*
X927112Y306760D01*
X927122Y306908D01*
X927136Y307055D01*
X927153Y307203D01*
X927175Y307350D01*
X927201Y307496D01*
X927230Y307641D01*
X927263Y307786D01*
X927300Y307930D01*
X927341Y308072D01*
X927386Y308214D01*
X927435Y308354D01*
X927487Y308493D01*
X927543Y308630D01*
X927602Y308766D01*
X927665Y308901D01*
X927732Y309033D01*
X927802Y309164D01*
X927876Y309293D01*
X927953Y309420D01*
X928033Y309544D01*
X928117Y309667D01*
X928204Y309787D01*
X928294Y309905D01*
X928387Y310021D01*
X928483Y310134D01*
X928582Y310244D01*
X928684Y310352D01*
X928789Y310457D01*
X928897Y310559D01*
X929007Y310658D01*
X929120Y310754D01*
X929236Y310847D01*
X929354Y310937D01*
X929474Y311024D01*
X929597Y311108D01*
X929721Y311188D01*
X929848Y311265D01*
X929977Y311339D01*
X930108Y311409D01*
X930240Y311476D01*
X930375Y311539D01*
X930511Y311598D01*
X930648Y311654D01*
X930787Y311706D01*
X930927Y311755D01*
X931069Y311800D01*
X931211Y311841D01*
X931355Y311878D01*
X931500Y311911D01*
X931645Y311940D01*
X931791Y311966D01*
X931938Y311988D01*
X932086Y312005D01*
X932233Y312019D01*
X932381Y312029D01*
X932530Y312035D01*
X932678Y312037D01*
X932826Y312035D01*
X932975Y312029D01*
X933123Y312019D01*
X933270Y312005D01*
X933418Y311988D01*
X933565Y311966D01*
X933711Y311940D01*
X933856Y311911D01*
X934001Y311878D01*
X934145Y311841D01*
X934287Y311800D01*
X934429Y311755D01*
X934569Y311706D01*
X934708Y311654D01*
X934845Y311598D01*
X934981Y311539D01*
X935116Y311476D01*
X935248Y311409D01*
X935379Y311339D01*
X935508Y311265D01*
X935635Y311188D01*
X935759Y311108D01*
X935882Y311024D01*
X936002Y310937D01*
X936120Y310847D01*
X936236Y310754D01*
X936349Y310658D01*
X936459Y310559D01*
X936567Y310457D01*
X936672Y310352D01*
X936774Y310244D01*
X936873Y310134D01*
X936969Y310021D01*
X937062Y309905D01*
X937152Y309787D01*
X937239Y309667D01*
X937323Y309544D01*
X937403Y309420D01*
X937480Y309293D01*
X937554Y309164D01*
X937624Y309033D01*
X937691Y308901D01*
X937754Y308766D01*
X937813Y308630D01*
X937869Y308493D01*
X937921Y308354D01*
X937970Y308214D01*
X938015Y308072D01*
X938056Y307930D01*
X938093Y307786D01*
X938126Y307641D01*
X938155Y307496D01*
X938181Y307350D01*
X938203Y307203D01*
X938220Y307055D01*
X938234Y306908D01*
X938244Y306760D01*
X938250Y306611D01*
X938252Y306463D01*
X938250Y306315D01*
X938244Y306166D01*
X938234Y306018D01*
X938220Y305871D01*
X938203Y305723D01*
X938181Y305576D01*
X938155Y305430D01*
X938126Y305285D01*
X938093Y305140D01*
X938056Y304996D01*
X938015Y304854D01*
X937970Y304712D01*
X937921Y304572D01*
X937869Y304433D01*
X937813Y304296D01*
X937754Y304160D01*
X937691Y304025D01*
X937624Y303893D01*
X937554Y303762D01*
X937480Y303633D01*
X937403Y303506D01*
X937323Y303382D01*
X937239Y303259D01*
X937152Y303139D01*
X937062Y303021D01*
X936969Y302905D01*
X936873Y302792D01*
X936774Y302682D01*
X936672Y302574D01*
X936567Y302469D01*
X936459Y302367D01*
X936349Y302268D01*
X936236Y302172D01*
X936120Y302079D01*
X936002Y301989D01*
X935882Y301902D01*
X935759Y301818D01*
X935635Y301738D01*
X935508Y301661D01*
X935379Y301587D01*
X935248Y301517D01*
X935116Y301450D01*
X934981Y301387D01*
X934845Y301328D01*
X934708Y301272D01*
X934569Y301220D01*
X934429Y301171D01*
X934287Y301126D01*
X934145Y301085D01*
X934001Y301048D01*
X933856Y301015D01*
X933711Y300986D01*
X933565Y300960D01*
X933418Y300938D01*
X933270Y300921D01*
X933123Y300907D01*
X932975Y300897D01*
X932826Y300891D01*
X932678Y300889D01*
X932530Y300891D01*
X932381Y300897D01*
X932233Y300907D01*
X932086Y300921D01*
X931938Y300938D01*
X931791Y300960D01*
X931645Y300986D01*
X931500Y301015D01*
X931355Y301048D01*
X931211Y301085D01*
X931069Y301126D01*
X930927Y301171D01*
X930787Y301220D01*
X930648Y301272D01*
X930511Y301328D01*
X930375Y301387D01*
X930240Y301450D01*
X930108Y301517D01*
X929977Y301587D01*
X929848Y301661D01*
X929721Y301738D01*
X929597Y301818D01*
X929474Y301902D01*
X929354Y301989D01*
X929236Y302079D01*
X929120Y302172D01*
X929007Y302268D01*
X928897Y302367D01*
X928789Y302469D01*
X928684Y302574D01*
X928582Y302682D01*
X928483Y302792D01*
X928387Y302905D01*
X928294Y303021D01*
X928204Y303139D01*
X928117Y303259D01*
X928033Y303382D01*
X927953Y303506D01*
X927876Y303633D01*
X927802Y303762D01*
X927732Y303893D01*
X927665Y304025D01*
X927602Y304160D01*
X927543Y304296D01*
X927487Y304433D01*
X927435Y304572D01*
X927386Y304712D01*
X927341Y304854D01*
X927300Y304996D01*
X927263Y305140D01*
X927230Y305285D01*
X927201Y305430D01*
X927175Y305576D01*
X927153Y305723D01*
X927136Y305871D01*
X927122Y306018D01*
X927112Y306166D01*
X927106Y306315D01*
X927104Y306463D01*
X928219Y316496D02*
X928221Y316628D01*
X928227Y316760D01*
X928237Y316892D01*
X928250Y317023D01*
X928268Y317154D01*
X928289Y317285D01*
X928315Y317414D01*
X928344Y317543D01*
X928377Y317671D01*
X928413Y317798D01*
X928454Y317924D01*
X928498Y318049D01*
X928546Y318172D01*
X928597Y318294D01*
X928652Y318414D01*
X928711Y318532D01*
X928773Y318649D01*
X928839Y318764D01*
X928907Y318876D01*
X928980Y318987D01*
X929055Y319096D01*
X929134Y319202D01*
X929215Y319306D01*
X929300Y319407D01*
X929388Y319506D01*
X929479Y319602D01*
X929572Y319695D01*
X929668Y319786D01*
X929767Y319874D01*
X929868Y319959D01*
X929972Y320040D01*
X930078Y320119D01*
X930187Y320194D01*
X930298Y320267D01*
X930410Y320335D01*
X930525Y320401D01*
X930642Y320463D01*
X930760Y320522D01*
X930880Y320577D01*
X931002Y320628D01*
X931125Y320676D01*
X931250Y320720D01*
X931376Y320761D01*
X931503Y320797D01*
X931631Y320830D01*
X931760Y320859D01*
X931889Y320885D01*
X932020Y320906D01*
X932151Y320924D01*
X932282Y320937D01*
X932414Y320947D01*
X932546Y320953D01*
X932678Y320955D01*
X932810Y320953D01*
X932942Y320947D01*
X933074Y320937D01*
X933205Y320924D01*
X933336Y320906D01*
X933467Y320885D01*
X933596Y320859D01*
X933725Y320830D01*
X933853Y320797D01*
X933980Y320761D01*
X934106Y320720D01*
X934231Y320676D01*
X934354Y320628D01*
X934476Y320577D01*
X934596Y320522D01*
X934714Y320463D01*
X934831Y320401D01*
X934946Y320335D01*
X935058Y320267D01*
X935169Y320194D01*
X935278Y320119D01*
X935384Y320040D01*
X935488Y319959D01*
X935589Y319874D01*
X935688Y319786D01*
X935784Y319695D01*
X935877Y319602D01*
X935968Y319506D01*
X936056Y319407D01*
X936141Y319306D01*
X936222Y319202D01*
X936301Y319096D01*
X936376Y318987D01*
X936449Y318876D01*
X936517Y318764D01*
X936583Y318649D01*
X936645Y318532D01*
X936704Y318414D01*
X936759Y318294D01*
X936810Y318172D01*
X936858Y318049D01*
X936902Y317924D01*
X936943Y317798D01*
X936979Y317671D01*
X937012Y317543D01*
X937041Y317414D01*
X937067Y317285D01*
X937088Y317154D01*
X937106Y317023D01*
X937119Y316892D01*
X937129Y316760D01*
X937135Y316628D01*
X937137Y316496D01*
X937135Y316364D01*
X937129Y316232D01*
X937119Y316100D01*
X937106Y315969D01*
X937088Y315838D01*
X937067Y315707D01*
X937041Y315578D01*
X937012Y315449D01*
X936979Y315321D01*
X936943Y315194D01*
X936902Y315068D01*
X936858Y314943D01*
X936810Y314820D01*
X936759Y314698D01*
X936704Y314578D01*
X936645Y314460D01*
X936583Y314343D01*
X936517Y314228D01*
X936449Y314116D01*
X936376Y314005D01*
X936301Y313896D01*
X936222Y313790D01*
X936141Y313686D01*
X936056Y313585D01*
X935968Y313486D01*
X935877Y313390D01*
X935784Y313297D01*
X935688Y313206D01*
X935589Y313118D01*
X935488Y313033D01*
X935384Y312952D01*
X935278Y312873D01*
X935169Y312798D01*
X935058Y312725D01*
X934946Y312657D01*
X934831Y312591D01*
X934714Y312529D01*
X934596Y312470D01*
X934476Y312415D01*
X934354Y312364D01*
X934231Y312316D01*
X934106Y312272D01*
X933980Y312231D01*
X933853Y312195D01*
X933725Y312162D01*
X933596Y312133D01*
X933467Y312107D01*
X933336Y312086D01*
X933205Y312068D01*
X933074Y312055D01*
X932942Y312045D01*
X932810Y312039D01*
X932678Y312037D01*
X932546Y312039D01*
X932414Y312045D01*
X932282Y312055D01*
X932151Y312068D01*
X932020Y312086D01*
X931889Y312107D01*
X931760Y312133D01*
X931631Y312162D01*
X931503Y312195D01*
X931376Y312231D01*
X931250Y312272D01*
X931125Y312316D01*
X931002Y312364D01*
X930880Y312415D01*
X930760Y312470D01*
X930642Y312529D01*
X930525Y312591D01*
X930410Y312657D01*
X930298Y312725D01*
X930187Y312798D01*
X930078Y312873D01*
X929972Y312952D01*
X929868Y313033D01*
X929767Y313118D01*
X929668Y313206D01*
X929572Y313297D01*
X929479Y313390D01*
X929388Y313486D01*
X929300Y313585D01*
X929215Y313686D01*
X929134Y313790D01*
X929055Y313896D01*
X928980Y314005D01*
X928907Y314116D01*
X928839Y314228D01*
X928773Y314343D01*
X928711Y314460D01*
X928652Y314578D01*
X928597Y314698D01*
X928546Y314820D01*
X928498Y314943D01*
X928454Y315068D01*
X928413Y315194D01*
X928377Y315321D01*
X928344Y315449D01*
X928315Y315578D01*
X928289Y315707D01*
X928268Y315838D01*
X928250Y315969D01*
X928237Y316100D01*
X928227Y316232D01*
X928221Y316364D01*
X928219Y316496D01*
X945764Y308692D02*
X959141Y308692D01*
X966652Y310922D02*
X966657Y311317D01*
X966671Y311711D01*
X966694Y312105D01*
X966727Y312499D01*
X966770Y312891D01*
X966821Y313283D01*
X966882Y313673D01*
X966953Y314061D01*
X967032Y314448D01*
X967121Y314832D01*
X967219Y315215D01*
X967326Y315595D01*
X967442Y315972D01*
X967567Y316347D01*
X967701Y316718D01*
X967844Y317086D01*
X967995Y317450D01*
X968155Y317811D01*
X968324Y318168D01*
X968367Y318288D01*
X968414Y318407D01*
X968465Y318525D01*
X968519Y318640D01*
X968577Y318754D01*
X968639Y318867D01*
X968704Y318977D01*
X968772Y319085D01*
X968844Y319191D01*
X968918Y319295D01*
X968996Y319396D01*
X969078Y319495D01*
X969162Y319591D01*
X969249Y319685D01*
X969339Y319776D01*
X969431Y319864D01*
X969527Y319949D01*
X969625Y320032D01*
X969725Y320111D01*
X969828Y320187D01*
X969934Y320259D01*
X970041Y320329D01*
X970151Y320395D01*
X970262Y320458D01*
X970376Y320517D01*
X970491Y320572D01*
X970608Y320624D01*
X970726Y320673D01*
X970846Y320717D01*
X970967Y320758D01*
X971090Y320795D01*
X971213Y320829D01*
X971338Y320858D01*
X971463Y320884D01*
X971589Y320906D01*
X971716Y320923D01*
X971843Y320937D01*
X971970Y320947D01*
X972098Y320953D01*
X972226Y320955D01*
X972354Y320953D01*
X972482Y320947D01*
X972609Y320937D01*
X972736Y320923D01*
X972863Y320906D01*
X972989Y320884D01*
X973114Y320858D01*
X973239Y320829D01*
X973362Y320795D01*
X973485Y320758D01*
X973606Y320717D01*
X973726Y320673D01*
X973844Y320624D01*
X973961Y320572D01*
X974076Y320517D01*
X974190Y320458D01*
X974301Y320395D01*
X974411Y320329D01*
X974518Y320259D01*
X974624Y320187D01*
X974727Y320111D01*
X974827Y320032D01*
X974925Y319949D01*
X975021Y319864D01*
X975113Y319776D01*
X975203Y319685D01*
X975290Y319591D01*
X975374Y319495D01*
X975456Y319396D01*
X975534Y319295D01*
X975608Y319191D01*
X975680Y319085D01*
X975748Y318977D01*
X975813Y318867D01*
X975875Y318754D01*
X975933Y318640D01*
X975987Y318525D01*
X976038Y318407D01*
X976085Y318288D01*
X976128Y318168D01*
X976297Y317811D01*
X976457Y317450D01*
X976608Y317086D01*
X976751Y316718D01*
X976885Y316346D01*
X977010Y315972D01*
X977126Y315595D01*
X977233Y315215D01*
X977331Y314832D01*
X977420Y314448D01*
X977499Y314061D01*
X977570Y313673D01*
X977631Y313283D01*
X977682Y312891D01*
X977725Y312499D01*
X977758Y312105D01*
X977781Y311711D01*
X977795Y311317D01*
X977800Y310922D01*
X966653Y310922D02*
X966658Y310527D01*
X966672Y310133D01*
X966695Y309739D01*
X966728Y309345D01*
X966771Y308953D01*
X966822Y308561D01*
X966883Y308171D01*
X966954Y307783D01*
X967033Y307396D01*
X967122Y307012D01*
X967220Y306629D01*
X967327Y306249D01*
X967443Y305872D01*
X967568Y305498D01*
X967702Y305126D01*
X967845Y304758D01*
X967996Y304394D01*
X968156Y304033D01*
X968325Y303676D01*
X968324Y303676D02*
X968367Y303556D01*
X968414Y303437D01*
X968465Y303319D01*
X968519Y303204D01*
X968577Y303090D01*
X968639Y302977D01*
X968704Y302867D01*
X968772Y302759D01*
X968844Y302653D01*
X968918Y302549D01*
X968996Y302448D01*
X969078Y302349D01*
X969162Y302253D01*
X969249Y302159D01*
X969339Y302068D01*
X969431Y301980D01*
X969527Y301895D01*
X969625Y301812D01*
X969725Y301733D01*
X969828Y301657D01*
X969934Y301585D01*
X970041Y301515D01*
X970151Y301449D01*
X970262Y301386D01*
X970376Y301327D01*
X970491Y301272D01*
X970608Y301220D01*
X970726Y301171D01*
X970846Y301127D01*
X970967Y301086D01*
X971090Y301049D01*
X971213Y301015D01*
X971338Y300986D01*
X971463Y300960D01*
X971589Y300938D01*
X971716Y300921D01*
X971843Y300907D01*
X971970Y300897D01*
X972098Y300891D01*
X972226Y300889D01*
X976128Y303676D02*
X976297Y304033D01*
X976457Y304394D01*
X976608Y304758D01*
X976751Y305126D01*
X976885Y305498D01*
X977010Y305872D01*
X977126Y306249D01*
X977233Y306629D01*
X977331Y307012D01*
X977420Y307396D01*
X977499Y307783D01*
X977570Y308171D01*
X977631Y308561D01*
X977682Y308953D01*
X977725Y309345D01*
X977758Y309739D01*
X977781Y310133D01*
X977795Y310527D01*
X977800Y310922D01*
X976128Y303676D02*
X976085Y303556D01*
X976038Y303437D01*
X975987Y303319D01*
X975933Y303204D01*
X975875Y303090D01*
X975813Y302977D01*
X975748Y302867D01*
X975680Y302759D01*
X975608Y302653D01*
X975534Y302549D01*
X975456Y302448D01*
X975374Y302349D01*
X975290Y302253D01*
X975203Y302159D01*
X975113Y302068D01*
X975021Y301980D01*
X974925Y301895D01*
X974827Y301812D01*
X974727Y301733D01*
X974624Y301657D01*
X974518Y301585D01*
X974411Y301515D01*
X974301Y301449D01*
X974190Y301386D01*
X974076Y301327D01*
X973961Y301272D01*
X973844Y301220D01*
X973726Y301171D01*
X973606Y301127D01*
X973485Y301086D01*
X973362Y301049D01*
X973239Y301015D01*
X973114Y300986D01*
X972989Y300960D01*
X972863Y300938D01*
X972736Y300921D01*
X972609Y300907D01*
X972482Y300897D01*
X972354Y300891D01*
X972226Y300889D01*
X967767Y305348D02*
X976686Y316496D01*
X985191Y300889D02*
X990765Y300889D01*
X990913Y300891D01*
X991062Y300897D01*
X991210Y300907D01*
X991357Y300921D01*
X991505Y300938D01*
X991652Y300960D01*
X991798Y300986D01*
X991943Y301015D01*
X992088Y301048D01*
X992232Y301085D01*
X992374Y301126D01*
X992516Y301171D01*
X992656Y301220D01*
X992795Y301272D01*
X992932Y301328D01*
X993068Y301387D01*
X993203Y301450D01*
X993335Y301517D01*
X993466Y301587D01*
X993595Y301661D01*
X993722Y301738D01*
X993846Y301818D01*
X993969Y301902D01*
X994089Y301989D01*
X994207Y302079D01*
X994323Y302172D01*
X994436Y302268D01*
X994546Y302367D01*
X994654Y302469D01*
X994759Y302574D01*
X994861Y302682D01*
X994960Y302792D01*
X995056Y302905D01*
X995149Y303021D01*
X995239Y303139D01*
X995326Y303259D01*
X995410Y303382D01*
X995490Y303506D01*
X995567Y303633D01*
X995641Y303762D01*
X995711Y303893D01*
X995778Y304025D01*
X995841Y304160D01*
X995900Y304296D01*
X995956Y304433D01*
X996008Y304572D01*
X996057Y304712D01*
X996102Y304854D01*
X996143Y304996D01*
X996180Y305140D01*
X996213Y305285D01*
X996242Y305430D01*
X996268Y305576D01*
X996290Y305723D01*
X996307Y305871D01*
X996321Y306018D01*
X996331Y306166D01*
X996337Y306315D01*
X996339Y306463D01*
X996337Y306611D01*
X996331Y306760D01*
X996321Y306908D01*
X996307Y307055D01*
X996290Y307203D01*
X996268Y307350D01*
X996242Y307496D01*
X996213Y307641D01*
X996180Y307786D01*
X996143Y307930D01*
X996102Y308072D01*
X996057Y308214D01*
X996008Y308354D01*
X995956Y308493D01*
X995900Y308630D01*
X995841Y308766D01*
X995778Y308901D01*
X995711Y309033D01*
X995641Y309164D01*
X995567Y309293D01*
X995490Y309420D01*
X995410Y309544D01*
X995326Y309667D01*
X995239Y309787D01*
X995149Y309905D01*
X995056Y310021D01*
X994960Y310134D01*
X994861Y310244D01*
X994759Y310352D01*
X994654Y310457D01*
X994546Y310559D01*
X994436Y310658D01*
X994323Y310754D01*
X994207Y310847D01*
X994089Y310937D01*
X993969Y311024D01*
X993846Y311108D01*
X993722Y311188D01*
X993595Y311265D01*
X993466Y311339D01*
X993335Y311409D01*
X993203Y311476D01*
X993068Y311539D01*
X992932Y311598D01*
X992795Y311654D01*
X992656Y311706D01*
X992516Y311755D01*
X992374Y311800D01*
X992232Y311841D01*
X992088Y311878D01*
X991943Y311911D01*
X991798Y311940D01*
X991652Y311966D01*
X991505Y311988D01*
X991357Y312005D01*
X991210Y312019D01*
X991062Y312029D01*
X990913Y312035D01*
X990765Y312037D01*
X991880Y320955D02*
X985191Y320955D01*
X991880Y320955D02*
X992012Y320953D01*
X992144Y320947D01*
X992276Y320937D01*
X992407Y320924D01*
X992538Y320906D01*
X992669Y320885D01*
X992798Y320859D01*
X992927Y320830D01*
X993055Y320797D01*
X993182Y320761D01*
X993308Y320720D01*
X993433Y320676D01*
X993556Y320628D01*
X993678Y320577D01*
X993798Y320522D01*
X993916Y320463D01*
X994033Y320401D01*
X994148Y320335D01*
X994260Y320267D01*
X994371Y320194D01*
X994480Y320119D01*
X994586Y320040D01*
X994690Y319959D01*
X994791Y319874D01*
X994890Y319786D01*
X994986Y319695D01*
X995079Y319602D01*
X995170Y319506D01*
X995258Y319407D01*
X995343Y319306D01*
X995424Y319202D01*
X995503Y319096D01*
X995578Y318987D01*
X995651Y318876D01*
X995719Y318764D01*
X995785Y318649D01*
X995847Y318532D01*
X995906Y318414D01*
X995961Y318294D01*
X996012Y318172D01*
X996060Y318049D01*
X996104Y317924D01*
X996145Y317798D01*
X996181Y317671D01*
X996214Y317543D01*
X996243Y317414D01*
X996269Y317285D01*
X996290Y317154D01*
X996308Y317023D01*
X996321Y316892D01*
X996331Y316760D01*
X996337Y316628D01*
X996339Y316496D01*
X996337Y316364D01*
X996331Y316232D01*
X996321Y316100D01*
X996308Y315969D01*
X996290Y315838D01*
X996269Y315707D01*
X996243Y315578D01*
X996214Y315449D01*
X996181Y315321D01*
X996145Y315194D01*
X996104Y315068D01*
X996060Y314943D01*
X996012Y314820D01*
X995961Y314698D01*
X995906Y314578D01*
X995847Y314460D01*
X995785Y314343D01*
X995719Y314228D01*
X995651Y314116D01*
X995578Y314005D01*
X995503Y313896D01*
X995424Y313790D01*
X995343Y313686D01*
X995258Y313585D01*
X995170Y313486D01*
X995079Y313390D01*
X994986Y313297D01*
X994890Y313206D01*
X994791Y313118D01*
X994690Y313033D01*
X994586Y312952D01*
X994480Y312873D01*
X994371Y312798D01*
X994260Y312725D01*
X994148Y312657D01*
X994033Y312591D01*
X993916Y312529D01*
X993798Y312470D01*
X993678Y312415D01*
X993556Y312364D01*
X993433Y312316D01*
X993308Y312272D01*
X993182Y312231D01*
X993055Y312195D01*
X992927Y312162D01*
X992798Y312133D01*
X992669Y312107D01*
X992538Y312086D01*
X992407Y312068D01*
X992276Y312055D01*
X992144Y312045D01*
X992012Y312039D01*
X991880Y312037D01*
X987420Y312037D01*
D11*
X652615Y295176D02*
X640762Y295176D01*
X646689Y289250D02*
X646689Y301103D01*
X668679Y295176D02*
X680533Y295176D01*
D12*
X248400Y921000D03*
X248400Y889000D03*
X296400Y889000D03*
X296400Y921000D03*
X168000Y956000D03*
X168000Y924000D03*
X216000Y924000D03*
X216000Y956000D03*
D13*
X337400Y399390D03*
X337400Y381610D03*
X364900Y400190D03*
X364900Y382410D03*
D14*
X238490Y310100D03*
X220710Y310100D03*
D15*
X303480Y352150D03*
X303480Y339450D03*
X303480Y326750D03*
X303480Y314050D03*
X357720Y314050D03*
X357720Y326750D03*
X357720Y339450D03*
X357720Y352150D03*
D16*
X600200Y316800D03*
D17*
X574800Y316800D03*
X549400Y316800D03*
X524000Y316800D03*
X498600Y316800D03*
X473200Y316800D03*
X447800Y316800D03*
X422400Y316800D03*
D18*
X259700Y347900D03*
X259700Y329900D03*
D19*
X168561Y336800D03*
X233839Y336800D03*
D12*
X91000Y941000D03*
X91000Y909000D03*
X139000Y909000D03*
X139000Y941000D03*
X70200Y876000D03*
X70200Y844000D03*
X118200Y844000D03*
X118200Y876000D03*
X75200Y806000D03*
X75200Y774000D03*
X123200Y774000D03*
X123200Y806000D03*
X110200Y741000D03*
X110200Y709000D03*
X158200Y709000D03*
X158200Y741000D03*
X244800Y709000D03*
X244800Y741000D03*
X196800Y741000D03*
X196800Y709000D03*
X301600Y769000D03*
X301600Y801000D03*
X253600Y801000D03*
X253600Y769000D03*
X409800Y707900D03*
X409800Y739900D03*
X361800Y739900D03*
X361800Y707900D03*
X409800Y775800D03*
X409800Y807800D03*
X361800Y807800D03*
X361800Y775800D03*
X409800Y846500D03*
X409800Y878500D03*
X361800Y878500D03*
X361800Y846500D03*
X409800Y912200D03*
X409800Y944200D03*
X361800Y944200D03*
X361800Y912200D03*
G36*
X446427Y854142D02*
X451045Y841457D01*
X442119Y838208D01*
X437501Y850893D01*
X446427Y854142D01*
G37*
G36*
X476498Y865087D02*
X481116Y852402D01*
X472190Y849153D01*
X467572Y861838D01*
X476498Y865087D01*
G37*
G36*
X460081Y910192D02*
X464699Y897507D01*
X455773Y894258D01*
X451155Y906943D01*
X460081Y910192D01*
G37*
G36*
X430010Y899247D02*
X434628Y886562D01*
X425702Y883313D01*
X421084Y895998D01*
X430010Y899247D01*
G37*
G36*
X474527Y779542D02*
X479145Y766857D01*
X470219Y763608D01*
X465601Y776293D01*
X474527Y779542D01*
G37*
G36*
X504598Y790487D02*
X509216Y777802D01*
X500290Y774553D01*
X495672Y787238D01*
X504598Y790487D01*
G37*
G36*
X488181Y835592D02*
X492799Y822907D01*
X483873Y819658D01*
X479255Y832343D01*
X488181Y835592D01*
G37*
G36*
X458110Y824647D02*
X462728Y811962D01*
X453802Y808713D01*
X449184Y821398D01*
X458110Y824647D01*
G37*
X486800Y745700D03*
X486800Y713700D03*
X534800Y713700D03*
X534800Y745700D03*
G36*
X565672Y811962D02*
X570290Y824647D01*
X579216Y821398D01*
X574598Y808713D01*
X565672Y811962D01*
G37*
G36*
X535601Y822907D02*
X540219Y835592D01*
X549145Y832343D01*
X544527Y819658D01*
X535601Y822907D01*
G37*
G36*
X519184Y777802D02*
X523802Y790487D01*
X532728Y787238D01*
X528110Y774553D01*
X519184Y777802D01*
G37*
G36*
X549255Y766857D02*
X553873Y779542D01*
X562799Y776293D01*
X558181Y763608D01*
X549255Y766857D01*
G37*
G36*
X590672Y886562D02*
X595290Y899247D01*
X604216Y895998D01*
X599598Y883313D01*
X590672Y886562D01*
G37*
G36*
X560601Y897507D02*
X565219Y910192D01*
X574145Y906943D01*
X569527Y894258D01*
X560601Y897507D01*
G37*
G36*
X544184Y852402D02*
X548802Y865087D01*
X557728Y861838D01*
X553110Y849153D01*
X544184Y852402D01*
G37*
G36*
X574255Y841457D02*
X578873Y854142D01*
X587799Y850893D01*
X583181Y838208D01*
X574255Y841457D01*
G37*
X669800Y911600D03*
X669800Y943600D03*
X621800Y943600D03*
X621800Y911600D03*
X621800Y878500D03*
X621800Y846500D03*
X669800Y846500D03*
X669800Y878500D03*
X621800Y807800D03*
X621800Y775800D03*
X669800Y775800D03*
X669800Y807800D03*
X669800Y710100D03*
X669800Y742100D03*
X621800Y742100D03*
X621800Y710100D03*
X808200Y709500D03*
X808200Y741500D03*
X760200Y741500D03*
X760200Y709500D03*
X808200Y779500D03*
X808200Y811500D03*
X760200Y811500D03*
X760200Y779500D03*
X808200Y843000D03*
X808200Y875000D03*
X760200Y875000D03*
X760200Y843000D03*
X808200Y908000D03*
X808200Y940000D03*
X760200Y940000D03*
X760200Y908000D03*
X891400Y900000D03*
X891400Y932000D03*
X843400Y932000D03*
X843400Y900000D03*
X905200Y873500D03*
X905200Y841500D03*
X953200Y841500D03*
X953200Y873500D03*
X905200Y803500D03*
X905200Y771500D03*
X953200Y771500D03*
X953200Y803500D03*
X843400Y748500D03*
X843400Y716500D03*
X891400Y716500D03*
X891400Y748500D03*
X223600Y596000D03*
X223600Y564000D03*
X271600Y564000D03*
X271600Y596000D03*
X149000Y646000D03*
X149000Y614000D03*
X197000Y614000D03*
X197000Y646000D03*
X71000Y621000D03*
X71000Y589000D03*
X119000Y589000D03*
X119000Y621000D03*
X50200Y551000D03*
X50200Y519000D03*
X98200Y519000D03*
X98200Y551000D03*
X51800Y476000D03*
X51800Y444000D03*
X99800Y444000D03*
X99800Y476000D03*
X90200Y406000D03*
X90200Y374000D03*
X138200Y374000D03*
X138200Y406000D03*
X224800Y374000D03*
X224800Y406000D03*
X176800Y406000D03*
X176800Y374000D03*
X276600Y439000D03*
X276600Y471000D03*
X228600Y471000D03*
X228600Y439000D03*
X388200Y430900D03*
X388200Y462900D03*
X340200Y462900D03*
X340200Y430900D03*
X371400Y494700D03*
X371400Y526700D03*
X323400Y526700D03*
X323400Y494700D03*
X388200Y562400D03*
X388200Y594400D03*
X340200Y594400D03*
X340200Y562400D03*
X458200Y614000D03*
X458200Y646000D03*
X410200Y646000D03*
X410200Y614000D03*
X481800Y594400D03*
X481800Y562400D03*
X529800Y562400D03*
X529800Y594400D03*
X498400Y526700D03*
X498400Y494700D03*
X546400Y494700D03*
X546400Y526700D03*
X481800Y462900D03*
X481800Y430900D03*
X529800Y430900D03*
X529800Y462900D03*
X410200Y406000D03*
X410200Y374000D03*
X458200Y374000D03*
X458200Y406000D03*
X638200Y374000D03*
X638200Y406000D03*
X590200Y406000D03*
X590200Y374000D03*
X638200Y454000D03*
X638200Y486000D03*
X590200Y486000D03*
X590200Y454000D03*
X638200Y534000D03*
X638200Y566000D03*
X590200Y566000D03*
X590200Y534000D03*
X638200Y614000D03*
X638200Y646000D03*
X590200Y646000D03*
X590200Y614000D03*
X724800Y599000D03*
X724800Y631000D03*
X676800Y631000D03*
X676800Y599000D03*
X746000Y567300D03*
X746000Y535300D03*
X794000Y535300D03*
X794000Y567300D03*
X746000Y487300D03*
X746000Y455300D03*
X794000Y455300D03*
X794000Y487300D03*
X676800Y426000D03*
X676800Y394000D03*
X724800Y394000D03*
X724800Y426000D03*
X889800Y374000D03*
X889800Y406000D03*
X841800Y406000D03*
X841800Y374000D03*
X891400Y454000D03*
X891400Y486000D03*
X843400Y486000D03*
X843400Y454000D03*
X893000Y534000D03*
X893000Y566000D03*
X845000Y566000D03*
X845000Y534000D03*
X893200Y614000D03*
X893200Y646000D03*
X845200Y646000D03*
X845200Y614000D03*
X969800Y614000D03*
X969800Y646000D03*
X921800Y646000D03*
X921800Y614000D03*
X923600Y526700D03*
X923600Y494700D03*
X971600Y494700D03*
X971600Y526700D03*
X925000Y406000D03*
X925000Y374000D03*
X973000Y374000D03*
X973000Y406000D03*
D17*
X646300Y318000D03*
X671700Y318000D03*
D14*
X266390Y945000D03*
X248610Y945000D03*
D13*
X210000Y898890D03*
X210000Y881110D03*
D14*
X68890Y900000D03*
X51110Y900000D03*
X161110Y885000D03*
X178890Y885000D03*
D13*
X50000Y808890D03*
X50000Y791110D03*
X85000Y738890D03*
X85000Y721110D03*
X270000Y706110D03*
X270000Y723890D03*
X300000Y743890D03*
X300000Y726110D03*
X432500Y711110D03*
X432500Y728890D03*
X435000Y776110D03*
X435000Y793890D03*
X335000Y861110D03*
X335000Y878890D03*
X335000Y931110D03*
X335000Y948890D03*
D14*
G36*
X493084Y909698D02*
X497080Y898720D01*
X482998Y893594D01*
X479002Y904572D01*
X493084Y909698D01*
G37*
G36*
X487002Y926406D02*
X490998Y915428D01*
X476916Y910302D01*
X472920Y921280D01*
X487002Y926406D01*
G37*
D13*
X457500Y738890D03*
X457500Y721110D03*
D14*
X468890Y685000D03*
X451110Y685000D03*
G36*
X576502Y780428D02*
X580498Y791406D01*
X594580Y786280D01*
X590584Y775302D01*
X576502Y780428D01*
G37*
G36*
X570420Y763720D02*
X574416Y774698D01*
X588498Y769572D01*
X584502Y758594D01*
X570420Y763720D01*
G37*
G36*
X594002Y822928D02*
X597998Y833906D01*
X612080Y828780D01*
X608084Y817802D01*
X594002Y822928D01*
G37*
G36*
X587920Y806220D02*
X591916Y817198D01*
X605998Y812072D01*
X602002Y801094D01*
X587920Y806220D01*
G37*
D13*
X692500Y908890D03*
X692500Y891110D03*
X692500Y861390D03*
X692500Y843610D03*
X692500Y808890D03*
X692500Y791110D03*
X692500Y718610D03*
X692500Y736390D03*
D14*
X808890Y685000D03*
X791110Y685000D03*
D13*
X830000Y783610D03*
X830000Y801390D03*
X832500Y843610D03*
X832500Y861390D03*
X857500Y868890D03*
X857500Y851110D03*
X915000Y918610D03*
X915000Y936390D03*
D14*
X938610Y897500D03*
X956390Y897500D03*
D13*
X875000Y806110D03*
X875000Y823890D03*
D14*
X861110Y772500D03*
X878890Y772500D03*
X236110Y620000D03*
X253890Y620000D03*
X123890Y650000D03*
X106110Y650000D03*
D13*
X45000Y616390D03*
X45000Y598610D03*
X140000Y553890D03*
X140000Y536110D03*
X140000Y496390D03*
X140000Y478610D03*
X70000Y403890D03*
X70000Y386110D03*
X247500Y378610D03*
X247500Y396390D03*
X297500Y443610D03*
X297500Y461390D03*
X410000Y438610D03*
X410000Y456390D03*
X395000Y496110D03*
X395000Y513890D03*
X410000Y563610D03*
X410000Y581390D03*
X480000Y628610D03*
X480000Y646390D03*
D14*
X503610Y617500D03*
X521390Y617500D03*
D13*
X477500Y523890D03*
X477500Y506110D03*
X460000Y461390D03*
X460000Y443610D03*
X435000Y438610D03*
X435000Y456390D03*
X567500Y391110D03*
X567500Y408890D03*
X660000Y456110D03*
X660000Y473890D03*
X660000Y541110D03*
X660000Y558890D03*
D14*
X638890Y590000D03*
X621110Y590000D03*
D13*
X747500Y601110D03*
X747500Y618890D03*
X725000Y563890D03*
X725000Y546110D03*
X725000Y493890D03*
X725000Y476110D03*
D14*
X688610Y450000D03*
X706390Y450000D03*
X901110Y350000D03*
X918890Y350000D03*
D13*
X912500Y451110D03*
X912500Y468890D03*
D14*
X893890Y510000D03*
X876110Y510000D03*
X888890Y590000D03*
X871110Y590000D03*
X951110Y585000D03*
X968890Y585000D03*
X931110Y550000D03*
X948890Y550000D03*
X941110Y430000D03*
X958890Y430000D03*
D20*
X430000Y690000D03*
D21*
X266390Y919010D02*
X266390Y945000D01*
X266390Y919010D02*
X296400Y889000D01*
X123200Y774000D02*
X118200Y779000D01*
X133760Y799672D02*
X133760Y812328D01*
X118200Y827888D02*
X118200Y844000D01*
X118200Y784112D02*
X118200Y779000D01*
X133760Y812328D02*
X118200Y827888D01*
X133760Y799672D02*
X118200Y784112D01*
X146090Y721110D02*
X85000Y721110D01*
X146090Y721110D02*
X158200Y709000D01*
X168760Y734672D02*
X168760Y747328D01*
X166528Y749560D01*
X158200Y724112D02*
X158200Y709000D01*
X147640Y749560D02*
X123200Y774000D01*
X168760Y734672D02*
X158200Y724112D01*
X166528Y749560D02*
X147640Y749560D01*
X158200Y709000D02*
X164800Y709000D01*
X196800Y741000D01*
X50000Y790167D02*
X50000Y791110D01*
X50000Y790167D02*
X50000Y710000D01*
X270000Y723890D02*
X270000Y784600D01*
X253600Y801000D01*
X272220Y726110D02*
X300000Y726110D01*
X272220Y726110D02*
X270000Y723890D01*
X293272Y809560D02*
X309928Y809560D01*
X345080Y756620D02*
X361800Y739900D01*
X284712Y801000D02*
X253600Y801000D01*
X284712Y801000D02*
X293272Y809560D01*
X309928Y809560D02*
X345080Y774408D01*
X345080Y756620D01*
X345080Y774408D02*
X345080Y791080D01*
X361800Y807800D01*
X335000Y878890D02*
X324890Y889000D01*
X296400Y889000D01*
X351240Y905872D02*
X351240Y918528D01*
X361800Y895312D02*
X361800Y878500D01*
X361800Y929088D02*
X361800Y940000D01*
X361800Y944200D01*
X351240Y905872D02*
X361800Y895312D01*
X351240Y918528D02*
X361800Y929088D01*
X352910Y948890D02*
X335000Y948890D01*
X352910Y948890D02*
X361800Y940000D01*
X457927Y902225D02*
X474056Y918354D01*
X481959Y918354D01*
X486027Y844301D02*
X486027Y827625D01*
X486495Y913819D02*
X494790Y913819D01*
X501200Y907409D01*
X501200Y859474D01*
X500863Y859137D01*
X486027Y844301D01*
X486495Y913819D02*
X481959Y918354D01*
X444071Y785762D02*
X446303Y783530D01*
X443128Y785762D02*
X435000Y793890D01*
X443128Y785762D02*
X444071Y785762D01*
X446303Y754232D02*
X435080Y743009D01*
X435080Y731470D01*
X446303Y754232D02*
X446303Y783530D01*
X435080Y731470D02*
X432500Y728890D01*
X449720Y728890D01*
X457500Y721110D01*
X457500Y691390D01*
X451110Y685000D01*
X435000Y685000D01*
X430000Y690000D01*
X525956Y787695D02*
X486027Y827625D01*
X525956Y787695D02*
X525956Y782520D01*
X548939Y859137D02*
X500863Y859137D01*
X548939Y859137D02*
X550956Y857120D01*
X594880Y916680D02*
X621800Y943600D01*
X565880Y916680D02*
X550956Y901757D01*
X565880Y916680D02*
X594880Y916680D01*
X550956Y901757D02*
X550956Y857120D01*
X613472Y855060D02*
X630128Y855060D01*
X613472Y855060D02*
X611240Y852828D01*
X611240Y840172D01*
X601495Y813681D02*
X596959Y809146D01*
X601495Y813681D02*
X609790Y813681D01*
X619613Y831799D02*
X611240Y840172D01*
X638688Y846500D02*
X669800Y846500D01*
X638688Y846500D02*
X630128Y855060D01*
X619613Y831799D02*
X619613Y823504D01*
X609790Y813681D01*
X600000Y809146D02*
X596959Y809146D01*
X579459Y758359D02*
X534800Y713700D01*
X579459Y758359D02*
X579459Y766646D01*
X604006Y742100D01*
X621800Y742100D01*
X583995Y771181D02*
X579459Y766646D01*
X583995Y771181D02*
X592290Y771181D01*
X600000Y778891D01*
X600000Y809146D01*
X669800Y775800D02*
X685110Y791110D01*
X692500Y791110D01*
X701571Y799238D02*
X703803Y801470D01*
X692500Y832071D02*
X692500Y842667D01*
X692500Y843610D01*
X700628Y799238D02*
X692500Y791110D01*
X700628Y799238D02*
X701571Y799238D01*
X703803Y801470D02*
X703803Y820768D01*
X692500Y832071D01*
X669800Y775800D02*
X692500Y753100D01*
X692500Y736390D01*
X755090Y736390D01*
X760200Y741500D01*
X621800Y742100D02*
X621800Y732396D01*
X611240Y721836D02*
X611240Y703772D01*
X611240Y721836D02*
X621800Y732396D01*
X611240Y703772D02*
X630012Y685000D01*
X791110Y685000D01*
X749640Y773172D02*
X749640Y785828D01*
X760200Y762612D02*
X760200Y741500D01*
X760200Y796388D02*
X760200Y811500D01*
X749640Y773172D02*
X760200Y762612D01*
X749640Y785828D02*
X760200Y796388D01*
X760200Y811500D02*
X791312Y811500D01*
X749640Y836672D02*
X749640Y849328D01*
X760200Y826112D02*
X760200Y811500D01*
X760200Y859888D02*
X760200Y875000D01*
X749640Y836672D02*
X760200Y826112D01*
X749640Y849328D02*
X760200Y859888D01*
X749640Y901672D02*
X749640Y914328D01*
X760200Y891112D02*
X760200Y875000D01*
X760200Y924888D02*
X760200Y940000D01*
X749640Y901672D02*
X760200Y891112D01*
X749640Y914328D02*
X760200Y924888D01*
X760200Y940000D02*
X791312Y940000D01*
X799872Y948560D01*
X826840Y948560D01*
X843400Y932000D01*
X912000Y932000D02*
X916390Y936390D01*
X901832Y945640D02*
X880968Y945640D01*
X901832Y945640D02*
X907040Y940432D01*
X867328Y932000D02*
X843400Y932000D01*
X907040Y936960D02*
X907040Y940432D01*
X907040Y936960D02*
X912000Y932000D01*
X880968Y945640D02*
X867328Y932000D01*
X915000Y936390D02*
X916390Y936390D01*
X953890Y897500D02*
X956390Y897500D01*
X923128Y928262D02*
X915000Y936390D01*
X948262Y906571D02*
X948262Y903128D01*
X953890Y897500D01*
X926571Y928262D02*
X923128Y928262D01*
X926571Y928262D02*
X948262Y906571D01*
X963272Y897500D02*
X973840Y886932D01*
X973840Y854640D01*
X960700Y841500D01*
X953200Y771500D02*
X898200Y716500D01*
X891400Y716500D01*
X878890Y729010D01*
X878890Y772500D01*
X875000Y823890D02*
X857500Y841390D01*
X857500Y851110D01*
X891400Y716500D02*
X900000Y707900D01*
X900000Y667800D02*
X921800Y646000D01*
X900000Y670000D02*
X900000Y707900D01*
X900000Y670000D02*
X900000Y667800D01*
X900000Y670000D02*
X869200Y670000D01*
X845200Y646000D01*
X968890Y598910D02*
X968890Y585000D01*
X980360Y620328D02*
X978128Y622560D01*
X980360Y620328D02*
X980360Y607672D01*
X978128Y605440D01*
X945240Y622560D02*
X921800Y646000D01*
X975420Y605440D02*
X978128Y605440D01*
X975420Y605440D02*
X968890Y598910D01*
X978128Y622560D02*
X945240Y622560D01*
X968890Y585000D02*
X968890Y570000D01*
X948890Y550000D01*
X948890Y517410D01*
X971600Y494700D01*
X971600Y375400D02*
X973000Y374000D01*
X976600Y458884D02*
X976600Y489700D01*
X971600Y380212D02*
X971600Y375400D01*
X971600Y380212D02*
X986060Y394672D01*
X986060Y449424D02*
X976600Y458884D01*
X986060Y449424D02*
X986060Y394672D01*
X973000Y379112D02*
X973000Y374000D01*
X973000Y379112D02*
X959940Y392172D01*
X959940Y428950D02*
X958890Y430000D01*
X959940Y428950D02*
X959940Y392172D01*
X973000Y374000D02*
X949000Y350000D01*
X918890Y350000D01*
X923803Y443690D02*
X923803Y458530D01*
X921571Y460762D01*
X918890Y360722D02*
X918890Y350000D01*
X920628Y460762D02*
X921571Y460762D01*
X911940Y367672D02*
X918890Y360722D01*
X911940Y367672D02*
X911940Y431827D01*
X923803Y443690D01*
X920628Y460762D02*
X912500Y468890D01*
X841800Y406000D02*
X794000Y453800D01*
X794000Y455300D01*
X824700Y486000D01*
X843400Y486000D01*
X829440Y537828D02*
X836672Y545060D01*
X858328Y545060D01*
X863060Y540328D01*
X842110Y505593D02*
X842110Y487290D01*
X863060Y523050D02*
X863060Y540328D01*
X863060Y523050D02*
X876110Y510000D01*
X842110Y505593D02*
X829440Y518263D01*
X829440Y537828D01*
X845000Y565000D02*
X845000Y566000D01*
X845000Y558388D02*
X858328Y545060D01*
X820300Y540300D02*
X799000Y540300D01*
X820300Y540300D02*
X845000Y565000D01*
X871110Y590000D02*
X871110Y620090D01*
X845200Y646000D01*
X840200Y590003D02*
X840200Y570800D01*
X837700Y630888D02*
X837700Y638500D01*
X837700Y630888D02*
X829640Y622828D01*
X829640Y600563D01*
X840200Y590003D01*
X845200Y646000D02*
X691800Y646000D01*
X676800Y631000D01*
X707912Y631000D01*
X716472Y622440D01*
X743950Y622440D02*
X747500Y618890D01*
X743950Y622440D02*
X716472Y622440D01*
X725000Y546110D02*
X783190Y546110D01*
X794000Y535300D01*
X621312Y646000D02*
X590200Y646000D01*
X621312Y646000D02*
X629872Y654560D01*
X653240Y654560D01*
X676800Y631000D01*
X621110Y615090D02*
X590200Y646000D01*
X621110Y615090D02*
X621110Y590000D01*
X579640Y607672D02*
X579640Y620328D01*
X590200Y630888D02*
X590200Y646000D01*
X590200Y597112D02*
X590200Y566000D01*
X579640Y620328D02*
X590200Y630888D01*
X579640Y607672D02*
X590200Y597112D01*
X646528Y557440D02*
X647978Y558890D01*
X660000Y558890D01*
X598760Y557440D02*
X590200Y566000D01*
X598760Y557440D02*
X646528Y557440D01*
X579640Y540328D02*
X579640Y527672D01*
X590200Y550888D02*
X590200Y566000D01*
X590200Y517112D02*
X590200Y486000D01*
X579640Y540328D02*
X590200Y550888D01*
X579640Y527672D02*
X590200Y517112D01*
X649404Y473890D02*
X660000Y473890D01*
X649404Y473890D02*
X648214Y475080D01*
X601120Y475080D02*
X590200Y486000D01*
X601120Y475080D02*
X648214Y475080D01*
X706390Y457500D02*
X706390Y450000D01*
X706390Y457500D02*
X725000Y476110D01*
X706390Y450000D02*
X706390Y412410D01*
X724800Y394000D01*
X784600Y453800D01*
X794000Y453800D01*
X613640Y382560D02*
X590200Y406000D01*
X613640Y382560D02*
X646528Y382560D01*
X671700Y357388D01*
X671700Y320000D01*
X671700Y318000D01*
X567500Y408890D02*
X545490Y430900D01*
X530000Y430900D01*
X529800Y430900D01*
X464150Y439460D02*
X460000Y443610D01*
X498688Y430900D02*
X529800Y430900D01*
X490128Y439460D02*
X464150Y439460D01*
X490128Y439460D02*
X498688Y430900D01*
X529800Y430900D02*
X546400Y447500D01*
X546400Y490000D01*
X546400Y494700D01*
X586200Y490000D02*
X590200Y486000D01*
X586200Y490000D02*
X546400Y490000D01*
X546400Y494700D02*
X546400Y509812D01*
X556960Y520372D01*
X556960Y535240D01*
X529800Y562400D01*
X519240Y588072D02*
X519240Y600728D01*
X529800Y577512D02*
X529800Y562400D01*
X529800Y577512D02*
X519240Y588072D01*
X519240Y600728D02*
X521390Y602878D01*
X521390Y617500D01*
X513262Y625628D01*
X513262Y626571D01*
X493443Y646390D01*
X480000Y646390D01*
X410590Y646390D02*
X410200Y646000D01*
X449872Y637440D02*
X466528Y637440D01*
X475478Y646390D02*
X480000Y646390D01*
X440922Y646390D02*
X410590Y646390D01*
X466528Y637440D02*
X475478Y646390D01*
X449872Y637440D02*
X440922Y646390D01*
X410200Y646000D02*
X410200Y630888D01*
X420760Y620328D01*
X420760Y592150D01*
X410000Y581390D01*
X358600Y594400D02*
X410200Y646000D01*
X358600Y594400D02*
X340200Y594400D01*
X253890Y581710D02*
X253890Y620000D01*
X253890Y581710D02*
X271600Y564000D01*
X308900Y526700D02*
X323400Y526700D01*
X308900Y526700D02*
X271600Y564000D01*
X231928Y555440D02*
X215272Y555440D01*
X207960Y603040D02*
X197000Y614000D01*
X207960Y562752D02*
X215272Y555440D01*
X207960Y562752D02*
X207960Y603040D01*
X240488Y564000D02*
X231928Y555440D01*
X240488Y564000D02*
X271600Y564000D01*
X135440Y605440D02*
X119000Y589000D01*
X165888Y614000D02*
X197000Y614000D01*
X157328Y605440D02*
X135440Y605440D01*
X157328Y605440D02*
X165888Y614000D01*
X99800Y444000D02*
X103280Y440520D01*
X155088Y406000D02*
X176800Y406000D01*
X120568Y440520D02*
X103280Y440520D01*
X120568Y440520D02*
X155088Y406000D01*
X176800Y406000D02*
X214240Y406000D01*
X214240Y395080D01*
X176800Y406000D02*
X228600Y457800D01*
X228600Y471000D01*
X238210Y461390D01*
X297500Y461390D01*
X312840Y488372D02*
X312840Y501028D01*
X312840Y488372D02*
X315072Y486140D01*
X323400Y511588D02*
X323400Y526700D01*
X316960Y486140D02*
X315072Y486140D01*
X312840Y501028D02*
X323400Y511588D01*
X316960Y486140D02*
X340200Y462900D01*
X336210Y513890D02*
X395000Y513890D01*
X336210Y513890D02*
X323400Y526700D01*
X492360Y469228D02*
X492360Y456572D01*
X468128Y451738D02*
X460000Y443610D01*
X477500Y484088D02*
X477500Y506110D01*
X477500Y484088D02*
X492360Y469228D01*
X492360Y456572D02*
X487526Y451738D01*
X468128Y451738D01*
X458200Y374000D02*
X469430Y362770D01*
X615209Y362770D01*
X364900Y400190D02*
X364100Y399390D01*
X337400Y399390D01*
X398760Y467630D02*
X410000Y456390D01*
X398760Y467630D02*
X398760Y469228D01*
X363072Y486140D02*
X360840Y488372D01*
X360840Y501028D01*
X386872Y505762D02*
X395000Y513890D01*
X381848Y486140D02*
X398760Y469228D01*
X381848Y486140D02*
X363072Y486140D01*
X360840Y501028D02*
X365574Y505762D01*
X386872Y505762D01*
X703803Y853970D02*
X703803Y868810D01*
X703803Y853970D02*
X692500Y842667D01*
X692500Y880113D02*
X692500Y891110D01*
X692500Y880113D02*
X703803Y868810D01*
X246190Y395080D02*
X214240Y395080D01*
X246190Y395080D02*
X247500Y396390D01*
X801422Y801390D02*
X830000Y801390D01*
X801422Y801390D02*
X791312Y811500D01*
D20*
X850000Y822500D03*
D21*
X857500Y830000D02*
X857500Y851110D01*
X857500Y830000D02*
X850000Y822500D01*
D20*
X787500Y857500D03*
D21*
X770000Y875000D02*
X760200Y875000D01*
X770000Y875000D02*
X787500Y857500D01*
X828610Y857500D01*
X832500Y861390D01*
D20*
X535000Y405000D03*
D21*
X535000Y425900D01*
X530000Y430900D01*
X138200Y374000D02*
X128496Y374000D01*
X81872Y365440D02*
X79640Y367672D01*
X79640Y376470D01*
X70000Y386110D01*
X119936Y365440D02*
X128496Y374000D01*
X119936Y365440D02*
X81872Y365440D01*
D20*
X112500Y390000D03*
D21*
X73890Y390000D02*
X70000Y386110D01*
X73890Y390000D02*
X112500Y390000D01*
D20*
X140000Y452500D03*
D21*
X132548Y452500D02*
X120568Y440520D01*
X132548Y452500D02*
X140000Y452500D01*
D20*
X435000Y495000D03*
D21*
X435000Y456390D01*
D20*
X537500Y805000D03*
D21*
X537500Y794063D02*
X525956Y782520D01*
X537500Y794063D02*
X537500Y805000D01*
D20*
X385000Y877500D03*
D21*
X384000Y878500D02*
X361800Y878500D01*
X384000Y878500D02*
X385000Y877500D01*
D20*
X300000Y860000D03*
D21*
X300000Y847400D02*
X253600Y801000D01*
D20*
X282500Y962500D03*
D21*
X227912Y741000D02*
X196800Y741000D01*
X261450Y732440D02*
X270000Y723890D01*
X236472Y732440D02*
X227912Y741000D01*
X236472Y732440D02*
X261450Y732440D01*
D20*
X670000Y830000D03*
D21*
X669800Y830200D02*
X669800Y846500D01*
X669800Y830200D02*
X670000Y830000D01*
X50000Y790167D02*
X38697Y801470D01*
X38697Y887587D01*
X51110Y900000D01*
D20*
X315000Y387500D03*
D21*
X326890Y399390D02*
X337400Y399390D01*
X326890Y399390D02*
X315000Y387500D01*
D20*
X285000Y305000D03*
X72500Y682500D03*
D21*
X72500Y687500D02*
X50000Y710000D01*
X72500Y687500D02*
X72500Y682500D01*
X105000Y650000D01*
X106110Y650000D01*
X320000Y530100D02*
X323400Y526700D01*
X320000Y530100D02*
X320000Y580000D01*
X334400Y594400D01*
X340200Y594400D01*
X956390Y897500D02*
X963272Y897500D01*
X960700Y841500D02*
X953200Y841500D01*
X970000Y780000D02*
X961500Y771500D01*
X953200Y771500D01*
X970000Y780000D02*
X970000Y830000D01*
X958500Y841500D01*
X953200Y841500D01*
X840200Y570800D02*
X845000Y566000D01*
X837700Y638500D02*
X845200Y646000D01*
X799000Y540300D02*
X794000Y535300D01*
X845000Y558388D02*
X845000Y565000D01*
X842110Y487290D02*
X843400Y486000D01*
X971600Y494700D02*
X976600Y489700D01*
X220710Y310100D02*
X195261Y310100D01*
X168561Y336800D01*
X92500Y597500D02*
X90000Y600000D01*
X92500Y597500D02*
X92500Y575000D01*
X131390Y536110D02*
X140000Y536110D01*
X131390Y536110D02*
X92500Y575000D01*
X115310Y536110D02*
X140000Y536110D01*
X115310Y536110D02*
X98200Y519000D01*
X140000Y478610D02*
X140000Y452500D01*
X98200Y519000D02*
X98200Y534112D01*
X60440Y571872D02*
X60440Y585670D01*
X60440Y571872D02*
X98200Y534112D01*
X119000Y589000D02*
X141000Y589000D01*
X175000Y555000D02*
X175000Y480000D01*
X147500Y452500D01*
X140000Y452500D01*
X175000Y555000D02*
X141000Y589000D01*
D20*
X75000Y535000D03*
D21*
X60440Y585670D02*
X60000Y585670D01*
X82200Y535000D02*
X98200Y519000D01*
X82200Y535000D02*
X75000Y535000D01*
X88610Y598610D02*
X90000Y600000D01*
X88610Y598610D02*
X45000Y598610D01*
X47060Y598610D02*
X60000Y585670D01*
X47060Y598610D02*
X45000Y598610D01*
X139000Y864800D02*
X139000Y909000D01*
X139000Y864800D02*
X118200Y844000D01*
X139000Y864800D02*
X144200Y870000D01*
X170000Y870000D01*
X178890Y878890D01*
X178890Y885000D01*
X182780Y881110D01*
X210000Y881110D01*
D20*
X192500Y940000D03*
D21*
X208500Y924000D02*
X216000Y924000D01*
X208500Y924000D02*
X192500Y940000D01*
X300000Y860000D02*
X300000Y847400D01*
X318890Y878890D02*
X335000Y878890D01*
X318890Y878890D02*
X300000Y860000D01*
X303480Y314050D02*
X294430Y305000D01*
X285000Y305000D01*
X615209Y362770D02*
X617979Y360000D01*
X631700Y360000D02*
X671700Y320000D01*
X631700Y360000D02*
X617979Y360000D01*
X75283Y339920D02*
X12420Y402783D01*
X12420Y919604D01*
X75316Y982500D01*
X292500Y982500D01*
X296400Y978600D01*
X296400Y921000D01*
X303480Y326750D02*
X304120Y326110D01*
X498600Y316800D02*
X498600Y316021D01*
X310028Y326110D02*
X304120Y326110D01*
X310028Y326110D02*
X347706Y288432D01*
X471011Y288432D01*
X498600Y316021D01*
X130080Y339920D02*
X75283Y339920D01*
X286750Y326750D02*
X303480Y326750D01*
X286750Y326750D02*
X255000Y295000D01*
X175000Y295000D01*
X130080Y339920D01*
X248400Y889000D02*
X248400Y891600D01*
X230000Y910000D01*
X230000Y942000D02*
X216000Y956000D01*
X230000Y942000D02*
X230000Y910000D01*
X372720Y346950D02*
X365220Y339450D01*
X357720Y339450D01*
X372720Y346950D02*
X544650Y346950D01*
X574800Y316800D01*
X376487Y326750D02*
X357720Y326750D01*
X376487Y326750D02*
X389825Y340088D01*
X536112Y340088D01*
X549400Y326800D01*
X549400Y316800D01*
X375971Y314050D02*
X357720Y314050D01*
X375971Y314050D02*
X394429Y332508D01*
X503292Y332508D01*
X519000Y316800D01*
X524000Y316800D01*
X473200Y316800D02*
X473200Y316021D01*
X451393Y294214D02*
X352500Y294214D01*
X451393Y294214D02*
X473200Y316021D01*
X352500Y294214D02*
X317415Y329299D01*
X317415Y329078D01*
X307043Y339450D01*
X303480Y339450D01*
X278088Y352150D02*
X274668Y348730D01*
X278088Y352150D02*
X303480Y352150D01*
X346285Y312908D02*
X346285Y309222D01*
X354415Y301092D01*
X432092Y301092D02*
X447800Y316800D01*
X432092Y301092D02*
X354415Y301092D01*
X274668Y344868D02*
X274668Y348730D01*
X274668Y344868D02*
X259900Y330100D01*
X259700Y329900D01*
X238490Y332149D02*
X238490Y310100D01*
X238490Y332149D02*
X233839Y336800D01*
X253200Y336800D01*
X259900Y330100D01*
X303480Y352150D02*
X307043Y352150D01*
X346285Y312908D01*
X168000Y924000D02*
X151000Y941000D01*
X139000Y941000D01*
X91000Y909000D02*
X91000Y903200D01*
X118200Y876000D01*
X70200Y844000D02*
X108200Y806000D01*
X123200Y806000D01*
X75200Y774000D02*
X99640Y749560D01*
X127088Y741000D02*
X158200Y741000D01*
X118528Y749560D02*
X99640Y749560D01*
X118528Y749560D02*
X127088Y741000D01*
X111000Y709000D02*
X110200Y709000D01*
X111000Y709000D02*
X120000Y700000D01*
X187800Y700000D01*
X196800Y709000D01*
X244800Y741000D02*
X253600Y749800D01*
X253600Y769000D01*
X301600Y801000D02*
X340000Y762600D01*
X340000Y720000D01*
X352100Y707900D01*
X361800Y707900D01*
X409800Y739900D02*
X373900Y775800D01*
X361800Y775800D01*
X409800Y807800D02*
X371100Y846500D01*
X361800Y846500D01*
X409800Y878500D02*
X376100Y912200D01*
X361800Y912200D01*
X409800Y944200D02*
X427856Y926144D01*
X427856Y891280D01*
X474344Y857120D02*
X455956Y838733D01*
X455956Y816680D01*
X502444Y782520D02*
X534800Y750163D01*
X534800Y745700D01*
X544675Y771575D02*
X556027Y771575D01*
X545360Y739372D02*
X543128Y737140D01*
X545360Y739372D02*
X545360Y752028D01*
X510240Y737140D02*
X486800Y713700D01*
X510240Y737140D02*
X543128Y737140D01*
X545360Y752028D02*
X544675Y752713D01*
X544675Y771575D01*
X542373Y827625D02*
X562477Y827625D01*
X581027Y846175D01*
X567373Y902225D02*
X576748Y911600D01*
X621800Y911600D01*
X659240Y917928D02*
X659240Y905272D01*
X669800Y928488D02*
X669800Y943600D01*
X669800Y894712D02*
X669800Y878500D01*
X659240Y917928D02*
X669800Y928488D01*
X659240Y905272D02*
X669800Y894712D01*
X631100Y846500D02*
X621800Y846500D01*
X631100Y846500D02*
X669800Y807800D01*
X659240Y716428D02*
X659240Y703772D01*
X661472Y701540D01*
X694153Y701540D01*
X702113Y709500D01*
X669800Y726988D02*
X669800Y742100D01*
X669800Y726988D02*
X659240Y716428D01*
X702113Y709500D02*
X760200Y709500D01*
X808200Y741500D02*
X770200Y779500D01*
X760200Y779500D01*
X808200Y811500D02*
X776700Y843000D01*
X760200Y843000D01*
X793200Y875000D02*
X808200Y875000D01*
X793200Y875000D02*
X760200Y908000D01*
X808200Y940000D02*
X843400Y904800D01*
X843400Y900000D01*
X896872Y864940D02*
X913528Y864940D01*
X922088Y873500D01*
X891400Y916888D02*
X891400Y932000D01*
X891400Y916888D02*
X880840Y906328D01*
X880840Y880972D01*
X896872Y864940D01*
X922088Y873500D02*
X953200Y873500D01*
X905200Y841500D02*
X943200Y803500D01*
X953200Y803500D01*
X905200Y771500D02*
X905200Y762300D01*
X891400Y748500D01*
X843400Y716500D02*
X842580Y715680D01*
X842580Y677896D02*
X827104Y662420D01*
X842580Y677896D02*
X842580Y715680D01*
X271600Y621600D02*
X271600Y596000D01*
X312420Y662420D02*
X827104Y662420D01*
X312420Y662420D02*
X271600Y621600D01*
X632360Y735772D02*
X632360Y748428D01*
X621800Y758988D02*
X621800Y775800D01*
X621800Y725212D02*
X621800Y710100D01*
X632360Y748428D02*
X621800Y758988D01*
X632360Y735772D02*
X621800Y725212D01*
X149000Y614000D02*
X142000Y621000D01*
X119000Y621000D01*
X71000Y589000D02*
X71000Y578200D01*
X98200Y551000D01*
X56800Y519000D02*
X50200Y519000D01*
X56800Y519000D02*
X99800Y476000D01*
X82912Y444000D02*
X51800Y444000D01*
X108760Y435440D02*
X138200Y406000D01*
X91472Y435440D02*
X82912Y444000D01*
X91472Y435440D02*
X108760Y435440D01*
X129872Y382560D02*
X146528Y382560D01*
X121312Y374000D02*
X90200Y374000D01*
X155088Y374000D02*
X176800Y374000D01*
X129872Y382560D02*
X121312Y374000D01*
X146528Y382560D02*
X155088Y374000D01*
X224800Y406000D02*
X228600Y409800D01*
X228600Y439000D01*
X316700Y430900D02*
X340200Y430900D01*
X306571Y471042D02*
X288429Y471042D01*
X306571Y471042D02*
X308803Y468810D01*
X308803Y438797D02*
X316700Y430900D01*
X288387Y471000D02*
X276600Y471000D01*
X288387Y471000D02*
X288429Y471042D01*
X308803Y468810D02*
X308803Y438797D01*
X355200Y462900D02*
X388200Y462900D01*
X355200Y462900D02*
X350760Y467340D01*
X350760Y469228D01*
X348528Y471460D01*
X346640Y471460D01*
X323400Y494700D01*
X371400Y526700D02*
X340200Y557900D01*
X340200Y562400D01*
X223600Y619400D02*
X197000Y646000D01*
X213040Y602328D02*
X213040Y589672D01*
X223600Y579112D02*
X223600Y564000D01*
X223600Y612888D02*
X223600Y619400D01*
X213040Y589672D02*
X223600Y579112D01*
X213040Y602328D02*
X223600Y612888D01*
X70200Y876000D02*
X68636Y877564D01*
X429690Y770800D02*
X435000Y776110D01*
X395190Y861110D02*
X335000Y861110D01*
X395190Y861110D02*
X409800Y846500D01*
X340000Y931110D02*
X335000Y931110D01*
X477799Y846762D02*
X481303Y846762D01*
X477799Y846762D02*
X461037Y830000D01*
X481303Y846762D02*
X488041Y853500D01*
X488041Y889942D01*
X461037Y830000D02*
X461037Y827549D01*
X466849Y821737D01*
X585541Y784459D02*
X585541Y783354D01*
X585541Y784459D02*
X570000Y800000D01*
X570000Y814237D01*
X572444Y816680D01*
X585541Y802772D02*
X585541Y783354D01*
X585541Y802772D02*
X583800Y804513D01*
X583800Y814909D01*
X590210Y821319D01*
X598505Y821319D02*
X603041Y825854D01*
X598505Y821319D02*
X590210Y821319D01*
X603041Y825854D02*
X603041Y885683D01*
X597444Y891280D01*
X689790Y911600D02*
X689891Y911598D01*
X689993Y911592D01*
X690093Y911583D01*
X690194Y911570D01*
X690294Y911553D01*
X690393Y911532D01*
X690491Y911508D01*
X690589Y911480D01*
X690685Y911448D01*
X690780Y911413D01*
X690874Y911374D01*
X690966Y911332D01*
X691056Y911286D01*
X691145Y911237D01*
X691232Y911185D01*
X691317Y911129D01*
X691399Y911070D01*
X691480Y911009D01*
X691558Y910944D01*
X691633Y910877D01*
X691706Y910806D01*
X691777Y910733D01*
X691844Y910658D01*
X691909Y910580D01*
X691970Y910499D01*
X692029Y910417D01*
X692085Y910332D01*
X692137Y910245D01*
X692186Y910156D01*
X692232Y910066D01*
X692274Y909974D01*
X692313Y909880D01*
X692348Y909785D01*
X692380Y909689D01*
X692408Y909591D01*
X692432Y909493D01*
X692453Y909394D01*
X692470Y909294D01*
X692483Y909193D01*
X692492Y909093D01*
X692498Y908991D01*
X692500Y908890D01*
X689790Y911600D02*
X669800Y911600D01*
X603041Y883041D02*
X603041Y825854D01*
X620000Y900000D02*
X630000Y900000D01*
X632360Y949928D02*
X631144Y951144D01*
X630000Y902912D02*
X630000Y900000D01*
X630000Y902912D02*
X632360Y905272D01*
X632360Y949928D01*
X631144Y951144D02*
X660456Y951144D01*
X661472Y952160D01*
X678128Y952160D01*
X689790Y940498D02*
X689790Y911600D01*
X620000Y900000D02*
X603041Y883041D01*
X678128Y952160D02*
X689790Y940498D01*
X692500Y861390D02*
X638910Y861390D01*
X621800Y878500D01*
X691805Y808195D02*
X684372Y800762D01*
X639600Y790000D02*
X621800Y807800D01*
X670000Y790000D02*
X673610Y790000D01*
X670000Y790000D02*
X639600Y790000D01*
X678310Y718610D02*
X692500Y718610D01*
X678310Y718610D02*
X669800Y710100D01*
X800762Y694071D02*
X800762Y693128D01*
X808890Y685000D01*
X776223Y718610D02*
X692500Y718610D01*
X776223Y718610D02*
X800762Y694071D01*
X808890Y685000D02*
X808890Y708810D01*
X808200Y709500D01*
X820000Y696110D02*
X808890Y685000D01*
X820000Y773610D02*
X830000Y783610D01*
X820000Y773610D02*
X820000Y696110D01*
X812310Y783610D02*
X830000Y783610D01*
X812310Y783610D02*
X808200Y779500D01*
X830000Y841110D02*
X832500Y843610D01*
X841303Y793970D02*
X839071Y791738D01*
X841303Y793970D02*
X841303Y808810D01*
X838128Y791738D02*
X830000Y783610D01*
X838128Y791738D02*
X839071Y791738D01*
X830000Y820113D02*
X830000Y841110D01*
X830000Y820113D02*
X841303Y808810D01*
X831890Y843000D02*
X832500Y843610D01*
X831890Y843000D02*
X808200Y843000D01*
X857500Y868610D02*
X857500Y868890D01*
X840628Y851738D02*
X832500Y843610D01*
X840628Y851738D02*
X841571Y851738D01*
X846197Y858530D02*
X848429Y860762D01*
X849652Y860762D01*
X857500Y868610D01*
X846197Y856364D02*
X841571Y851738D01*
X846197Y856364D02*
X846197Y858530D01*
X857500Y868890D02*
X855348Y871042D01*
X830000Y871042D01*
X808200Y892842D01*
X808200Y908000D01*
X914610Y873500D02*
X938610Y897500D01*
X914610Y873500D02*
X905200Y873500D01*
X961528Y882060D02*
X963760Y879828D01*
X963760Y867172D01*
X956448Y859860D01*
X900970Y859860D01*
X938610Y882060D02*
X938610Y897500D01*
X938610Y882060D02*
X961528Y882060D01*
X877610Y803500D02*
X875000Y806110D01*
X877610Y803500D02*
X905200Y803500D01*
X875000Y806110D02*
X861110Y792220D01*
X861110Y772500D01*
X843400Y754790D01*
X843400Y748500D01*
X57587Y888697D02*
X50000Y881110D01*
X57587Y888697D02*
X58530Y888697D01*
X60762Y890929D01*
X60762Y891872D01*
X68890Y900000D01*
X50000Y881110D02*
X50000Y808890D01*
X68890Y877818D02*
X68890Y900000D01*
X68890Y877818D02*
X68636Y877564D01*
X68890Y900000D02*
X68890Y918890D01*
X85000Y747312D02*
X85000Y738890D01*
X85000Y747312D02*
X64640Y767672D01*
X64640Y795193D01*
X468890Y685000D02*
X489030Y705140D01*
X495128Y705140D01*
X522048Y732060D01*
X858610Y770000D02*
X861110Y772500D01*
X858610Y770000D02*
X840000Y770000D01*
X830000Y760000D01*
X830000Y677500D02*
X822500Y670000D01*
X830000Y677500D02*
X830000Y760000D01*
X822500Y670000D02*
X270000Y670000D01*
X236110Y636110D01*
X236110Y620000D01*
X236110Y608510D01*
X223600Y596000D01*
X236110Y630000D02*
X198610Y667500D01*
X141390Y667500D02*
X123890Y650000D01*
X141390Y667500D02*
X198610Y667500D01*
X145000Y650000D02*
X123890Y650000D01*
X145000Y650000D02*
X149000Y646000D01*
X51410Y476390D02*
X51800Y476000D01*
X70000Y403890D02*
X88090Y403890D01*
X90200Y406000D01*
X229410Y378610D02*
X247500Y378610D01*
X229410Y378610D02*
X224800Y374000D01*
X247500Y378610D02*
X255628Y386738D01*
X256571Y386738D01*
X297500Y427667D01*
X297500Y443610D01*
X292890Y439000D01*
X276600Y439000D01*
X297500Y443610D02*
X303723Y437387D01*
X303723Y436693D01*
X320416Y420000D01*
X391390Y420000D02*
X410000Y438610D01*
X391390Y420000D02*
X320416Y420000D01*
X395910Y438610D02*
X410000Y438610D01*
X395910Y438610D02*
X388200Y430900D01*
X419071Y446738D02*
X421303Y448970D01*
X418128Y446738D02*
X410000Y438610D01*
X418128Y446738D02*
X419071Y446738D01*
X421303Y448970D02*
X421303Y469807D01*
X395000Y496110D01*
X393590Y494700D01*
X371400Y494700D01*
X395000Y496110D02*
X403128Y504238D01*
X404071Y504238D01*
X410000Y510167D01*
X410000Y563610D01*
X408790Y562400D01*
X388200Y562400D01*
X410000Y563610D02*
X418128Y571738D01*
X419071Y571738D01*
X440000Y592667D01*
X440000Y620000D01*
X448610Y628610D01*
X480000Y628610D01*
X465390Y614000D01*
X458200Y614000D01*
X480000Y628610D02*
X492500Y628610D01*
X503610Y617500D01*
X481800Y595690D01*
X481800Y594400D01*
X503610Y573610D02*
X503610Y617500D01*
X473472Y570960D02*
X471240Y568728D01*
X471240Y541240D02*
X470000Y540000D01*
X471240Y541240D02*
X471240Y568728D01*
X500960Y570960D02*
X503610Y573610D01*
X500960Y570960D02*
X473472Y570960D01*
X470000Y540000D02*
X470000Y531390D01*
X477500Y523890D01*
X469372Y515762D01*
X468429Y515762D01*
X460000Y507333D01*
X460000Y461390D01*
X480290Y461390D01*
X481800Y462900D01*
X437220Y438610D02*
X435000Y438610D01*
X451872Y453262D02*
X460000Y461390D01*
X451872Y453262D02*
X450929Y453262D01*
X448697Y451030D01*
X448697Y450087D01*
X437220Y438610D01*
X435000Y438610D02*
X410200Y413810D01*
X410200Y406000D01*
X435000Y438610D02*
X447640Y425970D01*
X447640Y399672D01*
X456202Y391110D01*
X567500Y391110D01*
X607088Y374000D02*
X638200Y374000D01*
X607088Y374000D02*
X598528Y382560D01*
X576050Y382560D02*
X567500Y391110D01*
X576050Y382560D02*
X598528Y382560D01*
X575628Y399238D02*
X567500Y391110D01*
X575628Y399238D02*
X576571Y399238D01*
X579640Y402307D01*
X579640Y460328D02*
X589312Y470000D01*
X579640Y460328D02*
X579640Y402307D01*
X646110Y470000D02*
X648697Y467413D01*
X648697Y466470D01*
X650929Y464238D01*
X651872Y464238D01*
X660000Y456110D01*
X646110Y470000D02*
X589312Y470000D01*
X640310Y456110D02*
X660000Y456110D01*
X640310Y456110D02*
X638200Y454000D01*
X669071Y464238D02*
X671303Y466470D01*
X671303Y481310D01*
X668128Y464238D02*
X660000Y456110D01*
X668128Y464238D02*
X669071Y464238D01*
X660000Y492613D02*
X660000Y541110D01*
X660000Y492613D02*
X671303Y481310D01*
X652890Y534000D02*
X660000Y541110D01*
X652890Y534000D02*
X638200Y534000D01*
X669071Y549238D02*
X671303Y551470D01*
X671303Y566310D01*
X669071Y568542D01*
X668128Y549238D02*
X660000Y541110D01*
X668128Y549238D02*
X669071Y549238D01*
X669071Y568542D02*
X660348Y568542D01*
X638890Y590000D01*
X638890Y613310D01*
X638200Y614000D01*
X661760Y590440D02*
X685128Y590440D01*
X704688Y610000D01*
X661760Y590440D02*
X638200Y614000D01*
X737667Y610000D02*
X738429Y609238D01*
X740000Y609238D01*
X737667Y610000D02*
X704688Y610000D01*
X740000Y609238D02*
X747500Y601738D01*
X747500Y601110D01*
X745390Y599000D01*
X724800Y599000D01*
X725000Y578610D02*
X747500Y601110D01*
X725000Y578610D02*
X725000Y563890D01*
X742590Y563890D01*
X746000Y567300D01*
X715929Y555762D02*
X713697Y553530D01*
X713697Y538690D01*
X716872Y555762D02*
X725000Y563890D01*
X716872Y555762D02*
X715929Y555762D01*
X725000Y527387D02*
X725000Y493890D01*
X725000Y527387D02*
X713697Y538690D01*
X725000Y493890D02*
X731590Y487300D01*
X746000Y487300D01*
X725000Y493890D02*
X716872Y485762D01*
X715929Y485762D01*
X688610Y458443D01*
X688610Y450000D01*
X688610Y437810D01*
X676800Y426000D01*
X664828Y405060D02*
X664828Y382672D01*
X694560Y352940D01*
X849560Y352940D01*
X852500Y350000D01*
X901110Y350000D01*
X889800Y361310D01*
X889800Y374000D01*
X903610Y352500D02*
X903610Y442220D01*
X912500Y451110D01*
X894290Y451110D01*
X891400Y454000D01*
X904372Y459238D02*
X912500Y451110D01*
X904372Y459238D02*
X903429Y459238D01*
X901197Y461470D01*
X901960Y479672D02*
X901960Y492328D01*
X893890Y500398D02*
X893890Y510000D01*
X893890Y500398D02*
X901960Y492328D01*
X901960Y479672D02*
X901197Y478909D01*
X901197Y461470D01*
X893890Y510000D02*
X893000Y510890D01*
X893000Y534000D01*
X893890Y550002D02*
X893890Y510000D01*
X893890Y550002D02*
X903560Y559672D01*
X903560Y575330D01*
X888890Y590000D01*
X888890Y609690D01*
X893200Y614000D01*
X888890Y590000D02*
X893890Y585000D01*
X951110Y585000D01*
X951110Y595310D01*
X969800Y614000D01*
X951110Y585000D02*
X931110Y565000D01*
X931110Y550000D01*
X923600Y542490D01*
X923600Y526700D01*
X913040Y488372D02*
X930000Y471412D01*
X913040Y488372D02*
X913040Y531930D01*
X931110Y550000D01*
X930000Y441110D02*
X941110Y430000D01*
X930000Y441110D02*
X930000Y471412D01*
X941110Y430000D02*
X925000Y413890D01*
X925000Y406000D01*
D20*
X272500Y365000D03*
X385000Y360000D03*
X600000Y350000D03*
D21*
X614300Y350000D02*
X646300Y318000D01*
X614300Y350000D02*
X600000Y350000D01*
X600000Y317000D02*
X600200Y316800D01*
X600000Y317000D02*
X600000Y350000D01*
X27500Y407387D02*
X27500Y910000D01*
X87500Y970000D01*
X233610Y970000D02*
X248610Y955000D01*
X233610Y970000D02*
X87500Y970000D01*
X248610Y945000D02*
X248610Y921210D01*
X248400Y921000D01*
X64640Y795193D02*
X50943Y808890D01*
X50000Y808890D01*
X477500Y523890D02*
X495590Y523890D01*
X498400Y526700D01*
X76000Y806000D02*
X75200Y806000D01*
X76000Y806000D02*
X78890Y808890D01*
X50000Y808890D01*
X300000Y743890D02*
X301600Y745490D01*
X301600Y769000D01*
X123890Y650000D02*
X115762Y641872D01*
X115762Y640929D01*
X113530Y638697D01*
X98690Y638697D01*
X457500Y738890D02*
X457500Y777500D01*
X466849Y786849D02*
X466849Y821737D01*
X466849Y786849D02*
X457500Y777500D01*
X472373Y753763D02*
X457500Y738890D01*
X472373Y753763D02*
X472373Y771575D01*
X457500Y738890D02*
X465628Y730762D01*
X466571Y730762D01*
X468890Y728443D01*
X468890Y685000D01*
X486800Y702910D01*
X478472Y705140D02*
X476240Y707372D01*
X476240Y720028D01*
X484570Y705140D02*
X486800Y702910D01*
X484570Y705140D02*
X478472Y705140D01*
X486800Y730588D02*
X486800Y745700D01*
X486800Y730588D02*
X476240Y720028D01*
X600000Y350000D02*
X599392Y349392D01*
X594254Y354530D01*
X390000Y354530D01*
X364100Y381610D02*
X364900Y382410D01*
X364100Y381610D02*
X337400Y381610D01*
X357720Y361290D01*
X357720Y352150D01*
X385000Y359530D02*
X390000Y354530D01*
X385000Y359530D02*
X385000Y360000D01*
X380000Y365000D01*
X380000Y410000D01*
X310000Y410000D01*
X272500Y372500D01*
X272500Y365000D01*
X259700Y352200D01*
X259700Y347900D01*
X272500Y365000D02*
X208060Y365000D01*
X197790Y354730D01*
X80157Y354730D01*
X27500Y407387D01*
X364900Y382410D02*
X364900Y380100D01*
X385000Y360000D01*
X270000Y706110D02*
X278128Y714238D01*
X306851Y714238D01*
X311303Y718690D01*
X311303Y732587D01*
X344071Y869238D02*
X346303Y871470D01*
X346303Y886310D01*
X344071Y869238D02*
X343128Y869238D01*
X340000Y892613D02*
X340000Y931110D01*
X340000Y892613D02*
X346303Y886310D01*
X343128Y869238D02*
X335000Y861110D01*
X681197Y883690D02*
X681197Y898530D01*
X683429Y900762D01*
X692500Y872387D02*
X692500Y861390D01*
X684372Y900762D02*
X683429Y900762D01*
X684372Y900762D02*
X692500Y908890D01*
X681197Y883690D02*
X692500Y872387D01*
X683429Y853262D02*
X681197Y851030D01*
X681197Y836190D01*
X683429Y853262D02*
X684372Y853262D01*
X691805Y825582D02*
X691805Y808195D01*
X691805Y825582D02*
X681197Y836190D01*
X684372Y853262D02*
X692500Y861390D01*
X566629Y764442D02*
X550440Y748253D01*
X550440Y737268D01*
X545232Y732060D02*
X522048Y732060D01*
X545232Y732060D02*
X550440Y737268D01*
X581005Y778819D02*
X585541Y783354D01*
X581005Y778819D02*
X572710Y778819D01*
X566629Y772738D01*
X566629Y764442D01*
X891400Y900000D02*
X910010Y918610D01*
X915000Y918610D01*
X936110Y897500D01*
X938610Y897500D01*
X915000Y918610D02*
X907220Y918610D01*
X901960Y938328D02*
X899728Y940560D01*
X883072Y940560D01*
X875760Y887150D02*
X857500Y868890D01*
X875760Y933248D02*
X883072Y940560D01*
X875760Y933248D02*
X875760Y887150D01*
X907220Y918610D02*
X901960Y923870D01*
X901960Y938328D01*
X883128Y814238D02*
X875000Y806110D01*
X883128Y814238D02*
X884071Y814238D01*
X900970Y854158D02*
X900970Y859860D01*
X900970Y854158D02*
X894640Y847828D01*
X894640Y824807D02*
X884071Y814238D01*
X894640Y824807D02*
X894640Y847828D01*
X136200Y390000D02*
X120200Y406000D01*
X90200Y406000D01*
X136200Y390000D02*
X236110Y390000D01*
X236197Y389913D01*
X236197Y388970D01*
X238429Y386738D01*
X239372Y386738D01*
X247500Y378610D01*
X73697Y728530D02*
X75929Y730762D01*
X73697Y728530D02*
X73697Y713690D01*
X76872Y730762D02*
X85000Y738890D01*
X76872Y730762D02*
X75929Y730762D01*
X73697Y713690D02*
X97387Y690000D01*
X253890Y690000D02*
X270000Y706110D01*
X253890Y690000D02*
X97387Y690000D01*
X247690Y706110D02*
X270000Y706110D01*
X247690Y706110D02*
X244800Y709000D01*
X300000Y743890D02*
X308128Y735762D01*
X309071Y735762D01*
X311303Y733530D01*
X311303Y732587D01*
X353890Y690000D01*
X442937Y937952D02*
X422346Y958542D01*
X454065Y890137D02*
X463156Y890137D01*
X474665Y901646D02*
X488041Y901646D01*
X474665Y901646D02*
X463156Y890137D01*
X454065Y890137D02*
X442937Y901266D01*
X442937Y937952D01*
X691805Y808195D02*
X692500Y808890D01*
X684372Y800762D02*
X683429Y800762D01*
X681197Y798530D01*
X681197Y797587D01*
X673610Y790000D01*
X661472Y784360D02*
X659240Y782128D01*
X659240Y769472D01*
X681197Y728970D02*
X683429Y726738D01*
X684372Y726738D01*
X692500Y718610D01*
X664360Y784360D02*
X670000Y790000D01*
X664360Y784360D02*
X661472Y784360D01*
X678052Y750660D02*
X678128Y750660D01*
X678052Y750660D02*
X659240Y769472D01*
X678128Y750660D02*
X681197Y747591D01*
X681197Y728970D01*
X488041Y889942D02*
X444273Y846175D01*
X488041Y889942D02*
X488041Y901646D01*
X421197Y741310D02*
X421197Y721470D01*
X423429Y719238D01*
X424372Y719238D01*
X432500Y711110D01*
X411390Y690000D01*
X353890Y690000D01*
X409800Y707900D02*
X413010Y711110D01*
X432500Y711110D01*
X87110Y741000D02*
X85000Y738890D01*
X87110Y741000D02*
X110200Y741000D01*
X310000Y970000D02*
X380000Y970000D01*
X390000Y970000D01*
X401458Y958542D01*
X422346Y958542D01*
X380000Y942000D02*
X409800Y912200D01*
X380000Y942000D02*
X380000Y970000D01*
X335000Y931110D02*
X318890Y931110D01*
X310000Y940000D01*
X310000Y970000D01*
X335000Y861110D02*
X340000Y856110D01*
X340000Y830000D01*
X350000Y820000D01*
X380000Y820000D01*
X390000Y810000D01*
X390000Y790000D01*
X429690Y770800D02*
X429690Y749803D01*
X421197Y741310D01*
X410110Y776110D02*
X435000Y776110D01*
X410110Y776110D02*
X409800Y775800D01*
X426872Y784238D02*
X435000Y776110D01*
X426872Y784238D02*
X425929Y784238D01*
X423697Y786470D01*
X423697Y787413D01*
X421110Y790000D01*
X390000Y790000D01*
X669768Y410000D02*
X664828Y405060D01*
X669768Y410000D02*
X690000Y410000D01*
X690000Y448610D01*
X688610Y450000D01*
X901110Y350000D02*
X903610Y352500D01*
X236110Y620000D02*
X236110Y630000D01*
X100000Y610000D02*
X100000Y585000D01*
X131110Y553890D02*
X140000Y553890D01*
X131110Y553890D02*
X100000Y585000D01*
X140000Y553890D02*
X141390Y552500D01*
X155000Y552500D01*
X160000Y547500D01*
X160000Y520000D01*
X122500Y520000D01*
X105000Y502500D01*
X87500Y502500D01*
X50200Y539800D01*
X50200Y551000D01*
X136805Y493195D02*
X140000Y496390D01*
X136805Y493195D02*
X131872Y488262D01*
X130929Y488262D01*
X120000Y477333D01*
X120000Y460000D01*
X70000Y460000D01*
X53610Y476390D01*
X51410Y476390D01*
X136805Y496805D02*
X160000Y520000D01*
X136805Y496805D02*
X136805Y493195D01*
X51800Y476000D02*
X40000Y464200D01*
X40000Y430000D01*
X66110Y403890D01*
X70000Y403890D01*
X248610Y945000D02*
X248610Y955000D01*
X98690Y638697D02*
X60000Y638697D01*
X45000Y623697D01*
X45000Y616390D01*
X49610Y621000D01*
X71000Y621000D01*
X51390Y610000D02*
X100000Y610000D01*
X51390Y610000D02*
X45000Y616390D01*
X260000Y909400D02*
X248400Y921000D01*
X260000Y909400D02*
X260000Y870000D01*
X240000Y870000D01*
X211110Y898890D01*
X210000Y898890D01*
X168000Y940890D01*
X168000Y956000D01*
X161110Y908890D02*
X161110Y885000D01*
X161110Y908890D02*
X150000Y920000D01*
X120000Y920000D01*
X99000Y941000D01*
X91000Y941000D01*
X68890Y918890D01*
X208890Y900000D02*
X210000Y898890D01*
X208890Y900000D02*
X170000Y900000D01*
X170000Y894833D01*
X169238Y894071D01*
X169238Y893128D01*
X161110Y885000D01*
X407800Y614000D02*
X388200Y594400D01*
X407800Y614000D02*
X410200Y614000D01*
X531042Y608429D02*
X531042Y626571D01*
X460887Y646000D02*
X458200Y646000D01*
X529800Y607187D02*
X531042Y608429D01*
X529800Y607187D02*
X529800Y594400D01*
X470929Y656042D02*
X460887Y646000D01*
X470929Y656042D02*
X501571Y656042D01*
X531042Y626571D01*
X510700Y562400D02*
X481800Y562400D01*
X510700Y562400D02*
X546400Y526700D01*
X498400Y494700D02*
X529800Y463300D01*
X529800Y462900D01*
X481800Y430900D02*
X458200Y407300D01*
X458200Y406000D01*
X474028Y382560D02*
X439872Y382560D01*
X431312Y374000D02*
X410200Y374000D01*
X482588Y374000D02*
X590200Y374000D01*
X439872Y382560D02*
X431312Y374000D01*
X474028Y382560D02*
X482588Y374000D01*
X590200Y454000D02*
X638200Y406000D01*
X638200Y486000D02*
X590200Y534000D01*
X625503Y578697D02*
X638200Y566000D01*
X625503Y578697D02*
X613690Y578697D01*
X611458Y580929D01*
X611458Y592742D01*
X590200Y614000D01*
X638200Y646000D02*
X676800Y607400D01*
X676800Y599000D01*
X746000Y535300D02*
X794000Y487300D01*
X746000Y455300D02*
X724800Y434100D01*
X724800Y426000D01*
X676800Y394000D02*
X696800Y374000D01*
X841800Y374000D01*
X889800Y406000D02*
X843400Y452400D01*
X843400Y454000D01*
X876400Y486000D02*
X856203Y506197D01*
X856190Y506197D01*
X845000Y517387D01*
X845000Y534000D01*
X876400Y486000D02*
X891400Y486000D01*
X893000Y566000D02*
X880303Y578697D01*
X863690Y578697D01*
X845200Y597187D01*
X845200Y614000D01*
X893200Y646000D02*
X921800Y617400D01*
X921800Y614000D01*
X969800Y646000D02*
X973800Y650000D01*
X990000Y650000D01*
X990000Y540000D01*
X976700Y526700D01*
X971600Y526700D01*
X923600Y494700D02*
X973000Y445300D01*
X973000Y406000D01*
X794000Y567300D02*
X758803Y602497D01*
X758803Y626310D01*
X754113Y631000D01*
X724800Y631000D01*
M02*
