G04 EAGLE Gerber RS-274X export*
G75*
%MOMM*%
%FSLAX34Y34*%
%LPD*%
%AMOC8*
5,1,8,0,0,1.08239X$1,22.5*%
G01*
%ADD10R,1.879600X1.879600*%
%ADD11C,1.879600*%
%ADD12C,2.184400*%
%ADD13C,1.100000*%
%ADD14C,0.254000*%


D10*
X600200Y309300D03*
D11*
X574800Y309300D03*
X549400Y309300D03*
X524000Y309300D03*
X498600Y309300D03*
X473200Y309300D03*
X447800Y309300D03*
X422400Y309300D03*
D12*
X171061Y329300D03*
X236339Y329300D03*
D11*
X648800Y310500D03*
X674200Y310500D03*
D13*
X430000Y690000D03*
X850000Y822500D03*
X787500Y857500D03*
D14*
X822500Y822500D02*
X850000Y822500D01*
X822500Y822500D02*
X787500Y857500D01*
D13*
X535000Y405000D03*
D14*
X579700Y405000D01*
X674200Y310500D01*
D13*
X112500Y390000D03*
D14*
X171061Y331439D01*
X171061Y329300D01*
D13*
X140000Y452500D03*
D14*
X112500Y425000D01*
X112500Y390000D01*
X171061Y329300D02*
X246761Y405000D01*
X310000Y405000D01*
D13*
X435000Y495000D03*
D14*
X518100Y405000D02*
X310000Y405000D01*
X435000Y495000D02*
X525000Y405000D01*
X535000Y405000D01*
X435000Y685000D02*
X430000Y690000D01*
X435000Y685000D02*
X435000Y495000D01*
D13*
X537500Y805000D03*
D14*
X430000Y697500D01*
X430000Y690000D01*
D13*
X385000Y877500D03*
D14*
X457500Y805000D01*
X537500Y805000D01*
D13*
X300000Y860000D03*
D14*
X317500Y877500D01*
X385000Y877500D01*
D13*
X282500Y967500D03*
D14*
X300000Y950000D01*
X300000Y860000D01*
D13*
X192500Y962500D03*
D14*
X277500Y962500D01*
X282500Y967500D01*
D13*
X670000Y830000D03*
D14*
X760000Y830000D01*
X787500Y857500D01*
X670000Y830000D02*
X562500Y830000D01*
X537500Y805000D01*
X518100Y405000D02*
X422400Y309300D01*
X518100Y405000D02*
X525000Y405000D01*
D13*
X315000Y387500D03*
D14*
X315000Y400000D01*
X310000Y405000D01*
D13*
X287500Y297500D03*
D14*
X287500Y360000D01*
X315000Y387500D01*
D13*
X72500Y682500D03*
D14*
X250000Y860000D01*
X300000Y860000D01*
D13*
X272500Y365000D03*
X385000Y360000D03*
X600000Y350000D03*
M02*
