G04 EAGLE Gerber RS-274X export*
G75*
%MOMM*%
%FSLAX34Y34*%
%LPD*%
%AMOC8*
5,1,8,0,0,1.08239X$1,22.5*%
G01*
%ADD10C,0.076200*%
%ADD11R,1.350000X0.950000*%
%ADD12R,1.498600X1.168400*%
%ADD13R,1.525000X0.650000*%
%ADD14R,1.879600X1.879600*%
%ADD15C,1.879600*%
%ADD16R,1.200000X0.800000*%
%ADD17C,2.184400*%
%ADD18R,1.168400X1.498600*%
%ADD19C,1.100000*%
%ADD20C,0.254000*%


D10*
X824036Y300381D02*
X821947Y300381D01*
X821870Y300383D01*
X821794Y300389D01*
X821717Y300398D01*
X821641Y300411D01*
X821566Y300428D01*
X821492Y300448D01*
X821419Y300473D01*
X821348Y300500D01*
X821277Y300531D01*
X821209Y300566D01*
X821142Y300604D01*
X821077Y300645D01*
X821014Y300689D01*
X820954Y300736D01*
X820895Y300787D01*
X820840Y300840D01*
X820787Y300895D01*
X820736Y300954D01*
X820689Y301014D01*
X820645Y301077D01*
X820604Y301142D01*
X820566Y301209D01*
X820531Y301277D01*
X820500Y301348D01*
X820473Y301419D01*
X820448Y301492D01*
X820428Y301566D01*
X820411Y301641D01*
X820398Y301717D01*
X820389Y301794D01*
X820383Y301870D01*
X820381Y301947D01*
X820381Y305080D01*
X820383Y305157D01*
X820389Y305233D01*
X820398Y305310D01*
X820411Y305386D01*
X820428Y305461D01*
X820448Y305535D01*
X820473Y305608D01*
X820500Y305679D01*
X820531Y305750D01*
X820566Y305818D01*
X820604Y305885D01*
X820645Y305950D01*
X820689Y306013D01*
X820736Y306073D01*
X820787Y306132D01*
X820840Y306187D01*
X820895Y306240D01*
X820954Y306291D01*
X821014Y306338D01*
X821077Y306382D01*
X821142Y306423D01*
X821209Y306461D01*
X821277Y306496D01*
X821348Y306527D01*
X821419Y306554D01*
X821492Y306579D01*
X821566Y306599D01*
X821641Y306616D01*
X821717Y306629D01*
X821794Y306638D01*
X821870Y306644D01*
X821947Y306646D01*
X824036Y306646D01*
X827861Y306646D02*
X827861Y300381D01*
X827861Y306646D02*
X832560Y306646D01*
X832637Y306644D01*
X832713Y306638D01*
X832790Y306629D01*
X832866Y306616D01*
X832941Y306599D01*
X833015Y306579D01*
X833088Y306554D01*
X833159Y306527D01*
X833230Y306496D01*
X833298Y306461D01*
X833365Y306423D01*
X833430Y306382D01*
X833493Y306338D01*
X833553Y306291D01*
X833612Y306240D01*
X833667Y306187D01*
X833720Y306132D01*
X833771Y306073D01*
X833818Y306013D01*
X833862Y305950D01*
X833903Y305885D01*
X833941Y305818D01*
X833976Y305750D01*
X834007Y305679D01*
X834034Y305608D01*
X834059Y305535D01*
X834079Y305461D01*
X834096Y305386D01*
X834109Y305310D01*
X834118Y305233D01*
X834124Y305157D01*
X834126Y305080D01*
X834126Y300381D01*
X830994Y300381D02*
X830994Y306646D01*
X842485Y309779D02*
X842485Y300381D01*
X839874Y300381D01*
X839797Y300383D01*
X839721Y300389D01*
X839644Y300398D01*
X839568Y300411D01*
X839493Y300428D01*
X839419Y300448D01*
X839346Y300473D01*
X839275Y300500D01*
X839204Y300531D01*
X839136Y300566D01*
X839069Y300604D01*
X839004Y300645D01*
X838941Y300689D01*
X838881Y300736D01*
X838822Y300787D01*
X838767Y300840D01*
X838714Y300895D01*
X838663Y300954D01*
X838616Y301014D01*
X838572Y301077D01*
X838531Y301142D01*
X838493Y301209D01*
X838458Y301277D01*
X838427Y301348D01*
X838400Y301419D01*
X838375Y301492D01*
X838355Y301566D01*
X838338Y301641D01*
X838325Y301717D01*
X838316Y301794D01*
X838310Y301870D01*
X838308Y301947D01*
X838308Y305080D01*
X838310Y305157D01*
X838316Y305233D01*
X838325Y305310D01*
X838338Y305386D01*
X838355Y305461D01*
X838375Y305535D01*
X838400Y305608D01*
X838427Y305679D01*
X838458Y305750D01*
X838493Y305818D01*
X838531Y305885D01*
X838572Y305950D01*
X838616Y306013D01*
X838663Y306073D01*
X838714Y306132D01*
X838767Y306187D01*
X838822Y306240D01*
X838881Y306291D01*
X838941Y306338D01*
X839004Y306382D01*
X839069Y306423D01*
X839136Y306461D01*
X839204Y306496D01*
X839275Y306527D01*
X839346Y306554D01*
X839419Y306579D01*
X839493Y306599D01*
X839568Y306616D01*
X839644Y306629D01*
X839721Y306638D01*
X839797Y306644D01*
X839874Y306646D01*
X842485Y306646D01*
X848160Y300381D02*
X850248Y300381D01*
X848160Y300381D02*
X848083Y300383D01*
X848007Y300389D01*
X847930Y300398D01*
X847854Y300411D01*
X847779Y300428D01*
X847705Y300448D01*
X847632Y300473D01*
X847561Y300500D01*
X847490Y300531D01*
X847422Y300566D01*
X847355Y300604D01*
X847290Y300645D01*
X847227Y300689D01*
X847167Y300736D01*
X847108Y300787D01*
X847053Y300840D01*
X847000Y300895D01*
X846949Y300954D01*
X846902Y301014D01*
X846858Y301077D01*
X846817Y301142D01*
X846779Y301209D01*
X846744Y301277D01*
X846713Y301348D01*
X846686Y301419D01*
X846661Y301492D01*
X846641Y301566D01*
X846624Y301641D01*
X846611Y301717D01*
X846602Y301794D01*
X846596Y301870D01*
X846594Y301947D01*
X846594Y305080D01*
X846596Y305157D01*
X846602Y305233D01*
X846611Y305310D01*
X846624Y305386D01*
X846641Y305461D01*
X846661Y305535D01*
X846686Y305608D01*
X846713Y305679D01*
X846744Y305750D01*
X846779Y305818D01*
X846817Y305885D01*
X846858Y305950D01*
X846902Y306013D01*
X846949Y306073D01*
X847000Y306132D01*
X847053Y306187D01*
X847108Y306240D01*
X847167Y306291D01*
X847227Y306338D01*
X847290Y306382D01*
X847355Y306423D01*
X847422Y306461D01*
X847490Y306496D01*
X847561Y306527D01*
X847632Y306554D01*
X847705Y306579D01*
X847779Y306599D01*
X847854Y306616D01*
X847930Y306629D01*
X848007Y306638D01*
X848083Y306644D01*
X848160Y306646D01*
X850248Y306646D01*
X853681Y305080D02*
X853683Y305265D01*
X853690Y305450D01*
X853701Y305634D01*
X853716Y305818D01*
X853736Y306002D01*
X853760Y306186D01*
X853789Y306368D01*
X853822Y306550D01*
X853859Y306731D01*
X853901Y306911D01*
X853947Y307091D01*
X853997Y307269D01*
X854051Y307445D01*
X854110Y307621D01*
X854172Y307795D01*
X854239Y307967D01*
X854310Y308138D01*
X854385Y308307D01*
X854464Y308474D01*
X854494Y308554D01*
X854527Y308633D01*
X854564Y308710D01*
X854604Y308786D01*
X854647Y308860D01*
X854693Y308932D01*
X854743Y309001D01*
X854795Y309069D01*
X854851Y309134D01*
X854909Y309197D01*
X854971Y309256D01*
X855034Y309314D01*
X855101Y309368D01*
X855169Y309419D01*
X855240Y309467D01*
X855313Y309512D01*
X855387Y309554D01*
X855464Y309592D01*
X855542Y309627D01*
X855621Y309659D01*
X855702Y309687D01*
X855784Y309711D01*
X855868Y309732D01*
X855951Y309749D01*
X856036Y309762D01*
X856121Y309771D01*
X856206Y309777D01*
X856292Y309779D01*
X856378Y309777D01*
X856463Y309771D01*
X856548Y309762D01*
X856633Y309749D01*
X856716Y309732D01*
X856800Y309711D01*
X856882Y309687D01*
X856963Y309659D01*
X857042Y309627D01*
X857120Y309592D01*
X857197Y309554D01*
X857271Y309512D01*
X857344Y309467D01*
X857415Y309419D01*
X857483Y309368D01*
X857550Y309314D01*
X857613Y309256D01*
X857675Y309197D01*
X857733Y309134D01*
X857789Y309069D01*
X857841Y309001D01*
X857891Y308932D01*
X857937Y308860D01*
X857980Y308786D01*
X858020Y308710D01*
X858057Y308633D01*
X858090Y308554D01*
X858120Y308474D01*
X858199Y308307D01*
X858274Y308138D01*
X858345Y307967D01*
X858412Y307795D01*
X858474Y307621D01*
X858533Y307445D01*
X858587Y307269D01*
X858637Y307091D01*
X858683Y306911D01*
X858725Y306731D01*
X858762Y306550D01*
X858795Y306368D01*
X858824Y306186D01*
X858848Y306002D01*
X858868Y305818D01*
X858883Y305634D01*
X858894Y305450D01*
X858901Y305265D01*
X858903Y305080D01*
X853681Y305080D02*
X853683Y304895D01*
X853690Y304710D01*
X853701Y304526D01*
X853716Y304342D01*
X853736Y304158D01*
X853760Y303974D01*
X853789Y303792D01*
X853822Y303610D01*
X853859Y303429D01*
X853901Y303249D01*
X853947Y303069D01*
X853997Y302891D01*
X854051Y302715D01*
X854110Y302539D01*
X854172Y302365D01*
X854239Y302193D01*
X854310Y302022D01*
X854385Y301853D01*
X854464Y301686D01*
X854494Y301606D01*
X854527Y301527D01*
X854564Y301450D01*
X854604Y301374D01*
X854647Y301300D01*
X854693Y301228D01*
X854743Y301159D01*
X854796Y301091D01*
X854851Y301026D01*
X854910Y300963D01*
X854971Y300904D01*
X855034Y300846D01*
X855101Y300792D01*
X855169Y300741D01*
X855240Y300693D01*
X855313Y300648D01*
X855387Y300606D01*
X855464Y300568D01*
X855542Y300533D01*
X855621Y300501D01*
X855702Y300473D01*
X855784Y300449D01*
X855868Y300428D01*
X855951Y300411D01*
X856036Y300398D01*
X856121Y300389D01*
X856206Y300383D01*
X856292Y300381D01*
X858119Y301686D02*
X858198Y301853D01*
X858273Y302022D01*
X858344Y302193D01*
X858411Y302365D01*
X858473Y302539D01*
X858532Y302715D01*
X858586Y302891D01*
X858636Y303069D01*
X858682Y303249D01*
X858724Y303429D01*
X858761Y303610D01*
X858794Y303792D01*
X858823Y303974D01*
X858847Y304158D01*
X858867Y304342D01*
X858882Y304526D01*
X858893Y304710D01*
X858900Y304895D01*
X858902Y305080D01*
X858120Y301686D02*
X858090Y301606D01*
X858057Y301527D01*
X858020Y301450D01*
X857980Y301374D01*
X857937Y301300D01*
X857891Y301228D01*
X857841Y301159D01*
X857789Y301091D01*
X857733Y301026D01*
X857675Y300963D01*
X857613Y300904D01*
X857550Y300846D01*
X857483Y300792D01*
X857415Y300741D01*
X857344Y300693D01*
X857271Y300648D01*
X857197Y300606D01*
X857120Y300568D01*
X857042Y300533D01*
X856963Y300501D01*
X856882Y300473D01*
X856800Y300449D01*
X856716Y300428D01*
X856633Y300411D01*
X856548Y300398D01*
X856463Y300389D01*
X856378Y300383D01*
X856292Y300381D01*
X854203Y302469D02*
X858380Y307691D01*
X866869Y309779D02*
X866869Y300381D01*
X864258Y300381D01*
X864181Y300383D01*
X864105Y300389D01*
X864028Y300398D01*
X863952Y300411D01*
X863877Y300428D01*
X863803Y300448D01*
X863730Y300473D01*
X863659Y300500D01*
X863588Y300531D01*
X863520Y300566D01*
X863453Y300604D01*
X863388Y300645D01*
X863325Y300689D01*
X863265Y300736D01*
X863206Y300787D01*
X863151Y300840D01*
X863098Y300895D01*
X863047Y300954D01*
X863000Y301014D01*
X862956Y301077D01*
X862915Y301142D01*
X862877Y301209D01*
X862842Y301277D01*
X862811Y301348D01*
X862784Y301419D01*
X862759Y301492D01*
X862739Y301566D01*
X862722Y301641D01*
X862709Y301717D01*
X862700Y301794D01*
X862694Y301870D01*
X862692Y301947D01*
X862692Y305080D01*
X862694Y305157D01*
X862700Y305233D01*
X862709Y305310D01*
X862722Y305386D01*
X862739Y305461D01*
X862759Y305535D01*
X862784Y305608D01*
X862811Y305679D01*
X862842Y305750D01*
X862877Y305818D01*
X862915Y305885D01*
X862956Y305950D01*
X863000Y306013D01*
X863047Y306073D01*
X863098Y306132D01*
X863151Y306187D01*
X863206Y306240D01*
X863265Y306291D01*
X863325Y306338D01*
X863388Y306382D01*
X863453Y306423D01*
X863520Y306461D01*
X863588Y306496D01*
X863659Y306527D01*
X863730Y306554D01*
X863803Y306579D01*
X863877Y306599D01*
X863952Y306616D01*
X864028Y306629D01*
X864105Y306638D01*
X864181Y306644D01*
X864258Y306646D01*
X866869Y306646D01*
X872534Y300381D02*
X875144Y300381D01*
X872534Y300381D02*
X872457Y300383D01*
X872381Y300389D01*
X872304Y300398D01*
X872228Y300411D01*
X872153Y300428D01*
X872079Y300448D01*
X872006Y300473D01*
X871935Y300500D01*
X871864Y300531D01*
X871796Y300566D01*
X871729Y300604D01*
X871664Y300645D01*
X871601Y300689D01*
X871541Y300736D01*
X871482Y300787D01*
X871427Y300840D01*
X871374Y300895D01*
X871323Y300954D01*
X871276Y301014D01*
X871232Y301077D01*
X871191Y301142D01*
X871153Y301209D01*
X871118Y301277D01*
X871087Y301348D01*
X871060Y301419D01*
X871035Y301492D01*
X871015Y301566D01*
X870998Y301641D01*
X870985Y301717D01*
X870976Y301794D01*
X870970Y301870D01*
X870968Y301947D01*
X870967Y301947D02*
X870967Y304558D01*
X870968Y304558D02*
X870970Y304648D01*
X870976Y304737D01*
X870985Y304827D01*
X870999Y304916D01*
X871016Y305004D01*
X871037Y305091D01*
X871062Y305178D01*
X871091Y305263D01*
X871123Y305347D01*
X871158Y305429D01*
X871198Y305510D01*
X871240Y305589D01*
X871286Y305666D01*
X871336Y305741D01*
X871388Y305814D01*
X871444Y305885D01*
X871502Y305953D01*
X871564Y306018D01*
X871628Y306081D01*
X871695Y306141D01*
X871764Y306198D01*
X871836Y306252D01*
X871910Y306303D01*
X871986Y306351D01*
X872064Y306395D01*
X872144Y306436D01*
X872226Y306474D01*
X872309Y306508D01*
X872394Y306538D01*
X872480Y306565D01*
X872566Y306588D01*
X872654Y306607D01*
X872743Y306622D01*
X872832Y306634D01*
X872921Y306642D01*
X873011Y306646D01*
X873101Y306646D01*
X873191Y306642D01*
X873280Y306634D01*
X873369Y306622D01*
X873458Y306607D01*
X873546Y306588D01*
X873632Y306565D01*
X873718Y306538D01*
X873803Y306508D01*
X873886Y306474D01*
X873968Y306436D01*
X874048Y306395D01*
X874126Y306351D01*
X874202Y306303D01*
X874276Y306252D01*
X874348Y306198D01*
X874417Y306141D01*
X874484Y306081D01*
X874548Y306018D01*
X874610Y305953D01*
X874668Y305885D01*
X874724Y305814D01*
X874776Y305741D01*
X874826Y305666D01*
X874872Y305589D01*
X874914Y305510D01*
X874954Y305429D01*
X874989Y305347D01*
X875021Y305263D01*
X875050Y305178D01*
X875075Y305091D01*
X875096Y305004D01*
X875113Y304916D01*
X875127Y304827D01*
X875136Y304737D01*
X875142Y304648D01*
X875144Y304558D01*
X875144Y303514D01*
X870967Y303514D01*
X878552Y300381D02*
X879074Y300381D01*
X878552Y300381D02*
X878552Y300903D01*
X879074Y300903D01*
X879074Y300381D01*
X878291Y298293D01*
X887783Y300381D02*
X887783Y306646D01*
X890915Y306646D01*
X890915Y305602D01*
X895393Y300381D02*
X898004Y300381D01*
X895393Y300381D02*
X895316Y300383D01*
X895240Y300389D01*
X895163Y300398D01*
X895087Y300411D01*
X895012Y300428D01*
X894938Y300448D01*
X894865Y300473D01*
X894794Y300500D01*
X894723Y300531D01*
X894655Y300566D01*
X894588Y300604D01*
X894523Y300645D01*
X894460Y300689D01*
X894400Y300736D01*
X894341Y300787D01*
X894286Y300840D01*
X894233Y300895D01*
X894182Y300954D01*
X894135Y301014D01*
X894091Y301077D01*
X894050Y301142D01*
X894012Y301209D01*
X893977Y301277D01*
X893946Y301348D01*
X893919Y301419D01*
X893894Y301492D01*
X893874Y301566D01*
X893857Y301641D01*
X893844Y301717D01*
X893835Y301794D01*
X893829Y301870D01*
X893827Y301947D01*
X893827Y304558D01*
X893828Y304558D02*
X893830Y304648D01*
X893836Y304737D01*
X893845Y304827D01*
X893859Y304916D01*
X893876Y305004D01*
X893897Y305091D01*
X893922Y305178D01*
X893951Y305263D01*
X893983Y305347D01*
X894018Y305429D01*
X894058Y305510D01*
X894100Y305589D01*
X894146Y305666D01*
X894196Y305741D01*
X894248Y305814D01*
X894304Y305885D01*
X894362Y305953D01*
X894424Y306018D01*
X894488Y306081D01*
X894555Y306141D01*
X894624Y306198D01*
X894696Y306252D01*
X894770Y306303D01*
X894846Y306351D01*
X894924Y306395D01*
X895004Y306436D01*
X895086Y306474D01*
X895169Y306508D01*
X895254Y306538D01*
X895340Y306565D01*
X895426Y306588D01*
X895514Y306607D01*
X895603Y306622D01*
X895692Y306634D01*
X895781Y306642D01*
X895871Y306646D01*
X895961Y306646D01*
X896051Y306642D01*
X896140Y306634D01*
X896229Y306622D01*
X896318Y306607D01*
X896406Y306588D01*
X896492Y306565D01*
X896578Y306538D01*
X896663Y306508D01*
X896746Y306474D01*
X896828Y306436D01*
X896908Y306395D01*
X896986Y306351D01*
X897062Y306303D01*
X897136Y306252D01*
X897208Y306198D01*
X897277Y306141D01*
X897344Y306081D01*
X897408Y306018D01*
X897470Y305953D01*
X897528Y305885D01*
X897584Y305814D01*
X897636Y305741D01*
X897686Y305666D01*
X897732Y305589D01*
X897774Y305510D01*
X897814Y305429D01*
X897849Y305347D01*
X897881Y305263D01*
X897910Y305178D01*
X897935Y305091D01*
X897956Y305004D01*
X897973Y304916D01*
X897987Y304827D01*
X897996Y304737D01*
X898002Y304648D01*
X898004Y304558D01*
X898004Y303514D01*
X893827Y303514D01*
X901447Y306646D02*
X903535Y300381D01*
X905624Y306646D01*
X909154Y307691D02*
X911765Y309779D01*
X911765Y300381D01*
X909154Y300381D02*
X914376Y300381D01*
X917871Y300381D02*
X918393Y300381D01*
X917871Y300381D02*
X917871Y300903D01*
X918393Y300903D01*
X918393Y300381D01*
X917610Y298293D01*
X928921Y304558D02*
X932054Y304558D01*
X928921Y304558D02*
X928832Y304560D01*
X928744Y304566D01*
X928656Y304575D01*
X928568Y304588D01*
X928481Y304605D01*
X928395Y304625D01*
X928310Y304650D01*
X928225Y304677D01*
X928142Y304709D01*
X928061Y304743D01*
X927981Y304782D01*
X927903Y304823D01*
X927826Y304868D01*
X927752Y304916D01*
X927679Y304967D01*
X927609Y305021D01*
X927542Y305079D01*
X927476Y305139D01*
X927414Y305201D01*
X927354Y305267D01*
X927296Y305334D01*
X927242Y305404D01*
X927191Y305477D01*
X927143Y305551D01*
X927098Y305628D01*
X927057Y305706D01*
X927018Y305786D01*
X926984Y305867D01*
X926952Y305950D01*
X926925Y306035D01*
X926900Y306120D01*
X926880Y306206D01*
X926863Y306293D01*
X926850Y306381D01*
X926841Y306469D01*
X926835Y306557D01*
X926833Y306646D01*
X926833Y307168D01*
X926832Y307168D02*
X926834Y307269D01*
X926840Y307370D01*
X926850Y307471D01*
X926863Y307571D01*
X926881Y307671D01*
X926902Y307770D01*
X926928Y307868D01*
X926957Y307965D01*
X926989Y308061D01*
X927026Y308155D01*
X927066Y308248D01*
X927110Y308340D01*
X927157Y308429D01*
X927208Y308517D01*
X927262Y308603D01*
X927319Y308686D01*
X927379Y308768D01*
X927443Y308846D01*
X927509Y308923D01*
X927579Y308996D01*
X927651Y309067D01*
X927726Y309135D01*
X927804Y309200D01*
X927884Y309262D01*
X927966Y309321D01*
X928051Y309377D01*
X928138Y309429D01*
X928226Y309478D01*
X928317Y309524D01*
X928409Y309565D01*
X928503Y309604D01*
X928598Y309638D01*
X928694Y309669D01*
X928792Y309696D01*
X928890Y309720D01*
X928990Y309739D01*
X929090Y309755D01*
X929190Y309767D01*
X929291Y309775D01*
X929392Y309779D01*
X929494Y309779D01*
X929595Y309775D01*
X929696Y309767D01*
X929796Y309755D01*
X929896Y309739D01*
X929996Y309720D01*
X930094Y309696D01*
X930192Y309669D01*
X930288Y309638D01*
X930383Y309604D01*
X930477Y309565D01*
X930569Y309524D01*
X930660Y309478D01*
X930749Y309429D01*
X930835Y309377D01*
X930920Y309321D01*
X931002Y309262D01*
X931082Y309200D01*
X931160Y309135D01*
X931235Y309067D01*
X931307Y308996D01*
X931377Y308923D01*
X931443Y308846D01*
X931507Y308768D01*
X931567Y308686D01*
X931624Y308603D01*
X931678Y308517D01*
X931729Y308429D01*
X931776Y308340D01*
X931820Y308248D01*
X931860Y308155D01*
X931897Y308061D01*
X931929Y307965D01*
X931958Y307868D01*
X931984Y307770D01*
X932005Y307671D01*
X932023Y307571D01*
X932036Y307471D01*
X932046Y307370D01*
X932052Y307269D01*
X932054Y307168D01*
X932054Y304558D01*
X932052Y304432D01*
X932046Y304306D01*
X932037Y304180D01*
X932024Y304055D01*
X932006Y303930D01*
X931986Y303805D01*
X931961Y303681D01*
X931933Y303558D01*
X931901Y303436D01*
X931865Y303315D01*
X931826Y303195D01*
X931783Y303077D01*
X931736Y302960D01*
X931686Y302844D01*
X931632Y302729D01*
X931576Y302617D01*
X931515Y302506D01*
X931452Y302397D01*
X931385Y302290D01*
X931315Y302185D01*
X931241Y302082D01*
X931165Y301982D01*
X931086Y301884D01*
X931004Y301788D01*
X930918Y301695D01*
X930831Y301604D01*
X930740Y301517D01*
X930647Y301431D01*
X930551Y301349D01*
X930453Y301270D01*
X930353Y301194D01*
X930250Y301120D01*
X930145Y301050D01*
X930038Y300983D01*
X929929Y300920D01*
X929818Y300859D01*
X929706Y300803D01*
X929591Y300749D01*
X929475Y300699D01*
X929358Y300652D01*
X929240Y300609D01*
X929120Y300570D01*
X928999Y300534D01*
X928877Y300502D01*
X928754Y300474D01*
X928630Y300449D01*
X928505Y300429D01*
X928380Y300411D01*
X928255Y300398D01*
X928129Y300389D01*
X928003Y300383D01*
X927877Y300381D01*
X936064Y304036D02*
X942330Y304036D01*
X949211Y309780D02*
X949306Y309778D01*
X949400Y309772D01*
X949494Y309763D01*
X949588Y309750D01*
X949681Y309733D01*
X949773Y309712D01*
X949865Y309687D01*
X949955Y309659D01*
X950044Y309627D01*
X950132Y309592D01*
X950218Y309553D01*
X950303Y309511D01*
X950386Y309465D01*
X950467Y309416D01*
X950546Y309364D01*
X950623Y309309D01*
X950697Y309250D01*
X950769Y309189D01*
X950839Y309125D01*
X950906Y309058D01*
X950970Y308988D01*
X951031Y308916D01*
X951090Y308842D01*
X951145Y308765D01*
X951197Y308686D01*
X951246Y308605D01*
X951292Y308522D01*
X951334Y308437D01*
X951373Y308351D01*
X951408Y308263D01*
X951440Y308174D01*
X951468Y308084D01*
X951493Y307992D01*
X951514Y307900D01*
X951531Y307807D01*
X951544Y307713D01*
X951553Y307619D01*
X951559Y307525D01*
X951561Y307430D01*
X949211Y309779D02*
X949103Y309777D01*
X948994Y309771D01*
X948886Y309761D01*
X948779Y309748D01*
X948672Y309730D01*
X948565Y309709D01*
X948460Y309684D01*
X948355Y309655D01*
X948252Y309623D01*
X948150Y309586D01*
X948049Y309546D01*
X947950Y309503D01*
X947852Y309456D01*
X947756Y309405D01*
X947662Y309351D01*
X947570Y309294D01*
X947480Y309233D01*
X947392Y309169D01*
X947307Y309103D01*
X947224Y309033D01*
X947144Y308960D01*
X947066Y308884D01*
X946991Y308806D01*
X946919Y308725D01*
X946850Y308641D01*
X946784Y308555D01*
X946721Y308467D01*
X946662Y308376D01*
X946605Y308284D01*
X946552Y308189D01*
X946503Y308093D01*
X946457Y307994D01*
X946414Y307895D01*
X946375Y307793D01*
X946340Y307691D01*
X950778Y305602D02*
X950847Y305671D01*
X950913Y305742D01*
X950977Y305815D01*
X951038Y305891D01*
X951096Y305970D01*
X951150Y306050D01*
X951202Y306133D01*
X951250Y306217D01*
X951296Y306303D01*
X951337Y306391D01*
X951376Y306481D01*
X951411Y306572D01*
X951442Y306664D01*
X951470Y306757D01*
X951494Y306851D01*
X951514Y306946D01*
X951531Y307042D01*
X951544Y307139D01*
X951553Y307236D01*
X951559Y307333D01*
X951561Y307430D01*
X950778Y305602D02*
X946340Y300381D01*
X951561Y300381D01*
X955484Y305080D02*
X955486Y305265D01*
X955493Y305450D01*
X955504Y305634D01*
X955519Y305818D01*
X955539Y306002D01*
X955563Y306186D01*
X955592Y306368D01*
X955625Y306550D01*
X955662Y306731D01*
X955704Y306911D01*
X955750Y307091D01*
X955800Y307269D01*
X955854Y307445D01*
X955913Y307621D01*
X955975Y307795D01*
X956042Y307967D01*
X956113Y308138D01*
X956188Y308307D01*
X956267Y308474D01*
X956266Y308474D02*
X956296Y308554D01*
X956329Y308633D01*
X956366Y308710D01*
X956406Y308786D01*
X956449Y308860D01*
X956495Y308932D01*
X956545Y309001D01*
X956597Y309069D01*
X956653Y309134D01*
X956711Y309197D01*
X956773Y309256D01*
X956836Y309314D01*
X956903Y309368D01*
X956971Y309419D01*
X957042Y309467D01*
X957115Y309512D01*
X957189Y309554D01*
X957266Y309592D01*
X957344Y309627D01*
X957423Y309659D01*
X957504Y309687D01*
X957586Y309711D01*
X957670Y309732D01*
X957753Y309749D01*
X957838Y309762D01*
X957923Y309771D01*
X958008Y309777D01*
X958094Y309779D01*
X958180Y309777D01*
X958265Y309771D01*
X958350Y309762D01*
X958435Y309749D01*
X958518Y309732D01*
X958602Y309711D01*
X958684Y309687D01*
X958765Y309659D01*
X958844Y309627D01*
X958922Y309592D01*
X958999Y309554D01*
X959073Y309512D01*
X959146Y309467D01*
X959217Y309419D01*
X959285Y309368D01*
X959352Y309314D01*
X959415Y309256D01*
X959477Y309197D01*
X959535Y309134D01*
X959591Y309069D01*
X959643Y309001D01*
X959693Y308932D01*
X959739Y308860D01*
X959782Y308786D01*
X959822Y308710D01*
X959859Y308633D01*
X959892Y308554D01*
X959922Y308474D01*
X960001Y308307D01*
X960076Y308138D01*
X960147Y307967D01*
X960214Y307795D01*
X960276Y307621D01*
X960335Y307445D01*
X960389Y307269D01*
X960439Y307091D01*
X960485Y306911D01*
X960527Y306731D01*
X960564Y306550D01*
X960597Y306368D01*
X960626Y306186D01*
X960650Y306002D01*
X960670Y305818D01*
X960685Y305634D01*
X960696Y305450D01*
X960703Y305265D01*
X960705Y305080D01*
X955484Y305080D02*
X955486Y304895D01*
X955493Y304710D01*
X955504Y304526D01*
X955519Y304342D01*
X955539Y304158D01*
X955563Y303974D01*
X955592Y303792D01*
X955625Y303610D01*
X955662Y303429D01*
X955704Y303249D01*
X955750Y303069D01*
X955800Y302891D01*
X955854Y302715D01*
X955913Y302539D01*
X955975Y302365D01*
X956042Y302193D01*
X956113Y302022D01*
X956188Y301853D01*
X956267Y301686D01*
X956266Y301686D02*
X956296Y301606D01*
X956329Y301527D01*
X956366Y301450D01*
X956406Y301374D01*
X956449Y301300D01*
X956495Y301228D01*
X956545Y301159D01*
X956598Y301091D01*
X956653Y301026D01*
X956712Y300963D01*
X956773Y300904D01*
X956836Y300846D01*
X956903Y300792D01*
X956971Y300741D01*
X957042Y300693D01*
X957115Y300648D01*
X957189Y300606D01*
X957266Y300568D01*
X957344Y300533D01*
X957423Y300501D01*
X957504Y300473D01*
X957586Y300449D01*
X957670Y300428D01*
X957753Y300411D01*
X957838Y300398D01*
X957923Y300389D01*
X958008Y300383D01*
X958094Y300381D01*
X959922Y301686D02*
X960001Y301853D01*
X960076Y302022D01*
X960147Y302193D01*
X960214Y302365D01*
X960276Y302539D01*
X960335Y302715D01*
X960389Y302891D01*
X960439Y303069D01*
X960485Y303249D01*
X960527Y303429D01*
X960564Y303610D01*
X960597Y303792D01*
X960626Y303974D01*
X960650Y304158D01*
X960670Y304342D01*
X960685Y304526D01*
X960696Y304710D01*
X960703Y304895D01*
X960705Y305080D01*
X959922Y301686D02*
X959892Y301606D01*
X959859Y301527D01*
X959822Y301450D01*
X959782Y301374D01*
X959739Y301300D01*
X959693Y301228D01*
X959643Y301159D01*
X959591Y301091D01*
X959535Y301026D01*
X959477Y300963D01*
X959415Y300904D01*
X959352Y300846D01*
X959285Y300792D01*
X959217Y300741D01*
X959146Y300693D01*
X959073Y300648D01*
X958999Y300606D01*
X958922Y300568D01*
X958844Y300533D01*
X958765Y300501D01*
X958684Y300473D01*
X958602Y300449D01*
X958518Y300428D01*
X958435Y300411D01*
X958350Y300398D01*
X958265Y300389D01*
X958180Y300383D01*
X958094Y300381D01*
X956006Y302469D02*
X960183Y307691D01*
X964628Y307691D02*
X967238Y309779D01*
X967238Y300381D01*
X964628Y300381D02*
X969849Y300381D01*
X973771Y302992D02*
X973773Y303093D01*
X973779Y303194D01*
X973789Y303295D01*
X973802Y303395D01*
X973820Y303495D01*
X973841Y303594D01*
X973867Y303692D01*
X973896Y303789D01*
X973928Y303885D01*
X973965Y303979D01*
X974005Y304072D01*
X974049Y304164D01*
X974096Y304253D01*
X974147Y304341D01*
X974201Y304427D01*
X974258Y304510D01*
X974318Y304592D01*
X974382Y304670D01*
X974448Y304747D01*
X974518Y304820D01*
X974590Y304891D01*
X974665Y304959D01*
X974743Y305024D01*
X974823Y305086D01*
X974905Y305145D01*
X974990Y305201D01*
X975077Y305253D01*
X975165Y305302D01*
X975256Y305348D01*
X975348Y305389D01*
X975442Y305428D01*
X975537Y305462D01*
X975633Y305493D01*
X975731Y305520D01*
X975829Y305544D01*
X975929Y305563D01*
X976029Y305579D01*
X976129Y305591D01*
X976230Y305599D01*
X976331Y305603D01*
X976433Y305603D01*
X976534Y305599D01*
X976635Y305591D01*
X976735Y305579D01*
X976835Y305563D01*
X976935Y305544D01*
X977033Y305520D01*
X977131Y305493D01*
X977227Y305462D01*
X977322Y305428D01*
X977416Y305389D01*
X977508Y305348D01*
X977599Y305302D01*
X977688Y305253D01*
X977774Y305201D01*
X977859Y305145D01*
X977941Y305086D01*
X978021Y305024D01*
X978099Y304959D01*
X978174Y304891D01*
X978246Y304820D01*
X978316Y304747D01*
X978382Y304670D01*
X978446Y304592D01*
X978506Y304510D01*
X978563Y304427D01*
X978617Y304341D01*
X978668Y304253D01*
X978715Y304164D01*
X978759Y304072D01*
X978799Y303979D01*
X978836Y303885D01*
X978868Y303789D01*
X978897Y303692D01*
X978923Y303594D01*
X978944Y303495D01*
X978962Y303395D01*
X978975Y303295D01*
X978985Y303194D01*
X978991Y303093D01*
X978993Y302992D01*
X978991Y302891D01*
X978985Y302790D01*
X978975Y302689D01*
X978962Y302589D01*
X978944Y302489D01*
X978923Y302390D01*
X978897Y302292D01*
X978868Y302195D01*
X978836Y302099D01*
X978799Y302005D01*
X978759Y301912D01*
X978715Y301820D01*
X978668Y301731D01*
X978617Y301643D01*
X978563Y301557D01*
X978506Y301474D01*
X978446Y301392D01*
X978382Y301314D01*
X978316Y301237D01*
X978246Y301164D01*
X978174Y301093D01*
X978099Y301025D01*
X978021Y300960D01*
X977941Y300898D01*
X977859Y300839D01*
X977774Y300783D01*
X977688Y300731D01*
X977599Y300682D01*
X977508Y300636D01*
X977416Y300595D01*
X977322Y300556D01*
X977227Y300522D01*
X977131Y300491D01*
X977033Y300464D01*
X976935Y300440D01*
X976835Y300421D01*
X976735Y300405D01*
X976635Y300393D01*
X976534Y300385D01*
X976433Y300381D01*
X976331Y300381D01*
X976230Y300385D01*
X976129Y300393D01*
X976029Y300405D01*
X975929Y300421D01*
X975829Y300440D01*
X975731Y300464D01*
X975633Y300491D01*
X975537Y300522D01*
X975442Y300556D01*
X975348Y300595D01*
X975256Y300636D01*
X975165Y300682D01*
X975077Y300731D01*
X974990Y300783D01*
X974905Y300839D01*
X974823Y300898D01*
X974743Y300960D01*
X974665Y301025D01*
X974590Y301093D01*
X974518Y301164D01*
X974448Y301237D01*
X974382Y301314D01*
X974318Y301392D01*
X974258Y301474D01*
X974201Y301557D01*
X974147Y301643D01*
X974096Y301731D01*
X974049Y301820D01*
X974005Y301912D01*
X973965Y302005D01*
X973928Y302099D01*
X973896Y302195D01*
X973867Y302292D01*
X973841Y302390D01*
X973820Y302489D01*
X973802Y302589D01*
X973789Y302689D01*
X973779Y302790D01*
X973773Y302891D01*
X973771Y302992D01*
X974294Y307691D02*
X974296Y307781D01*
X974302Y307870D01*
X974311Y307960D01*
X974325Y308049D01*
X974342Y308137D01*
X974363Y308224D01*
X974388Y308311D01*
X974417Y308396D01*
X974449Y308480D01*
X974484Y308562D01*
X974524Y308643D01*
X974566Y308722D01*
X974612Y308799D01*
X974662Y308874D01*
X974714Y308947D01*
X974770Y309018D01*
X974828Y309086D01*
X974890Y309151D01*
X974954Y309214D01*
X975021Y309274D01*
X975090Y309331D01*
X975162Y309385D01*
X975236Y309436D01*
X975312Y309484D01*
X975390Y309528D01*
X975470Y309569D01*
X975552Y309607D01*
X975635Y309641D01*
X975720Y309671D01*
X975806Y309698D01*
X975892Y309721D01*
X975980Y309740D01*
X976069Y309755D01*
X976158Y309767D01*
X976247Y309775D01*
X976337Y309779D01*
X976427Y309779D01*
X976517Y309775D01*
X976606Y309767D01*
X976695Y309755D01*
X976784Y309740D01*
X976872Y309721D01*
X976958Y309698D01*
X977044Y309671D01*
X977129Y309641D01*
X977212Y309607D01*
X977294Y309569D01*
X977374Y309528D01*
X977452Y309484D01*
X977528Y309436D01*
X977602Y309385D01*
X977674Y309331D01*
X977743Y309274D01*
X977810Y309214D01*
X977874Y309151D01*
X977936Y309086D01*
X977994Y309018D01*
X978050Y308947D01*
X978102Y308874D01*
X978152Y308799D01*
X978198Y308722D01*
X978240Y308643D01*
X978280Y308562D01*
X978315Y308480D01*
X978347Y308396D01*
X978376Y308311D01*
X978401Y308224D01*
X978422Y308137D01*
X978439Y308049D01*
X978453Y307960D01*
X978462Y307870D01*
X978468Y307781D01*
X978470Y307691D01*
X978468Y307601D01*
X978462Y307512D01*
X978453Y307422D01*
X978439Y307333D01*
X978422Y307245D01*
X978401Y307158D01*
X978376Y307071D01*
X978347Y306986D01*
X978315Y306902D01*
X978280Y306820D01*
X978240Y306739D01*
X978198Y306660D01*
X978152Y306583D01*
X978102Y306508D01*
X978050Y306435D01*
X977994Y306364D01*
X977936Y306296D01*
X977874Y306231D01*
X977810Y306168D01*
X977743Y306108D01*
X977674Y306051D01*
X977602Y305997D01*
X977528Y305946D01*
X977452Y305898D01*
X977374Y305854D01*
X977294Y305813D01*
X977212Y305775D01*
X977129Y305741D01*
X977044Y305711D01*
X976958Y305684D01*
X976872Y305661D01*
X976784Y305642D01*
X976695Y305627D01*
X976606Y305615D01*
X976517Y305607D01*
X976427Y305603D01*
X976337Y305603D01*
X976247Y305607D01*
X976158Y305615D01*
X976069Y305627D01*
X975980Y305642D01*
X975892Y305661D01*
X975806Y305684D01*
X975720Y305711D01*
X975635Y305741D01*
X975552Y305775D01*
X975470Y305813D01*
X975390Y305854D01*
X975312Y305898D01*
X975236Y305946D01*
X975162Y305997D01*
X975090Y306051D01*
X975021Y306108D01*
X974954Y306168D01*
X974890Y306231D01*
X974828Y306296D01*
X974770Y306364D01*
X974714Y306435D01*
X974662Y306508D01*
X974612Y306583D01*
X974566Y306660D01*
X974524Y306739D01*
X974484Y306820D01*
X974449Y306902D01*
X974417Y306986D01*
X974388Y307071D01*
X974363Y307158D01*
X974342Y307245D01*
X974325Y307333D01*
X974311Y307422D01*
X974302Y307512D01*
X974296Y307601D01*
X974294Y307691D01*
X659146Y286536D02*
X652881Y286536D01*
X656014Y283403D02*
X656014Y289668D01*
X668121Y286536D02*
X674386Y286536D01*
D11*
X248400Y921000D03*
X248400Y889000D03*
X296400Y889000D03*
X296400Y921000D03*
X168000Y966000D03*
X168000Y934000D03*
X216000Y934000D03*
X216000Y966000D03*
D12*
X337400Y399390D03*
X337400Y381610D03*
X364900Y400190D03*
X364900Y382410D03*
X259900Y308490D03*
X259900Y290710D03*
D13*
X303480Y352150D03*
X303480Y339450D03*
X303480Y326750D03*
X303480Y314050D03*
X357720Y314050D03*
X357720Y326750D03*
X357720Y339450D03*
X357720Y352150D03*
D14*
X600200Y309300D03*
D15*
X574800Y309300D03*
X549400Y309300D03*
X524000Y309300D03*
X498600Y309300D03*
X473200Y309300D03*
X447800Y309300D03*
X422400Y309300D03*
D16*
X259700Y347900D03*
X259700Y329900D03*
D17*
X171061Y329300D03*
X236339Y329300D03*
D11*
X91000Y941000D03*
X91000Y909000D03*
X139000Y909000D03*
X139000Y941000D03*
X70200Y876000D03*
X70200Y844000D03*
X118200Y844000D03*
X118200Y876000D03*
X75200Y806000D03*
X75200Y774000D03*
X123200Y774000D03*
X123200Y806000D03*
X110200Y741000D03*
X110200Y709000D03*
X158200Y709000D03*
X158200Y741000D03*
X244800Y709000D03*
X244800Y741000D03*
X196800Y741000D03*
X196800Y709000D03*
X301600Y769000D03*
X301600Y801000D03*
X253600Y801000D03*
X253600Y769000D03*
X409800Y707900D03*
X409800Y739900D03*
X361800Y739900D03*
X361800Y707900D03*
X409800Y775800D03*
X409800Y807800D03*
X361800Y807800D03*
X361800Y775800D03*
X409800Y846500D03*
X409800Y878500D03*
X361800Y878500D03*
X361800Y846500D03*
X409800Y912200D03*
X409800Y944200D03*
X361800Y944200D03*
X361800Y912200D03*
G36*
X446427Y854142D02*
X451045Y841457D01*
X442119Y838208D01*
X437501Y850893D01*
X446427Y854142D01*
G37*
G36*
X476498Y865087D02*
X481116Y852402D01*
X472190Y849153D01*
X467572Y861838D01*
X476498Y865087D01*
G37*
G36*
X460081Y910192D02*
X464699Y897507D01*
X455773Y894258D01*
X451155Y906943D01*
X460081Y910192D01*
G37*
G36*
X430010Y899247D02*
X434628Y886562D01*
X425702Y883313D01*
X421084Y895998D01*
X430010Y899247D01*
G37*
G36*
X474527Y779542D02*
X479145Y766857D01*
X470219Y763608D01*
X465601Y776293D01*
X474527Y779542D01*
G37*
G36*
X504598Y790487D02*
X509216Y777802D01*
X500290Y774553D01*
X495672Y787238D01*
X504598Y790487D01*
G37*
G36*
X488181Y835592D02*
X492799Y822907D01*
X483873Y819658D01*
X479255Y832343D01*
X488181Y835592D01*
G37*
G36*
X458110Y824647D02*
X462728Y811962D01*
X453802Y808713D01*
X449184Y821398D01*
X458110Y824647D01*
G37*
X486800Y745700D03*
X486800Y713700D03*
X534800Y713700D03*
X534800Y745700D03*
G36*
X565672Y811962D02*
X570290Y824647D01*
X579216Y821398D01*
X574598Y808713D01*
X565672Y811962D01*
G37*
G36*
X535601Y822907D02*
X540219Y835592D01*
X549145Y832343D01*
X544527Y819658D01*
X535601Y822907D01*
G37*
G36*
X519184Y777802D02*
X523802Y790487D01*
X532728Y787238D01*
X528110Y774553D01*
X519184Y777802D01*
G37*
G36*
X549255Y766857D02*
X553873Y779542D01*
X562799Y776293D01*
X558181Y763608D01*
X549255Y766857D01*
G37*
G36*
X590672Y886562D02*
X595290Y899247D01*
X604216Y895998D01*
X599598Y883313D01*
X590672Y886562D01*
G37*
G36*
X560601Y897507D02*
X565219Y910192D01*
X574145Y906943D01*
X569527Y894258D01*
X560601Y897507D01*
G37*
G36*
X544184Y852402D02*
X548802Y865087D01*
X557728Y861838D01*
X553110Y849153D01*
X544184Y852402D01*
G37*
G36*
X574255Y841457D02*
X578873Y854142D01*
X587799Y850893D01*
X583181Y838208D01*
X574255Y841457D01*
G37*
X669800Y911600D03*
X669800Y943600D03*
X621800Y943600D03*
X621800Y911600D03*
X621800Y878500D03*
X621800Y846500D03*
X669800Y846500D03*
X669800Y878500D03*
X621800Y807800D03*
X621800Y775800D03*
X669800Y775800D03*
X669800Y807800D03*
X669800Y710100D03*
X669800Y742100D03*
X621800Y742100D03*
X621800Y710100D03*
X808200Y709500D03*
X808200Y741500D03*
X760200Y741500D03*
X760200Y709500D03*
X808200Y779500D03*
X808200Y811500D03*
X760200Y811500D03*
X760200Y779500D03*
X808200Y843000D03*
X808200Y875000D03*
X760200Y875000D03*
X760200Y843000D03*
X808200Y908000D03*
X808200Y940000D03*
X760200Y940000D03*
X760200Y908000D03*
X891400Y900000D03*
X891400Y932000D03*
X843400Y932000D03*
X843400Y900000D03*
X905200Y873500D03*
X905200Y841500D03*
X953200Y841500D03*
X953200Y873500D03*
X905200Y803500D03*
X905200Y771500D03*
X953200Y771500D03*
X953200Y803500D03*
X843400Y748500D03*
X843400Y716500D03*
X891400Y716500D03*
X891400Y748500D03*
X223600Y596000D03*
X223600Y564000D03*
X271600Y564000D03*
X271600Y596000D03*
X149000Y646000D03*
X149000Y614000D03*
X197000Y614000D03*
X197000Y646000D03*
X71000Y621000D03*
X71000Y589000D03*
X119000Y589000D03*
X119000Y621000D03*
X50200Y551000D03*
X50200Y519000D03*
X98200Y519000D03*
X98200Y551000D03*
X51800Y476000D03*
X51800Y444000D03*
X99800Y444000D03*
X99800Y476000D03*
X90200Y406000D03*
X90200Y374000D03*
X138200Y374000D03*
X138200Y406000D03*
X224800Y374000D03*
X224800Y406000D03*
X176800Y406000D03*
X176800Y374000D03*
X276600Y439000D03*
X276600Y471000D03*
X228600Y471000D03*
X228600Y439000D03*
X388200Y430900D03*
X388200Y462900D03*
X340200Y462900D03*
X340200Y430900D03*
X371400Y494700D03*
X371400Y526700D03*
X323400Y526700D03*
X323400Y494700D03*
X388200Y562400D03*
X388200Y594400D03*
X340200Y594400D03*
X340200Y562400D03*
X458200Y614000D03*
X458200Y646000D03*
X410200Y646000D03*
X410200Y614000D03*
X481800Y594400D03*
X481800Y562400D03*
X529800Y562400D03*
X529800Y594400D03*
X498400Y526700D03*
X498400Y494700D03*
X546400Y494700D03*
X546400Y526700D03*
X481800Y462900D03*
X481800Y430900D03*
X529800Y430900D03*
X529800Y462900D03*
X410200Y406000D03*
X410200Y374000D03*
X458200Y374000D03*
X458200Y406000D03*
X638200Y374000D03*
X638200Y406000D03*
X590200Y406000D03*
X590200Y374000D03*
X638200Y454000D03*
X638200Y486000D03*
X590200Y486000D03*
X590200Y454000D03*
X638200Y534000D03*
X638200Y566000D03*
X590200Y566000D03*
X590200Y534000D03*
X638200Y614000D03*
X638200Y646000D03*
X590200Y646000D03*
X590200Y614000D03*
X724800Y599000D03*
X724800Y631000D03*
X676800Y631000D03*
X676800Y599000D03*
X746000Y567300D03*
X746000Y535300D03*
X794000Y535300D03*
X794000Y567300D03*
X746000Y487300D03*
X746000Y455300D03*
X794000Y455300D03*
X794000Y487300D03*
X676800Y426000D03*
X676800Y394000D03*
X724800Y394000D03*
X724800Y426000D03*
X889800Y374000D03*
X889800Y406000D03*
X841800Y406000D03*
X841800Y374000D03*
X891400Y454000D03*
X891400Y486000D03*
X843400Y486000D03*
X843400Y454000D03*
X893000Y534000D03*
X893000Y566000D03*
X845000Y566000D03*
X845000Y534000D03*
X893200Y614000D03*
X893200Y646000D03*
X845200Y646000D03*
X845200Y614000D03*
X969800Y614000D03*
X969800Y646000D03*
X921800Y646000D03*
X921800Y614000D03*
X923600Y526700D03*
X923600Y494700D03*
X971600Y494700D03*
X971600Y526700D03*
X925000Y406000D03*
X925000Y374000D03*
X973000Y374000D03*
X973000Y406000D03*
D15*
X648800Y310500D03*
X674200Y310500D03*
D18*
X266390Y945000D03*
X248610Y945000D03*
X198890Y910000D03*
X181110Y910000D03*
X68890Y900000D03*
X51110Y900000D03*
X101110Y965000D03*
X118890Y965000D03*
D12*
X50000Y808890D03*
X50000Y791110D03*
X85000Y738890D03*
X85000Y721110D03*
X270000Y706110D03*
X270000Y723890D03*
X300000Y743890D03*
X300000Y726110D03*
X432500Y711110D03*
X432500Y728890D03*
X435000Y776110D03*
X435000Y793890D03*
X335000Y861110D03*
X335000Y878890D03*
X335000Y931110D03*
X335000Y948890D03*
D18*
G36*
X493084Y909698D02*
X497080Y898720D01*
X482998Y893594D01*
X479002Y904572D01*
X493084Y909698D01*
G37*
G36*
X487002Y926406D02*
X490998Y915428D01*
X476916Y910302D01*
X472920Y921280D01*
X487002Y926406D01*
G37*
D12*
X457500Y738890D03*
X457500Y721110D03*
D18*
X468890Y685000D03*
X451110Y685000D03*
G36*
X576502Y780428D02*
X580498Y791406D01*
X594580Y786280D01*
X590584Y775302D01*
X576502Y780428D01*
G37*
G36*
X570420Y763720D02*
X574416Y774698D01*
X588498Y769572D01*
X584502Y758594D01*
X570420Y763720D01*
G37*
G36*
X594002Y822928D02*
X597998Y833906D01*
X612080Y828780D01*
X608084Y817802D01*
X594002Y822928D01*
G37*
G36*
X587920Y806220D02*
X591916Y817198D01*
X605998Y812072D01*
X602002Y801094D01*
X587920Y806220D01*
G37*
D12*
X692500Y908890D03*
X692500Y891110D03*
X692500Y861390D03*
X692500Y843610D03*
X692500Y808890D03*
X692500Y791110D03*
X692500Y718610D03*
X692500Y736390D03*
D18*
X808890Y685000D03*
X791110Y685000D03*
D12*
X830000Y783610D03*
X830000Y801390D03*
X832500Y843610D03*
X832500Y861390D03*
X857500Y868890D03*
X857500Y851110D03*
X915000Y918610D03*
X915000Y936390D03*
D18*
X938610Y897500D03*
X956390Y897500D03*
D12*
X875000Y806110D03*
X875000Y823890D03*
D18*
X861110Y772500D03*
X878890Y772500D03*
X236110Y620000D03*
X253890Y620000D03*
X123890Y650000D03*
X106110Y650000D03*
D12*
X42500Y621390D03*
X42500Y603610D03*
D18*
X48890Y575000D03*
X31110Y575000D03*
D12*
X30000Y476390D03*
X30000Y458610D03*
X70000Y403890D03*
X70000Y386110D03*
X247500Y378610D03*
X247500Y396390D03*
X297500Y443610D03*
X297500Y461390D03*
X410000Y438610D03*
X410000Y456390D03*
X395000Y496110D03*
X395000Y513890D03*
X410000Y563610D03*
X410000Y581390D03*
X480000Y628610D03*
X480000Y646390D03*
D18*
X503610Y617500D03*
X521390Y617500D03*
D12*
X477500Y523890D03*
X477500Y506110D03*
X460000Y461390D03*
X460000Y443610D03*
X435000Y438610D03*
X435000Y456390D03*
X567500Y391110D03*
X567500Y408890D03*
X660000Y456110D03*
X660000Y473890D03*
X660000Y541110D03*
X660000Y558890D03*
D18*
X638890Y590000D03*
X621110Y590000D03*
D12*
X747500Y601110D03*
X747500Y618890D03*
X725000Y563890D03*
X725000Y546110D03*
X725000Y493890D03*
X725000Y476110D03*
D18*
X688610Y450000D03*
X706390Y450000D03*
X901110Y350000D03*
X918890Y350000D03*
D12*
X912500Y451110D03*
X912500Y468890D03*
D18*
X893890Y510000D03*
X876110Y510000D03*
X888890Y590000D03*
X871110Y590000D03*
X951110Y585000D03*
X968890Y585000D03*
X931110Y550000D03*
X948890Y550000D03*
X941110Y430000D03*
X958890Y430000D03*
D19*
X430000Y690000D03*
D20*
X266390Y919010D02*
X266390Y945000D01*
X266390Y919010D02*
X296400Y889000D01*
X118890Y929110D02*
X118890Y965000D01*
X118890Y929110D02*
X139000Y909000D01*
X140000Y910000D02*
X181110Y910000D01*
X140000Y910000D02*
X139000Y909000D01*
X139000Y864800D01*
X118200Y844000D01*
X118200Y779000D02*
X123200Y774000D01*
X133760Y799672D02*
X133760Y812328D01*
X118200Y827888D02*
X118200Y844000D01*
X118200Y784112D02*
X118200Y779000D01*
X133760Y812328D02*
X118200Y827888D01*
X133760Y799672D02*
X118200Y784112D01*
X146090Y721110D02*
X85000Y721110D01*
X146090Y721110D02*
X158200Y709000D01*
X168760Y734672D02*
X168760Y747328D01*
X166528Y749560D01*
X158200Y724112D02*
X158200Y709000D01*
X147640Y749560D02*
X123200Y774000D01*
X168760Y734672D02*
X158200Y724112D01*
X166528Y749560D02*
X147640Y749560D01*
X158200Y709000D02*
X164800Y709000D01*
X196800Y741000D01*
X50000Y790000D02*
X50000Y791110D01*
X50000Y790000D02*
X50000Y710000D01*
X270000Y723890D02*
X270000Y784600D01*
X253600Y801000D01*
X272220Y726110D02*
X300000Y726110D01*
X272220Y726110D02*
X270000Y723890D01*
X293272Y809560D02*
X309928Y809560D01*
X345080Y756620D02*
X361800Y739900D01*
X284712Y801000D02*
X253600Y801000D01*
X284712Y801000D02*
X293272Y809560D01*
X309928Y809560D02*
X345080Y774408D01*
X345080Y770000D01*
X345080Y756620D01*
X345080Y770000D02*
X345080Y791080D01*
X361800Y807800D01*
X335000Y878890D02*
X324890Y889000D01*
X296400Y889000D01*
X351240Y905872D02*
X351240Y918528D01*
X361800Y895312D02*
X361800Y878500D01*
X361800Y929088D02*
X361800Y940000D01*
X361800Y944200D01*
X351240Y905872D02*
X361800Y895312D01*
X351240Y918528D02*
X361800Y929088D01*
X352910Y948890D02*
X335000Y948890D01*
X352910Y948890D02*
X361800Y940000D01*
X457927Y902225D02*
X474056Y918354D01*
X481959Y918354D01*
X486027Y844301D02*
X486027Y827625D01*
X486495Y913819D02*
X494790Y913819D01*
X501200Y907409D01*
X501200Y859474D01*
X500863Y859137D01*
X486027Y844301D01*
X486495Y913819D02*
X481959Y918354D01*
X444071Y785762D02*
X446303Y783530D01*
X443128Y785762D02*
X435000Y793890D01*
X443128Y785762D02*
X444071Y785762D01*
X446303Y754232D02*
X435080Y743009D01*
X435080Y731470D01*
X446303Y754232D02*
X446303Y783530D01*
X435080Y731470D02*
X432500Y728890D01*
X449720Y728890D01*
X457500Y721110D01*
X457500Y691390D01*
X451110Y685000D01*
X435000Y685000D01*
X430000Y690000D01*
X525956Y787695D02*
X486027Y827625D01*
X525956Y787695D02*
X525956Y782520D01*
X548939Y859137D02*
X500863Y859137D01*
X548939Y859137D02*
X550956Y857120D01*
X594880Y916680D02*
X621800Y943600D01*
X565880Y916680D02*
X550956Y901757D01*
X565880Y916680D02*
X594880Y916680D01*
X550956Y901757D02*
X550956Y857120D01*
X613472Y855060D02*
X630128Y855060D01*
X613472Y855060D02*
X611240Y852828D01*
X611240Y840172D01*
X601495Y813681D02*
X596959Y809146D01*
X601495Y813681D02*
X609790Y813681D01*
X619613Y831799D02*
X611240Y840172D01*
X638688Y846500D02*
X669800Y846500D01*
X638688Y846500D02*
X630128Y855060D01*
X619613Y831799D02*
X619613Y823504D01*
X609790Y813681D01*
X600000Y809146D02*
X596959Y809146D01*
X579459Y758359D02*
X534800Y713700D01*
X579459Y758359D02*
X579459Y766646D01*
X604006Y742100D01*
X621800Y742100D01*
X583995Y771181D02*
X579459Y766646D01*
X583995Y771181D02*
X592290Y771181D01*
X600000Y778891D01*
X600000Y809146D01*
X669800Y775800D02*
X685110Y791110D01*
X692500Y791110D01*
X701571Y799238D02*
X703803Y801470D01*
X692500Y832071D02*
X692500Y840000D01*
X692500Y843610D01*
X700628Y799238D02*
X692500Y791110D01*
X700628Y799238D02*
X701571Y799238D01*
X703803Y801470D02*
X703803Y820768D01*
X692500Y832071D01*
X669800Y775800D02*
X692500Y753100D01*
X692500Y736390D01*
X755090Y736390D01*
X760200Y741500D01*
X621800Y742100D02*
X621800Y732396D01*
X611240Y721836D02*
X611240Y703772D01*
X611240Y721836D02*
X621800Y732396D01*
X611240Y703772D02*
X630012Y685000D01*
X791110Y685000D01*
X749640Y773172D02*
X749640Y785828D01*
X760200Y762612D02*
X760200Y741500D01*
X760200Y796388D02*
X760200Y811500D01*
X749640Y773172D02*
X760200Y762612D01*
X749640Y785828D02*
X760200Y796388D01*
X760200Y811500D02*
X791312Y811500D01*
X749640Y836672D02*
X749640Y849328D01*
X760200Y826112D02*
X760200Y811500D01*
X760200Y859888D02*
X760200Y875000D01*
X749640Y836672D02*
X760200Y826112D01*
X749640Y849328D02*
X760200Y859888D01*
X749640Y901672D02*
X749640Y914328D01*
X760200Y891112D02*
X760200Y875000D01*
X760200Y924888D02*
X760200Y940000D01*
X749640Y901672D02*
X760200Y891112D01*
X749640Y914328D02*
X760200Y924888D01*
X760200Y940000D02*
X791312Y940000D01*
X799872Y948560D01*
X826840Y948560D01*
X843400Y932000D01*
X912000Y932000D02*
X920000Y940000D01*
X901832Y945640D02*
X880968Y945640D01*
X901832Y945640D02*
X907040Y940432D01*
X867328Y932000D02*
X843400Y932000D01*
X907040Y936960D02*
X907040Y940432D01*
X907040Y936960D02*
X912000Y932000D01*
X880968Y945640D02*
X867328Y932000D01*
X916390Y936390D02*
X920000Y940000D01*
X916390Y936390D02*
X915000Y936390D01*
X953890Y897500D02*
X956390Y897500D01*
X923128Y928262D02*
X915000Y936390D01*
X948262Y906571D02*
X948262Y903128D01*
X953890Y897500D01*
X926571Y928262D02*
X923128Y928262D01*
X926571Y928262D02*
X948262Y906571D01*
X956390Y897500D02*
X956390Y894382D01*
X968840Y881932D01*
X968840Y857140D01*
X953200Y841500D01*
X963760Y809828D02*
X963760Y797172D01*
X953200Y820388D02*
X953200Y841500D01*
X953200Y786612D02*
X953200Y771500D01*
X963760Y809828D02*
X953200Y820388D01*
X963760Y797172D02*
X953200Y786612D01*
X953200Y771500D02*
X898200Y716500D01*
X891400Y716500D01*
X878890Y729010D01*
X878890Y772500D01*
X875000Y823890D02*
X857500Y841390D01*
X857500Y851110D01*
X891400Y716500D02*
X900000Y707900D01*
X900000Y667800D02*
X921800Y646000D01*
X900000Y670000D02*
X900000Y707900D01*
X900000Y670000D02*
X900000Y667800D01*
X900000Y670000D02*
X869200Y670000D01*
X845200Y646000D01*
X968890Y598910D02*
X968890Y585000D01*
X980360Y620328D02*
X978128Y622560D01*
X980360Y620328D02*
X980360Y607672D01*
X978128Y605440D01*
X945240Y622560D02*
X921800Y646000D01*
X975420Y605440D02*
X978128Y605440D01*
X975420Y605440D02*
X968890Y598910D01*
X978128Y622560D02*
X945240Y622560D01*
X968890Y585000D02*
X968890Y570000D01*
X948890Y550000D01*
X948890Y517410D01*
X971600Y494700D01*
X971600Y375400D02*
X973000Y374000D01*
X971600Y453884D02*
X971600Y494700D01*
X971600Y387712D02*
X971600Y375400D01*
X971600Y387712D02*
X983560Y399672D01*
X983560Y441924D02*
X971600Y453884D01*
X983560Y441924D02*
X983560Y399672D01*
X973000Y389112D02*
X973000Y374000D01*
X973000Y389112D02*
X962440Y399672D01*
X962440Y426450D02*
X958890Y430000D01*
X962440Y426450D02*
X962440Y399672D01*
X973000Y374000D02*
X949000Y350000D01*
X918890Y350000D01*
X923803Y443690D02*
X923803Y458530D01*
X921571Y460762D01*
X918890Y363222D02*
X918890Y350000D01*
X920628Y460762D02*
X921571Y460762D01*
X914440Y367672D02*
X918890Y363222D01*
X914440Y367672D02*
X914440Y434327D01*
X923803Y443690D01*
X920628Y460762D02*
X912500Y468890D01*
X841800Y406000D02*
X794000Y453800D01*
X794000Y455300D01*
X824700Y486000D01*
X843400Y486000D01*
X852110Y486000D01*
X834440Y540328D02*
X836672Y542560D01*
X853328Y542560D01*
X855560Y540328D01*
X852110Y508093D02*
X852110Y486000D01*
X855560Y530550D02*
X855560Y540328D01*
X855560Y530550D02*
X876110Y510000D01*
X852110Y508093D02*
X834440Y525763D01*
X834440Y540328D01*
X845000Y560000D02*
X845000Y566000D01*
X845000Y560000D02*
X845000Y550888D01*
X853328Y542560D01*
X820300Y535300D02*
X794000Y535300D01*
X820300Y535300D02*
X845000Y560000D01*
X871110Y590000D02*
X871110Y620090D01*
X845200Y646000D01*
X845200Y566200D02*
X845000Y566000D01*
X845200Y566200D02*
X845200Y590003D01*
X845200Y630888D02*
X845200Y646000D01*
X845200Y630888D02*
X834640Y620328D01*
X834640Y600563D01*
X845200Y590003D01*
X845200Y646000D02*
X691800Y646000D01*
X676800Y631000D01*
X707912Y631000D01*
X716472Y622440D01*
X743950Y622440D02*
X747500Y618890D01*
X743950Y622440D02*
X716472Y622440D01*
X725000Y546110D02*
X783190Y546110D01*
X794000Y535300D01*
X621312Y646000D02*
X590200Y646000D01*
X621312Y646000D02*
X629872Y654560D01*
X653240Y654560D01*
X676800Y631000D01*
X621110Y615090D02*
X590200Y646000D01*
X621110Y615090D02*
X621110Y590000D01*
X579640Y607672D02*
X579640Y620328D01*
X590200Y630888D02*
X590200Y646000D01*
X590200Y597112D02*
X590200Y566000D01*
X579640Y620328D02*
X590200Y630888D01*
X579640Y607672D02*
X590200Y597112D01*
X646528Y557440D02*
X647978Y558890D01*
X660000Y558890D01*
X598760Y557440D02*
X590200Y566000D01*
X598760Y557440D02*
X646528Y557440D01*
X579640Y540328D02*
X579640Y527672D01*
X590200Y550888D02*
X590200Y566000D01*
X590200Y517112D02*
X590200Y486000D01*
X579640Y540328D02*
X590200Y550888D01*
X579640Y527672D02*
X590200Y517112D01*
X649404Y473890D02*
X660000Y473890D01*
X649404Y473890D02*
X648214Y475080D01*
X601120Y475080D02*
X590200Y486000D01*
X601120Y475080D02*
X648214Y475080D01*
X706390Y457500D02*
X706390Y450000D01*
X706390Y457500D02*
X725000Y476110D01*
X706390Y450000D02*
X706390Y412410D01*
X724800Y394000D01*
X784600Y453800D01*
X794000Y453800D01*
X613640Y382560D02*
X590200Y406000D01*
X613640Y382560D02*
X646528Y382560D01*
X674200Y354888D01*
X674200Y310500D01*
X567500Y408890D02*
X545490Y430900D01*
X530000Y430900D01*
X529800Y430900D01*
X464150Y439460D02*
X460000Y443610D01*
X498688Y430900D02*
X529800Y430900D01*
X490128Y439460D02*
X464150Y439460D01*
X490128Y439460D02*
X498688Y430900D01*
X529800Y430900D02*
X546400Y447500D01*
X546400Y490000D01*
X546400Y494700D01*
X586200Y490000D02*
X590200Y486000D01*
X586200Y490000D02*
X546400Y490000D01*
X546400Y494700D02*
X546400Y509812D01*
X556960Y520372D01*
X556960Y535240D01*
X529800Y562400D01*
X519240Y588072D02*
X519240Y600728D01*
X529800Y577512D02*
X529800Y562400D01*
X529800Y577512D02*
X519240Y588072D01*
X519240Y600728D02*
X521390Y602878D01*
X521390Y617500D01*
X513262Y625628D01*
X513262Y626571D01*
X493443Y646390D01*
X480000Y646390D01*
X410590Y646390D02*
X410200Y646000D01*
X449872Y637440D02*
X466528Y637440D01*
X475478Y646390D02*
X480000Y646390D01*
X440922Y646390D02*
X410590Y646390D01*
X466528Y637440D02*
X475478Y646390D01*
X449872Y637440D02*
X440922Y646390D01*
X410200Y646000D02*
X410200Y630888D01*
X420760Y620328D01*
X420760Y592150D01*
X410000Y581390D01*
X358600Y594400D02*
X410200Y646000D01*
X358600Y594400D02*
X340200Y594400D01*
X253890Y581710D02*
X253890Y620000D01*
X253890Y581710D02*
X271600Y564000D01*
X323400Y526700D02*
X340200Y543500D01*
X329640Y556072D02*
X329640Y568728D01*
X340200Y579288D02*
X340200Y594400D01*
X340200Y579288D02*
X329640Y568728D01*
X340200Y545512D02*
X340200Y543500D01*
X340200Y545512D02*
X329640Y556072D01*
X323400Y526700D02*
X308900Y526700D01*
X271600Y564000D01*
X231928Y555440D02*
X215272Y555440D01*
X207960Y603040D02*
X197000Y614000D01*
X207960Y562752D02*
X215272Y555440D01*
X207960Y562752D02*
X207960Y603040D01*
X240488Y564000D02*
X231928Y555440D01*
X240488Y564000D02*
X271600Y564000D01*
X33429Y611738D02*
X31197Y613970D01*
X31197Y628810D01*
X34372Y611738D02*
X42500Y603610D01*
X34372Y611738D02*
X33429Y611738D01*
X31197Y628810D02*
X52387Y650000D01*
X106110Y650000D01*
X42500Y603610D02*
X31110Y592220D01*
X31110Y575000D01*
X119000Y589000D02*
X135440Y605440D01*
X165888Y614000D02*
X197000Y614000D01*
X157328Y605440D02*
X135440Y605440D01*
X157328Y605440D02*
X165888Y614000D01*
X119000Y589000D02*
X119000Y539800D01*
X98200Y519000D01*
X99800Y444000D02*
X103280Y440520D01*
X155088Y406000D02*
X176800Y406000D01*
X120568Y440520D02*
X103280Y440520D01*
X120568Y440520D02*
X155088Y406000D01*
X176800Y406000D02*
X214240Y406000D01*
X214240Y395080D01*
X176800Y406000D02*
X228600Y457800D01*
X228600Y471000D01*
X238210Y461390D01*
X297500Y461390D01*
X312840Y488372D02*
X312840Y501028D01*
X312840Y488372D02*
X315072Y486140D01*
X323400Y511588D02*
X323400Y526700D01*
X316960Y486140D02*
X315072Y486140D01*
X312840Y501028D02*
X323400Y511588D01*
X316960Y486140D02*
X340200Y462900D01*
X336210Y513890D02*
X395000Y513890D01*
X336210Y513890D02*
X323400Y526700D01*
X492360Y469228D02*
X492360Y456572D01*
X468128Y451738D02*
X460000Y443610D01*
X477500Y484088D02*
X477500Y506110D01*
X477500Y484088D02*
X492360Y469228D01*
X492360Y456572D02*
X487526Y451738D01*
X468128Y451738D01*
X667479Y310500D02*
X674200Y310500D01*
X667479Y310500D02*
X615209Y362770D01*
X469430Y362770D02*
X458200Y374000D01*
X469430Y362770D02*
X615209Y362770D01*
X364900Y400190D02*
X364100Y399390D01*
X337400Y399390D01*
X259900Y290710D02*
X209651Y290710D01*
X171061Y329300D01*
X398760Y467630D02*
X410000Y456390D01*
X398760Y467630D02*
X398760Y469228D01*
X363072Y486140D02*
X360840Y488372D01*
X360840Y501028D01*
X386872Y505762D02*
X395000Y513890D01*
X381848Y486140D02*
X398760Y469228D01*
X381848Y486140D02*
X363072Y486140D01*
X360840Y501028D02*
X365574Y505762D01*
X386872Y505762D01*
X703803Y853970D02*
X703803Y868810D01*
X692500Y842667D02*
X692500Y840000D01*
X692500Y842667D02*
X703803Y853970D01*
X692500Y880113D02*
X692500Y891110D01*
X692500Y880113D02*
X703803Y868810D01*
X246190Y395080D02*
X214240Y395080D01*
X246190Y395080D02*
X247500Y396390D01*
X801422Y801390D02*
X830000Y801390D01*
X801422Y801390D02*
X791312Y811500D01*
D19*
X850000Y822500D03*
D20*
X857500Y830000D02*
X857500Y851110D01*
X857500Y830000D02*
X850000Y822500D01*
D19*
X787500Y857500D03*
D20*
X770000Y875000D02*
X760200Y875000D01*
X770000Y875000D02*
X787500Y857500D01*
X828610Y857500D01*
X832500Y861390D01*
D19*
X535000Y405000D03*
D20*
X535000Y425900D01*
X530000Y430900D01*
X138200Y374000D02*
X128496Y374000D01*
X81872Y365440D02*
X79640Y367672D01*
X79640Y376470D01*
X70000Y386110D01*
X119936Y365440D02*
X128496Y374000D01*
X119936Y365440D02*
X81872Y365440D01*
D19*
X112500Y390000D03*
D20*
X70000Y386110D02*
X61872Y394238D01*
X60929Y394238D01*
X30000Y425167D01*
X30000Y458610D01*
X73890Y390000D02*
X70000Y386110D01*
X73890Y390000D02*
X112500Y390000D01*
D19*
X140000Y452500D03*
D20*
X132548Y452500D02*
X120568Y440520D01*
X132548Y452500D02*
X140000Y452500D01*
D19*
X435000Y495000D03*
D20*
X435000Y456390D01*
D19*
X537500Y805000D03*
D20*
X537500Y794063D02*
X525956Y782520D01*
X537500Y794063D02*
X537500Y805000D01*
D19*
X385000Y877500D03*
D20*
X384000Y878500D02*
X361800Y878500D01*
X384000Y878500D02*
X385000Y877500D01*
D19*
X300000Y860000D03*
D20*
X311110Y878890D02*
X335000Y878890D01*
X311110Y878890D02*
X310000Y880000D01*
X300000Y870000D01*
X300000Y860000D01*
X300000Y847400D02*
X253600Y801000D01*
X300000Y847400D02*
X300000Y860000D01*
D19*
X282500Y967500D03*
D20*
X282500Y961110D02*
X266390Y945000D01*
X282500Y961110D02*
X282500Y967500D01*
D19*
X192500Y962500D03*
D20*
X216000Y939000D02*
X216000Y934000D01*
X216000Y939000D02*
X192500Y962500D01*
X196800Y741000D02*
X227912Y741000D01*
X261450Y732440D02*
X270000Y723890D01*
X236472Y732440D02*
X227912Y741000D01*
X236472Y732440D02*
X261450Y732440D01*
D19*
X670000Y830000D03*
D20*
X669800Y830200D02*
X669800Y846500D01*
X669800Y830200D02*
X670000Y830000D01*
X50000Y790167D02*
X50000Y790000D01*
X50000Y790167D02*
X38697Y801470D01*
X38697Y887587D01*
X51110Y900000D01*
D19*
X315000Y387500D03*
D20*
X326890Y399390D02*
X337400Y399390D01*
X326890Y399390D02*
X315000Y387500D01*
D19*
X287500Y297500D03*
D20*
X287500Y298070D02*
X303480Y314050D01*
X287500Y298070D02*
X287500Y297500D01*
D19*
X72500Y682500D03*
D20*
X72500Y687500D02*
X50000Y710000D01*
X72500Y687500D02*
X72500Y682500D01*
X105000Y650000D01*
X106110Y650000D01*
X271203Y283290D02*
X268971Y281058D01*
X285344Y326750D02*
X303480Y326750D01*
X285344Y326750D02*
X271203Y312609D01*
X271203Y283290D01*
X268971Y281058D02*
X183942Y281058D01*
X77783Y347420D02*
X9920Y415283D01*
X9920Y969604D01*
X30396Y990080D01*
X215992Y990080D01*
X117580Y347420D02*
X77783Y347420D01*
X223572Y982500D02*
X292500Y982500D01*
X223572Y982500D02*
X215992Y990080D01*
X117580Y347420D02*
X183942Y281058D01*
X296400Y978600D02*
X292500Y982500D01*
X296400Y978600D02*
X296400Y921000D01*
X303480Y326750D02*
X309120Y321110D01*
X491879Y309300D02*
X498600Y309300D01*
X320028Y321110D02*
X309120Y321110D01*
X320028Y321110D02*
X355206Y285932D01*
X468511Y285932D01*
X491879Y309300D01*
X248400Y889000D02*
X216000Y921400D01*
X226560Y927672D02*
X226560Y940328D01*
X226560Y927672D02*
X224328Y925440D01*
X216000Y950888D02*
X216000Y966000D01*
X220040Y925440D02*
X224328Y925440D01*
X220040Y925440D02*
X216000Y921400D01*
X226560Y940328D02*
X216000Y950888D01*
X357720Y339450D02*
X544650Y339450D01*
X574800Y309300D01*
X413987Y326750D02*
X357720Y326750D01*
X413987Y326750D02*
X414825Y327588D01*
X531112Y327588D01*
X549400Y309300D01*
X408471Y314050D02*
X357720Y314050D01*
X408471Y314050D02*
X416929Y322508D01*
X510792Y322508D01*
X524000Y309300D01*
X309120Y333810D02*
X303480Y339450D01*
X466479Y309300D02*
X473200Y309300D01*
X314513Y333810D02*
X309120Y333810D01*
X314513Y333810D02*
X357311Y291012D01*
X448191Y291012D01*
X466479Y309300D01*
X259700Y329900D02*
X236939Y329900D01*
X236339Y329300D01*
X257149Y308490D01*
X259900Y308490D01*
X270000Y318590D01*
X270000Y348730D01*
X274668Y348730D01*
X278088Y352150D01*
X303480Y352150D01*
X309120Y346510D01*
X312683Y346510D01*
X346285Y312908D01*
X346285Y309222D01*
X359415Y296092D01*
X434592Y296092D02*
X447800Y309300D01*
X434592Y296092D02*
X359415Y296092D01*
X168000Y934000D02*
X146000Y934000D01*
X139000Y941000D01*
X91000Y909000D02*
X91000Y903200D01*
X118200Y876000D01*
X70200Y844000D02*
X108200Y806000D01*
X123200Y806000D01*
X75200Y774000D02*
X99640Y749560D01*
X127088Y741000D02*
X158200Y741000D01*
X118528Y749560D02*
X99640Y749560D01*
X118528Y749560D02*
X127088Y741000D01*
X111000Y709000D02*
X110200Y709000D01*
X111000Y709000D02*
X120000Y700000D01*
X187800Y700000D01*
X196800Y709000D01*
X244800Y741000D02*
X253600Y749800D01*
X253600Y769000D01*
X301600Y801000D02*
X340000Y762600D01*
X340000Y720000D01*
X352100Y707900D01*
X361800Y707900D01*
X409800Y739900D02*
X373900Y775800D01*
X361800Y775800D01*
X409800Y807800D02*
X371100Y846500D01*
X361800Y846500D01*
X409800Y878500D02*
X376100Y912200D01*
X361800Y912200D01*
X409800Y944200D02*
X427856Y926144D01*
X427856Y891280D01*
X474344Y857120D02*
X455956Y838733D01*
X455956Y816680D01*
X502444Y782520D02*
X534800Y750163D01*
X534800Y745700D01*
X544675Y771575D02*
X556027Y771575D01*
X545360Y739372D02*
X543128Y737140D01*
X545360Y739372D02*
X545360Y752028D01*
X510240Y737140D02*
X486800Y713700D01*
X510240Y737140D02*
X543128Y737140D01*
X545360Y752028D02*
X544675Y752713D01*
X544675Y771575D01*
X542373Y827625D02*
X562477Y827625D01*
X581027Y846175D01*
X567373Y902225D02*
X576748Y911600D01*
X621800Y911600D01*
X659240Y917928D02*
X659240Y905272D01*
X669800Y928488D02*
X669800Y943600D01*
X669800Y894712D02*
X669800Y878500D01*
X659240Y917928D02*
X669800Y928488D01*
X659240Y905272D02*
X669800Y894712D01*
X631100Y846500D02*
X621800Y846500D01*
X631100Y846500D02*
X669800Y807800D01*
X659240Y716428D02*
X659240Y703772D01*
X661472Y701540D01*
X694153Y701540D01*
X702113Y709500D01*
X669800Y726988D02*
X669800Y742100D01*
X669800Y726988D02*
X659240Y716428D01*
X702113Y709500D02*
X760200Y709500D01*
X808200Y741500D02*
X770200Y779500D01*
X760200Y779500D01*
X808200Y811500D02*
X776700Y843000D01*
X760200Y843000D01*
X793200Y875000D02*
X808200Y875000D01*
X793200Y875000D02*
X760200Y908000D01*
X808200Y940000D02*
X843400Y904800D01*
X843400Y900000D01*
X896872Y864940D02*
X913528Y864940D01*
X922088Y873500D01*
X891400Y916888D02*
X891400Y932000D01*
X891400Y916888D02*
X880840Y906328D01*
X880840Y880972D01*
X896872Y864940D01*
X922088Y873500D02*
X953200Y873500D01*
X905200Y841500D02*
X943200Y803500D01*
X953200Y803500D01*
X905200Y771500D02*
X905200Y762300D01*
X891400Y748500D01*
X843400Y716500D02*
X835080Y708180D01*
X835080Y677896D02*
X822104Y664920D01*
X835080Y677896D02*
X835080Y708180D01*
X271600Y621600D02*
X271600Y596000D01*
X314920Y664920D02*
X822104Y664920D01*
X314920Y664920D02*
X271600Y621600D01*
X632360Y735772D02*
X632360Y748428D01*
X621800Y758988D02*
X621800Y775800D01*
X621800Y725212D02*
X621800Y710100D01*
X632360Y748428D02*
X621800Y758988D01*
X632360Y735772D02*
X621800Y725212D01*
X149000Y614000D02*
X142000Y621000D01*
X119000Y621000D01*
X71000Y589000D02*
X71000Y578200D01*
X98200Y551000D01*
X56800Y519000D02*
X50200Y519000D01*
X56800Y519000D02*
X99800Y476000D01*
X82912Y444000D02*
X51800Y444000D01*
X108760Y435440D02*
X138200Y406000D01*
X91472Y435440D02*
X82912Y444000D01*
X91472Y435440D02*
X108760Y435440D01*
X129872Y382560D02*
X146528Y382560D01*
X121312Y374000D02*
X90200Y374000D01*
X155088Y374000D02*
X176800Y374000D01*
X129872Y382560D02*
X121312Y374000D01*
X146528Y382560D02*
X155088Y374000D01*
X224800Y406000D02*
X228600Y409800D01*
X228600Y439000D01*
X316700Y430900D02*
X340200Y430900D01*
X306571Y471042D02*
X288429Y471042D01*
X306571Y471042D02*
X308803Y468810D01*
X308803Y438797D02*
X316700Y430900D01*
X288387Y471000D02*
X276600Y471000D01*
X288387Y471000D02*
X288429Y471042D01*
X308803Y468810D02*
X308803Y438797D01*
X355200Y462900D02*
X388200Y462900D01*
X355200Y462900D02*
X350760Y467340D01*
X350760Y469228D01*
X348528Y471460D01*
X346640Y471460D01*
X323400Y494700D01*
X371400Y526700D02*
X340200Y557900D01*
X340200Y562400D01*
X223600Y619400D02*
X197000Y646000D01*
X213040Y602328D02*
X213040Y589672D01*
X223600Y579112D02*
X223600Y564000D01*
X223600Y612888D02*
X223600Y619400D01*
X213040Y589672D02*
X223600Y579112D01*
X213040Y602328D02*
X223600Y612888D01*
X70200Y876000D02*
X68636Y877564D01*
X244800Y709000D02*
X247690Y706110D01*
X434690Y775800D02*
X435000Y776110D01*
X434690Y775800D02*
X430000Y775800D01*
X409800Y775800D01*
X433890Y776110D02*
X435000Y776110D01*
X410760Y799240D02*
X401472Y799240D01*
X399240Y801472D01*
X399240Y810760D01*
X371094Y838906D01*
X370128Y837940D01*
X353472Y837940D01*
X351240Y840172D01*
X351240Y844870D01*
X335000Y861110D01*
X410760Y799240D02*
X433890Y776110D01*
X395190Y861110D02*
X335000Y861110D01*
X395190Y861110D02*
X409800Y846500D01*
X340000Y931110D02*
X335000Y931110D01*
X340000Y931110D01*
X477799Y846762D02*
X481303Y846762D01*
X477799Y846762D02*
X461037Y830000D01*
X481303Y846762D02*
X488041Y853500D01*
X488041Y900000D02*
X488041Y901646D01*
X488041Y900000D02*
X488041Y853500D01*
X461037Y830000D02*
X461037Y827549D01*
X466849Y821737D01*
X430000Y775800D02*
X430000Y745113D01*
X422443Y737557D02*
X421197Y736310D01*
X422443Y737557D02*
X430000Y745113D01*
X585541Y783354D02*
X585541Y784459D01*
X570000Y800000D01*
X570000Y814237D01*
X572444Y816680D01*
X585541Y802772D02*
X585541Y783354D01*
X585541Y802772D02*
X583800Y804513D01*
X583800Y814909D01*
X590210Y821319D01*
X598505Y821319D02*
X603041Y825854D01*
X598505Y821319D02*
X590210Y821319D01*
X603041Y825854D02*
X603041Y885683D01*
X597444Y891280D01*
X689790Y911600D02*
X689891Y911598D01*
X689993Y911592D01*
X690093Y911583D01*
X690194Y911570D01*
X690294Y911553D01*
X690393Y911532D01*
X690491Y911508D01*
X690589Y911480D01*
X690685Y911448D01*
X690780Y911413D01*
X690874Y911374D01*
X690966Y911332D01*
X691056Y911286D01*
X691145Y911237D01*
X691232Y911185D01*
X691317Y911129D01*
X691399Y911070D01*
X691480Y911009D01*
X691558Y910944D01*
X691633Y910877D01*
X691706Y910806D01*
X691777Y910733D01*
X691844Y910658D01*
X691909Y910580D01*
X691970Y910499D01*
X692029Y910417D01*
X692085Y910332D01*
X692137Y910245D01*
X692186Y910156D01*
X692232Y910066D01*
X692274Y909974D01*
X692313Y909880D01*
X692348Y909785D01*
X692380Y909689D01*
X692408Y909591D01*
X692432Y909493D01*
X692453Y909394D01*
X692470Y909294D01*
X692483Y909193D01*
X692492Y909093D01*
X692498Y908991D01*
X692500Y908890D01*
X689790Y911600D02*
X669800Y911600D01*
X603041Y883041D02*
X603041Y825854D01*
X620000Y900000D02*
X630000Y900000D01*
X632360Y949928D02*
X631144Y951144D01*
X630000Y902912D02*
X630000Y900000D01*
X630000Y902912D02*
X632360Y905272D01*
X632360Y949928D01*
X631144Y951144D02*
X660456Y951144D01*
X661472Y952160D01*
X678128Y952160D01*
X689790Y940498D02*
X689790Y911600D01*
X620000Y900000D02*
X603041Y883041D01*
X678128Y952160D02*
X689790Y940498D01*
X692500Y861390D02*
X638910Y861390D01*
X621800Y878500D01*
X691805Y808195D02*
X692500Y808890D01*
X691805Y808195D02*
X684372Y800762D01*
X683429Y800762D01*
X681197Y798530D01*
X681197Y797587D01*
X673610Y790000D01*
X639600Y790000D02*
X621800Y807800D01*
X670000Y790000D02*
X673610Y790000D01*
X670000Y790000D02*
X639600Y790000D01*
X678310Y718610D02*
X692500Y718610D01*
X678310Y718610D02*
X669800Y710100D01*
X800762Y694071D02*
X800762Y693128D01*
X808890Y685000D01*
X776223Y718610D02*
X692500Y718610D01*
X776223Y718610D02*
X800762Y694071D01*
X808890Y685000D02*
X808890Y708810D01*
X808200Y709500D01*
X820000Y696110D02*
X808890Y685000D01*
X820000Y773610D02*
X830000Y783610D01*
X820000Y773610D02*
X820000Y696110D01*
X812310Y783610D02*
X830000Y783610D01*
X812310Y783610D02*
X808200Y779500D01*
X830000Y841110D02*
X832500Y843610D01*
X841303Y793970D02*
X839071Y791738D01*
X841303Y793970D02*
X841303Y808810D01*
X838128Y791738D02*
X830000Y783610D01*
X838128Y791738D02*
X839071Y791738D01*
X830000Y820113D02*
X830000Y841110D01*
X830000Y820113D02*
X841303Y808810D01*
X831890Y843000D02*
X832500Y843610D01*
X831890Y843000D02*
X808200Y843000D01*
X857500Y868610D02*
X857500Y868890D01*
X840628Y851738D02*
X832500Y843610D01*
X840628Y851738D02*
X841571Y851738D01*
X846197Y858530D02*
X848429Y860762D01*
X849652Y860762D01*
X857500Y868610D01*
X846197Y856364D02*
X841571Y851738D01*
X846197Y856364D02*
X846197Y858530D01*
X857500Y868890D02*
X855348Y871042D01*
X830000Y871042D01*
X808200Y892842D01*
X808200Y908000D01*
X936110Y897500D02*
X938610Y897500D01*
X914610Y873500D01*
X905200Y873500D01*
X961528Y882060D02*
X963760Y879828D01*
X963760Y867172D01*
X956448Y859860D01*
X900970Y859860D01*
X938610Y882060D02*
X938610Y897500D01*
X938610Y882060D02*
X961528Y882060D01*
X877610Y803500D02*
X875000Y806110D01*
X877610Y803500D02*
X905200Y803500D01*
X875000Y806110D02*
X861110Y792220D01*
X861110Y772500D01*
X843400Y754790D01*
X843400Y748500D01*
X198890Y910000D02*
X190762Y918128D01*
X168000Y950888D02*
X168000Y966000D01*
X168000Y950888D02*
X190762Y928126D01*
X190762Y918128D01*
X57587Y888697D02*
X50000Y881110D01*
X57587Y888697D02*
X58530Y888697D01*
X60762Y890929D01*
X60762Y891872D01*
X68890Y900000D01*
X50000Y881110D02*
X50000Y808890D01*
X68890Y877818D02*
X68890Y900000D01*
X68890Y877818D02*
X68636Y877564D01*
X68890Y900000D02*
X68890Y918890D01*
X91000Y941000D01*
X85000Y747312D02*
X85000Y738890D01*
X85000Y747312D02*
X64640Y767672D01*
X64640Y795193D01*
X468890Y685000D02*
X489030Y705140D01*
X495128Y705140D01*
X522048Y732060D01*
X858610Y770000D02*
X861110Y772500D01*
X858610Y770000D02*
X840000Y770000D01*
X830000Y760000D01*
X830000Y680000D02*
X820000Y670000D01*
X830000Y680000D02*
X830000Y760000D01*
X820000Y670000D02*
X270000Y670000D01*
X236110Y636110D01*
X236110Y620000D01*
X236110Y608510D01*
X223600Y596000D01*
X236110Y620000D02*
X207560Y648550D01*
X207560Y652328D01*
X199888Y660000D01*
X133890Y660000D02*
X123890Y650000D01*
X133890Y660000D02*
X199888Y660000D01*
X145000Y650000D02*
X123890Y650000D01*
X145000Y650000D02*
X149000Y646000D01*
X51410Y476390D02*
X30000Y476390D01*
X51410Y476390D02*
X51800Y476000D01*
X38128Y468262D02*
X30000Y476390D01*
X38128Y468262D02*
X39071Y468262D01*
X41303Y466030D01*
X41303Y451190D01*
X40000Y449887D01*
X40000Y430000D01*
X66110Y403890D01*
X70000Y403890D01*
X88090Y403890D01*
X90200Y406000D01*
X229410Y378610D02*
X247500Y378610D01*
X229410Y378610D02*
X224800Y374000D01*
X247500Y378610D02*
X255628Y386738D01*
X256571Y386738D01*
X297500Y427667D01*
X297500Y443610D01*
X292890Y439000D01*
X276600Y439000D01*
X297500Y443610D02*
X303723Y437387D01*
X303723Y436693D01*
X320416Y420000D01*
X391390Y420000D02*
X410000Y438610D01*
X391390Y420000D02*
X320416Y420000D01*
X395910Y438610D02*
X410000Y438610D01*
X395910Y438610D02*
X388200Y430900D01*
X419071Y446738D02*
X421303Y448970D01*
X418128Y446738D02*
X410000Y438610D01*
X418128Y446738D02*
X419071Y446738D01*
X421303Y448970D02*
X421303Y469807D01*
X395000Y496110D01*
X393590Y494700D01*
X371400Y494700D01*
X395000Y496110D02*
X403128Y504238D01*
X404071Y504238D01*
X410000Y510167D01*
X410000Y563610D01*
X408790Y562400D01*
X388200Y562400D01*
X410000Y563610D02*
X418128Y571738D01*
X419071Y571738D01*
X440000Y592667D01*
X440000Y620000D01*
X448610Y628610D01*
X480000Y628610D01*
X465390Y614000D01*
X458200Y614000D01*
X480000Y628610D02*
X492500Y628610D01*
X503610Y617500D01*
X481800Y595690D01*
X481800Y594400D01*
X503610Y573610D02*
X503610Y617500D01*
X473472Y570960D02*
X471240Y568728D01*
X471240Y541240D02*
X470000Y540000D01*
X471240Y541240D02*
X471240Y568728D01*
X500960Y570960D02*
X503610Y573610D01*
X500960Y570960D02*
X473472Y570960D01*
X470000Y540000D02*
X470000Y531390D01*
X477500Y523890D01*
X469372Y515762D01*
X468429Y515762D01*
X460000Y507333D01*
X460000Y461390D01*
X480290Y461390D01*
X481800Y462900D01*
X437220Y438610D02*
X435000Y438610D01*
X451872Y453262D02*
X460000Y461390D01*
X451872Y453262D02*
X450929Y453262D01*
X448697Y451030D01*
X448697Y450087D01*
X437220Y438610D01*
X435000Y438610D02*
X410200Y413810D01*
X410200Y406000D01*
X435000Y438610D02*
X447640Y425970D01*
X447640Y399672D01*
X456202Y391110D01*
X567500Y391110D01*
X607088Y374000D02*
X638200Y374000D01*
X607088Y374000D02*
X598528Y382560D01*
X576050Y382560D02*
X567500Y391110D01*
X576050Y382560D02*
X598528Y382560D01*
X575628Y399238D02*
X567500Y391110D01*
X575628Y399238D02*
X576571Y399238D01*
X579640Y402307D01*
X579640Y460328D02*
X589312Y470000D01*
X579640Y460328D02*
X579640Y402307D01*
X646110Y470000D02*
X648697Y467413D01*
X648697Y466470D01*
X650929Y464238D01*
X651872Y464238D01*
X660000Y456110D01*
X646110Y470000D02*
X589312Y470000D01*
X640310Y456110D02*
X660000Y456110D01*
X640310Y456110D02*
X638200Y454000D01*
X669071Y464238D02*
X671303Y466470D01*
X671303Y481310D01*
X668128Y464238D02*
X660000Y456110D01*
X668128Y464238D02*
X669071Y464238D01*
X660000Y492613D02*
X660000Y541110D01*
X660000Y492613D02*
X671303Y481310D01*
X652890Y534000D02*
X660000Y541110D01*
X652890Y534000D02*
X638200Y534000D01*
X669071Y549238D02*
X671303Y551470D01*
X671303Y566310D01*
X669071Y568542D01*
X668128Y549238D02*
X660000Y541110D01*
X668128Y549238D02*
X669071Y549238D01*
X669071Y568542D02*
X660348Y568542D01*
X638890Y590000D01*
X638890Y613310D01*
X638200Y614000D01*
X661760Y590440D02*
X685128Y590440D01*
X704688Y610000D01*
X661760Y590440D02*
X638200Y614000D01*
X737667Y610000D02*
X738429Y609238D01*
X740000Y609238D01*
X737667Y610000D02*
X704688Y610000D01*
X740000Y609238D02*
X747500Y601738D01*
X747500Y601110D01*
X745390Y599000D01*
X724800Y599000D01*
X725000Y578610D02*
X747500Y601110D01*
X725000Y578610D02*
X725000Y563890D01*
X742590Y563890D01*
X746000Y567300D01*
X715929Y555762D02*
X713697Y553530D01*
X713697Y538690D01*
X716872Y555762D02*
X725000Y563890D01*
X716872Y555762D02*
X715929Y555762D01*
X725000Y527387D02*
X725000Y493890D01*
X725000Y527387D02*
X713697Y538690D01*
X725000Y493890D02*
X731590Y487300D01*
X746000Y487300D01*
X725000Y493890D02*
X716872Y485762D01*
X715929Y485762D01*
X688610Y458443D01*
X688610Y450000D01*
X688610Y437810D01*
X676800Y426000D01*
X688610Y418610D02*
X688610Y450000D01*
X688610Y418610D02*
X672560Y402560D01*
X668472Y402560D02*
X666240Y400328D01*
X666240Y387672D01*
X668472Y385440D01*
X674560Y385440D01*
X672560Y402560D02*
X668472Y402560D01*
X674560Y385440D02*
X691080Y368920D01*
X830000Y368920D01*
X831240Y367672D02*
X833472Y365440D01*
X844560Y365440D01*
X860000Y350000D01*
X831240Y367680D02*
X830000Y368920D01*
X831240Y367680D02*
X831240Y367672D01*
X860000Y350000D02*
X901110Y350000D01*
X889800Y361310D01*
X889800Y374000D01*
X901110Y350000D02*
X901110Y439720D01*
X912500Y451110D01*
X894290Y451110D01*
X891400Y454000D01*
X904372Y459238D02*
X912500Y451110D01*
X904372Y459238D02*
X903429Y459238D01*
X901197Y461470D01*
X901960Y479672D02*
X901960Y492328D01*
X893890Y500398D02*
X893890Y510000D01*
X893890Y500398D02*
X901960Y492328D01*
X901960Y479672D02*
X901197Y478909D01*
X901197Y461470D01*
X893890Y510000D02*
X893000Y510890D01*
X893000Y534000D01*
X893890Y550002D02*
X893890Y510000D01*
X893890Y550002D02*
X903560Y559672D01*
X903560Y575330D01*
X888890Y590000D01*
X888890Y609690D01*
X893200Y614000D01*
X888890Y590000D02*
X893890Y585000D01*
X951110Y585000D01*
X951110Y595310D01*
X969800Y614000D01*
X951110Y585000D02*
X931110Y565000D01*
X931110Y550000D01*
X923600Y542490D01*
X923600Y526700D01*
X913040Y488372D02*
X930000Y471412D01*
X913040Y488372D02*
X913040Y531930D01*
X931110Y550000D01*
X930000Y441110D02*
X941110Y430000D01*
X930000Y441110D02*
X930000Y471412D01*
X941110Y430000D02*
X925000Y413890D01*
X925000Y406000D01*
D19*
X272500Y365000D03*
X385000Y360000D03*
X600000Y350000D03*
D20*
X609300Y350000D02*
X648800Y310500D01*
X609300Y350000D02*
X600000Y350000D01*
X600000Y309500D02*
X600200Y309300D01*
X600000Y309500D02*
X600000Y350000D01*
X15000Y419887D02*
X15000Y967500D01*
X32500Y985000D01*
X226560Y972328D02*
X226560Y967050D01*
X248610Y945000D01*
X226560Y972328D02*
X213888Y985000D01*
X32500Y985000D01*
X248610Y945000D02*
X248610Y921210D01*
X248400Y921000D01*
X248610Y905678D02*
X248610Y945000D01*
X258960Y881040D02*
X260000Y880000D01*
X258960Y895328D02*
X248610Y905678D01*
X258960Y895328D02*
X258960Y881040D01*
X260000Y880000D02*
X228890Y880000D01*
X198890Y910000D01*
X64640Y795193D02*
X50943Y808890D01*
X50000Y808890D01*
X477500Y523890D02*
X495590Y523890D01*
X498400Y526700D01*
X76000Y806000D02*
X75200Y806000D01*
X76000Y806000D02*
X78890Y808890D01*
X50000Y808890D01*
X300000Y743890D02*
X301600Y745490D01*
X301600Y769000D01*
X123890Y650000D02*
X115762Y641872D01*
X115762Y640929D01*
X113530Y638697D01*
X98690Y638697D01*
X97387Y640000D01*
X60000Y640000D01*
X42500Y622500D01*
X42500Y621390D01*
X42890Y621000D01*
X71000Y621000D01*
X53803Y611030D02*
X51571Y613262D01*
X53803Y611030D02*
X53803Y596190D01*
X51571Y613262D02*
X50628Y613262D01*
X48890Y591277D02*
X48890Y575000D01*
X48890Y591277D02*
X53803Y596190D01*
X50628Y613262D02*
X42500Y621390D01*
X48890Y575000D02*
X50200Y573690D01*
X50200Y551000D01*
X48890Y568890D02*
X48890Y575000D01*
X39640Y512672D02*
X40000Y512312D01*
X39640Y559640D02*
X48890Y568890D01*
X39640Y559640D02*
X39640Y512672D01*
X40000Y486390D02*
X30000Y476390D01*
X40000Y486390D02*
X40000Y512312D01*
X457500Y738890D02*
X457500Y777500D01*
X466849Y786849D02*
X466849Y821737D01*
X466849Y786849D02*
X457500Y777500D01*
X472373Y753763D02*
X457500Y738890D01*
X472373Y753763D02*
X472373Y771575D01*
X457500Y738890D02*
X465628Y730762D01*
X466571Y730762D01*
X468890Y728443D01*
X468890Y685000D01*
X486800Y702910D01*
X478472Y705140D02*
X476240Y707372D01*
X476240Y720028D01*
X484570Y705140D02*
X486800Y702910D01*
X484570Y705140D02*
X478472Y705140D01*
X486800Y730588D02*
X486800Y745700D01*
X486800Y730588D02*
X476240Y720028D01*
X600000Y350000D02*
X590000Y340000D01*
X551284Y340000D01*
X546754Y344530D01*
X400000Y344530D01*
X364100Y381610D02*
X364900Y382410D01*
X364100Y381610D02*
X337400Y381610D01*
X357720Y361290D01*
X357720Y352150D01*
X385000Y359530D02*
X400000Y344530D01*
X385000Y359530D02*
X385000Y360000D01*
X380000Y365000D01*
X380000Y410000D01*
X310000Y410000D01*
X272500Y372500D01*
X272500Y365000D01*
X259700Y352200D01*
X259700Y347900D01*
X272500Y365000D02*
X208060Y365000D01*
X197790Y354730D01*
X80157Y354730D01*
X15000Y419887D01*
X364900Y382410D02*
X364900Y380100D01*
X385000Y360000D01*
X91000Y941000D02*
X91000Y954890D01*
X101110Y965000D01*
X167000Y965000D02*
X168000Y966000D01*
X111470Y976303D02*
X109238Y974071D01*
X111470Y976303D02*
X126310Y976303D01*
X109238Y973128D02*
X101110Y965000D01*
X109238Y973128D02*
X109238Y974071D01*
X137613Y965000D02*
X167000Y965000D01*
X137613Y965000D02*
X126310Y976303D01*
X278128Y714238D02*
X270000Y706110D01*
X278128Y714238D02*
X306851Y714238D01*
X311303Y718690D01*
X311303Y733530D02*
X309071Y735762D01*
X308128Y735762D01*
X300000Y743890D01*
X311303Y733530D02*
X311303Y718690D01*
X344071Y869238D02*
X346303Y871470D01*
X346303Y886310D01*
X344071Y869238D02*
X343128Y869238D01*
X340000Y892613D02*
X340000Y931110D01*
X340000Y892613D02*
X346303Y886310D01*
X343128Y869238D02*
X335000Y861110D01*
X325929Y939238D02*
X323697Y941470D01*
X323697Y956310D01*
X325929Y958542D01*
X364346Y958542D01*
X372360Y950528D01*
X372360Y949640D01*
X335000Y931110D02*
X326872Y939238D01*
X325929Y939238D01*
X372360Y949640D02*
X409800Y912200D01*
X681197Y898530D02*
X681197Y883690D01*
X681197Y898530D02*
X683429Y900762D01*
X692500Y872387D02*
X692500Y861390D01*
X684372Y900762D02*
X683429Y900762D01*
X684372Y900762D02*
X692500Y908890D01*
X681197Y883690D02*
X692500Y872387D01*
X683429Y853262D02*
X681197Y851030D01*
X681197Y836190D01*
X683429Y853262D02*
X684372Y853262D01*
X691805Y825582D02*
X691805Y808195D01*
X691805Y825582D02*
X681197Y836190D01*
X684372Y853262D02*
X692500Y861390D01*
X566629Y764442D02*
X550440Y748253D01*
X550440Y737268D01*
X545232Y732060D02*
X522048Y732060D01*
X545232Y732060D02*
X550440Y737268D01*
X581005Y778819D02*
X585541Y783354D01*
X581005Y778819D02*
X572710Y778819D01*
X566629Y772738D01*
X566629Y764442D01*
X891400Y900000D02*
X910010Y918610D01*
X915000Y918610D01*
X936110Y897500D01*
X938610Y897500D01*
X915000Y918610D02*
X907220Y918610D01*
X901960Y938328D02*
X899728Y940560D01*
X883072Y940560D01*
X875760Y887150D02*
X857500Y868890D01*
X875760Y933248D02*
X883072Y940560D01*
X875760Y933248D02*
X875760Y887150D01*
X907220Y918610D02*
X901960Y923870D01*
X901960Y938328D01*
X883128Y814238D02*
X875000Y806110D01*
X883128Y814238D02*
X884071Y814238D01*
X900970Y854158D02*
X900970Y859860D01*
X900970Y854158D02*
X894640Y847828D01*
X894640Y824807D02*
X884071Y814238D01*
X894640Y824807D02*
X894640Y847828D01*
X136200Y390000D02*
X120200Y406000D01*
X90200Y406000D01*
X136200Y390000D02*
X236110Y390000D01*
X236197Y389913D01*
X236197Y388970D01*
X238429Y386738D01*
X239372Y386738D01*
X247500Y378610D01*
X73697Y728530D02*
X75929Y730762D01*
X73697Y728530D02*
X73697Y713690D01*
X76872Y730762D02*
X85000Y738890D01*
X76872Y730762D02*
X75929Y730762D01*
X73697Y713690D02*
X97387Y690000D01*
X253890Y690000D02*
X270000Y706110D01*
X253890Y690000D02*
X97387Y690000D01*
X247690Y706110D02*
X270000Y706110D01*
X247690Y706110D02*
X244800Y709000D01*
X300000Y743890D02*
X308128Y735762D01*
X309071Y735762D01*
X311303Y733530D01*
X311303Y732587D01*
X353890Y690000D01*
X325929Y939238D02*
X323697Y941470D01*
X323697Y956310D01*
X325929Y958542D01*
X364346Y958542D01*
X335000Y931110D02*
X326872Y939238D01*
X325929Y939238D01*
X364346Y958542D02*
X412346Y958542D01*
X432937Y937952D01*
X454065Y890137D02*
X463156Y890137D01*
X474665Y901646D02*
X488041Y901646D01*
X474665Y901646D02*
X463156Y890137D01*
X454065Y890137D02*
X432937Y911266D01*
X432937Y937952D01*
X684372Y800762D02*
X692500Y808890D01*
X684372Y800762D02*
X683429Y800762D01*
X681197Y798530D01*
X681197Y797587D01*
X673610Y790000D01*
X661472Y784360D02*
X659240Y782128D01*
X659240Y769472D01*
X681197Y728970D02*
X683429Y726738D01*
X684372Y726738D01*
X692500Y718610D01*
X664360Y784360D02*
X670000Y790000D01*
X664360Y784360D02*
X661472Y784360D01*
X678052Y750660D02*
X678128Y750660D01*
X678052Y750660D02*
X659240Y769472D01*
X678128Y750660D02*
X681197Y747591D01*
X681197Y728970D01*
X488041Y889942D02*
X444273Y846175D01*
X488041Y889942D02*
X488041Y900000D01*
X422443Y737557D02*
X421197Y736310D01*
X421197Y721470D01*
X423429Y719238D01*
X424372Y719238D01*
X432500Y711110D01*
X411390Y690000D01*
X353890Y690000D01*
X409800Y707900D02*
X413010Y711110D01*
X432500Y711110D01*
X87110Y741000D02*
X85000Y738890D01*
X87110Y741000D02*
X110200Y741000D01*
X388200Y594400D02*
X407800Y614000D01*
X410200Y614000D01*
X531042Y608429D02*
X531042Y626571D01*
X460887Y646000D02*
X458200Y646000D01*
X529800Y607187D02*
X531042Y608429D01*
X529800Y607187D02*
X529800Y594400D01*
X470929Y656042D02*
X460887Y646000D01*
X470929Y656042D02*
X501571Y656042D01*
X531042Y626571D01*
X510700Y562400D02*
X481800Y562400D01*
X510700Y562400D02*
X546400Y526700D01*
X498400Y494700D02*
X529800Y463300D01*
X529800Y462900D01*
X481800Y430900D02*
X458200Y407300D01*
X458200Y406000D01*
X449872Y382560D02*
X466528Y382560D01*
X441312Y374000D02*
X410200Y374000D01*
X475088Y374000D02*
X590200Y374000D01*
X449872Y382560D02*
X441312Y374000D01*
X466528Y382560D02*
X475088Y374000D01*
X590200Y454000D02*
X638200Y406000D01*
X638200Y486000D02*
X590200Y534000D01*
X625503Y578697D02*
X638200Y566000D01*
X625503Y578697D02*
X613690Y578697D01*
X611458Y580929D01*
X611458Y592742D01*
X590200Y614000D01*
X638200Y646000D02*
X676800Y607400D01*
X676800Y599000D01*
X746000Y535300D02*
X794000Y487300D01*
X746000Y455300D02*
X724800Y434100D01*
X724800Y426000D01*
X676800Y394000D02*
X696800Y374000D01*
X841800Y374000D01*
X889800Y406000D02*
X843400Y452400D01*
X843400Y454000D01*
X878703Y498697D02*
X891400Y486000D01*
X878703Y498697D02*
X868690Y498697D01*
X845000Y522387D01*
X845000Y534000D01*
X880303Y578697D02*
X893000Y566000D01*
X880303Y578697D02*
X863690Y578697D01*
X845200Y597187D01*
X845200Y614000D01*
X893200Y646000D02*
X921800Y617400D01*
X921800Y614000D01*
X969800Y646000D02*
X973800Y650000D01*
X990000Y650000D01*
X990000Y540000D01*
X976700Y526700D01*
X971600Y526700D01*
X923600Y494700D02*
X973000Y445300D01*
X973000Y406000D01*
X794000Y567300D02*
X758803Y602497D01*
X758803Y626310D01*
X754113Y631000D01*
X724800Y631000D01*
M02*
