G04 EAGLE Gerber RS-274X export*
G75*
%MOMM*%
%FSLAX34Y34*%
%LPD*%
%AMOC8*
5,1,8,0,0,1.08239X$1,22.5*%
G01*
%ADD10R,1.879600X1.879600*%
%ADD11C,1.879600*%
%ADD12C,2.184400*%
%ADD13C,0.800000*%

G36*
X1020118Y248746D02*
X1020118Y248746D01*
X1020237Y248753D01*
X1020275Y248766D01*
X1020316Y248771D01*
X1020426Y248814D01*
X1020539Y248851D01*
X1020574Y248873D01*
X1020611Y248888D01*
X1020707Y248958D01*
X1020808Y249021D01*
X1020836Y249051D01*
X1020869Y249074D01*
X1020945Y249166D01*
X1021026Y249253D01*
X1021046Y249288D01*
X1021071Y249319D01*
X1021122Y249427D01*
X1021180Y249531D01*
X1021190Y249571D01*
X1021207Y249607D01*
X1021229Y249724D01*
X1021259Y249839D01*
X1021263Y249900D01*
X1021267Y249920D01*
X1021265Y249940D01*
X1021269Y250000D01*
X1021269Y1000000D01*
X1021254Y1000118D01*
X1021247Y1000237D01*
X1021234Y1000275D01*
X1021229Y1000316D01*
X1021186Y1000426D01*
X1021149Y1000539D01*
X1021127Y1000574D01*
X1021112Y1000611D01*
X1021043Y1000707D01*
X1020979Y1000808D01*
X1020949Y1000836D01*
X1020926Y1000869D01*
X1020834Y1000945D01*
X1020747Y1001026D01*
X1020712Y1001046D01*
X1020681Y1001071D01*
X1020573Y1001122D01*
X1020469Y1001180D01*
X1020429Y1001190D01*
X1020393Y1001207D01*
X1020276Y1001229D01*
X1020161Y1001259D01*
X1020101Y1001263D01*
X1020081Y1001267D01*
X1020060Y1001265D01*
X1020000Y1001269D01*
X0Y1001269D01*
X-118Y1001254D01*
X-237Y1001247D01*
X-275Y1001234D01*
X-316Y1001229D01*
X-426Y1001186D01*
X-539Y1001149D01*
X-574Y1001127D01*
X-611Y1001112D01*
X-707Y1001043D01*
X-808Y1000979D01*
X-836Y1000949D01*
X-869Y1000926D01*
X-945Y1000834D01*
X-1026Y1000747D01*
X-1046Y1000712D01*
X-1071Y1000681D01*
X-1122Y1000573D01*
X-1180Y1000469D01*
X-1190Y1000429D01*
X-1207Y1000393D01*
X-1229Y1000276D01*
X-1259Y1000161D01*
X-1263Y1000101D01*
X-1267Y1000081D01*
X-1265Y1000060D01*
X-1269Y1000000D01*
X-1269Y250000D01*
X-1254Y249882D01*
X-1247Y249763D01*
X-1234Y249725D01*
X-1229Y249684D01*
X-1186Y249574D01*
X-1149Y249461D01*
X-1127Y249426D01*
X-1112Y249389D01*
X-1043Y249293D01*
X-979Y249192D01*
X-949Y249164D01*
X-926Y249131D01*
X-834Y249056D01*
X-747Y248974D01*
X-712Y248954D01*
X-681Y248929D01*
X-573Y248878D01*
X-469Y248820D01*
X-429Y248810D01*
X-393Y248793D01*
X-276Y248771D01*
X-161Y248741D01*
X-101Y248737D01*
X-81Y248733D01*
X-60Y248735D01*
X0Y248731D01*
X1020000Y248731D01*
X1020118Y248746D01*
G37*
%LPC*%
G36*
X445425Y297361D02*
X445425Y297361D01*
X441037Y299179D01*
X437679Y302537D01*
X436237Y306019D01*
X436222Y306045D01*
X436213Y306074D01*
X436143Y306183D01*
X436079Y306296D01*
X436058Y306317D01*
X436042Y306342D01*
X435948Y306431D01*
X435858Y306524D01*
X435832Y306540D01*
X435810Y306560D01*
X435697Y306623D01*
X435587Y306690D01*
X435558Y306699D01*
X435532Y306713D01*
X435406Y306746D01*
X435283Y306784D01*
X435253Y306785D01*
X435224Y306793D01*
X435094Y306793D01*
X434965Y306799D01*
X434936Y306793D01*
X434906Y306793D01*
X434780Y306761D01*
X434654Y306735D01*
X434627Y306722D01*
X434598Y306714D01*
X434484Y306652D01*
X434368Y306595D01*
X434345Y306576D01*
X434319Y306561D01*
X434225Y306473D01*
X434126Y306389D01*
X434109Y306364D01*
X434087Y306344D01*
X434017Y306235D01*
X433943Y306129D01*
X433932Y306101D01*
X433916Y306075D01*
X433857Y305926D01*
X433546Y304971D01*
X433546Y304970D01*
X433464Y304717D01*
X432611Y303043D01*
X431506Y301522D01*
X430178Y300194D01*
X428657Y299089D01*
X426983Y298236D01*
X425196Y297655D01*
X424939Y297615D01*
X424939Y308030D01*
X424924Y308148D01*
X424917Y308267D01*
X424904Y308305D01*
X424899Y308345D01*
X424856Y308456D01*
X424819Y308569D01*
X424797Y308603D01*
X424782Y308641D01*
X424712Y308737D01*
X424649Y308838D01*
X424619Y308866D01*
X424595Y308898D01*
X424504Y308974D01*
X424417Y309056D01*
X424382Y309075D01*
X424351Y309101D01*
X424243Y309152D01*
X424139Y309209D01*
X424099Y309220D01*
X424063Y309237D01*
X423946Y309259D01*
X423831Y309289D01*
X423770Y309293D01*
X423750Y309297D01*
X423730Y309295D01*
X423670Y309299D01*
X422399Y309299D01*
X422399Y309301D01*
X423670Y309301D01*
X423788Y309316D01*
X423907Y309323D01*
X423945Y309336D01*
X423985Y309341D01*
X424096Y309385D01*
X424209Y309421D01*
X424244Y309443D01*
X424281Y309458D01*
X424377Y309528D01*
X424478Y309591D01*
X424506Y309621D01*
X424539Y309645D01*
X424614Y309736D01*
X424696Y309823D01*
X424716Y309858D01*
X424741Y309890D01*
X424792Y309997D01*
X424850Y310102D01*
X424860Y310141D01*
X424877Y310177D01*
X424899Y310294D01*
X424929Y310409D01*
X424933Y310470D01*
X424937Y310490D01*
X424935Y310510D01*
X424939Y310570D01*
X424939Y320985D01*
X425196Y320945D01*
X426983Y320364D01*
X428657Y319511D01*
X430178Y318406D01*
X431506Y317078D01*
X432611Y315557D01*
X433464Y313883D01*
X433857Y312674D01*
X433869Y312647D01*
X433876Y312618D01*
X433937Y312504D01*
X433992Y312386D01*
X434011Y312363D01*
X434025Y312337D01*
X434113Y312241D01*
X434195Y312141D01*
X434219Y312124D01*
X434239Y312102D01*
X434348Y312030D01*
X434452Y311954D01*
X434480Y311943D01*
X434505Y311927D01*
X434628Y311885D01*
X434748Y311837D01*
X434777Y311833D01*
X434806Y311824D01*
X434935Y311813D01*
X435063Y311797D01*
X435093Y311801D01*
X435123Y311799D01*
X435250Y311821D01*
X435379Y311837D01*
X435407Y311848D01*
X435436Y311853D01*
X435554Y311906D01*
X435675Y311954D01*
X435699Y311971D01*
X435726Y311984D01*
X435827Y312064D01*
X435932Y312140D01*
X435951Y312163D01*
X435974Y312182D01*
X436052Y312286D01*
X436135Y312385D01*
X436148Y312412D01*
X436166Y312436D01*
X436237Y312581D01*
X437679Y316063D01*
X441037Y319421D01*
X445425Y321239D01*
X450175Y321239D01*
X454563Y319421D01*
X457921Y316063D01*
X459327Y312668D01*
X459396Y312547D01*
X459461Y312424D01*
X459475Y312409D01*
X459485Y312392D01*
X459582Y312292D01*
X459675Y312189D01*
X459692Y312178D01*
X459706Y312163D01*
X459825Y312091D01*
X459941Y312014D01*
X459960Y312008D01*
X459977Y311997D01*
X460110Y311956D01*
X460242Y311911D01*
X460262Y311909D01*
X460281Y311903D01*
X460420Y311897D01*
X460559Y311886D01*
X460579Y311889D01*
X460599Y311888D01*
X460735Y311916D01*
X460872Y311940D01*
X460891Y311948D01*
X460910Y311952D01*
X461036Y312014D01*
X461162Y312071D01*
X461178Y312083D01*
X461196Y312092D01*
X461302Y312183D01*
X461410Y312269D01*
X461423Y312285D01*
X461438Y312299D01*
X461518Y312412D01*
X461602Y312523D01*
X461614Y312549D01*
X461621Y312559D01*
X461628Y312578D01*
X461673Y312668D01*
X463079Y316063D01*
X466437Y319421D01*
X470825Y321239D01*
X475575Y321239D01*
X479963Y319421D01*
X483321Y316063D01*
X484727Y312668D01*
X484796Y312547D01*
X484861Y312424D01*
X484875Y312409D01*
X484885Y312392D01*
X484982Y312292D01*
X485075Y312189D01*
X485092Y312178D01*
X485106Y312163D01*
X485225Y312091D01*
X485341Y312014D01*
X485360Y312008D01*
X485377Y311997D01*
X485510Y311956D01*
X485642Y311911D01*
X485662Y311909D01*
X485681Y311903D01*
X485820Y311897D01*
X485959Y311886D01*
X485979Y311889D01*
X485999Y311888D01*
X486135Y311916D01*
X486272Y311940D01*
X486291Y311948D01*
X486310Y311952D01*
X486436Y312014D01*
X486562Y312071D01*
X486578Y312083D01*
X486596Y312092D01*
X486702Y312183D01*
X486810Y312269D01*
X486823Y312285D01*
X486838Y312299D01*
X486918Y312412D01*
X487002Y312523D01*
X487014Y312549D01*
X487021Y312559D01*
X487028Y312578D01*
X487073Y312668D01*
X488479Y316063D01*
X491837Y319421D01*
X496225Y321239D01*
X500975Y321239D01*
X505363Y319421D01*
X508721Y316063D01*
X510127Y312668D01*
X510196Y312547D01*
X510261Y312424D01*
X510275Y312409D01*
X510285Y312392D01*
X510382Y312292D01*
X510475Y312189D01*
X510492Y312178D01*
X510506Y312163D01*
X510625Y312091D01*
X510741Y312014D01*
X510760Y312008D01*
X510777Y311997D01*
X510910Y311956D01*
X511042Y311911D01*
X511062Y311909D01*
X511081Y311903D01*
X511220Y311897D01*
X511359Y311886D01*
X511379Y311889D01*
X511399Y311888D01*
X511535Y311916D01*
X511672Y311940D01*
X511691Y311948D01*
X511710Y311952D01*
X511836Y312014D01*
X511962Y312071D01*
X511978Y312083D01*
X511996Y312092D01*
X512102Y312183D01*
X512210Y312269D01*
X512223Y312285D01*
X512238Y312299D01*
X512318Y312412D01*
X512402Y312523D01*
X512414Y312549D01*
X512421Y312559D01*
X512428Y312578D01*
X512473Y312668D01*
X513879Y316063D01*
X517237Y319421D01*
X521625Y321239D01*
X526375Y321239D01*
X530763Y319421D01*
X534121Y316063D01*
X535527Y312668D01*
X535596Y312547D01*
X535661Y312424D01*
X535675Y312409D01*
X535685Y312392D01*
X535782Y312292D01*
X535875Y312189D01*
X535892Y312178D01*
X535906Y312163D01*
X536025Y312091D01*
X536141Y312014D01*
X536160Y312008D01*
X536177Y311997D01*
X536310Y311956D01*
X536442Y311911D01*
X536462Y311909D01*
X536481Y311903D01*
X536620Y311897D01*
X536759Y311886D01*
X536779Y311889D01*
X536799Y311888D01*
X536935Y311916D01*
X537072Y311940D01*
X537091Y311948D01*
X537110Y311952D01*
X537236Y312014D01*
X537362Y312071D01*
X537378Y312083D01*
X537396Y312092D01*
X537502Y312183D01*
X537610Y312269D01*
X537623Y312285D01*
X537638Y312299D01*
X537718Y312412D01*
X537802Y312523D01*
X537814Y312549D01*
X537821Y312559D01*
X537828Y312578D01*
X537873Y312668D01*
X539279Y316063D01*
X542637Y319421D01*
X547025Y321239D01*
X551775Y321239D01*
X556163Y319421D01*
X559521Y316063D01*
X560927Y312668D01*
X560996Y312547D01*
X561061Y312424D01*
X561075Y312409D01*
X561085Y312392D01*
X561182Y312292D01*
X561275Y312189D01*
X561292Y312178D01*
X561306Y312163D01*
X561425Y312091D01*
X561541Y312014D01*
X561560Y312008D01*
X561577Y311997D01*
X561710Y311956D01*
X561842Y311911D01*
X561862Y311909D01*
X561881Y311903D01*
X562020Y311897D01*
X562159Y311886D01*
X562179Y311889D01*
X562199Y311888D01*
X562335Y311916D01*
X562472Y311940D01*
X562491Y311948D01*
X562510Y311952D01*
X562636Y312014D01*
X562762Y312071D01*
X562778Y312083D01*
X562796Y312092D01*
X562902Y312183D01*
X563010Y312269D01*
X563023Y312285D01*
X563038Y312299D01*
X563118Y312412D01*
X563202Y312523D01*
X563214Y312549D01*
X563221Y312559D01*
X563228Y312578D01*
X563273Y312668D01*
X564679Y316063D01*
X568037Y319421D01*
X572425Y321239D01*
X577175Y321239D01*
X581563Y319421D01*
X584921Y316063D01*
X585819Y313894D01*
X585854Y313834D01*
X585880Y313769D01*
X585932Y313696D01*
X585977Y313618D01*
X586025Y313568D01*
X586066Y313511D01*
X586136Y313454D01*
X586198Y313390D01*
X586258Y313353D01*
X586311Y313309D01*
X586393Y313270D01*
X586469Y313223D01*
X586536Y313203D01*
X586599Y313173D01*
X586687Y313156D01*
X586773Y313130D01*
X586843Y313126D01*
X586912Y313113D01*
X587001Y313119D01*
X587091Y313115D01*
X587159Y313129D01*
X587229Y313133D01*
X587314Y313161D01*
X587402Y313179D01*
X587465Y313210D01*
X587531Y313231D01*
X587607Y313279D01*
X587688Y313319D01*
X587741Y313364D01*
X587800Y313401D01*
X587862Y313467D01*
X587930Y313525D01*
X587970Y313582D01*
X588018Y313633D01*
X588061Y313711D01*
X588113Y313785D01*
X588138Y313850D01*
X588172Y313911D01*
X588194Y313998D01*
X588226Y314082D01*
X588234Y314152D01*
X588251Y314219D01*
X588261Y314380D01*
X588261Y319750D01*
X589750Y321239D01*
X610650Y321239D01*
X612139Y319750D01*
X612139Y298850D01*
X610650Y297361D01*
X589750Y297361D01*
X588261Y298850D01*
X588261Y304220D01*
X588253Y304289D01*
X588254Y304359D01*
X588233Y304447D01*
X588221Y304536D01*
X588196Y304601D01*
X588179Y304668D01*
X588137Y304748D01*
X588104Y304831D01*
X588063Y304888D01*
X588031Y304949D01*
X587970Y305016D01*
X587918Y305089D01*
X587864Y305133D01*
X587817Y305185D01*
X587742Y305234D01*
X587673Y305291D01*
X587609Y305321D01*
X587551Y305360D01*
X587466Y305389D01*
X587385Y305427D01*
X587316Y305440D01*
X587250Y305463D01*
X587161Y305470D01*
X587073Y305487D01*
X587003Y305482D01*
X586933Y305488D01*
X586845Y305473D01*
X586755Y305467D01*
X586689Y305446D01*
X586620Y305434D01*
X586538Y305397D01*
X586453Y305369D01*
X586394Y305332D01*
X586330Y305303D01*
X586260Y305247D01*
X586184Y305199D01*
X586136Y305148D01*
X586082Y305104D01*
X586027Y305033D01*
X585966Y304967D01*
X585932Y304906D01*
X585890Y304850D01*
X585819Y304706D01*
X584921Y302537D01*
X581563Y299179D01*
X577175Y297361D01*
X572425Y297361D01*
X568037Y299179D01*
X564679Y302537D01*
X563273Y305932D01*
X563204Y306053D01*
X563139Y306176D01*
X563125Y306191D01*
X563115Y306208D01*
X563018Y306308D01*
X562925Y306411D01*
X562908Y306422D01*
X562894Y306437D01*
X562776Y306509D01*
X562659Y306586D01*
X562640Y306592D01*
X562623Y306603D01*
X562490Y306644D01*
X562358Y306689D01*
X562338Y306691D01*
X562319Y306697D01*
X562180Y306703D01*
X562041Y306714D01*
X562021Y306711D01*
X562001Y306712D01*
X561865Y306684D01*
X561728Y306660D01*
X561709Y306652D01*
X561690Y306648D01*
X561565Y306586D01*
X561438Y306529D01*
X561422Y306517D01*
X561404Y306508D01*
X561298Y306417D01*
X561190Y306331D01*
X561177Y306315D01*
X561162Y306301D01*
X561082Y306188D01*
X560998Y306077D01*
X560986Y306051D01*
X560979Y306041D01*
X560972Y306022D01*
X560927Y305932D01*
X559521Y302537D01*
X556163Y299179D01*
X551775Y297361D01*
X547025Y297361D01*
X542637Y299179D01*
X539279Y302537D01*
X537873Y305932D01*
X537804Y306053D01*
X537739Y306176D01*
X537725Y306191D01*
X537715Y306208D01*
X537618Y306308D01*
X537525Y306411D01*
X537508Y306422D01*
X537494Y306437D01*
X537376Y306509D01*
X537259Y306586D01*
X537240Y306592D01*
X537223Y306603D01*
X537090Y306644D01*
X536958Y306689D01*
X536938Y306691D01*
X536919Y306697D01*
X536780Y306703D01*
X536641Y306714D01*
X536621Y306711D01*
X536601Y306712D01*
X536465Y306684D01*
X536328Y306660D01*
X536309Y306652D01*
X536290Y306648D01*
X536165Y306586D01*
X536038Y306529D01*
X536022Y306517D01*
X536004Y306508D01*
X535898Y306417D01*
X535790Y306331D01*
X535777Y306315D01*
X535762Y306301D01*
X535682Y306188D01*
X535598Y306077D01*
X535586Y306051D01*
X535579Y306041D01*
X535572Y306022D01*
X535527Y305932D01*
X534121Y302537D01*
X530763Y299179D01*
X526375Y297361D01*
X521625Y297361D01*
X517237Y299179D01*
X513879Y302537D01*
X512473Y305932D01*
X512404Y306053D01*
X512339Y306176D01*
X512325Y306191D01*
X512315Y306208D01*
X512218Y306308D01*
X512125Y306411D01*
X512108Y306422D01*
X512094Y306437D01*
X511976Y306509D01*
X511859Y306586D01*
X511840Y306592D01*
X511823Y306603D01*
X511690Y306644D01*
X511558Y306689D01*
X511538Y306691D01*
X511519Y306697D01*
X511380Y306703D01*
X511241Y306714D01*
X511221Y306711D01*
X511201Y306712D01*
X511065Y306684D01*
X510928Y306660D01*
X510909Y306652D01*
X510890Y306648D01*
X510765Y306586D01*
X510638Y306529D01*
X510622Y306517D01*
X510604Y306508D01*
X510498Y306417D01*
X510390Y306331D01*
X510377Y306315D01*
X510362Y306301D01*
X510282Y306188D01*
X510198Y306077D01*
X510186Y306051D01*
X510179Y306041D01*
X510172Y306022D01*
X510127Y305932D01*
X508721Y302537D01*
X505363Y299179D01*
X500975Y297361D01*
X496225Y297361D01*
X491837Y299179D01*
X488479Y302537D01*
X487073Y305932D01*
X487004Y306053D01*
X486939Y306176D01*
X486925Y306191D01*
X486915Y306208D01*
X486818Y306308D01*
X486725Y306411D01*
X486708Y306422D01*
X486694Y306437D01*
X486576Y306509D01*
X486459Y306586D01*
X486440Y306592D01*
X486423Y306603D01*
X486290Y306644D01*
X486158Y306689D01*
X486138Y306691D01*
X486119Y306697D01*
X485980Y306703D01*
X485841Y306714D01*
X485821Y306711D01*
X485801Y306712D01*
X485665Y306684D01*
X485528Y306660D01*
X485509Y306652D01*
X485490Y306648D01*
X485365Y306586D01*
X485238Y306529D01*
X485222Y306517D01*
X485204Y306508D01*
X485098Y306417D01*
X484990Y306331D01*
X484977Y306315D01*
X484962Y306301D01*
X484882Y306188D01*
X484798Y306077D01*
X484786Y306051D01*
X484779Y306041D01*
X484772Y306022D01*
X484727Y305932D01*
X483321Y302537D01*
X479963Y299179D01*
X475575Y297361D01*
X470825Y297361D01*
X466437Y299179D01*
X463079Y302537D01*
X461673Y305932D01*
X461604Y306053D01*
X461539Y306176D01*
X461525Y306191D01*
X461515Y306208D01*
X461418Y306308D01*
X461325Y306411D01*
X461308Y306422D01*
X461294Y306437D01*
X461176Y306509D01*
X461059Y306586D01*
X461040Y306592D01*
X461023Y306603D01*
X460890Y306644D01*
X460758Y306689D01*
X460738Y306691D01*
X460719Y306697D01*
X460580Y306703D01*
X460441Y306714D01*
X460421Y306711D01*
X460401Y306712D01*
X460265Y306684D01*
X460128Y306660D01*
X460109Y306652D01*
X460090Y306648D01*
X459965Y306586D01*
X459838Y306529D01*
X459822Y306517D01*
X459804Y306508D01*
X459698Y306417D01*
X459590Y306331D01*
X459577Y306315D01*
X459562Y306301D01*
X459482Y306188D01*
X459398Y306077D01*
X459386Y306051D01*
X459379Y306041D01*
X459372Y306022D01*
X459327Y305932D01*
X457921Y302537D01*
X454563Y299179D01*
X450175Y297361D01*
X445425Y297361D01*
G37*
%LPD*%
%LPC*%
G36*
X507016Y944999D02*
X507016Y944999D01*
X501503Y947283D01*
X497283Y951503D01*
X494999Y957016D01*
X494999Y962984D01*
X497283Y968497D01*
X501503Y972717D01*
X507016Y975001D01*
X512984Y975001D01*
X518497Y972717D01*
X522717Y968497D01*
X525001Y962984D01*
X525001Y957016D01*
X522717Y951503D01*
X518497Y947283D01*
X512984Y944999D01*
X507016Y944999D01*
G37*
%LPD*%
%LPC*%
G36*
X646425Y298561D02*
X646425Y298561D01*
X642037Y300379D01*
X638679Y303737D01*
X636861Y308125D01*
X636861Y312875D01*
X638679Y317263D01*
X642037Y320621D01*
X646425Y322439D01*
X651175Y322439D01*
X655563Y320621D01*
X658921Y317263D01*
X660363Y313781D01*
X660378Y313755D01*
X660387Y313726D01*
X660457Y313617D01*
X660521Y313504D01*
X660542Y313483D01*
X660558Y313458D01*
X660652Y313369D01*
X660742Y313276D01*
X660768Y313260D01*
X660790Y313240D01*
X660903Y313178D01*
X661013Y313110D01*
X661042Y313101D01*
X661068Y313087D01*
X661194Y313054D01*
X661317Y313016D01*
X661347Y313015D01*
X661376Y313007D01*
X661506Y313007D01*
X661635Y313001D01*
X661664Y313007D01*
X661694Y313007D01*
X661820Y313039D01*
X661946Y313065D01*
X661973Y313079D01*
X662002Y313086D01*
X662116Y313148D01*
X662232Y313205D01*
X662255Y313224D01*
X662281Y313239D01*
X662375Y313327D01*
X662474Y313411D01*
X662491Y313436D01*
X662513Y313456D01*
X662583Y313565D01*
X662657Y313671D01*
X662668Y313699D01*
X662684Y313725D01*
X662743Y313874D01*
X663136Y315083D01*
X663989Y316757D01*
X665094Y318278D01*
X666422Y319606D01*
X667943Y320711D01*
X669617Y321564D01*
X671404Y322145D01*
X671661Y322185D01*
X671661Y311770D01*
X671676Y311652D01*
X671683Y311533D01*
X671696Y311495D01*
X671701Y311455D01*
X671744Y311344D01*
X671781Y311231D01*
X671803Y311197D01*
X671818Y311159D01*
X671888Y311063D01*
X671951Y310962D01*
X671981Y310934D01*
X672004Y310902D01*
X672096Y310826D01*
X672183Y310744D01*
X672218Y310725D01*
X672249Y310699D01*
X672357Y310648D01*
X672461Y310591D01*
X672501Y310580D01*
X672537Y310563D01*
X672654Y310541D01*
X672769Y310511D01*
X672830Y310507D01*
X672850Y310503D01*
X672870Y310505D01*
X672930Y310501D01*
X674201Y310501D01*
X674201Y310499D01*
X672930Y310499D01*
X672812Y310484D01*
X672693Y310477D01*
X672655Y310464D01*
X672614Y310459D01*
X672504Y310415D01*
X672391Y310379D01*
X672356Y310357D01*
X672319Y310342D01*
X672223Y310272D01*
X672122Y310209D01*
X672094Y310179D01*
X672061Y310155D01*
X671986Y310064D01*
X671904Y309977D01*
X671884Y309942D01*
X671859Y309910D01*
X671808Y309803D01*
X671750Y309698D01*
X671740Y309659D01*
X671723Y309623D01*
X671701Y309506D01*
X671671Y309391D01*
X671667Y309330D01*
X671663Y309310D01*
X671665Y309290D01*
X671661Y309230D01*
X671661Y298815D01*
X671404Y298855D01*
X669617Y299436D01*
X667943Y300289D01*
X666422Y301394D01*
X665094Y302722D01*
X663989Y304243D01*
X663136Y305917D01*
X662743Y307126D01*
X662731Y307153D01*
X662724Y307182D01*
X662663Y307297D01*
X662608Y307414D01*
X662589Y307437D01*
X662575Y307463D01*
X662488Y307559D01*
X662405Y307659D01*
X662381Y307676D01*
X662361Y307698D01*
X662253Y307769D01*
X662148Y307846D01*
X662120Y307857D01*
X662095Y307873D01*
X661973Y307915D01*
X661852Y307963D01*
X661823Y307967D01*
X661794Y307976D01*
X661665Y307987D01*
X661537Y308003D01*
X661507Y307999D01*
X661477Y308001D01*
X661350Y307979D01*
X661221Y307963D01*
X661193Y307952D01*
X661164Y307947D01*
X661046Y307894D01*
X660925Y307846D01*
X660901Y307829D01*
X660874Y307816D01*
X660773Y307736D01*
X660668Y307660D01*
X660649Y307637D01*
X660626Y307618D01*
X660548Y307514D01*
X660465Y307415D01*
X660452Y307388D01*
X660434Y307364D01*
X660363Y307219D01*
X658921Y303737D01*
X655563Y300379D01*
X651175Y298561D01*
X646425Y298561D01*
G37*
%LPD*%
%LPC*%
G36*
X233661Y315837D02*
X233661Y315837D01*
X228713Y317887D01*
X224926Y321674D01*
X222876Y326622D01*
X222876Y331978D01*
X224926Y336926D01*
X228713Y340713D01*
X233661Y342763D01*
X239017Y342763D01*
X243965Y340713D01*
X247752Y336926D01*
X249802Y331978D01*
X249802Y326622D01*
X247752Y321674D01*
X243965Y317887D01*
X239017Y315837D01*
X233661Y315837D01*
G37*
%LPD*%
%LPC*%
G36*
X378011Y359999D02*
X378011Y359999D01*
X374335Y361522D01*
X371522Y364335D01*
X369999Y368011D01*
X369999Y371989D01*
X371522Y375665D01*
X374335Y378478D01*
X378011Y380001D01*
X381989Y380001D01*
X385665Y378478D01*
X388478Y375665D01*
X390001Y371989D01*
X390001Y368011D01*
X388478Y364335D01*
X385665Y361522D01*
X381989Y359999D01*
X378011Y359999D01*
G37*
%LPD*%
%LPC*%
G36*
X268011Y349999D02*
X268011Y349999D01*
X264335Y351522D01*
X261522Y354335D01*
X259999Y358011D01*
X259999Y361989D01*
X261522Y365665D01*
X264335Y368478D01*
X268011Y370001D01*
X271989Y370001D01*
X275665Y368478D01*
X278478Y365665D01*
X280001Y361989D01*
X280001Y358011D01*
X278478Y354335D01*
X275665Y351522D01*
X271989Y349999D01*
X268011Y349999D01*
G37*
%LPD*%
%LPC*%
G36*
X598011Y339999D02*
X598011Y339999D01*
X594335Y341522D01*
X591522Y344335D01*
X589999Y348011D01*
X589999Y351989D01*
X591522Y355665D01*
X594335Y358478D01*
X598011Y360001D01*
X601989Y360001D01*
X605665Y358478D01*
X608478Y355665D01*
X610001Y351989D01*
X610001Y348011D01*
X608478Y344335D01*
X605665Y341522D01*
X601989Y339999D01*
X598011Y339999D01*
G37*
%LPD*%
%LPC*%
G36*
X173600Y331839D02*
X173600Y331839D01*
X173600Y342528D01*
X174214Y342431D01*
X176229Y341776D01*
X178117Y340814D01*
X179831Y339569D01*
X181330Y338070D01*
X182575Y336356D01*
X183537Y334468D01*
X184192Y332453D01*
X184289Y331839D01*
X173600Y331839D01*
G37*
%LPD*%
%LPC*%
G36*
X157833Y331839D02*
X157833Y331839D01*
X157930Y332453D01*
X158585Y334468D01*
X159547Y336356D01*
X160792Y338070D01*
X162291Y339569D01*
X164005Y340814D01*
X165893Y341776D01*
X167908Y342431D01*
X168522Y342528D01*
X168522Y331839D01*
X157833Y331839D01*
G37*
%LPD*%
%LPC*%
G36*
X173600Y326761D02*
X173600Y326761D01*
X184289Y326761D01*
X184192Y326147D01*
X183537Y324132D01*
X182575Y322244D01*
X181330Y320530D01*
X179831Y319031D01*
X178117Y317786D01*
X176229Y316824D01*
X174214Y316169D01*
X173600Y316072D01*
X173600Y326761D01*
G37*
%LPD*%
%LPC*%
G36*
X167908Y316169D02*
X167908Y316169D01*
X165893Y316824D01*
X164005Y317786D01*
X162291Y319031D01*
X160792Y320530D01*
X159547Y322244D01*
X158585Y324132D01*
X157930Y326147D01*
X157833Y326761D01*
X168522Y326761D01*
X168522Y316072D01*
X167908Y316169D01*
G37*
%LPD*%
%LPC*%
G36*
X676739Y313039D02*
X676739Y313039D01*
X676739Y322185D01*
X676996Y322145D01*
X678783Y321564D01*
X680457Y320711D01*
X681978Y319606D01*
X683306Y318278D01*
X684411Y316757D01*
X685264Y315083D01*
X685845Y313296D01*
X685885Y313039D01*
X676739Y313039D01*
G37*
%LPD*%
%LPC*%
G36*
X410715Y311839D02*
X410715Y311839D01*
X410755Y312096D01*
X411336Y313883D01*
X412189Y315557D01*
X413294Y317078D01*
X414622Y318406D01*
X416143Y319511D01*
X417817Y320364D01*
X419604Y320945D01*
X419861Y320985D01*
X419861Y311839D01*
X410715Y311839D01*
G37*
%LPD*%
%LPC*%
G36*
X676739Y307961D02*
X676739Y307961D01*
X685885Y307961D01*
X685845Y307704D01*
X685264Y305917D01*
X684411Y304243D01*
X683306Y302722D01*
X681978Y301394D01*
X680457Y300289D01*
X678783Y299436D01*
X676996Y298855D01*
X676739Y298815D01*
X676739Y307961D01*
G37*
%LPD*%
%LPC*%
G36*
X419604Y297655D02*
X419604Y297655D01*
X417817Y298236D01*
X416143Y299089D01*
X414622Y300194D01*
X413294Y301522D01*
X412189Y303043D01*
X411336Y304717D01*
X410755Y306504D01*
X410715Y306761D01*
X419861Y306761D01*
X419861Y297615D01*
X419604Y297655D01*
G37*
%LPD*%
%LPC*%
G36*
X171060Y329299D02*
X171060Y329299D01*
X171060Y329301D01*
X171062Y329301D01*
X171062Y329299D01*
X171060Y329299D01*
G37*
%LPD*%
D10*
X600200Y309300D03*
D11*
X574800Y309300D03*
X549400Y309300D03*
X524000Y309300D03*
X498600Y309300D03*
X473200Y309300D03*
X447800Y309300D03*
X422400Y309300D03*
D12*
X171061Y329300D03*
X236339Y329300D03*
D11*
X648800Y310500D03*
X674200Y310500D03*
D13*
X200000Y375000D03*
X157500Y415000D03*
X365000Y450000D03*
X317500Y387500D03*
X347500Y895000D03*
X435000Y475000D03*
X857500Y832500D03*
X197500Y942500D03*
X430000Y690000D03*
X605000Y787500D03*
X645000Y877500D03*
X270000Y360000D03*
X380000Y370000D03*
X600000Y350000D03*
M02*
