G04 EAGLE Gerber RS-274X export*
G75*
%MOMM*%
%FSLAX34Y34*%
%LPD*%
%AMOC8*
5,1,8,0,0,1.08239X$1,22.5*%
G01*
%ADD10R,1.879600X1.879600*%
%ADD11C,1.879600*%
%ADD12C,2.184400*%
%ADD13C,1.100000*%
%ADD14C,0.254000*%


D10*
X600200Y316800D03*
D11*
X574800Y316800D03*
X549400Y316800D03*
X524000Y316800D03*
X498600Y316800D03*
X473200Y316800D03*
X447800Y316800D03*
X422400Y316800D03*
D12*
X168561Y336800D03*
X233839Y336800D03*
D11*
X646300Y318000D03*
X671700Y318000D03*
D13*
X430000Y690000D03*
X850000Y822500D03*
X787500Y857500D03*
D14*
X822500Y822500D02*
X850000Y822500D01*
X822500Y822500D02*
X787500Y857500D01*
D13*
X532500Y407500D03*
D14*
X582200Y407500D01*
X671700Y318000D01*
D13*
X112500Y390000D03*
D14*
X165700Y336800D01*
X168561Y336800D01*
D13*
X140000Y452500D03*
D14*
X112500Y425000D01*
X112500Y390000D01*
X168561Y336800D02*
X236761Y405000D01*
X310000Y405000D01*
D13*
X435000Y495000D03*
D14*
X522500Y407500D02*
X532500Y407500D01*
X435000Y685000D02*
X430000Y690000D01*
X435000Y685000D02*
X435000Y495000D01*
D13*
X537500Y805000D03*
D14*
X430000Y697500D01*
X430000Y690000D01*
D13*
X385000Y877500D03*
D14*
X457500Y805000D01*
X537500Y805000D01*
D13*
X300000Y860000D03*
D14*
X317500Y877500D01*
X385000Y877500D01*
D13*
X282500Y962500D03*
X670000Y830000D03*
D14*
X760000Y830000D01*
X787500Y857500D01*
X670000Y830000D02*
X562500Y830000D01*
X537500Y805000D01*
D13*
X315000Y387500D03*
D14*
X315000Y400000D01*
X310000Y405000D01*
D13*
X285000Y305000D03*
D14*
X285000Y357500D01*
X315000Y387500D01*
D13*
X72500Y682500D03*
D14*
X250000Y860000D01*
X300000Y860000D01*
D13*
X75000Y535000D03*
D14*
X75000Y517500D02*
X140000Y452500D01*
X75000Y517500D02*
X75000Y535000D01*
D13*
X192500Y940000D03*
D14*
X282500Y962500D02*
X300000Y945000D01*
X260000Y940000D02*
X192500Y940000D01*
X260000Y940000D02*
X282500Y962500D01*
X300000Y945000D02*
X300000Y860000D01*
X310000Y405000D02*
X530000Y405000D01*
D13*
X947500Y497500D03*
D14*
X851200Y497500D01*
X671700Y318000D01*
X522500Y407500D02*
X435000Y495000D01*
X530000Y405000D02*
X532500Y407500D01*
X480000Y374400D02*
X422400Y316800D01*
X480000Y374400D02*
X480000Y380000D01*
X490000Y390000D01*
X520000Y390000D01*
X532500Y402500D01*
X532500Y407500D01*
D13*
X272500Y365000D03*
X385000Y360000D03*
X600000Y350000D03*
M02*
