G04 EAGLE Gerber RS-274X export*
G75*
%MOMM*%
%FSLAX34Y34*%
%LPD*%
%AMOC8*
5,1,8,0,0,1.08239X$1,22.5*%
G01*
%ADD10C,0.152400*%
%ADD11C,0.076200*%
%ADD12R,1.350000X0.950000*%
%ADD13R,1.498600X1.168400*%
%ADD14R,1.168400X1.498600*%
%ADD15R,1.525000X0.650000*%
%ADD16R,1.879600X1.879600*%
%ADD17C,1.879600*%
%ADD18R,1.200000X0.800000*%
%ADD19C,2.184400*%
%ADD20C,1.100000*%
%ADD21C,0.254000*%


D10*
X707676Y290762D02*
X703725Y290762D01*
X703619Y290764D01*
X703514Y290770D01*
X703408Y290779D01*
X703303Y290792D01*
X703199Y290809D01*
X703095Y290830D01*
X702992Y290854D01*
X702890Y290882D01*
X702789Y290914D01*
X702690Y290949D01*
X702591Y290988D01*
X702494Y291030D01*
X702399Y291075D01*
X702305Y291124D01*
X702213Y291177D01*
X702123Y291232D01*
X702035Y291291D01*
X701949Y291353D01*
X701866Y291418D01*
X701785Y291486D01*
X701706Y291556D01*
X701630Y291630D01*
X701556Y291706D01*
X701486Y291785D01*
X701418Y291866D01*
X701353Y291949D01*
X701291Y292035D01*
X701232Y292123D01*
X701177Y292213D01*
X701124Y292305D01*
X701075Y292399D01*
X701030Y292494D01*
X700988Y292591D01*
X700949Y292690D01*
X700914Y292789D01*
X700882Y292890D01*
X700854Y292992D01*
X700830Y293095D01*
X700809Y293199D01*
X700792Y293303D01*
X700779Y293408D01*
X700770Y293514D01*
X700764Y293619D01*
X700762Y293725D01*
X700762Y299652D01*
X700764Y299758D01*
X700770Y299863D01*
X700779Y299969D01*
X700792Y300074D01*
X700809Y300178D01*
X700830Y300282D01*
X700854Y300385D01*
X700882Y300487D01*
X700914Y300588D01*
X700949Y300687D01*
X700988Y300786D01*
X701030Y300883D01*
X701075Y300978D01*
X701124Y301072D01*
X701177Y301164D01*
X701232Y301254D01*
X701291Y301342D01*
X701353Y301428D01*
X701418Y301511D01*
X701486Y301592D01*
X701556Y301671D01*
X701630Y301747D01*
X701706Y301821D01*
X701785Y301891D01*
X701866Y301959D01*
X701949Y302024D01*
X702035Y302086D01*
X702123Y302145D01*
X702213Y302200D01*
X702305Y302253D01*
X702399Y302302D01*
X702494Y302347D01*
X702591Y302389D01*
X702690Y302428D01*
X702789Y302463D01*
X702890Y302495D01*
X702992Y302523D01*
X703095Y302547D01*
X703199Y302568D01*
X703303Y302585D01*
X703408Y302598D01*
X703514Y302607D01*
X703619Y302613D01*
X703725Y302615D01*
X707676Y302615D01*
X714403Y302615D02*
X714403Y290762D01*
X714403Y302615D02*
X723293Y302615D01*
X723399Y302613D01*
X723504Y302607D01*
X723610Y302598D01*
X723715Y302585D01*
X723819Y302568D01*
X723923Y302547D01*
X724026Y302523D01*
X724128Y302495D01*
X724229Y302463D01*
X724328Y302428D01*
X724427Y302389D01*
X724524Y302347D01*
X724619Y302302D01*
X724713Y302253D01*
X724805Y302200D01*
X724895Y302145D01*
X724983Y302086D01*
X725069Y302024D01*
X725152Y301959D01*
X725233Y301891D01*
X725312Y301821D01*
X725388Y301747D01*
X725462Y301671D01*
X725532Y301592D01*
X725600Y301511D01*
X725665Y301428D01*
X725727Y301342D01*
X725786Y301254D01*
X725841Y301164D01*
X725894Y301072D01*
X725943Y300978D01*
X725988Y300883D01*
X726030Y300786D01*
X726069Y300687D01*
X726104Y300588D01*
X726136Y300487D01*
X726164Y300385D01*
X726188Y300282D01*
X726209Y300178D01*
X726226Y300074D01*
X726239Y299969D01*
X726248Y299863D01*
X726254Y299758D01*
X726256Y299652D01*
X726257Y299652D02*
X726257Y290762D01*
X720330Y290762D02*
X720330Y302615D01*
X741521Y308542D02*
X741521Y290762D01*
X736583Y290762D01*
X736477Y290764D01*
X736372Y290770D01*
X736266Y290779D01*
X736161Y290792D01*
X736057Y290809D01*
X735953Y290830D01*
X735850Y290854D01*
X735748Y290882D01*
X735647Y290914D01*
X735548Y290949D01*
X735449Y290988D01*
X735352Y291030D01*
X735257Y291075D01*
X735163Y291124D01*
X735071Y291177D01*
X734981Y291232D01*
X734893Y291291D01*
X734807Y291353D01*
X734724Y291418D01*
X734643Y291486D01*
X734564Y291556D01*
X734488Y291630D01*
X734414Y291706D01*
X734344Y291785D01*
X734276Y291866D01*
X734211Y291949D01*
X734149Y292035D01*
X734090Y292123D01*
X734035Y292213D01*
X733982Y292305D01*
X733933Y292399D01*
X733888Y292494D01*
X733846Y292591D01*
X733807Y292690D01*
X733772Y292789D01*
X733740Y292890D01*
X733712Y292992D01*
X733688Y293095D01*
X733667Y293199D01*
X733650Y293303D01*
X733637Y293408D01*
X733628Y293514D01*
X733622Y293619D01*
X733620Y293725D01*
X733619Y293725D02*
X733619Y299652D01*
X733620Y299652D02*
X733622Y299758D01*
X733628Y299863D01*
X733637Y299969D01*
X733650Y300074D01*
X733667Y300178D01*
X733688Y300282D01*
X733712Y300385D01*
X733740Y300487D01*
X733772Y300588D01*
X733807Y300687D01*
X733846Y300786D01*
X733888Y300883D01*
X733933Y300978D01*
X733982Y301072D01*
X734035Y301164D01*
X734090Y301254D01*
X734149Y301342D01*
X734211Y301428D01*
X734276Y301511D01*
X734344Y301592D01*
X734414Y301671D01*
X734488Y301747D01*
X734564Y301821D01*
X734643Y301891D01*
X734724Y301959D01*
X734807Y302024D01*
X734893Y302086D01*
X734981Y302145D01*
X735071Y302200D01*
X735163Y302253D01*
X735257Y302302D01*
X735352Y302347D01*
X735449Y302389D01*
X735548Y302428D01*
X735647Y302463D01*
X735748Y302495D01*
X735850Y302523D01*
X735953Y302547D01*
X736057Y302568D01*
X736161Y302585D01*
X736266Y302598D01*
X736372Y302607D01*
X736477Y302613D01*
X736583Y302615D01*
X741521Y302615D01*
X751743Y290762D02*
X755694Y290762D01*
X751743Y290762D02*
X751637Y290764D01*
X751532Y290770D01*
X751426Y290779D01*
X751321Y290792D01*
X751217Y290809D01*
X751113Y290830D01*
X751010Y290854D01*
X750908Y290882D01*
X750807Y290914D01*
X750708Y290949D01*
X750609Y290988D01*
X750512Y291030D01*
X750417Y291075D01*
X750323Y291124D01*
X750231Y291177D01*
X750141Y291232D01*
X750053Y291291D01*
X749967Y291353D01*
X749884Y291418D01*
X749803Y291486D01*
X749724Y291556D01*
X749648Y291630D01*
X749574Y291706D01*
X749504Y291785D01*
X749436Y291866D01*
X749371Y291949D01*
X749309Y292035D01*
X749250Y292123D01*
X749195Y292213D01*
X749142Y292305D01*
X749093Y292399D01*
X749048Y292494D01*
X749006Y292591D01*
X748967Y292690D01*
X748932Y292789D01*
X748900Y292890D01*
X748872Y292992D01*
X748848Y293095D01*
X748827Y293199D01*
X748810Y293303D01*
X748797Y293408D01*
X748788Y293514D01*
X748782Y293619D01*
X748780Y293725D01*
X748780Y299652D01*
X748782Y299758D01*
X748788Y299863D01*
X748797Y299969D01*
X748810Y300074D01*
X748827Y300178D01*
X748848Y300282D01*
X748872Y300385D01*
X748900Y300487D01*
X748932Y300588D01*
X748967Y300687D01*
X749006Y300786D01*
X749048Y300883D01*
X749093Y300978D01*
X749142Y301072D01*
X749195Y301164D01*
X749250Y301254D01*
X749309Y301342D01*
X749371Y301428D01*
X749436Y301511D01*
X749504Y301592D01*
X749574Y301671D01*
X749648Y301747D01*
X749724Y301821D01*
X749803Y301891D01*
X749884Y301959D01*
X749967Y302024D01*
X750053Y302086D01*
X750141Y302145D01*
X750231Y302200D01*
X750323Y302253D01*
X750417Y302302D01*
X750512Y302347D01*
X750609Y302389D01*
X750708Y302428D01*
X750807Y302463D01*
X750908Y302495D01*
X751010Y302523D01*
X751113Y302547D01*
X751217Y302568D01*
X751321Y302585D01*
X751426Y302598D01*
X751532Y302607D01*
X751637Y302613D01*
X751743Y302615D01*
X755694Y302615D01*
X761734Y299652D02*
X761738Y300002D01*
X761751Y300351D01*
X761772Y300700D01*
X761801Y301049D01*
X761838Y301397D01*
X761884Y301744D01*
X761938Y302089D01*
X762000Y302433D01*
X762071Y302776D01*
X762150Y303117D01*
X762236Y303456D01*
X762331Y303792D01*
X762434Y304127D01*
X762545Y304458D01*
X762663Y304788D01*
X762790Y305114D01*
X762924Y305437D01*
X763066Y305756D01*
X763216Y306073D01*
X763216Y306072D02*
X763256Y306185D01*
X763300Y306295D01*
X763348Y306405D01*
X763399Y306513D01*
X763454Y306618D01*
X763512Y306723D01*
X763574Y306825D01*
X763639Y306925D01*
X763707Y307023D01*
X763778Y307119D01*
X763853Y307212D01*
X763930Y307303D01*
X764010Y307391D01*
X764094Y307476D01*
X764179Y307559D01*
X764268Y307639D01*
X764359Y307716D01*
X764453Y307790D01*
X764549Y307861D01*
X764647Y307929D01*
X764747Y307993D01*
X764850Y308055D01*
X764954Y308112D01*
X765060Y308167D01*
X765168Y308218D01*
X765278Y308265D01*
X765389Y308309D01*
X765501Y308349D01*
X765615Y308385D01*
X765729Y308418D01*
X765845Y308447D01*
X765962Y308472D01*
X766079Y308493D01*
X766197Y308511D01*
X766316Y308524D01*
X766435Y308534D01*
X766554Y308540D01*
X766673Y308542D01*
X766792Y308540D01*
X766911Y308534D01*
X767030Y308524D01*
X767149Y308511D01*
X767267Y308493D01*
X767384Y308472D01*
X767501Y308447D01*
X767617Y308418D01*
X767731Y308385D01*
X767845Y308349D01*
X767957Y308309D01*
X768068Y308265D01*
X768178Y308218D01*
X768286Y308167D01*
X768392Y308112D01*
X768496Y308055D01*
X768599Y307993D01*
X768699Y307929D01*
X768797Y307861D01*
X768893Y307790D01*
X768987Y307716D01*
X769078Y307639D01*
X769167Y307559D01*
X769253Y307476D01*
X769336Y307391D01*
X769416Y307303D01*
X769493Y307212D01*
X769568Y307119D01*
X769639Y307023D01*
X769707Y306925D01*
X769772Y306825D01*
X769834Y306723D01*
X769892Y306618D01*
X769947Y306512D01*
X769998Y306405D01*
X770046Y306295D01*
X770090Y306185D01*
X770130Y306072D01*
X770130Y306073D02*
X770280Y305756D01*
X770422Y305437D01*
X770556Y305114D01*
X770683Y304788D01*
X770801Y304458D01*
X770912Y304127D01*
X771015Y303792D01*
X771110Y303456D01*
X771196Y303117D01*
X771275Y302776D01*
X771346Y302433D01*
X771408Y302089D01*
X771462Y301744D01*
X771508Y301397D01*
X771545Y301049D01*
X771574Y300700D01*
X771595Y300351D01*
X771608Y300002D01*
X771612Y299652D01*
X761734Y299652D02*
X761738Y299302D01*
X761751Y298953D01*
X761772Y298604D01*
X761801Y298255D01*
X761838Y297907D01*
X761884Y297560D01*
X761938Y297215D01*
X762000Y296871D01*
X762071Y296528D01*
X762150Y296187D01*
X762236Y295848D01*
X762331Y295512D01*
X762434Y295177D01*
X762545Y294846D01*
X762663Y294517D01*
X762790Y294190D01*
X762924Y293867D01*
X763066Y293548D01*
X763216Y293232D01*
X763256Y293119D01*
X763300Y293009D01*
X763348Y292899D01*
X763399Y292791D01*
X763454Y292685D01*
X763512Y292581D01*
X763574Y292479D01*
X763639Y292379D01*
X763707Y292281D01*
X763778Y292185D01*
X763853Y292092D01*
X763930Y292001D01*
X764010Y291913D01*
X764094Y291828D01*
X764179Y291745D01*
X764268Y291665D01*
X764359Y291588D01*
X764453Y291514D01*
X764549Y291443D01*
X764647Y291375D01*
X764747Y291311D01*
X764850Y291249D01*
X764954Y291191D01*
X765060Y291137D01*
X765168Y291086D01*
X765278Y291039D01*
X765389Y290995D01*
X765501Y290955D01*
X765615Y290919D01*
X765729Y290886D01*
X765845Y290857D01*
X765962Y290832D01*
X766079Y290811D01*
X766197Y290793D01*
X766316Y290780D01*
X766435Y290770D01*
X766554Y290764D01*
X766673Y290762D01*
X770130Y293232D02*
X770280Y293548D01*
X770422Y293867D01*
X770556Y294190D01*
X770683Y294517D01*
X770801Y294846D01*
X770912Y295177D01*
X771015Y295512D01*
X771110Y295848D01*
X771196Y296187D01*
X771275Y296528D01*
X771346Y296871D01*
X771408Y297215D01*
X771462Y297560D01*
X771508Y297907D01*
X771545Y298255D01*
X771574Y298604D01*
X771595Y298953D01*
X771608Y299302D01*
X771612Y299652D01*
X770130Y293232D02*
X770090Y293119D01*
X770046Y293009D01*
X769998Y292899D01*
X769947Y292792D01*
X769892Y292686D01*
X769834Y292581D01*
X769772Y292479D01*
X769707Y292379D01*
X769639Y292281D01*
X769568Y292185D01*
X769493Y292092D01*
X769416Y292001D01*
X769336Y291913D01*
X769253Y291828D01*
X769167Y291745D01*
X769078Y291665D01*
X768987Y291588D01*
X768893Y291514D01*
X768797Y291443D01*
X768699Y291375D01*
X768599Y291311D01*
X768496Y291249D01*
X768392Y291192D01*
X768286Y291137D01*
X768178Y291086D01*
X768068Y291039D01*
X767957Y290995D01*
X767845Y290955D01*
X767731Y290919D01*
X767617Y290886D01*
X767501Y290857D01*
X767384Y290832D01*
X767267Y290811D01*
X767149Y290793D01*
X767030Y290780D01*
X766911Y290770D01*
X766792Y290764D01*
X766673Y290762D01*
X762722Y294713D02*
X770624Y304591D01*
X786189Y308542D02*
X786189Y290762D01*
X781250Y290762D01*
X781144Y290764D01*
X781039Y290770D01*
X780933Y290779D01*
X780828Y290792D01*
X780724Y290809D01*
X780620Y290830D01*
X780517Y290854D01*
X780415Y290882D01*
X780314Y290914D01*
X780215Y290949D01*
X780116Y290988D01*
X780019Y291030D01*
X779924Y291075D01*
X779830Y291124D01*
X779738Y291177D01*
X779648Y291232D01*
X779560Y291291D01*
X779474Y291353D01*
X779391Y291418D01*
X779310Y291486D01*
X779231Y291556D01*
X779155Y291630D01*
X779081Y291706D01*
X779011Y291785D01*
X778943Y291866D01*
X778878Y291949D01*
X778816Y292035D01*
X778757Y292123D01*
X778702Y292213D01*
X778649Y292305D01*
X778600Y292399D01*
X778555Y292494D01*
X778513Y292591D01*
X778474Y292690D01*
X778439Y292789D01*
X778407Y292890D01*
X778379Y292992D01*
X778355Y293095D01*
X778334Y293199D01*
X778317Y293303D01*
X778304Y293408D01*
X778295Y293514D01*
X778289Y293619D01*
X778287Y293725D01*
X778287Y299652D01*
X778289Y299758D01*
X778295Y299863D01*
X778304Y299969D01*
X778317Y300074D01*
X778334Y300178D01*
X778355Y300282D01*
X778379Y300385D01*
X778407Y300487D01*
X778439Y300588D01*
X778474Y300687D01*
X778513Y300786D01*
X778555Y300883D01*
X778600Y300978D01*
X778649Y301072D01*
X778702Y301164D01*
X778757Y301254D01*
X778816Y301342D01*
X778878Y301428D01*
X778943Y301511D01*
X779011Y301592D01*
X779081Y301671D01*
X779155Y301747D01*
X779231Y301821D01*
X779310Y301891D01*
X779391Y301959D01*
X779474Y302024D01*
X779560Y302086D01*
X779648Y302145D01*
X779738Y302200D01*
X779830Y302253D01*
X779924Y302302D01*
X780019Y302347D01*
X780116Y302389D01*
X780215Y302428D01*
X780314Y302463D01*
X780415Y302495D01*
X780517Y302523D01*
X780620Y302547D01*
X780724Y302568D01*
X780828Y302585D01*
X780933Y302598D01*
X781039Y302607D01*
X781144Y302613D01*
X781250Y302615D01*
X786189Y302615D01*
X796394Y290762D02*
X801333Y290762D01*
X796394Y290762D02*
X796288Y290764D01*
X796183Y290770D01*
X796077Y290779D01*
X795972Y290792D01*
X795868Y290809D01*
X795764Y290830D01*
X795661Y290854D01*
X795559Y290882D01*
X795458Y290914D01*
X795359Y290949D01*
X795260Y290988D01*
X795163Y291030D01*
X795068Y291075D01*
X794974Y291124D01*
X794882Y291177D01*
X794792Y291232D01*
X794704Y291291D01*
X794618Y291353D01*
X794535Y291418D01*
X794454Y291486D01*
X794375Y291556D01*
X794299Y291630D01*
X794225Y291706D01*
X794155Y291785D01*
X794087Y291866D01*
X794022Y291949D01*
X793960Y292035D01*
X793901Y292123D01*
X793846Y292213D01*
X793793Y292305D01*
X793744Y292399D01*
X793699Y292494D01*
X793657Y292591D01*
X793618Y292690D01*
X793583Y292789D01*
X793551Y292890D01*
X793523Y292992D01*
X793499Y293095D01*
X793478Y293199D01*
X793461Y293303D01*
X793448Y293408D01*
X793439Y293514D01*
X793433Y293619D01*
X793431Y293725D01*
X793431Y298664D01*
X793433Y298788D01*
X793439Y298912D01*
X793449Y299036D01*
X793462Y299159D01*
X793480Y299282D01*
X793501Y299404D01*
X793526Y299526D01*
X793555Y299647D01*
X793588Y299766D01*
X793624Y299885D01*
X793665Y300002D01*
X793708Y300118D01*
X793756Y300233D01*
X793807Y300346D01*
X793862Y300458D01*
X793920Y300567D01*
X793981Y300675D01*
X794046Y300781D01*
X794114Y300885D01*
X794186Y300986D01*
X794260Y301086D01*
X794338Y301182D01*
X794418Y301277D01*
X794502Y301369D01*
X794588Y301458D01*
X794677Y301544D01*
X794769Y301628D01*
X794864Y301708D01*
X794960Y301786D01*
X795060Y301860D01*
X795161Y301932D01*
X795265Y302000D01*
X795371Y302065D01*
X795479Y302126D01*
X795588Y302184D01*
X795700Y302239D01*
X795813Y302290D01*
X795928Y302338D01*
X796044Y302381D01*
X796161Y302422D01*
X796280Y302458D01*
X796399Y302491D01*
X796520Y302520D01*
X796642Y302545D01*
X796764Y302566D01*
X796887Y302584D01*
X797010Y302597D01*
X797134Y302607D01*
X797258Y302613D01*
X797382Y302615D01*
X797506Y302613D01*
X797630Y302607D01*
X797754Y302597D01*
X797877Y302584D01*
X798000Y302566D01*
X798122Y302545D01*
X798244Y302520D01*
X798365Y302491D01*
X798484Y302458D01*
X798603Y302422D01*
X798720Y302381D01*
X798836Y302338D01*
X798951Y302290D01*
X799064Y302239D01*
X799176Y302184D01*
X799285Y302126D01*
X799393Y302065D01*
X799499Y302000D01*
X799603Y301932D01*
X799704Y301860D01*
X799804Y301786D01*
X799900Y301708D01*
X799995Y301628D01*
X800087Y301544D01*
X800176Y301458D01*
X800262Y301369D01*
X800346Y301277D01*
X800426Y301182D01*
X800504Y301086D01*
X800578Y300986D01*
X800650Y300885D01*
X800718Y300781D01*
X800783Y300675D01*
X800844Y300567D01*
X800902Y300458D01*
X800957Y300346D01*
X801008Y300233D01*
X801056Y300118D01*
X801099Y300002D01*
X801140Y299885D01*
X801176Y299766D01*
X801209Y299647D01*
X801238Y299526D01*
X801263Y299404D01*
X801284Y299282D01*
X801302Y299159D01*
X801315Y299036D01*
X801325Y298912D01*
X801331Y298788D01*
X801333Y298664D01*
X801333Y296689D01*
X793431Y296689D01*
X807447Y290762D02*
X808435Y290762D01*
X807447Y290762D02*
X807447Y291750D01*
X808435Y291750D01*
X808435Y290762D01*
X806953Y286811D01*
X824220Y290762D02*
X824220Y302615D01*
X830147Y302615D01*
X830147Y300640D01*
X838270Y290762D02*
X843209Y290762D01*
X838270Y290762D02*
X838164Y290764D01*
X838059Y290770D01*
X837953Y290779D01*
X837848Y290792D01*
X837744Y290809D01*
X837640Y290830D01*
X837537Y290854D01*
X837435Y290882D01*
X837334Y290914D01*
X837235Y290949D01*
X837136Y290988D01*
X837039Y291030D01*
X836944Y291075D01*
X836850Y291124D01*
X836758Y291177D01*
X836668Y291232D01*
X836580Y291291D01*
X836494Y291353D01*
X836411Y291418D01*
X836330Y291486D01*
X836251Y291556D01*
X836175Y291630D01*
X836101Y291706D01*
X836031Y291785D01*
X835963Y291866D01*
X835898Y291949D01*
X835836Y292035D01*
X835777Y292123D01*
X835722Y292213D01*
X835669Y292305D01*
X835620Y292399D01*
X835575Y292494D01*
X835533Y292591D01*
X835494Y292690D01*
X835459Y292789D01*
X835427Y292890D01*
X835399Y292992D01*
X835375Y293095D01*
X835354Y293199D01*
X835337Y293303D01*
X835324Y293408D01*
X835315Y293514D01*
X835309Y293619D01*
X835307Y293725D01*
X835307Y298664D01*
X835309Y298788D01*
X835315Y298912D01*
X835325Y299036D01*
X835338Y299159D01*
X835356Y299282D01*
X835377Y299404D01*
X835402Y299526D01*
X835431Y299647D01*
X835464Y299766D01*
X835500Y299885D01*
X835541Y300002D01*
X835584Y300118D01*
X835632Y300233D01*
X835683Y300346D01*
X835738Y300458D01*
X835796Y300567D01*
X835857Y300675D01*
X835922Y300781D01*
X835990Y300885D01*
X836062Y300986D01*
X836136Y301086D01*
X836214Y301182D01*
X836294Y301277D01*
X836378Y301369D01*
X836464Y301458D01*
X836553Y301544D01*
X836645Y301628D01*
X836740Y301708D01*
X836836Y301786D01*
X836936Y301860D01*
X837037Y301932D01*
X837141Y302000D01*
X837247Y302065D01*
X837355Y302126D01*
X837464Y302184D01*
X837576Y302239D01*
X837689Y302290D01*
X837804Y302338D01*
X837920Y302381D01*
X838037Y302422D01*
X838156Y302458D01*
X838275Y302491D01*
X838396Y302520D01*
X838518Y302545D01*
X838640Y302566D01*
X838763Y302584D01*
X838886Y302597D01*
X839010Y302607D01*
X839134Y302613D01*
X839258Y302615D01*
X839382Y302613D01*
X839506Y302607D01*
X839630Y302597D01*
X839753Y302584D01*
X839876Y302566D01*
X839998Y302545D01*
X840120Y302520D01*
X840241Y302491D01*
X840360Y302458D01*
X840479Y302422D01*
X840596Y302381D01*
X840712Y302338D01*
X840827Y302290D01*
X840940Y302239D01*
X841052Y302184D01*
X841161Y302126D01*
X841269Y302065D01*
X841375Y302000D01*
X841479Y301932D01*
X841580Y301860D01*
X841680Y301786D01*
X841776Y301708D01*
X841871Y301628D01*
X841963Y301544D01*
X842052Y301458D01*
X842138Y301369D01*
X842222Y301277D01*
X842302Y301182D01*
X842380Y301086D01*
X842454Y300986D01*
X842526Y300885D01*
X842594Y300781D01*
X842659Y300675D01*
X842720Y300567D01*
X842778Y300458D01*
X842833Y300346D01*
X842884Y300233D01*
X842932Y300118D01*
X842975Y300002D01*
X843016Y299885D01*
X843052Y299766D01*
X843085Y299647D01*
X843114Y299526D01*
X843139Y299404D01*
X843160Y299282D01*
X843178Y299159D01*
X843191Y299036D01*
X843201Y298912D01*
X843207Y298788D01*
X843209Y298664D01*
X843209Y296689D01*
X835307Y296689D01*
X849266Y302615D02*
X853217Y290762D01*
X857168Y302615D01*
X863353Y304591D02*
X868292Y308542D01*
X868292Y290762D01*
X863353Y290762D02*
X873231Y290762D01*
X879474Y290762D02*
X880462Y290762D01*
X879474Y290762D02*
X879474Y291750D01*
X880462Y291750D01*
X880462Y290762D01*
X878980Y286811D01*
X899689Y298664D02*
X905615Y298664D01*
X899689Y298664D02*
X899565Y298666D01*
X899441Y298672D01*
X899317Y298682D01*
X899194Y298695D01*
X899071Y298713D01*
X898949Y298734D01*
X898827Y298759D01*
X898706Y298788D01*
X898587Y298821D01*
X898468Y298857D01*
X898351Y298898D01*
X898235Y298941D01*
X898120Y298989D01*
X898007Y299040D01*
X897895Y299095D01*
X897786Y299153D01*
X897678Y299214D01*
X897572Y299279D01*
X897468Y299347D01*
X897367Y299419D01*
X897267Y299493D01*
X897171Y299571D01*
X897076Y299651D01*
X896984Y299735D01*
X896895Y299821D01*
X896809Y299910D01*
X896725Y300002D01*
X896645Y300097D01*
X896567Y300193D01*
X896493Y300293D01*
X896421Y300394D01*
X896353Y300498D01*
X896288Y300604D01*
X896227Y300712D01*
X896169Y300821D01*
X896114Y300933D01*
X896063Y301046D01*
X896015Y301161D01*
X895972Y301277D01*
X895931Y301394D01*
X895895Y301513D01*
X895862Y301632D01*
X895833Y301753D01*
X895808Y301875D01*
X895787Y301997D01*
X895769Y302120D01*
X895756Y302243D01*
X895746Y302367D01*
X895740Y302491D01*
X895738Y302615D01*
X895738Y303603D01*
X895737Y303603D02*
X895739Y303743D01*
X895745Y303882D01*
X895755Y304022D01*
X895769Y304161D01*
X895786Y304300D01*
X895808Y304438D01*
X895834Y304575D01*
X895863Y304712D01*
X895896Y304848D01*
X895933Y304982D01*
X895974Y305116D01*
X896019Y305248D01*
X896068Y305380D01*
X896120Y305509D01*
X896175Y305637D01*
X896235Y305764D01*
X896298Y305889D01*
X896364Y306012D01*
X896434Y306133D01*
X896507Y306252D01*
X896584Y306369D01*
X896664Y306483D01*
X896747Y306596D01*
X896833Y306706D01*
X896923Y306813D01*
X897015Y306918D01*
X897110Y307020D01*
X897208Y307120D01*
X897309Y307217D01*
X897413Y307311D01*
X897519Y307401D01*
X897628Y307489D01*
X897739Y307574D01*
X897853Y307655D01*
X897968Y307734D01*
X898086Y307809D01*
X898207Y307880D01*
X898329Y307948D01*
X898452Y308013D01*
X898578Y308074D01*
X898706Y308132D01*
X898834Y308186D01*
X898965Y308236D01*
X899097Y308283D01*
X899230Y308326D01*
X899364Y308365D01*
X899499Y308400D01*
X899635Y308431D01*
X899773Y308459D01*
X899910Y308482D01*
X900049Y308502D01*
X900188Y308518D01*
X900327Y308530D01*
X900466Y308538D01*
X900606Y308542D01*
X900746Y308542D01*
X900886Y308538D01*
X901025Y308530D01*
X901164Y308518D01*
X901303Y308502D01*
X901442Y308482D01*
X901579Y308459D01*
X901717Y308431D01*
X901853Y308400D01*
X901988Y308365D01*
X902122Y308326D01*
X902255Y308283D01*
X902387Y308236D01*
X902518Y308186D01*
X902646Y308132D01*
X902774Y308074D01*
X902900Y308013D01*
X903023Y307948D01*
X903146Y307880D01*
X903266Y307809D01*
X903384Y307734D01*
X903499Y307655D01*
X903613Y307574D01*
X903724Y307489D01*
X903833Y307401D01*
X903939Y307311D01*
X904043Y307217D01*
X904144Y307120D01*
X904242Y307020D01*
X904337Y306918D01*
X904429Y306813D01*
X904519Y306706D01*
X904605Y306596D01*
X904688Y306483D01*
X904768Y306369D01*
X904845Y306252D01*
X904918Y306133D01*
X904988Y306012D01*
X905054Y305889D01*
X905117Y305764D01*
X905177Y305637D01*
X905232Y305509D01*
X905284Y305380D01*
X905333Y305248D01*
X905378Y305116D01*
X905419Y304982D01*
X905456Y304848D01*
X905489Y304712D01*
X905518Y304575D01*
X905544Y304438D01*
X905566Y304300D01*
X905583Y304161D01*
X905597Y304022D01*
X905607Y303882D01*
X905613Y303743D01*
X905615Y303603D01*
X905615Y298664D01*
X905613Y298470D01*
X905605Y298276D01*
X905594Y298083D01*
X905577Y297889D01*
X905556Y297697D01*
X905529Y297505D01*
X905499Y297313D01*
X905463Y297122D01*
X905423Y296933D01*
X905378Y296744D01*
X905329Y296556D01*
X905275Y296370D01*
X905216Y296185D01*
X905153Y296002D01*
X905086Y295820D01*
X905013Y295640D01*
X904937Y295462D01*
X904856Y295285D01*
X904771Y295111D01*
X904682Y294939D01*
X904588Y294769D01*
X904491Y294602D01*
X904389Y294436D01*
X904283Y294274D01*
X904174Y294114D01*
X904060Y293957D01*
X903943Y293802D01*
X903821Y293651D01*
X903696Y293503D01*
X903568Y293357D01*
X903436Y293215D01*
X903301Y293076D01*
X903162Y292941D01*
X903020Y292809D01*
X902874Y292681D01*
X902726Y292556D01*
X902575Y292434D01*
X902420Y292317D01*
X902263Y292203D01*
X902103Y292094D01*
X901941Y291988D01*
X901775Y291886D01*
X901608Y291789D01*
X901438Y291695D01*
X901266Y291606D01*
X901092Y291521D01*
X900915Y291440D01*
X900737Y291364D01*
X900557Y291291D01*
X900375Y291224D01*
X900192Y291161D01*
X900007Y291102D01*
X899821Y291048D01*
X899633Y290999D01*
X899444Y290954D01*
X899255Y290914D01*
X899064Y290878D01*
X898872Y290848D01*
X898680Y290821D01*
X898488Y290800D01*
X898294Y290783D01*
X898101Y290772D01*
X897907Y290764D01*
X897713Y290762D01*
X912617Y297676D02*
X924470Y297676D01*
X936905Y308542D02*
X937037Y308540D01*
X937168Y308534D01*
X937300Y308524D01*
X937431Y308511D01*
X937561Y308493D01*
X937691Y308472D01*
X937821Y308447D01*
X937949Y308418D01*
X938077Y308385D01*
X938203Y308348D01*
X938329Y308308D01*
X938453Y308264D01*
X938576Y308216D01*
X938697Y308165D01*
X938817Y308110D01*
X938935Y308052D01*
X939051Y307990D01*
X939165Y307924D01*
X939278Y307856D01*
X939388Y307784D01*
X939496Y307709D01*
X939602Y307630D01*
X939706Y307549D01*
X939807Y307464D01*
X939905Y307377D01*
X940001Y307286D01*
X940094Y307193D01*
X940185Y307097D01*
X940272Y306999D01*
X940357Y306898D01*
X940438Y306794D01*
X940517Y306688D01*
X940592Y306580D01*
X940664Y306470D01*
X940732Y306357D01*
X940798Y306243D01*
X940860Y306127D01*
X940918Y306009D01*
X940973Y305889D01*
X941024Y305768D01*
X941072Y305645D01*
X941116Y305521D01*
X941156Y305395D01*
X941193Y305269D01*
X941226Y305141D01*
X941255Y305013D01*
X941280Y304883D01*
X941301Y304753D01*
X941319Y304623D01*
X941332Y304492D01*
X941342Y304360D01*
X941348Y304229D01*
X941350Y304097D01*
X936905Y308542D02*
X936755Y308540D01*
X936606Y308534D01*
X936457Y308524D01*
X936308Y308511D01*
X936159Y308493D01*
X936011Y308472D01*
X935863Y308446D01*
X935717Y308417D01*
X935571Y308384D01*
X935426Y308347D01*
X935282Y308306D01*
X935139Y308262D01*
X934997Y308214D01*
X934857Y308162D01*
X934718Y308107D01*
X934580Y308048D01*
X934445Y307985D01*
X934310Y307919D01*
X934178Y307849D01*
X934048Y307776D01*
X933919Y307699D01*
X933792Y307619D01*
X933668Y307536D01*
X933546Y307450D01*
X933426Y307360D01*
X933309Y307267D01*
X933194Y307172D01*
X933081Y307073D01*
X932971Y306971D01*
X932864Y306867D01*
X932760Y306760D01*
X932658Y306650D01*
X932560Y306537D01*
X932464Y306422D01*
X932372Y306304D01*
X932282Y306184D01*
X932196Y306062D01*
X932113Y305938D01*
X932033Y305811D01*
X931957Y305683D01*
X931884Y305552D01*
X931814Y305419D01*
X931748Y305285D01*
X931686Y305149D01*
X931627Y305012D01*
X931571Y304873D01*
X931520Y304732D01*
X931472Y304591D01*
X939867Y300640D02*
X939963Y300733D01*
X940055Y300829D01*
X940145Y300928D01*
X940232Y301029D01*
X940317Y301132D01*
X940398Y301237D01*
X940476Y301345D01*
X940551Y301455D01*
X940624Y301567D01*
X940693Y301681D01*
X940759Y301797D01*
X940821Y301915D01*
X940880Y302034D01*
X940936Y302155D01*
X940989Y302278D01*
X941038Y302402D01*
X941083Y302527D01*
X941126Y302654D01*
X941164Y302781D01*
X941199Y302910D01*
X941230Y303039D01*
X941258Y303170D01*
X941282Y303301D01*
X941303Y303433D01*
X941319Y303565D01*
X941332Y303698D01*
X941342Y303831D01*
X941347Y303964D01*
X941349Y304097D01*
X939868Y300640D02*
X931472Y290762D01*
X941350Y290762D01*
X948222Y299652D02*
X948226Y300002D01*
X948239Y300351D01*
X948260Y300700D01*
X948289Y301049D01*
X948326Y301397D01*
X948372Y301744D01*
X948426Y302089D01*
X948488Y302433D01*
X948559Y302776D01*
X948638Y303117D01*
X948724Y303456D01*
X948819Y303792D01*
X948922Y304127D01*
X949033Y304458D01*
X949151Y304788D01*
X949278Y305114D01*
X949412Y305437D01*
X949554Y305756D01*
X949704Y306073D01*
X949704Y306072D02*
X949744Y306185D01*
X949788Y306295D01*
X949836Y306405D01*
X949887Y306513D01*
X949942Y306618D01*
X950000Y306723D01*
X950062Y306825D01*
X950127Y306925D01*
X950195Y307023D01*
X950266Y307119D01*
X950341Y307212D01*
X950418Y307303D01*
X950498Y307391D01*
X950582Y307476D01*
X950667Y307559D01*
X950756Y307639D01*
X950847Y307716D01*
X950941Y307790D01*
X951037Y307861D01*
X951135Y307929D01*
X951235Y307993D01*
X951338Y308055D01*
X951442Y308112D01*
X951548Y308167D01*
X951656Y308218D01*
X951766Y308265D01*
X951877Y308309D01*
X951989Y308349D01*
X952103Y308385D01*
X952217Y308418D01*
X952333Y308447D01*
X952450Y308472D01*
X952567Y308493D01*
X952685Y308511D01*
X952804Y308524D01*
X952923Y308534D01*
X953042Y308540D01*
X953161Y308542D01*
X953280Y308540D01*
X953399Y308534D01*
X953518Y308524D01*
X953637Y308511D01*
X953755Y308493D01*
X953872Y308472D01*
X953989Y308447D01*
X954105Y308418D01*
X954219Y308385D01*
X954333Y308349D01*
X954445Y308309D01*
X954556Y308265D01*
X954666Y308218D01*
X954774Y308167D01*
X954880Y308112D01*
X954984Y308055D01*
X955087Y307993D01*
X955187Y307929D01*
X955285Y307861D01*
X955381Y307790D01*
X955475Y307716D01*
X955566Y307639D01*
X955655Y307559D01*
X955741Y307476D01*
X955824Y307391D01*
X955904Y307303D01*
X955981Y307212D01*
X956056Y307119D01*
X956127Y307023D01*
X956195Y306925D01*
X956260Y306825D01*
X956322Y306723D01*
X956380Y306618D01*
X956435Y306512D01*
X956486Y306405D01*
X956534Y306295D01*
X956578Y306185D01*
X956618Y306072D01*
X956618Y306073D02*
X956768Y305756D01*
X956910Y305437D01*
X957044Y305114D01*
X957171Y304788D01*
X957289Y304458D01*
X957400Y304127D01*
X957503Y303792D01*
X957598Y303456D01*
X957684Y303117D01*
X957763Y302776D01*
X957834Y302433D01*
X957896Y302089D01*
X957950Y301744D01*
X957996Y301397D01*
X958033Y301049D01*
X958062Y300700D01*
X958083Y300351D01*
X958096Y300002D01*
X958100Y299652D01*
X948222Y299652D02*
X948226Y299302D01*
X948239Y298953D01*
X948260Y298604D01*
X948289Y298255D01*
X948326Y297907D01*
X948372Y297560D01*
X948426Y297215D01*
X948488Y296871D01*
X948559Y296528D01*
X948638Y296187D01*
X948724Y295848D01*
X948819Y295512D01*
X948922Y295177D01*
X949033Y294846D01*
X949151Y294517D01*
X949278Y294190D01*
X949412Y293867D01*
X949554Y293548D01*
X949704Y293232D01*
X949744Y293119D01*
X949788Y293009D01*
X949836Y292899D01*
X949887Y292791D01*
X949942Y292685D01*
X950000Y292581D01*
X950062Y292479D01*
X950127Y292379D01*
X950195Y292281D01*
X950266Y292185D01*
X950341Y292092D01*
X950418Y292001D01*
X950498Y291913D01*
X950582Y291828D01*
X950667Y291745D01*
X950756Y291665D01*
X950847Y291588D01*
X950941Y291514D01*
X951037Y291443D01*
X951135Y291375D01*
X951235Y291311D01*
X951338Y291249D01*
X951442Y291191D01*
X951548Y291137D01*
X951656Y291086D01*
X951766Y291039D01*
X951877Y290995D01*
X951989Y290955D01*
X952103Y290919D01*
X952217Y290886D01*
X952333Y290857D01*
X952450Y290832D01*
X952567Y290811D01*
X952685Y290793D01*
X952804Y290780D01*
X952923Y290770D01*
X953042Y290764D01*
X953161Y290762D01*
X956618Y293232D02*
X956768Y293548D01*
X956910Y293867D01*
X957044Y294190D01*
X957171Y294517D01*
X957289Y294846D01*
X957400Y295177D01*
X957503Y295512D01*
X957598Y295848D01*
X957684Y296187D01*
X957763Y296528D01*
X957834Y296871D01*
X957896Y297215D01*
X957950Y297560D01*
X957996Y297907D01*
X958033Y298255D01*
X958062Y298604D01*
X958083Y298953D01*
X958096Y299302D01*
X958100Y299652D01*
X956618Y293232D02*
X956578Y293119D01*
X956534Y293009D01*
X956486Y292899D01*
X956435Y292792D01*
X956380Y292686D01*
X956322Y292581D01*
X956260Y292479D01*
X956195Y292379D01*
X956127Y292281D01*
X956056Y292185D01*
X955981Y292092D01*
X955904Y292001D01*
X955824Y291913D01*
X955741Y291828D01*
X955655Y291745D01*
X955566Y291665D01*
X955475Y291588D01*
X955381Y291514D01*
X955285Y291443D01*
X955187Y291375D01*
X955087Y291311D01*
X954984Y291249D01*
X954880Y291192D01*
X954774Y291137D01*
X954666Y291086D01*
X954556Y291039D01*
X954445Y290995D01*
X954333Y290955D01*
X954219Y290919D01*
X954105Y290886D01*
X953989Y290857D01*
X953872Y290832D01*
X953755Y290811D01*
X953637Y290793D01*
X953518Y290780D01*
X953399Y290770D01*
X953280Y290764D01*
X953161Y290762D01*
X949210Y294713D02*
X957112Y304591D01*
X964973Y304591D02*
X969912Y308542D01*
X969912Y290762D01*
X974850Y290762D02*
X964973Y290762D01*
X981723Y295701D02*
X981725Y295841D01*
X981731Y295980D01*
X981741Y296120D01*
X981755Y296259D01*
X981772Y296398D01*
X981794Y296536D01*
X981820Y296673D01*
X981849Y296810D01*
X981882Y296946D01*
X981919Y297080D01*
X981960Y297214D01*
X982005Y297346D01*
X982054Y297478D01*
X982106Y297607D01*
X982161Y297735D01*
X982221Y297862D01*
X982284Y297987D01*
X982350Y298110D01*
X982420Y298231D01*
X982493Y298350D01*
X982570Y298467D01*
X982650Y298581D01*
X982733Y298694D01*
X982819Y298804D01*
X982909Y298911D01*
X983001Y299016D01*
X983096Y299118D01*
X983194Y299218D01*
X983295Y299315D01*
X983399Y299409D01*
X983505Y299499D01*
X983614Y299587D01*
X983725Y299672D01*
X983839Y299753D01*
X983954Y299832D01*
X984072Y299907D01*
X984193Y299978D01*
X984315Y300046D01*
X984438Y300111D01*
X984564Y300172D01*
X984692Y300230D01*
X984820Y300284D01*
X984951Y300334D01*
X985083Y300381D01*
X985216Y300424D01*
X985350Y300463D01*
X985485Y300498D01*
X985621Y300529D01*
X985759Y300557D01*
X985896Y300580D01*
X986035Y300600D01*
X986174Y300616D01*
X986313Y300628D01*
X986452Y300636D01*
X986592Y300640D01*
X986732Y300640D01*
X986872Y300636D01*
X987011Y300628D01*
X987150Y300616D01*
X987289Y300600D01*
X987428Y300580D01*
X987565Y300557D01*
X987703Y300529D01*
X987839Y300498D01*
X987974Y300463D01*
X988108Y300424D01*
X988241Y300381D01*
X988373Y300334D01*
X988504Y300284D01*
X988632Y300230D01*
X988760Y300172D01*
X988886Y300111D01*
X989009Y300046D01*
X989132Y299978D01*
X989252Y299907D01*
X989370Y299832D01*
X989485Y299753D01*
X989599Y299672D01*
X989710Y299587D01*
X989819Y299499D01*
X989925Y299409D01*
X990029Y299315D01*
X990130Y299218D01*
X990228Y299118D01*
X990323Y299016D01*
X990415Y298911D01*
X990505Y298804D01*
X990591Y298694D01*
X990674Y298581D01*
X990754Y298467D01*
X990831Y298350D01*
X990904Y298231D01*
X990974Y298110D01*
X991040Y297987D01*
X991103Y297862D01*
X991163Y297735D01*
X991218Y297607D01*
X991270Y297478D01*
X991319Y297346D01*
X991364Y297214D01*
X991405Y297080D01*
X991442Y296946D01*
X991475Y296810D01*
X991504Y296673D01*
X991530Y296536D01*
X991552Y296398D01*
X991569Y296259D01*
X991583Y296120D01*
X991593Y295980D01*
X991599Y295841D01*
X991601Y295701D01*
X991599Y295561D01*
X991593Y295422D01*
X991583Y295282D01*
X991569Y295143D01*
X991552Y295004D01*
X991530Y294866D01*
X991504Y294729D01*
X991475Y294592D01*
X991442Y294456D01*
X991405Y294322D01*
X991364Y294188D01*
X991319Y294056D01*
X991270Y293924D01*
X991218Y293795D01*
X991163Y293667D01*
X991103Y293540D01*
X991040Y293415D01*
X990974Y293292D01*
X990904Y293171D01*
X990831Y293052D01*
X990754Y292935D01*
X990674Y292821D01*
X990591Y292708D01*
X990505Y292598D01*
X990415Y292491D01*
X990323Y292386D01*
X990228Y292284D01*
X990130Y292184D01*
X990029Y292087D01*
X989925Y291993D01*
X989819Y291903D01*
X989710Y291815D01*
X989599Y291730D01*
X989485Y291649D01*
X989370Y291570D01*
X989252Y291495D01*
X989132Y291424D01*
X989009Y291356D01*
X988886Y291291D01*
X988760Y291230D01*
X988632Y291172D01*
X988504Y291118D01*
X988373Y291068D01*
X988241Y291021D01*
X988108Y290978D01*
X987974Y290939D01*
X987839Y290904D01*
X987703Y290873D01*
X987565Y290845D01*
X987428Y290822D01*
X987289Y290802D01*
X987150Y290786D01*
X987011Y290774D01*
X986872Y290766D01*
X986732Y290762D01*
X986592Y290762D01*
X986452Y290766D01*
X986313Y290774D01*
X986174Y290786D01*
X986035Y290802D01*
X985896Y290822D01*
X985759Y290845D01*
X985621Y290873D01*
X985485Y290904D01*
X985350Y290939D01*
X985216Y290978D01*
X985083Y291021D01*
X984951Y291068D01*
X984820Y291118D01*
X984692Y291172D01*
X984564Y291230D01*
X984438Y291291D01*
X984315Y291356D01*
X984193Y291424D01*
X984072Y291495D01*
X983954Y291570D01*
X983839Y291649D01*
X983725Y291730D01*
X983614Y291815D01*
X983505Y291903D01*
X983399Y291993D01*
X983295Y292087D01*
X983194Y292184D01*
X983096Y292284D01*
X983001Y292386D01*
X982909Y292491D01*
X982819Y292598D01*
X982733Y292708D01*
X982650Y292821D01*
X982570Y292935D01*
X982493Y293052D01*
X982420Y293171D01*
X982350Y293292D01*
X982284Y293415D01*
X982221Y293540D01*
X982161Y293667D01*
X982106Y293795D01*
X982054Y293924D01*
X982005Y294056D01*
X981960Y294188D01*
X981919Y294322D01*
X981882Y294456D01*
X981849Y294592D01*
X981820Y294729D01*
X981794Y294866D01*
X981772Y295004D01*
X981755Y295143D01*
X981741Y295282D01*
X981731Y295422D01*
X981725Y295561D01*
X981723Y295701D01*
X982711Y304591D02*
X982713Y304715D01*
X982719Y304839D01*
X982729Y304963D01*
X982742Y305086D01*
X982760Y305209D01*
X982781Y305331D01*
X982806Y305453D01*
X982835Y305574D01*
X982868Y305693D01*
X982904Y305812D01*
X982945Y305929D01*
X982988Y306045D01*
X983036Y306160D01*
X983087Y306273D01*
X983142Y306385D01*
X983200Y306494D01*
X983261Y306602D01*
X983326Y306708D01*
X983394Y306812D01*
X983466Y306913D01*
X983540Y307013D01*
X983618Y307109D01*
X983698Y307204D01*
X983782Y307296D01*
X983868Y307385D01*
X983957Y307471D01*
X984049Y307555D01*
X984144Y307635D01*
X984240Y307713D01*
X984340Y307787D01*
X984441Y307859D01*
X984545Y307927D01*
X984651Y307992D01*
X984759Y308053D01*
X984868Y308111D01*
X984980Y308166D01*
X985093Y308217D01*
X985208Y308265D01*
X985324Y308308D01*
X985441Y308349D01*
X985560Y308385D01*
X985679Y308418D01*
X985800Y308447D01*
X985922Y308472D01*
X986044Y308493D01*
X986167Y308511D01*
X986290Y308524D01*
X986414Y308534D01*
X986538Y308540D01*
X986662Y308542D01*
X986786Y308540D01*
X986910Y308534D01*
X987034Y308524D01*
X987157Y308511D01*
X987280Y308493D01*
X987402Y308472D01*
X987524Y308447D01*
X987645Y308418D01*
X987764Y308385D01*
X987883Y308349D01*
X988000Y308308D01*
X988116Y308265D01*
X988231Y308217D01*
X988344Y308166D01*
X988456Y308111D01*
X988565Y308053D01*
X988673Y307992D01*
X988779Y307927D01*
X988883Y307859D01*
X988984Y307787D01*
X989084Y307713D01*
X989180Y307635D01*
X989275Y307555D01*
X989367Y307471D01*
X989456Y307385D01*
X989542Y307296D01*
X989626Y307204D01*
X989706Y307109D01*
X989784Y307013D01*
X989858Y306913D01*
X989930Y306812D01*
X989998Y306708D01*
X990063Y306602D01*
X990124Y306494D01*
X990182Y306385D01*
X990237Y306273D01*
X990288Y306160D01*
X990336Y306045D01*
X990379Y305929D01*
X990420Y305812D01*
X990456Y305693D01*
X990489Y305574D01*
X990518Y305453D01*
X990543Y305331D01*
X990564Y305209D01*
X990582Y305086D01*
X990595Y304963D01*
X990605Y304839D01*
X990611Y304715D01*
X990613Y304591D01*
X990611Y304467D01*
X990605Y304343D01*
X990595Y304219D01*
X990582Y304096D01*
X990564Y303973D01*
X990543Y303851D01*
X990518Y303729D01*
X990489Y303608D01*
X990456Y303489D01*
X990420Y303370D01*
X990379Y303253D01*
X990336Y303137D01*
X990288Y303022D01*
X990237Y302909D01*
X990182Y302797D01*
X990124Y302688D01*
X990063Y302580D01*
X989998Y302474D01*
X989930Y302370D01*
X989858Y302269D01*
X989784Y302169D01*
X989706Y302073D01*
X989626Y301978D01*
X989542Y301886D01*
X989456Y301797D01*
X989367Y301711D01*
X989275Y301627D01*
X989180Y301547D01*
X989084Y301469D01*
X988984Y301395D01*
X988883Y301323D01*
X988779Y301255D01*
X988673Y301190D01*
X988565Y301129D01*
X988456Y301071D01*
X988344Y301016D01*
X988231Y300965D01*
X988116Y300917D01*
X988000Y300874D01*
X987883Y300833D01*
X987764Y300797D01*
X987645Y300764D01*
X987524Y300735D01*
X987402Y300710D01*
X987280Y300689D01*
X987157Y300671D01*
X987034Y300658D01*
X986910Y300648D01*
X986786Y300642D01*
X986662Y300640D01*
X986538Y300642D01*
X986414Y300648D01*
X986290Y300658D01*
X986167Y300671D01*
X986044Y300689D01*
X985922Y300710D01*
X985800Y300735D01*
X985679Y300764D01*
X985560Y300797D01*
X985441Y300833D01*
X985324Y300874D01*
X985208Y300917D01*
X985093Y300965D01*
X984980Y301016D01*
X984868Y301071D01*
X984759Y301129D01*
X984651Y301190D01*
X984545Y301255D01*
X984441Y301323D01*
X984340Y301395D01*
X984240Y301469D01*
X984144Y301547D01*
X984049Y301627D01*
X983957Y301711D01*
X983868Y301797D01*
X983782Y301886D01*
X983698Y301978D01*
X983618Y302073D01*
X983540Y302169D01*
X983466Y302269D01*
X983394Y302370D01*
X983326Y302474D01*
X983261Y302580D01*
X983200Y302688D01*
X983142Y302797D01*
X983087Y302909D01*
X983036Y303022D01*
X982988Y303137D01*
X982945Y303253D01*
X982904Y303370D01*
X982868Y303489D01*
X982835Y303608D01*
X982806Y303729D01*
X982781Y303851D01*
X982760Y303973D01*
X982742Y304096D01*
X982729Y304219D01*
X982719Y304343D01*
X982713Y304467D01*
X982711Y304591D01*
D11*
X659146Y286536D02*
X652881Y286536D01*
X656014Y283403D02*
X656014Y289668D01*
X668121Y286536D02*
X674386Y286536D01*
D12*
X248400Y921000D03*
X248400Y889000D03*
X296400Y889000D03*
X296400Y921000D03*
X168000Y966000D03*
X168000Y934000D03*
X216000Y934000D03*
X216000Y966000D03*
D13*
X337400Y399390D03*
X337400Y381610D03*
X364900Y400190D03*
X364900Y382410D03*
D14*
X238490Y302600D03*
X220710Y302600D03*
D15*
X303480Y352150D03*
X303480Y339450D03*
X303480Y326750D03*
X303480Y314050D03*
X357720Y314050D03*
X357720Y326750D03*
X357720Y339450D03*
X357720Y352150D03*
D16*
X600200Y309300D03*
D17*
X574800Y309300D03*
X549400Y309300D03*
X524000Y309300D03*
X498600Y309300D03*
X473200Y309300D03*
X447800Y309300D03*
X422400Y309300D03*
D18*
X259700Y347900D03*
X259700Y329900D03*
D19*
X171061Y329300D03*
X236339Y329300D03*
D12*
X91000Y941000D03*
X91000Y909000D03*
X139000Y909000D03*
X139000Y941000D03*
X70200Y876000D03*
X70200Y844000D03*
X118200Y844000D03*
X118200Y876000D03*
X75200Y806000D03*
X75200Y774000D03*
X123200Y774000D03*
X123200Y806000D03*
X110200Y741000D03*
X110200Y709000D03*
X158200Y709000D03*
X158200Y741000D03*
X244800Y709000D03*
X244800Y741000D03*
X196800Y741000D03*
X196800Y709000D03*
X301600Y769000D03*
X301600Y801000D03*
X253600Y801000D03*
X253600Y769000D03*
X409800Y707900D03*
X409800Y739900D03*
X361800Y739900D03*
X361800Y707900D03*
X409800Y775800D03*
X409800Y807800D03*
X361800Y807800D03*
X361800Y775800D03*
X409800Y846500D03*
X409800Y878500D03*
X361800Y878500D03*
X361800Y846500D03*
X409800Y912200D03*
X409800Y944200D03*
X361800Y944200D03*
X361800Y912200D03*
G36*
X446427Y854142D02*
X451045Y841457D01*
X442119Y838208D01*
X437501Y850893D01*
X446427Y854142D01*
G37*
G36*
X476498Y865087D02*
X481116Y852402D01*
X472190Y849153D01*
X467572Y861838D01*
X476498Y865087D01*
G37*
G36*
X460081Y910192D02*
X464699Y897507D01*
X455773Y894258D01*
X451155Y906943D01*
X460081Y910192D01*
G37*
G36*
X430010Y899247D02*
X434628Y886562D01*
X425702Y883313D01*
X421084Y895998D01*
X430010Y899247D01*
G37*
G36*
X474527Y779542D02*
X479145Y766857D01*
X470219Y763608D01*
X465601Y776293D01*
X474527Y779542D01*
G37*
G36*
X504598Y790487D02*
X509216Y777802D01*
X500290Y774553D01*
X495672Y787238D01*
X504598Y790487D01*
G37*
G36*
X488181Y835592D02*
X492799Y822907D01*
X483873Y819658D01*
X479255Y832343D01*
X488181Y835592D01*
G37*
G36*
X458110Y824647D02*
X462728Y811962D01*
X453802Y808713D01*
X449184Y821398D01*
X458110Y824647D01*
G37*
X486800Y745700D03*
X486800Y713700D03*
X534800Y713700D03*
X534800Y745700D03*
G36*
X565672Y811962D02*
X570290Y824647D01*
X579216Y821398D01*
X574598Y808713D01*
X565672Y811962D01*
G37*
G36*
X535601Y822907D02*
X540219Y835592D01*
X549145Y832343D01*
X544527Y819658D01*
X535601Y822907D01*
G37*
G36*
X519184Y777802D02*
X523802Y790487D01*
X532728Y787238D01*
X528110Y774553D01*
X519184Y777802D01*
G37*
G36*
X549255Y766857D02*
X553873Y779542D01*
X562799Y776293D01*
X558181Y763608D01*
X549255Y766857D01*
G37*
G36*
X590672Y886562D02*
X595290Y899247D01*
X604216Y895998D01*
X599598Y883313D01*
X590672Y886562D01*
G37*
G36*
X560601Y897507D02*
X565219Y910192D01*
X574145Y906943D01*
X569527Y894258D01*
X560601Y897507D01*
G37*
G36*
X544184Y852402D02*
X548802Y865087D01*
X557728Y861838D01*
X553110Y849153D01*
X544184Y852402D01*
G37*
G36*
X574255Y841457D02*
X578873Y854142D01*
X587799Y850893D01*
X583181Y838208D01*
X574255Y841457D01*
G37*
X669800Y911600D03*
X669800Y943600D03*
X621800Y943600D03*
X621800Y911600D03*
X621800Y878500D03*
X621800Y846500D03*
X669800Y846500D03*
X669800Y878500D03*
X621800Y807800D03*
X621800Y775800D03*
X669800Y775800D03*
X669800Y807800D03*
X669800Y710100D03*
X669800Y742100D03*
X621800Y742100D03*
X621800Y710100D03*
X808200Y709500D03*
X808200Y741500D03*
X760200Y741500D03*
X760200Y709500D03*
X808200Y779500D03*
X808200Y811500D03*
X760200Y811500D03*
X760200Y779500D03*
X808200Y843000D03*
X808200Y875000D03*
X760200Y875000D03*
X760200Y843000D03*
X808200Y908000D03*
X808200Y940000D03*
X760200Y940000D03*
X760200Y908000D03*
X891400Y900000D03*
X891400Y932000D03*
X843400Y932000D03*
X843400Y900000D03*
X905200Y873500D03*
X905200Y841500D03*
X953200Y841500D03*
X953200Y873500D03*
X905200Y803500D03*
X905200Y771500D03*
X953200Y771500D03*
X953200Y803500D03*
X843400Y748500D03*
X843400Y716500D03*
X891400Y716500D03*
X891400Y748500D03*
X223600Y596000D03*
X223600Y564000D03*
X271600Y564000D03*
X271600Y596000D03*
X149000Y646000D03*
X149000Y614000D03*
X197000Y614000D03*
X197000Y646000D03*
X71000Y621000D03*
X71000Y589000D03*
X119000Y589000D03*
X119000Y621000D03*
X50200Y551000D03*
X50200Y519000D03*
X98200Y519000D03*
X98200Y551000D03*
X51800Y476000D03*
X51800Y444000D03*
X99800Y444000D03*
X99800Y476000D03*
X90200Y406000D03*
X90200Y374000D03*
X138200Y374000D03*
X138200Y406000D03*
X224800Y374000D03*
X224800Y406000D03*
X176800Y406000D03*
X176800Y374000D03*
X276600Y439000D03*
X276600Y471000D03*
X228600Y471000D03*
X228600Y439000D03*
X388200Y430900D03*
X388200Y462900D03*
X340200Y462900D03*
X340200Y430900D03*
X371400Y494700D03*
X371400Y526700D03*
X323400Y526700D03*
X323400Y494700D03*
X388200Y562400D03*
X388200Y594400D03*
X340200Y594400D03*
X340200Y562400D03*
X458200Y614000D03*
X458200Y646000D03*
X410200Y646000D03*
X410200Y614000D03*
X481800Y594400D03*
X481800Y562400D03*
X529800Y562400D03*
X529800Y594400D03*
X498400Y526700D03*
X498400Y494700D03*
X546400Y494700D03*
X546400Y526700D03*
X481800Y462900D03*
X481800Y430900D03*
X529800Y430900D03*
X529800Y462900D03*
X410200Y406000D03*
X410200Y374000D03*
X458200Y374000D03*
X458200Y406000D03*
X638200Y374000D03*
X638200Y406000D03*
X590200Y406000D03*
X590200Y374000D03*
X638200Y454000D03*
X638200Y486000D03*
X590200Y486000D03*
X590200Y454000D03*
X638200Y534000D03*
X638200Y566000D03*
X590200Y566000D03*
X590200Y534000D03*
X638200Y614000D03*
X638200Y646000D03*
X590200Y646000D03*
X590200Y614000D03*
X724800Y599000D03*
X724800Y631000D03*
X676800Y631000D03*
X676800Y599000D03*
X746000Y567300D03*
X746000Y535300D03*
X794000Y535300D03*
X794000Y567300D03*
X746000Y487300D03*
X746000Y455300D03*
X794000Y455300D03*
X794000Y487300D03*
X676800Y426000D03*
X676800Y394000D03*
X724800Y394000D03*
X724800Y426000D03*
X889800Y374000D03*
X889800Y406000D03*
X841800Y406000D03*
X841800Y374000D03*
X891400Y454000D03*
X891400Y486000D03*
X843400Y486000D03*
X843400Y454000D03*
X893000Y534000D03*
X893000Y566000D03*
X845000Y566000D03*
X845000Y534000D03*
X893200Y614000D03*
X893200Y646000D03*
X845200Y646000D03*
X845200Y614000D03*
X969800Y614000D03*
X969800Y646000D03*
X921800Y646000D03*
X921800Y614000D03*
X923600Y526700D03*
X923600Y494700D03*
X971600Y494700D03*
X971600Y526700D03*
X925000Y406000D03*
X925000Y374000D03*
X973000Y374000D03*
X973000Y406000D03*
D17*
X648800Y310500D03*
X674200Y310500D03*
D14*
X266390Y945000D03*
X248610Y945000D03*
X198890Y910000D03*
X181110Y910000D03*
X68890Y900000D03*
X51110Y900000D03*
X101110Y965000D03*
X118890Y965000D03*
D13*
X50000Y808890D03*
X50000Y791110D03*
X85000Y738890D03*
X85000Y721110D03*
X270000Y706110D03*
X270000Y723890D03*
X300000Y743890D03*
X300000Y726110D03*
X432500Y711110D03*
X432500Y728890D03*
X435000Y776110D03*
X435000Y793890D03*
X335000Y861110D03*
X335000Y878890D03*
X335000Y931110D03*
X335000Y948890D03*
D14*
G36*
X493084Y909698D02*
X497080Y898720D01*
X482998Y893594D01*
X479002Y904572D01*
X493084Y909698D01*
G37*
G36*
X487002Y926406D02*
X490998Y915428D01*
X476916Y910302D01*
X472920Y921280D01*
X487002Y926406D01*
G37*
D13*
X457500Y738890D03*
X457500Y721110D03*
D14*
X468890Y685000D03*
X451110Y685000D03*
G36*
X576502Y780428D02*
X580498Y791406D01*
X594580Y786280D01*
X590584Y775302D01*
X576502Y780428D01*
G37*
G36*
X570420Y763720D02*
X574416Y774698D01*
X588498Y769572D01*
X584502Y758594D01*
X570420Y763720D01*
G37*
G36*
X594002Y822928D02*
X597998Y833906D01*
X612080Y828780D01*
X608084Y817802D01*
X594002Y822928D01*
G37*
G36*
X587920Y806220D02*
X591916Y817198D01*
X605998Y812072D01*
X602002Y801094D01*
X587920Y806220D01*
G37*
D13*
X692500Y908890D03*
X692500Y891110D03*
X692500Y861390D03*
X692500Y843610D03*
X692500Y808890D03*
X692500Y791110D03*
X692500Y718610D03*
X692500Y736390D03*
D14*
X808890Y685000D03*
X791110Y685000D03*
D13*
X830000Y783610D03*
X830000Y801390D03*
X832500Y843610D03*
X832500Y861390D03*
X857500Y868890D03*
X857500Y851110D03*
X915000Y918610D03*
X915000Y936390D03*
D14*
X938610Y897500D03*
X956390Y897500D03*
D13*
X875000Y806110D03*
X875000Y823890D03*
D14*
X861110Y772500D03*
X878890Y772500D03*
X236110Y620000D03*
X253890Y620000D03*
X123890Y650000D03*
X106110Y650000D03*
D13*
X42500Y621390D03*
X42500Y603610D03*
D14*
X48890Y575000D03*
X31110Y575000D03*
D13*
X30000Y476390D03*
X30000Y458610D03*
X70000Y403890D03*
X70000Y386110D03*
X247500Y378610D03*
X247500Y396390D03*
X297500Y443610D03*
X297500Y461390D03*
X410000Y438610D03*
X410000Y456390D03*
X395000Y496110D03*
X395000Y513890D03*
X410000Y563610D03*
X410000Y581390D03*
X480000Y628610D03*
X480000Y646390D03*
D14*
X503610Y617500D03*
X521390Y617500D03*
D13*
X477500Y523890D03*
X477500Y506110D03*
X460000Y461390D03*
X460000Y443610D03*
X435000Y438610D03*
X435000Y456390D03*
X567500Y391110D03*
X567500Y408890D03*
X660000Y456110D03*
X660000Y473890D03*
X660000Y541110D03*
X660000Y558890D03*
D14*
X638890Y590000D03*
X621110Y590000D03*
D13*
X747500Y601110D03*
X747500Y618890D03*
X725000Y563890D03*
X725000Y546110D03*
X725000Y493890D03*
X725000Y476110D03*
D14*
X688610Y450000D03*
X706390Y450000D03*
X901110Y350000D03*
X918890Y350000D03*
D13*
X912500Y451110D03*
X912500Y468890D03*
D14*
X893890Y510000D03*
X876110Y510000D03*
X888890Y590000D03*
X871110Y590000D03*
X951110Y585000D03*
X968890Y585000D03*
X931110Y550000D03*
X948890Y550000D03*
X941110Y430000D03*
X958890Y430000D03*
D20*
X430000Y690000D03*
D21*
X266390Y919010D02*
X266390Y945000D01*
X266390Y919010D02*
X296400Y889000D01*
X118890Y929110D02*
X118890Y965000D01*
X118890Y929110D02*
X139000Y909000D01*
X140000Y910000D02*
X181110Y910000D01*
X140000Y910000D02*
X139000Y909000D01*
X139000Y864800D01*
X118200Y844000D01*
X118200Y779000D02*
X123200Y774000D01*
X133760Y799672D02*
X133760Y812328D01*
X118200Y827888D02*
X118200Y844000D01*
X118200Y784112D02*
X118200Y779000D01*
X133760Y812328D02*
X118200Y827888D01*
X133760Y799672D02*
X118200Y784112D01*
X146090Y721110D02*
X85000Y721110D01*
X146090Y721110D02*
X158200Y709000D01*
X168760Y734672D02*
X168760Y747328D01*
X166528Y749560D01*
X158200Y724112D02*
X158200Y709000D01*
X147640Y749560D02*
X123200Y774000D01*
X168760Y734672D02*
X158200Y724112D01*
X166528Y749560D02*
X147640Y749560D01*
X158200Y709000D02*
X164800Y709000D01*
X196800Y741000D01*
X50000Y790167D02*
X50000Y791110D01*
X50000Y790167D02*
X50000Y710000D01*
X270000Y723890D02*
X270000Y784600D01*
X253600Y801000D01*
X272220Y726110D02*
X300000Y726110D01*
X272220Y726110D02*
X270000Y723890D01*
X293272Y809560D02*
X309928Y809560D01*
X345080Y756620D02*
X361800Y739900D01*
X284712Y801000D02*
X253600Y801000D01*
X284712Y801000D02*
X293272Y809560D01*
X309928Y809560D02*
X345080Y774408D01*
X345080Y756620D01*
X345080Y774408D02*
X345080Y791080D01*
X361800Y807800D01*
X335000Y878890D02*
X324890Y889000D01*
X296400Y889000D01*
X351240Y905872D02*
X351240Y918528D01*
X361800Y895312D02*
X361800Y878500D01*
X361800Y929088D02*
X361800Y940000D01*
X361800Y944200D01*
X351240Y905872D02*
X361800Y895312D01*
X351240Y918528D02*
X361800Y929088D01*
X352910Y948890D02*
X335000Y948890D01*
X352910Y948890D02*
X361800Y940000D01*
X457927Y902225D02*
X474056Y918354D01*
X481959Y918354D01*
X486027Y844301D02*
X486027Y827625D01*
X486495Y913819D02*
X494790Y913819D01*
X501200Y907409D01*
X501200Y859474D01*
X500863Y859137D01*
X486027Y844301D01*
X486495Y913819D02*
X481959Y918354D01*
X444071Y785762D02*
X446303Y783530D01*
X443128Y785762D02*
X435000Y793890D01*
X443128Y785762D02*
X444071Y785762D01*
X446303Y754232D02*
X435080Y743009D01*
X435080Y731470D01*
X446303Y754232D02*
X446303Y783530D01*
X435080Y731470D02*
X432500Y728890D01*
X449720Y728890D01*
X457500Y721110D01*
X457500Y691390D01*
X451110Y685000D01*
X435000Y685000D01*
X430000Y690000D01*
X525956Y787695D02*
X486027Y827625D01*
X525956Y787695D02*
X525956Y782520D01*
X548939Y859137D02*
X500863Y859137D01*
X548939Y859137D02*
X550956Y857120D01*
X594880Y916680D02*
X621800Y943600D01*
X565880Y916680D02*
X550956Y901757D01*
X565880Y916680D02*
X594880Y916680D01*
X550956Y901757D02*
X550956Y857120D01*
X613472Y855060D02*
X630128Y855060D01*
X613472Y855060D02*
X611240Y852828D01*
X611240Y840172D01*
X601495Y813681D02*
X596959Y809146D01*
X601495Y813681D02*
X609790Y813681D01*
X619613Y831799D02*
X611240Y840172D01*
X638688Y846500D02*
X669800Y846500D01*
X638688Y846500D02*
X630128Y855060D01*
X619613Y831799D02*
X619613Y823504D01*
X609790Y813681D01*
X600000Y809146D02*
X596959Y809146D01*
X579459Y758359D02*
X534800Y713700D01*
X579459Y758359D02*
X579459Y766646D01*
X604006Y742100D01*
X621800Y742100D01*
X583995Y771181D02*
X579459Y766646D01*
X583995Y771181D02*
X592290Y771181D01*
X600000Y778891D01*
X600000Y809146D01*
X669800Y775800D02*
X685110Y791110D01*
X692500Y791110D01*
X701571Y799238D02*
X703803Y801470D01*
X692500Y832071D02*
X692500Y842667D01*
X692500Y843610D01*
X700628Y799238D02*
X692500Y791110D01*
X700628Y799238D02*
X701571Y799238D01*
X703803Y801470D02*
X703803Y820768D01*
X692500Y832071D01*
X669800Y775800D02*
X692500Y753100D01*
X692500Y736390D01*
X755090Y736390D01*
X760200Y741500D01*
X621800Y742100D02*
X621800Y732396D01*
X611240Y721836D02*
X611240Y703772D01*
X611240Y721836D02*
X621800Y732396D01*
X611240Y703772D02*
X630012Y685000D01*
X791110Y685000D01*
X749640Y773172D02*
X749640Y785828D01*
X760200Y762612D02*
X760200Y741500D01*
X760200Y796388D02*
X760200Y811500D01*
X749640Y773172D02*
X760200Y762612D01*
X749640Y785828D02*
X760200Y796388D01*
X760200Y811500D02*
X791312Y811500D01*
X749640Y836672D02*
X749640Y849328D01*
X760200Y826112D02*
X760200Y811500D01*
X760200Y859888D02*
X760200Y875000D01*
X749640Y836672D02*
X760200Y826112D01*
X749640Y849328D02*
X760200Y859888D01*
X749640Y901672D02*
X749640Y914328D01*
X760200Y891112D02*
X760200Y875000D01*
X760200Y924888D02*
X760200Y940000D01*
X749640Y901672D02*
X760200Y891112D01*
X749640Y914328D02*
X760200Y924888D01*
X760200Y940000D02*
X791312Y940000D01*
X799872Y948560D01*
X826840Y948560D01*
X843400Y932000D01*
X912000Y932000D02*
X916390Y936390D01*
X901832Y945640D02*
X880968Y945640D01*
X901832Y945640D02*
X907040Y940432D01*
X867328Y932000D02*
X843400Y932000D01*
X907040Y936960D02*
X907040Y940432D01*
X907040Y936960D02*
X912000Y932000D01*
X880968Y945640D02*
X867328Y932000D01*
X915000Y936390D02*
X916390Y936390D01*
X953890Y897500D02*
X956390Y897500D01*
X923128Y928262D02*
X915000Y936390D01*
X948262Y906571D02*
X948262Y903128D01*
X953890Y897500D01*
X926571Y928262D02*
X923128Y928262D01*
X926571Y928262D02*
X948262Y906571D01*
X963272Y897500D02*
X973840Y886932D01*
X973840Y854640D01*
X960700Y841500D01*
X953200Y771500D02*
X898200Y716500D01*
X891400Y716500D01*
X878890Y729010D01*
X878890Y772500D01*
X875000Y823890D02*
X857500Y841390D01*
X857500Y851110D01*
X891400Y716500D02*
X900000Y707900D01*
X900000Y667800D02*
X921800Y646000D01*
X900000Y670000D02*
X900000Y707900D01*
X900000Y670000D02*
X900000Y667800D01*
X900000Y670000D02*
X869200Y670000D01*
X845200Y646000D01*
X968890Y598910D02*
X968890Y585000D01*
X980360Y620328D02*
X978128Y622560D01*
X980360Y620328D02*
X980360Y607672D01*
X978128Y605440D01*
X945240Y622560D02*
X921800Y646000D01*
X975420Y605440D02*
X978128Y605440D01*
X975420Y605440D02*
X968890Y598910D01*
X978128Y622560D02*
X945240Y622560D01*
X968890Y585000D02*
X968890Y570000D01*
X948890Y550000D01*
X948890Y517410D01*
X971600Y494700D01*
X971600Y375400D02*
X973000Y374000D01*
X976600Y458884D02*
X976600Y489700D01*
X971600Y380212D02*
X971600Y375400D01*
X971600Y380212D02*
X986060Y394672D01*
X986060Y449424D02*
X976600Y458884D01*
X986060Y449424D02*
X986060Y394672D01*
X973000Y379112D02*
X973000Y374000D01*
X973000Y379112D02*
X959940Y392172D01*
X959940Y428950D02*
X958890Y430000D01*
X959940Y428950D02*
X959940Y392172D01*
X973000Y374000D02*
X949000Y350000D01*
X918890Y350000D01*
X923803Y443690D02*
X923803Y458530D01*
X921571Y460762D01*
X918890Y360722D02*
X918890Y350000D01*
X920628Y460762D02*
X921571Y460762D01*
X911940Y367672D02*
X918890Y360722D01*
X911940Y367672D02*
X911940Y431827D01*
X923803Y443690D01*
X920628Y460762D02*
X912500Y468890D01*
X841800Y406000D02*
X794000Y453800D01*
X794000Y455300D01*
X824700Y486000D01*
X843400Y486000D01*
X829440Y537828D02*
X836672Y545060D01*
X858328Y545060D01*
X863060Y540328D01*
X842110Y505593D02*
X842110Y487290D01*
X863060Y523050D02*
X863060Y540328D01*
X863060Y523050D02*
X876110Y510000D01*
X842110Y505593D02*
X829440Y518263D01*
X829440Y537828D01*
X845000Y565000D02*
X845000Y566000D01*
X845000Y558388D02*
X858328Y545060D01*
X820300Y540300D02*
X799000Y540300D01*
X820300Y540300D02*
X845000Y565000D01*
X871110Y590000D02*
X871110Y620090D01*
X845200Y646000D01*
X840200Y590003D02*
X840200Y570800D01*
X837700Y630888D02*
X837700Y638500D01*
X837700Y630888D02*
X829640Y622828D01*
X829640Y600563D01*
X840200Y590003D01*
X845200Y646000D02*
X691800Y646000D01*
X676800Y631000D01*
X707912Y631000D01*
X716472Y622440D01*
X743950Y622440D02*
X747500Y618890D01*
X743950Y622440D02*
X716472Y622440D01*
X725000Y546110D02*
X783190Y546110D01*
X794000Y535300D01*
X621312Y646000D02*
X590200Y646000D01*
X621312Y646000D02*
X629872Y654560D01*
X653240Y654560D01*
X676800Y631000D01*
X621110Y615090D02*
X590200Y646000D01*
X621110Y615090D02*
X621110Y590000D01*
X579640Y607672D02*
X579640Y620328D01*
X590200Y630888D02*
X590200Y646000D01*
X590200Y597112D02*
X590200Y566000D01*
X579640Y620328D02*
X590200Y630888D01*
X579640Y607672D02*
X590200Y597112D01*
X646528Y557440D02*
X647978Y558890D01*
X660000Y558890D01*
X598760Y557440D02*
X590200Y566000D01*
X598760Y557440D02*
X646528Y557440D01*
X579640Y540328D02*
X579640Y527672D01*
X590200Y550888D02*
X590200Y566000D01*
X590200Y517112D02*
X590200Y486000D01*
X579640Y540328D02*
X590200Y550888D01*
X579640Y527672D02*
X590200Y517112D01*
X649404Y473890D02*
X660000Y473890D01*
X649404Y473890D02*
X648214Y475080D01*
X601120Y475080D02*
X590200Y486000D01*
X601120Y475080D02*
X648214Y475080D01*
X706390Y457500D02*
X706390Y450000D01*
X706390Y457500D02*
X725000Y476110D01*
X706390Y450000D02*
X706390Y412410D01*
X724800Y394000D01*
X784600Y453800D01*
X794000Y453800D01*
X613640Y382560D02*
X590200Y406000D01*
X613640Y382560D02*
X646528Y382560D01*
X674200Y354888D01*
X674200Y310500D01*
X567500Y408890D02*
X545490Y430900D01*
X530000Y430900D01*
X529800Y430900D01*
X464150Y439460D02*
X460000Y443610D01*
X498688Y430900D02*
X529800Y430900D01*
X490128Y439460D02*
X464150Y439460D01*
X490128Y439460D02*
X498688Y430900D01*
X529800Y430900D02*
X546400Y447500D01*
X546400Y490000D01*
X546400Y494700D01*
X586200Y490000D02*
X590200Y486000D01*
X586200Y490000D02*
X546400Y490000D01*
X546400Y494700D02*
X546400Y509812D01*
X556960Y520372D01*
X556960Y535240D01*
X529800Y562400D01*
X519240Y588072D02*
X519240Y600728D01*
X529800Y577512D02*
X529800Y562400D01*
X529800Y577512D02*
X519240Y588072D01*
X519240Y600728D02*
X521390Y602878D01*
X521390Y617500D01*
X513262Y625628D01*
X513262Y626571D01*
X493443Y646390D01*
X480000Y646390D01*
X410590Y646390D02*
X410200Y646000D01*
X449872Y637440D02*
X466528Y637440D01*
X475478Y646390D02*
X480000Y646390D01*
X440922Y646390D02*
X410590Y646390D01*
X466528Y637440D02*
X475478Y646390D01*
X449872Y637440D02*
X440922Y646390D01*
X410200Y646000D02*
X410200Y630888D01*
X420760Y620328D01*
X420760Y592150D01*
X410000Y581390D01*
X358600Y594400D02*
X410200Y646000D01*
X358600Y594400D02*
X340200Y594400D01*
X253890Y581710D02*
X253890Y620000D01*
X253890Y581710D02*
X271600Y564000D01*
X308900Y526700D02*
X323400Y526700D01*
X308900Y526700D02*
X271600Y564000D01*
X231928Y555440D02*
X215272Y555440D01*
X207960Y603040D02*
X197000Y614000D01*
X207960Y562752D02*
X215272Y555440D01*
X207960Y562752D02*
X207960Y603040D01*
X240488Y564000D02*
X231928Y555440D01*
X240488Y564000D02*
X271600Y564000D01*
X33429Y611738D02*
X31197Y613970D01*
X31197Y628810D01*
X34372Y611738D02*
X42500Y603610D01*
X34372Y611738D02*
X33429Y611738D01*
X31197Y628810D02*
X52387Y650000D01*
X106110Y650000D01*
X42500Y603610D02*
X31110Y592220D01*
X31110Y575000D01*
X119000Y589000D02*
X135440Y605440D01*
X165888Y614000D02*
X197000Y614000D01*
X157328Y605440D02*
X135440Y605440D01*
X157328Y605440D02*
X165888Y614000D01*
X119000Y589000D02*
X119000Y539800D01*
X98200Y519000D01*
X99800Y444000D02*
X103280Y440520D01*
X155088Y406000D02*
X176800Y406000D01*
X120568Y440520D02*
X103280Y440520D01*
X120568Y440520D02*
X155088Y406000D01*
X176800Y406000D02*
X214240Y406000D01*
X214240Y395080D01*
X176800Y406000D02*
X228600Y457800D01*
X228600Y471000D01*
X238210Y461390D01*
X297500Y461390D01*
X312840Y488372D02*
X312840Y501028D01*
X312840Y488372D02*
X315072Y486140D01*
X323400Y511588D02*
X323400Y526700D01*
X316960Y486140D02*
X315072Y486140D01*
X312840Y501028D02*
X323400Y511588D01*
X316960Y486140D02*
X340200Y462900D01*
X336210Y513890D02*
X395000Y513890D01*
X336210Y513890D02*
X323400Y526700D01*
X492360Y469228D02*
X492360Y456572D01*
X468128Y451738D02*
X460000Y443610D01*
X477500Y484088D02*
X477500Y506110D01*
X477500Y484088D02*
X492360Y469228D01*
X492360Y456572D02*
X487526Y451738D01*
X468128Y451738D01*
X667479Y310500D02*
X674200Y310500D01*
X667479Y310500D02*
X615209Y362770D01*
X469430Y362770D02*
X458200Y374000D01*
X469430Y362770D02*
X615209Y362770D01*
X364900Y400190D02*
X364100Y399390D01*
X337400Y399390D01*
X398760Y467630D02*
X410000Y456390D01*
X398760Y467630D02*
X398760Y469228D01*
X363072Y486140D02*
X360840Y488372D01*
X360840Y501028D01*
X386872Y505762D02*
X395000Y513890D01*
X381848Y486140D02*
X398760Y469228D01*
X381848Y486140D02*
X363072Y486140D01*
X360840Y501028D02*
X365574Y505762D01*
X386872Y505762D01*
X703803Y853970D02*
X703803Y868810D01*
X703803Y853970D02*
X692500Y842667D01*
X692500Y880113D02*
X692500Y891110D01*
X692500Y880113D02*
X703803Y868810D01*
X246190Y395080D02*
X214240Y395080D01*
X246190Y395080D02*
X247500Y396390D01*
X801422Y801390D02*
X830000Y801390D01*
X801422Y801390D02*
X791312Y811500D01*
D20*
X850000Y822500D03*
D21*
X857500Y830000D02*
X857500Y851110D01*
X857500Y830000D02*
X850000Y822500D01*
D20*
X787500Y857500D03*
D21*
X770000Y875000D02*
X760200Y875000D01*
X770000Y875000D02*
X787500Y857500D01*
X828610Y857500D01*
X832500Y861390D01*
D20*
X535000Y405000D03*
D21*
X535000Y425900D01*
X530000Y430900D01*
X138200Y374000D02*
X128496Y374000D01*
X81872Y365440D02*
X79640Y367672D01*
X79640Y376470D01*
X70000Y386110D01*
X119936Y365440D02*
X128496Y374000D01*
X119936Y365440D02*
X81872Y365440D01*
D20*
X112500Y390000D03*
D21*
X70000Y386110D02*
X61872Y394238D01*
X60929Y394238D01*
X30000Y425167D01*
X30000Y458610D01*
X73890Y390000D02*
X70000Y386110D01*
X73890Y390000D02*
X112500Y390000D01*
D20*
X140000Y452500D03*
D21*
X132548Y452500D02*
X120568Y440520D01*
X132548Y452500D02*
X140000Y452500D01*
D20*
X435000Y495000D03*
D21*
X435000Y456390D01*
D20*
X537500Y805000D03*
D21*
X537500Y794063D02*
X525956Y782520D01*
X537500Y794063D02*
X537500Y805000D01*
D20*
X385000Y877500D03*
D21*
X384000Y878500D02*
X361800Y878500D01*
X384000Y878500D02*
X385000Y877500D01*
D20*
X300000Y860000D03*
D21*
X311110Y878890D02*
X335000Y878890D01*
X311110Y878890D02*
X310000Y880000D01*
X300000Y870000D01*
X300000Y860000D01*
X300000Y847400D02*
X253600Y801000D01*
X300000Y847400D02*
X300000Y860000D01*
D20*
X282500Y967500D03*
D21*
X282500Y961110D02*
X266390Y945000D01*
X282500Y961110D02*
X282500Y967500D01*
D20*
X192500Y962500D03*
D21*
X216000Y939000D02*
X216000Y934000D01*
X216000Y939000D02*
X192500Y962500D01*
X196800Y741000D02*
X227912Y741000D01*
X261450Y732440D02*
X270000Y723890D01*
X236472Y732440D02*
X227912Y741000D01*
X236472Y732440D02*
X261450Y732440D01*
D20*
X670000Y830000D03*
D21*
X669800Y830200D02*
X669800Y846500D01*
X669800Y830200D02*
X670000Y830000D01*
X50000Y790167D02*
X38697Y801470D01*
X38697Y887587D01*
X51110Y900000D01*
D20*
X315000Y387500D03*
D21*
X326890Y399390D02*
X337400Y399390D01*
X326890Y399390D02*
X315000Y387500D01*
D20*
X287500Y297500D03*
D21*
X287500Y298070D02*
X303480Y314050D01*
X287500Y298070D02*
X287500Y297500D01*
D20*
X72500Y682500D03*
D21*
X72500Y687500D02*
X50000Y710000D01*
X72500Y687500D02*
X72500Y682500D01*
X105000Y650000D01*
X106110Y650000D01*
X320000Y530100D02*
X323400Y526700D01*
X320000Y530100D02*
X320000Y580000D01*
X334400Y594400D01*
X340200Y594400D01*
X956390Y897500D02*
X963272Y897500D01*
X960700Y841500D02*
X953200Y841500D01*
X970000Y780000D02*
X961500Y771500D01*
X953200Y771500D01*
X970000Y780000D02*
X970000Y830000D01*
X958500Y841500D01*
X953200Y841500D01*
X840200Y570800D02*
X845000Y566000D01*
X837700Y638500D02*
X845200Y646000D01*
X799000Y540300D02*
X794000Y535300D01*
X845000Y558388D02*
X845000Y565000D01*
X842110Y487290D02*
X843400Y486000D01*
X971600Y494700D02*
X976600Y489700D01*
X220710Y302600D02*
X197761Y302600D01*
X171061Y329300D01*
X77783Y347420D02*
X9920Y415283D01*
X9920Y969604D01*
X30396Y990080D01*
X215992Y990080D01*
X223572Y982500D02*
X292500Y982500D01*
X223572Y982500D02*
X215992Y990080D01*
X292500Y982500D02*
X296400Y978600D01*
X296400Y921000D01*
X303480Y326750D02*
X309120Y321110D01*
X491879Y309300D02*
X498600Y309300D01*
X320028Y321110D02*
X309120Y321110D01*
X320028Y321110D02*
X355206Y285932D01*
X468511Y285932D01*
X491879Y309300D01*
X122580Y347420D02*
X77783Y347420D01*
X286750Y326750D02*
X303480Y326750D01*
X286750Y326750D02*
X250000Y290000D01*
X180000Y290000D01*
X122580Y347420D01*
X248400Y889000D02*
X216000Y921400D01*
X226560Y927672D02*
X226560Y940328D01*
X226560Y927672D02*
X224328Y925440D01*
X216000Y950888D02*
X216000Y966000D01*
X220040Y925440D02*
X224328Y925440D01*
X220040Y925440D02*
X216000Y921400D01*
X226560Y940328D02*
X216000Y950888D01*
X357720Y339450D02*
X544650Y339450D01*
X574800Y309300D01*
X413987Y326750D02*
X357720Y326750D01*
X413987Y326750D02*
X414825Y327588D01*
X531112Y327588D01*
X549400Y309300D01*
X408471Y314050D02*
X357720Y314050D01*
X408471Y314050D02*
X416929Y322508D01*
X510792Y322508D01*
X524000Y309300D01*
X309120Y333810D02*
X303480Y339450D01*
X466479Y309300D02*
X473200Y309300D01*
X314513Y333810D02*
X309120Y333810D01*
X314513Y333810D02*
X357311Y291012D01*
X448191Y291012D01*
X466479Y309300D01*
X259700Y329900D02*
X236939Y329900D01*
X236339Y329300D01*
X274668Y348730D02*
X278088Y352150D01*
X303480Y352150D01*
X309120Y346510D01*
X312683Y346510D01*
X346285Y312908D01*
X346285Y309222D01*
X359415Y296092D01*
X434592Y296092D02*
X447800Y309300D01*
X434592Y296092D02*
X359415Y296092D01*
X238490Y302600D02*
X238490Y328349D01*
X236939Y329900D01*
X274668Y344868D02*
X274668Y348730D01*
X274668Y344868D02*
X259700Y329900D01*
X168000Y934000D02*
X146000Y934000D01*
X139000Y941000D01*
X91000Y909000D02*
X91000Y903200D01*
X118200Y876000D01*
X70200Y844000D02*
X108200Y806000D01*
X123200Y806000D01*
X75200Y774000D02*
X99640Y749560D01*
X127088Y741000D02*
X158200Y741000D01*
X118528Y749560D02*
X99640Y749560D01*
X118528Y749560D02*
X127088Y741000D01*
X111000Y709000D02*
X110200Y709000D01*
X111000Y709000D02*
X120000Y700000D01*
X187800Y700000D01*
X196800Y709000D01*
X244800Y741000D02*
X253600Y749800D01*
X253600Y769000D01*
X301600Y801000D02*
X340000Y762600D01*
X340000Y720000D01*
X352100Y707900D01*
X361800Y707900D01*
X409800Y739900D02*
X373900Y775800D01*
X361800Y775800D01*
X409800Y807800D02*
X371100Y846500D01*
X361800Y846500D01*
X409800Y878500D02*
X376100Y912200D01*
X361800Y912200D01*
X409800Y944200D02*
X427856Y926144D01*
X427856Y891280D01*
X474344Y857120D02*
X455956Y838733D01*
X455956Y816680D01*
X502444Y782520D02*
X534800Y750163D01*
X534800Y745700D01*
X544675Y771575D02*
X556027Y771575D01*
X545360Y739372D02*
X543128Y737140D01*
X545360Y739372D02*
X545360Y752028D01*
X510240Y737140D02*
X486800Y713700D01*
X510240Y737140D02*
X543128Y737140D01*
X545360Y752028D02*
X544675Y752713D01*
X544675Y771575D01*
X542373Y827625D02*
X562477Y827625D01*
X581027Y846175D01*
X567373Y902225D02*
X576748Y911600D01*
X621800Y911600D01*
X659240Y917928D02*
X659240Y905272D01*
X669800Y928488D02*
X669800Y943600D01*
X669800Y894712D02*
X669800Y878500D01*
X659240Y917928D02*
X669800Y928488D01*
X659240Y905272D02*
X669800Y894712D01*
X631100Y846500D02*
X621800Y846500D01*
X631100Y846500D02*
X669800Y807800D01*
X659240Y716428D02*
X659240Y703772D01*
X661472Y701540D01*
X694153Y701540D01*
X702113Y709500D01*
X669800Y726988D02*
X669800Y742100D01*
X669800Y726988D02*
X659240Y716428D01*
X702113Y709500D02*
X760200Y709500D01*
X808200Y741500D02*
X770200Y779500D01*
X760200Y779500D01*
X808200Y811500D02*
X776700Y843000D01*
X760200Y843000D01*
X793200Y875000D02*
X808200Y875000D01*
X793200Y875000D02*
X760200Y908000D01*
X808200Y940000D02*
X843400Y904800D01*
X843400Y900000D01*
X896872Y864940D02*
X913528Y864940D01*
X922088Y873500D01*
X891400Y916888D02*
X891400Y932000D01*
X891400Y916888D02*
X880840Y906328D01*
X880840Y880972D01*
X896872Y864940D01*
X922088Y873500D02*
X953200Y873500D01*
X905200Y841500D02*
X943200Y803500D01*
X953200Y803500D01*
X905200Y771500D02*
X905200Y762300D01*
X891400Y748500D01*
X843400Y716500D02*
X842580Y715680D01*
X842580Y677896D02*
X827104Y662420D01*
X842580Y677896D02*
X842580Y715680D01*
X271600Y621600D02*
X271600Y596000D01*
X312420Y662420D02*
X827104Y662420D01*
X312420Y662420D02*
X271600Y621600D01*
X632360Y735772D02*
X632360Y748428D01*
X621800Y758988D02*
X621800Y775800D01*
X621800Y725212D02*
X621800Y710100D01*
X632360Y748428D02*
X621800Y758988D01*
X632360Y735772D02*
X621800Y725212D01*
X149000Y614000D02*
X142000Y621000D01*
X119000Y621000D01*
X71000Y589000D02*
X71000Y578200D01*
X98200Y551000D01*
X56800Y519000D02*
X50200Y519000D01*
X56800Y519000D02*
X99800Y476000D01*
X82912Y444000D02*
X51800Y444000D01*
X108760Y435440D02*
X138200Y406000D01*
X91472Y435440D02*
X82912Y444000D01*
X91472Y435440D02*
X108760Y435440D01*
X129872Y382560D02*
X146528Y382560D01*
X121312Y374000D02*
X90200Y374000D01*
X155088Y374000D02*
X176800Y374000D01*
X129872Y382560D02*
X121312Y374000D01*
X146528Y382560D02*
X155088Y374000D01*
X224800Y406000D02*
X228600Y409800D01*
X228600Y439000D01*
X316700Y430900D02*
X340200Y430900D01*
X306571Y471042D02*
X288429Y471042D01*
X306571Y471042D02*
X308803Y468810D01*
X308803Y438797D02*
X316700Y430900D01*
X288387Y471000D02*
X276600Y471000D01*
X288387Y471000D02*
X288429Y471042D01*
X308803Y468810D02*
X308803Y438797D01*
X355200Y462900D02*
X388200Y462900D01*
X355200Y462900D02*
X350760Y467340D01*
X350760Y469228D01*
X348528Y471460D01*
X346640Y471460D01*
X323400Y494700D01*
X371400Y526700D02*
X340200Y557900D01*
X340200Y562400D01*
X223600Y619400D02*
X197000Y646000D01*
X213040Y602328D02*
X213040Y589672D01*
X223600Y579112D02*
X223600Y564000D01*
X223600Y612888D02*
X223600Y619400D01*
X213040Y589672D02*
X223600Y579112D01*
X213040Y602328D02*
X223600Y612888D01*
X70200Y876000D02*
X68636Y877564D01*
X429690Y770800D02*
X435000Y776110D01*
X395190Y861110D02*
X335000Y861110D01*
X395190Y861110D02*
X409800Y846500D01*
X340000Y931110D02*
X335000Y931110D01*
X477799Y846762D02*
X481303Y846762D01*
X477799Y846762D02*
X461037Y830000D01*
X481303Y846762D02*
X488041Y853500D01*
X488041Y889942D01*
X461037Y830000D02*
X461037Y827549D01*
X466849Y821737D01*
X585541Y784459D02*
X585541Y783354D01*
X585541Y784459D02*
X570000Y800000D01*
X570000Y814237D01*
X572444Y816680D01*
X585541Y802772D02*
X585541Y783354D01*
X585541Y802772D02*
X583800Y804513D01*
X583800Y814909D01*
X590210Y821319D01*
X598505Y821319D02*
X603041Y825854D01*
X598505Y821319D02*
X590210Y821319D01*
X603041Y825854D02*
X603041Y885683D01*
X597444Y891280D01*
X689790Y911600D02*
X689891Y911598D01*
X689993Y911592D01*
X690093Y911583D01*
X690194Y911570D01*
X690294Y911553D01*
X690393Y911532D01*
X690491Y911508D01*
X690589Y911480D01*
X690685Y911448D01*
X690780Y911413D01*
X690874Y911374D01*
X690966Y911332D01*
X691056Y911286D01*
X691145Y911237D01*
X691232Y911185D01*
X691317Y911129D01*
X691399Y911070D01*
X691480Y911009D01*
X691558Y910944D01*
X691633Y910877D01*
X691706Y910806D01*
X691777Y910733D01*
X691844Y910658D01*
X691909Y910580D01*
X691970Y910499D01*
X692029Y910417D01*
X692085Y910332D01*
X692137Y910245D01*
X692186Y910156D01*
X692232Y910066D01*
X692274Y909974D01*
X692313Y909880D01*
X692348Y909785D01*
X692380Y909689D01*
X692408Y909591D01*
X692432Y909493D01*
X692453Y909394D01*
X692470Y909294D01*
X692483Y909193D01*
X692492Y909093D01*
X692498Y908991D01*
X692500Y908890D01*
X689790Y911600D02*
X669800Y911600D01*
X603041Y883041D02*
X603041Y825854D01*
X620000Y900000D02*
X630000Y900000D01*
X632360Y949928D02*
X631144Y951144D01*
X630000Y902912D02*
X630000Y900000D01*
X630000Y902912D02*
X632360Y905272D01*
X632360Y949928D01*
X631144Y951144D02*
X660456Y951144D01*
X661472Y952160D01*
X678128Y952160D01*
X689790Y940498D02*
X689790Y911600D01*
X620000Y900000D02*
X603041Y883041D01*
X678128Y952160D02*
X689790Y940498D01*
X692500Y861390D02*
X638910Y861390D01*
X621800Y878500D01*
X691805Y808195D02*
X684372Y800762D01*
X639600Y790000D02*
X621800Y807800D01*
X670000Y790000D02*
X673610Y790000D01*
X670000Y790000D02*
X639600Y790000D01*
X678310Y718610D02*
X692500Y718610D01*
X678310Y718610D02*
X669800Y710100D01*
X800762Y694071D02*
X800762Y693128D01*
X808890Y685000D01*
X776223Y718610D02*
X692500Y718610D01*
X776223Y718610D02*
X800762Y694071D01*
X808890Y685000D02*
X808890Y708810D01*
X808200Y709500D01*
X820000Y696110D02*
X808890Y685000D01*
X820000Y773610D02*
X830000Y783610D01*
X820000Y773610D02*
X820000Y696110D01*
X812310Y783610D02*
X830000Y783610D01*
X812310Y783610D02*
X808200Y779500D01*
X830000Y841110D02*
X832500Y843610D01*
X841303Y793970D02*
X839071Y791738D01*
X841303Y793970D02*
X841303Y808810D01*
X838128Y791738D02*
X830000Y783610D01*
X838128Y791738D02*
X839071Y791738D01*
X830000Y820113D02*
X830000Y841110D01*
X830000Y820113D02*
X841303Y808810D01*
X831890Y843000D02*
X832500Y843610D01*
X831890Y843000D02*
X808200Y843000D01*
X857500Y868610D02*
X857500Y868890D01*
X840628Y851738D02*
X832500Y843610D01*
X840628Y851738D02*
X841571Y851738D01*
X846197Y858530D02*
X848429Y860762D01*
X849652Y860762D01*
X857500Y868610D01*
X846197Y856364D02*
X841571Y851738D01*
X846197Y856364D02*
X846197Y858530D01*
X857500Y868890D02*
X855348Y871042D01*
X830000Y871042D01*
X808200Y892842D01*
X808200Y908000D01*
X914610Y873500D02*
X938610Y897500D01*
X914610Y873500D02*
X905200Y873500D01*
X961528Y882060D02*
X963760Y879828D01*
X963760Y867172D01*
X956448Y859860D01*
X900970Y859860D01*
X938610Y882060D02*
X938610Y897500D01*
X938610Y882060D02*
X961528Y882060D01*
X877610Y803500D02*
X875000Y806110D01*
X877610Y803500D02*
X905200Y803500D01*
X875000Y806110D02*
X861110Y792220D01*
X861110Y772500D01*
X843400Y754790D01*
X843400Y748500D01*
X198890Y910000D02*
X190762Y918128D01*
X168000Y950888D02*
X168000Y966000D01*
X168000Y950888D02*
X190762Y928126D01*
X190762Y918128D01*
X57587Y888697D02*
X50000Y881110D01*
X57587Y888697D02*
X58530Y888697D01*
X60762Y890929D01*
X60762Y891872D01*
X68890Y900000D01*
X50000Y881110D02*
X50000Y808890D01*
X68890Y877818D02*
X68890Y900000D01*
X68890Y877818D02*
X68636Y877564D01*
X68890Y900000D02*
X68890Y918890D01*
X91000Y941000D01*
X85000Y747312D02*
X85000Y738890D01*
X85000Y747312D02*
X64640Y767672D01*
X64640Y795193D01*
X468890Y685000D02*
X489030Y705140D01*
X495128Y705140D01*
X522048Y732060D01*
X858610Y770000D02*
X861110Y772500D01*
X858610Y770000D02*
X840000Y770000D01*
X830000Y760000D01*
X830000Y677500D02*
X822500Y670000D01*
X830000Y677500D02*
X830000Y760000D01*
X822500Y670000D02*
X270000Y670000D01*
X236110Y636110D01*
X236110Y620000D01*
X236110Y608510D01*
X223600Y596000D01*
X236110Y630000D02*
X198610Y667500D01*
X141390Y667500D02*
X123890Y650000D01*
X141390Y667500D02*
X198610Y667500D01*
X145000Y650000D02*
X123890Y650000D01*
X145000Y650000D02*
X149000Y646000D01*
X51410Y476390D02*
X30000Y476390D01*
X51410Y476390D02*
X51800Y476000D01*
X38128Y468262D02*
X30000Y476390D01*
X38128Y468262D02*
X39071Y468262D01*
X41303Y466030D01*
X41303Y451190D01*
X40000Y449887D01*
X40000Y430000D01*
X66110Y403890D01*
X70000Y403890D01*
X88090Y403890D01*
X90200Y406000D01*
X229410Y378610D02*
X247500Y378610D01*
X229410Y378610D02*
X224800Y374000D01*
X247500Y378610D02*
X255628Y386738D01*
X256571Y386738D01*
X297500Y427667D01*
X297500Y443610D01*
X292890Y439000D01*
X276600Y439000D01*
X297500Y443610D02*
X303723Y437387D01*
X303723Y436693D01*
X320416Y420000D01*
X391390Y420000D02*
X410000Y438610D01*
X391390Y420000D02*
X320416Y420000D01*
X395910Y438610D02*
X410000Y438610D01*
X395910Y438610D02*
X388200Y430900D01*
X419071Y446738D02*
X421303Y448970D01*
X418128Y446738D02*
X410000Y438610D01*
X418128Y446738D02*
X419071Y446738D01*
X421303Y448970D02*
X421303Y469807D01*
X395000Y496110D01*
X393590Y494700D01*
X371400Y494700D01*
X395000Y496110D02*
X403128Y504238D01*
X404071Y504238D01*
X410000Y510167D01*
X410000Y563610D01*
X408790Y562400D01*
X388200Y562400D01*
X410000Y563610D02*
X418128Y571738D01*
X419071Y571738D01*
X440000Y592667D01*
X440000Y620000D01*
X448610Y628610D01*
X480000Y628610D01*
X465390Y614000D01*
X458200Y614000D01*
X480000Y628610D02*
X492500Y628610D01*
X503610Y617500D01*
X481800Y595690D01*
X481800Y594400D01*
X503610Y573610D02*
X503610Y617500D01*
X473472Y570960D02*
X471240Y568728D01*
X471240Y541240D02*
X470000Y540000D01*
X471240Y541240D02*
X471240Y568728D01*
X500960Y570960D02*
X503610Y573610D01*
X500960Y570960D02*
X473472Y570960D01*
X470000Y540000D02*
X470000Y531390D01*
X477500Y523890D01*
X469372Y515762D01*
X468429Y515762D01*
X460000Y507333D01*
X460000Y461390D01*
X480290Y461390D01*
X481800Y462900D01*
X437220Y438610D02*
X435000Y438610D01*
X451872Y453262D02*
X460000Y461390D01*
X451872Y453262D02*
X450929Y453262D01*
X448697Y451030D01*
X448697Y450087D01*
X437220Y438610D01*
X435000Y438610D02*
X410200Y413810D01*
X410200Y406000D01*
X435000Y438610D02*
X447640Y425970D01*
X447640Y399672D01*
X456202Y391110D01*
X567500Y391110D01*
X607088Y374000D02*
X638200Y374000D01*
X607088Y374000D02*
X598528Y382560D01*
X576050Y382560D02*
X567500Y391110D01*
X576050Y382560D02*
X598528Y382560D01*
X575628Y399238D02*
X567500Y391110D01*
X575628Y399238D02*
X576571Y399238D01*
X579640Y402307D01*
X579640Y460328D02*
X589312Y470000D01*
X579640Y460328D02*
X579640Y402307D01*
X646110Y470000D02*
X648697Y467413D01*
X648697Y466470D01*
X650929Y464238D01*
X651872Y464238D01*
X660000Y456110D01*
X646110Y470000D02*
X589312Y470000D01*
X640310Y456110D02*
X660000Y456110D01*
X640310Y456110D02*
X638200Y454000D01*
X669071Y464238D02*
X671303Y466470D01*
X671303Y481310D01*
X668128Y464238D02*
X660000Y456110D01*
X668128Y464238D02*
X669071Y464238D01*
X660000Y492613D02*
X660000Y541110D01*
X660000Y492613D02*
X671303Y481310D01*
X652890Y534000D02*
X660000Y541110D01*
X652890Y534000D02*
X638200Y534000D01*
X669071Y549238D02*
X671303Y551470D01*
X671303Y566310D01*
X669071Y568542D01*
X668128Y549238D02*
X660000Y541110D01*
X668128Y549238D02*
X669071Y549238D01*
X669071Y568542D02*
X660348Y568542D01*
X638890Y590000D01*
X638890Y613310D01*
X638200Y614000D01*
X661760Y590440D02*
X685128Y590440D01*
X704688Y610000D01*
X661760Y590440D02*
X638200Y614000D01*
X737667Y610000D02*
X738429Y609238D01*
X740000Y609238D01*
X737667Y610000D02*
X704688Y610000D01*
X740000Y609238D02*
X747500Y601738D01*
X747500Y601110D01*
X745390Y599000D01*
X724800Y599000D01*
X725000Y578610D02*
X747500Y601110D01*
X725000Y578610D02*
X725000Y563890D01*
X742590Y563890D01*
X746000Y567300D01*
X715929Y555762D02*
X713697Y553530D01*
X713697Y538690D01*
X716872Y555762D02*
X725000Y563890D01*
X716872Y555762D02*
X715929Y555762D01*
X725000Y527387D02*
X725000Y493890D01*
X725000Y527387D02*
X713697Y538690D01*
X725000Y493890D02*
X731590Y487300D01*
X746000Y487300D01*
X725000Y493890D02*
X716872Y485762D01*
X715929Y485762D01*
X688610Y458443D01*
X688610Y450000D01*
X688610Y437810D01*
X676800Y426000D01*
X664828Y405060D02*
X664828Y382672D01*
X687060Y360440D01*
X842060Y360440D01*
X852500Y350000D01*
X901110Y350000D01*
X889800Y361310D01*
X889800Y374000D01*
X903610Y352500D02*
X903610Y442220D01*
X912500Y451110D01*
X894290Y451110D01*
X891400Y454000D01*
X904372Y459238D02*
X912500Y451110D01*
X904372Y459238D02*
X903429Y459238D01*
X901197Y461470D01*
X901960Y479672D02*
X901960Y492328D01*
X893890Y500398D02*
X893890Y510000D01*
X893890Y500398D02*
X901960Y492328D01*
X901960Y479672D02*
X901197Y478909D01*
X901197Y461470D01*
X893890Y510000D02*
X893000Y510890D01*
X893000Y534000D01*
X893890Y550002D02*
X893890Y510000D01*
X893890Y550002D02*
X903560Y559672D01*
X903560Y575330D01*
X888890Y590000D01*
X888890Y609690D01*
X893200Y614000D01*
X888890Y590000D02*
X893890Y585000D01*
X951110Y585000D01*
X951110Y595310D01*
X969800Y614000D01*
X951110Y585000D02*
X931110Y565000D01*
X931110Y550000D01*
X923600Y542490D01*
X923600Y526700D01*
X913040Y488372D02*
X930000Y471412D01*
X913040Y488372D02*
X913040Y531930D01*
X931110Y550000D01*
X930000Y441110D02*
X941110Y430000D01*
X930000Y441110D02*
X930000Y471412D01*
X941110Y430000D02*
X925000Y413890D01*
X925000Y406000D01*
D20*
X272500Y365000D03*
X385000Y360000D03*
X600000Y350000D03*
D21*
X609300Y350000D02*
X648800Y310500D01*
X609300Y350000D02*
X600000Y350000D01*
X600000Y309500D02*
X600200Y309300D01*
X600000Y309500D02*
X600000Y350000D01*
X15000Y419887D02*
X15000Y967500D01*
X32500Y985000D01*
X226560Y972328D02*
X226560Y967050D01*
X248610Y945000D01*
X226560Y972328D02*
X213888Y985000D01*
X32500Y985000D01*
X248610Y945000D02*
X248610Y921210D01*
X248400Y921000D01*
X248610Y905678D02*
X248610Y945000D01*
X258960Y881040D02*
X260000Y880000D01*
X258960Y895328D02*
X248610Y905678D01*
X258960Y895328D02*
X258960Y881040D01*
X260000Y880000D02*
X228890Y880000D01*
X198890Y910000D01*
X64640Y795193D02*
X50943Y808890D01*
X50000Y808890D01*
X477500Y523890D02*
X495590Y523890D01*
X498400Y526700D01*
X76000Y806000D02*
X75200Y806000D01*
X76000Y806000D02*
X78890Y808890D01*
X50000Y808890D01*
X300000Y743890D02*
X301600Y745490D01*
X301600Y769000D01*
X123890Y650000D02*
X115762Y641872D01*
X115762Y640929D01*
X113530Y638697D01*
X98690Y638697D01*
X97387Y640000D01*
X60000Y640000D01*
X42500Y622500D01*
X42500Y621390D01*
X42890Y621000D01*
X71000Y621000D01*
X53803Y611030D02*
X51571Y613262D01*
X53803Y611030D02*
X53803Y596190D01*
X51571Y613262D02*
X50628Y613262D01*
X48890Y591277D02*
X48890Y575000D01*
X48890Y591277D02*
X53803Y596190D01*
X50628Y613262D02*
X42500Y621390D01*
X48890Y575000D02*
X50200Y573690D01*
X50200Y551000D01*
X48890Y568890D02*
X48890Y575000D01*
X39640Y512672D02*
X40000Y512312D01*
X39640Y559640D02*
X48890Y568890D01*
X39640Y559640D02*
X39640Y512672D01*
X40000Y486390D02*
X30000Y476390D01*
X40000Y486390D02*
X40000Y512312D01*
X457500Y738890D02*
X457500Y777500D01*
X466849Y786849D02*
X466849Y821737D01*
X466849Y786849D02*
X457500Y777500D01*
X472373Y753763D02*
X457500Y738890D01*
X472373Y753763D02*
X472373Y771575D01*
X457500Y738890D02*
X465628Y730762D01*
X466571Y730762D01*
X468890Y728443D01*
X468890Y685000D01*
X486800Y702910D01*
X478472Y705140D02*
X476240Y707372D01*
X476240Y720028D01*
X484570Y705140D02*
X486800Y702910D01*
X484570Y705140D02*
X478472Y705140D01*
X486800Y730588D02*
X486800Y745700D01*
X486800Y730588D02*
X476240Y720028D01*
X600000Y350000D02*
X590000Y340000D01*
X551284Y340000D01*
X546754Y344530D01*
X400000Y344530D01*
X364100Y381610D02*
X364900Y382410D01*
X364100Y381610D02*
X337400Y381610D01*
X357720Y361290D01*
X357720Y352150D01*
X385000Y359530D02*
X400000Y344530D01*
X385000Y359530D02*
X385000Y360000D01*
X380000Y365000D01*
X380000Y410000D01*
X310000Y410000D01*
X272500Y372500D01*
X272500Y365000D01*
X259700Y352200D01*
X259700Y347900D01*
X272500Y365000D02*
X208060Y365000D01*
X197790Y354730D01*
X80157Y354730D01*
X15000Y419887D01*
X364900Y382410D02*
X364900Y380100D01*
X385000Y360000D01*
X91000Y941000D02*
X91000Y954890D01*
X101110Y965000D01*
X167000Y965000D02*
X168000Y966000D01*
X111470Y976303D02*
X109238Y974071D01*
X111470Y976303D02*
X126310Y976303D01*
X109238Y973128D02*
X101110Y965000D01*
X109238Y973128D02*
X109238Y974071D01*
X137613Y965000D02*
X167000Y965000D01*
X137613Y965000D02*
X126310Y976303D01*
X278128Y714238D02*
X270000Y706110D01*
X278128Y714238D02*
X306851Y714238D01*
X311303Y718690D01*
X311303Y732587D01*
X344071Y869238D02*
X346303Y871470D01*
X346303Y886310D01*
X344071Y869238D02*
X343128Y869238D01*
X340000Y892613D02*
X340000Y931110D01*
X340000Y892613D02*
X346303Y886310D01*
X343128Y869238D02*
X335000Y861110D01*
X681197Y883690D02*
X681197Y898530D01*
X683429Y900762D01*
X692500Y872387D02*
X692500Y861390D01*
X684372Y900762D02*
X683429Y900762D01*
X684372Y900762D02*
X692500Y908890D01*
X681197Y883690D02*
X692500Y872387D01*
X683429Y853262D02*
X681197Y851030D01*
X681197Y836190D01*
X683429Y853262D02*
X684372Y853262D01*
X691805Y825582D02*
X691805Y808195D01*
X691805Y825582D02*
X681197Y836190D01*
X684372Y853262D02*
X692500Y861390D01*
X566629Y764442D02*
X550440Y748253D01*
X550440Y737268D01*
X545232Y732060D02*
X522048Y732060D01*
X545232Y732060D02*
X550440Y737268D01*
X581005Y778819D02*
X585541Y783354D01*
X581005Y778819D02*
X572710Y778819D01*
X566629Y772738D01*
X566629Y764442D01*
X891400Y900000D02*
X910010Y918610D01*
X915000Y918610D01*
X936110Y897500D01*
X938610Y897500D01*
X915000Y918610D02*
X907220Y918610D01*
X901960Y938328D02*
X899728Y940560D01*
X883072Y940560D01*
X875760Y887150D02*
X857500Y868890D01*
X875760Y933248D02*
X883072Y940560D01*
X875760Y933248D02*
X875760Y887150D01*
X907220Y918610D02*
X901960Y923870D01*
X901960Y938328D01*
X883128Y814238D02*
X875000Y806110D01*
X883128Y814238D02*
X884071Y814238D01*
X900970Y854158D02*
X900970Y859860D01*
X900970Y854158D02*
X894640Y847828D01*
X894640Y824807D02*
X884071Y814238D01*
X894640Y824807D02*
X894640Y847828D01*
X136200Y390000D02*
X120200Y406000D01*
X90200Y406000D01*
X136200Y390000D02*
X236110Y390000D01*
X236197Y389913D01*
X236197Y388970D01*
X238429Y386738D01*
X239372Y386738D01*
X247500Y378610D01*
X73697Y728530D02*
X75929Y730762D01*
X73697Y728530D02*
X73697Y713690D01*
X76872Y730762D02*
X85000Y738890D01*
X76872Y730762D02*
X75929Y730762D01*
X73697Y713690D02*
X97387Y690000D01*
X253890Y690000D02*
X270000Y706110D01*
X253890Y690000D02*
X97387Y690000D01*
X247690Y706110D02*
X270000Y706110D01*
X247690Y706110D02*
X244800Y709000D01*
X300000Y743890D02*
X308128Y735762D01*
X309071Y735762D01*
X311303Y733530D01*
X311303Y732587D01*
X353890Y690000D01*
X442937Y937952D02*
X422346Y958542D01*
X454065Y890137D02*
X463156Y890137D01*
X474665Y901646D02*
X488041Y901646D01*
X474665Y901646D02*
X463156Y890137D01*
X454065Y890137D02*
X442937Y901266D01*
X442937Y937952D01*
X691805Y808195D02*
X692500Y808890D01*
X684372Y800762D02*
X683429Y800762D01*
X681197Y798530D01*
X681197Y797587D01*
X673610Y790000D01*
X661472Y784360D02*
X659240Y782128D01*
X659240Y769472D01*
X681197Y728970D02*
X683429Y726738D01*
X684372Y726738D01*
X692500Y718610D01*
X664360Y784360D02*
X670000Y790000D01*
X664360Y784360D02*
X661472Y784360D01*
X678052Y750660D02*
X678128Y750660D01*
X678052Y750660D02*
X659240Y769472D01*
X678128Y750660D02*
X681197Y747591D01*
X681197Y728970D01*
X488041Y889942D02*
X444273Y846175D01*
X488041Y889942D02*
X488041Y901646D01*
X421197Y741310D02*
X421197Y721470D01*
X423429Y719238D01*
X424372Y719238D01*
X432500Y711110D01*
X411390Y690000D01*
X353890Y690000D01*
X409800Y707900D02*
X413010Y711110D01*
X432500Y711110D01*
X87110Y741000D02*
X85000Y738890D01*
X87110Y741000D02*
X110200Y741000D01*
X310000Y970000D02*
X380000Y970000D01*
X390000Y970000D01*
X401458Y958542D01*
X422346Y958542D01*
X380000Y942000D02*
X409800Y912200D01*
X380000Y942000D02*
X380000Y970000D01*
X335000Y931110D02*
X318890Y931110D01*
X310000Y940000D01*
X310000Y970000D01*
X335000Y861110D02*
X340000Y856110D01*
X340000Y830000D01*
X350000Y820000D01*
X380000Y820000D01*
X390000Y810000D01*
X390000Y790000D01*
X429690Y770800D02*
X429690Y749803D01*
X421197Y741310D01*
X410110Y776110D02*
X435000Y776110D01*
X410110Y776110D02*
X409800Y775800D01*
X426872Y784238D02*
X435000Y776110D01*
X426872Y784238D02*
X425929Y784238D01*
X423697Y786470D01*
X423697Y787413D01*
X421110Y790000D01*
X390000Y790000D01*
X669768Y410000D02*
X664828Y405060D01*
X669768Y410000D02*
X690000Y410000D01*
X690000Y448610D01*
X688610Y450000D01*
X901110Y350000D02*
X903610Y352500D01*
X236110Y620000D02*
X236110Y630000D01*
X388200Y594400D02*
X407800Y614000D01*
X410200Y614000D01*
X531042Y608429D02*
X531042Y626571D01*
X460887Y646000D02*
X458200Y646000D01*
X529800Y607187D02*
X531042Y608429D01*
X529800Y607187D02*
X529800Y594400D01*
X470929Y656042D02*
X460887Y646000D01*
X470929Y656042D02*
X501571Y656042D01*
X531042Y626571D01*
X510700Y562400D02*
X481800Y562400D01*
X510700Y562400D02*
X546400Y526700D01*
X498400Y494700D02*
X529800Y463300D01*
X529800Y462900D01*
X481800Y430900D02*
X458200Y407300D01*
X458200Y406000D01*
X449872Y382560D02*
X466528Y382560D01*
X441312Y374000D02*
X410200Y374000D01*
X475088Y374000D02*
X590200Y374000D01*
X449872Y382560D02*
X441312Y374000D01*
X466528Y382560D02*
X475088Y374000D01*
X590200Y454000D02*
X638200Y406000D01*
X638200Y486000D02*
X590200Y534000D01*
X625503Y578697D02*
X638200Y566000D01*
X625503Y578697D02*
X613690Y578697D01*
X611458Y580929D01*
X611458Y592742D01*
X590200Y614000D01*
X638200Y646000D02*
X676800Y607400D01*
X676800Y599000D01*
X746000Y535300D02*
X794000Y487300D01*
X746000Y455300D02*
X724800Y434100D01*
X724800Y426000D01*
X676800Y394000D02*
X696800Y374000D01*
X841800Y374000D01*
X889800Y406000D02*
X843400Y452400D01*
X843400Y454000D01*
X876400Y486000D02*
X856203Y506197D01*
X856190Y506197D01*
X845000Y517387D01*
X845000Y534000D01*
X876400Y486000D02*
X891400Y486000D01*
X893000Y566000D02*
X880303Y578697D01*
X863690Y578697D01*
X845200Y597187D01*
X845200Y614000D01*
X893200Y646000D02*
X921800Y617400D01*
X921800Y614000D01*
X969800Y646000D02*
X973800Y650000D01*
X990000Y650000D01*
X990000Y540000D01*
X976700Y526700D01*
X971600Y526700D01*
X923600Y494700D02*
X973000Y445300D01*
X973000Y406000D01*
X794000Y567300D02*
X758803Y602497D01*
X758803Y626310D01*
X754113Y631000D01*
X724800Y631000D01*
M02*
