M48
;GenerationSoftware,Autodesk,EAGLE,9.1.3*%
;CreationDate,2018-09-03T04:25:59Z*%
FMAT,2
ICI,OFF
METRIC,TZ,000.0000
T4C0.4000
T3C1.0160
T2C1.1000
T1C3.0000
%
G90
M71
T1
X510000Y960000
T2
X171061Y329300
X236339Y329300
T3
X600200Y309300
X574800Y309300
X549400Y309300
X524000Y309300
X498600Y309300
X473200Y309300
X447800Y309300
X422400Y309300
X648800Y310500
X674200Y310500
T4
X200000Y375000
X157500Y415000
X365000Y450000
X317500Y387500
X347500Y895000
X435000Y475000
X857500Y832500
X197500Y942500
X430000Y690000
X605000Y787500
X645000Y877500
X270000Y360000
X380000Y370000
X600000Y350000
M30