M48
;GenerationSoftware,Autodesk,EAGLE,9.1.3*%
;CreationDate,2018-09-05T08:17:43Z*%
FMAT,2
ICI,OFF
METRIC,TZ,000.0000
T4C0.7000
T3C1.0160
T2C1.1000
T1C3.0000
%
G90
M71
T1
X510000Y960000
T2
X171061Y329300
X236339Y329300
T3
X600200Y309300
X574800Y309300
X549400Y309300
X524000Y309300
X498600Y309300
X473200Y309300
X447800Y309300
X422400Y309300
X648800Y310500
X674200Y310500
T4
X430000Y690000
X850000Y822500
X787500Y857500
X535000Y405000
X112500Y390000
X140000Y452500
X435000Y495000
X537500Y805000
X385000Y877500
X300000Y860000
X282500Y967500
X192500Y962500
X670000Y830000
X315000Y387500
X287500Y297500
X72500Y682500
X272500Y365000
X385000Y360000
X600000Y350000
M30