M48
;GenerationSoftware,Autodesk,EAGLE,9.1.3*%
;CreationDate,2018-09-14T04:44:07Z*%
FMAT,2
ICI,OFF
METRIC,TZ,000.0000
T3C0.7000
T2C1.0160
T1C1.1000
%
G90
M71
T1
X168561Y336800
X233839Y336800
T2
X671700Y318000
X600200Y316800
X574800Y316800
X549400Y316800
X524000Y316800
X498600Y316800
X473200Y316800
X447800Y316800
X422400Y316800
X646300Y318000
T3
X315000Y387500
X285000Y305000
X72500Y682500
X75000Y535000
X430000Y690000
X947500Y497500
X272500Y365000
X385000Y360000
X600000Y350000
X850000Y822500
X787500Y857500
X532500Y407500
X112500Y390000
X140000Y452500
X435000Y495000
X537500Y805000
X385000Y877500
X300000Y860000
X282500Y962500
X670000Y830000
X192500Y940000
M30