G04 EAGLE Gerber RS-274X export*
G75*
%MOMM*%
%FSLAX34Y34*%
%LPD*%
%AMOC8*
5,1,8,0,0,1.08239X$1,22.5*%
G01*
%ADD10C,0.254000*%


D10*
X0Y274000D02*
X1005800Y274000D01*
X1005800Y1000000D01*
X0Y1000000D01*
X0Y274000D01*
X525000Y959464D02*
X524924Y958396D01*
X524771Y957335D01*
X524543Y956288D01*
X524241Y955260D01*
X523867Y954256D01*
X523422Y953281D01*
X522908Y952341D01*
X522329Y951440D01*
X521687Y950582D01*
X520985Y949772D01*
X520228Y949015D01*
X519418Y948313D01*
X518560Y947671D01*
X517659Y947092D01*
X516719Y946578D01*
X515744Y946133D01*
X514740Y945759D01*
X513712Y945457D01*
X512665Y945229D01*
X511604Y945076D01*
X510536Y945000D01*
X509464Y945000D01*
X508396Y945076D01*
X507335Y945229D01*
X506288Y945457D01*
X505260Y945759D01*
X504256Y946133D01*
X503281Y946578D01*
X502341Y947092D01*
X501440Y947671D01*
X500582Y948313D01*
X499772Y949015D01*
X499015Y949772D01*
X498313Y950582D01*
X497671Y951440D01*
X497092Y952341D01*
X496578Y953281D01*
X496133Y954256D01*
X495759Y955260D01*
X495457Y956288D01*
X495229Y957335D01*
X495076Y958396D01*
X495000Y959464D01*
X495000Y960536D01*
X495076Y961604D01*
X495229Y962665D01*
X495457Y963712D01*
X495759Y964740D01*
X496133Y965744D01*
X496578Y966719D01*
X497092Y967659D01*
X497671Y968560D01*
X498313Y969418D01*
X499015Y970228D01*
X499772Y970985D01*
X500582Y971687D01*
X501440Y972329D01*
X502341Y972908D01*
X503281Y973422D01*
X504256Y973867D01*
X505260Y974241D01*
X506288Y974543D01*
X507335Y974771D01*
X508396Y974924D01*
X509464Y975000D01*
X510536Y975000D01*
X511604Y974924D01*
X512665Y974771D01*
X513712Y974543D01*
X514740Y974241D01*
X515744Y973867D01*
X516719Y973422D01*
X517659Y972908D01*
X518560Y972329D01*
X519418Y971687D01*
X520228Y970985D01*
X520985Y970228D01*
X521687Y969418D01*
X522329Y968560D01*
X522908Y967659D01*
X523422Y966719D01*
X523867Y965744D01*
X524241Y964740D01*
X524543Y963712D01*
X524771Y962665D01*
X524924Y961604D01*
X525000Y960536D01*
X525000Y959464D01*
M02*
