G04 EAGLE Gerber RS-274X export*
G75*
%MOMM*%
%FSLAX34Y34*%
%LPD*%
%AMOC8*
5,1,8,0,0,1.08239X$1,22.5*%
G01*
%ADD10R,1.350000X0.950000*%
%ADD11R,1.498600X1.168400*%
%ADD12R,1.525000X0.650000*%
%ADD13R,1.200000X0.800000*%
%ADD14R,1.168400X1.498600*%


D10*
X248400Y921000D03*
X248400Y889000D03*
X296400Y889000D03*
X296400Y921000D03*
X168000Y966000D03*
X168000Y934000D03*
X216000Y934000D03*
X216000Y966000D03*
D11*
X337400Y399390D03*
X337400Y381610D03*
X364900Y400190D03*
X364900Y382410D03*
X259900Y308490D03*
X259900Y290710D03*
D12*
X303480Y352150D03*
X303480Y339450D03*
X303480Y326750D03*
X303480Y314050D03*
X357720Y314050D03*
X357720Y326750D03*
X357720Y339450D03*
X357720Y352150D03*
D13*
X259700Y347900D03*
X259700Y329900D03*
D10*
X91000Y941000D03*
X91000Y909000D03*
X139000Y909000D03*
X139000Y941000D03*
X70200Y876000D03*
X70200Y844000D03*
X118200Y844000D03*
X118200Y876000D03*
X75200Y806000D03*
X75200Y774000D03*
X123200Y774000D03*
X123200Y806000D03*
X110200Y741000D03*
X110200Y709000D03*
X158200Y709000D03*
X158200Y741000D03*
X244800Y709000D03*
X244800Y741000D03*
X196800Y741000D03*
X196800Y709000D03*
X301600Y769000D03*
X301600Y801000D03*
X253600Y801000D03*
X253600Y769000D03*
X409800Y707900D03*
X409800Y739900D03*
X361800Y739900D03*
X361800Y707900D03*
X409800Y775800D03*
X409800Y807800D03*
X361800Y807800D03*
X361800Y775800D03*
X409800Y846500D03*
X409800Y878500D03*
X361800Y878500D03*
X361800Y846500D03*
X409800Y912200D03*
X409800Y944200D03*
X361800Y944200D03*
X361800Y912200D03*
G36*
X446427Y854142D02*
X451045Y841457D01*
X442119Y838208D01*
X437501Y850893D01*
X446427Y854142D01*
G37*
G36*
X476498Y865087D02*
X481116Y852402D01*
X472190Y849153D01*
X467572Y861838D01*
X476498Y865087D01*
G37*
G36*
X460081Y910192D02*
X464699Y897507D01*
X455773Y894258D01*
X451155Y906943D01*
X460081Y910192D01*
G37*
G36*
X430010Y899247D02*
X434628Y886562D01*
X425702Y883313D01*
X421084Y895998D01*
X430010Y899247D01*
G37*
G36*
X474527Y779542D02*
X479145Y766857D01*
X470219Y763608D01*
X465601Y776293D01*
X474527Y779542D01*
G37*
G36*
X504598Y790487D02*
X509216Y777802D01*
X500290Y774553D01*
X495672Y787238D01*
X504598Y790487D01*
G37*
G36*
X488181Y835592D02*
X492799Y822907D01*
X483873Y819658D01*
X479255Y832343D01*
X488181Y835592D01*
G37*
G36*
X458110Y824647D02*
X462728Y811962D01*
X453802Y808713D01*
X449184Y821398D01*
X458110Y824647D01*
G37*
X486800Y745700D03*
X486800Y713700D03*
X534800Y713700D03*
X534800Y745700D03*
G36*
X565672Y811962D02*
X570290Y824647D01*
X579216Y821398D01*
X574598Y808713D01*
X565672Y811962D01*
G37*
G36*
X535601Y822907D02*
X540219Y835592D01*
X549145Y832343D01*
X544527Y819658D01*
X535601Y822907D01*
G37*
G36*
X519184Y777802D02*
X523802Y790487D01*
X532728Y787238D01*
X528110Y774553D01*
X519184Y777802D01*
G37*
G36*
X549255Y766857D02*
X553873Y779542D01*
X562799Y776293D01*
X558181Y763608D01*
X549255Y766857D01*
G37*
G36*
X590672Y886562D02*
X595290Y899247D01*
X604216Y895998D01*
X599598Y883313D01*
X590672Y886562D01*
G37*
G36*
X560601Y897507D02*
X565219Y910192D01*
X574145Y906943D01*
X569527Y894258D01*
X560601Y897507D01*
G37*
G36*
X544184Y852402D02*
X548802Y865087D01*
X557728Y861838D01*
X553110Y849153D01*
X544184Y852402D01*
G37*
G36*
X574255Y841457D02*
X578873Y854142D01*
X587799Y850893D01*
X583181Y838208D01*
X574255Y841457D01*
G37*
X669800Y911600D03*
X669800Y943600D03*
X621800Y943600D03*
X621800Y911600D03*
X621800Y878500D03*
X621800Y846500D03*
X669800Y846500D03*
X669800Y878500D03*
X621800Y807800D03*
X621800Y775800D03*
X669800Y775800D03*
X669800Y807800D03*
X669800Y710100D03*
X669800Y742100D03*
X621800Y742100D03*
X621800Y710100D03*
X808200Y709500D03*
X808200Y741500D03*
X760200Y741500D03*
X760200Y709500D03*
X808200Y779500D03*
X808200Y811500D03*
X760200Y811500D03*
X760200Y779500D03*
X808200Y843000D03*
X808200Y875000D03*
X760200Y875000D03*
X760200Y843000D03*
X808200Y908000D03*
X808200Y940000D03*
X760200Y940000D03*
X760200Y908000D03*
X891400Y900000D03*
X891400Y932000D03*
X843400Y932000D03*
X843400Y900000D03*
X905200Y873500D03*
X905200Y841500D03*
X953200Y841500D03*
X953200Y873500D03*
X905200Y803500D03*
X905200Y771500D03*
X953200Y771500D03*
X953200Y803500D03*
X843400Y748500D03*
X843400Y716500D03*
X891400Y716500D03*
X891400Y748500D03*
X223600Y596000D03*
X223600Y564000D03*
X271600Y564000D03*
X271600Y596000D03*
X149000Y646000D03*
X149000Y614000D03*
X197000Y614000D03*
X197000Y646000D03*
X71000Y621000D03*
X71000Y589000D03*
X119000Y589000D03*
X119000Y621000D03*
X50200Y551000D03*
X50200Y519000D03*
X98200Y519000D03*
X98200Y551000D03*
X51800Y476000D03*
X51800Y444000D03*
X99800Y444000D03*
X99800Y476000D03*
X90200Y406000D03*
X90200Y374000D03*
X138200Y374000D03*
X138200Y406000D03*
X224800Y374000D03*
X224800Y406000D03*
X176800Y406000D03*
X176800Y374000D03*
X276600Y439000D03*
X276600Y471000D03*
X228600Y471000D03*
X228600Y439000D03*
X388200Y430900D03*
X388200Y462900D03*
X340200Y462900D03*
X340200Y430900D03*
X371400Y494700D03*
X371400Y526700D03*
X323400Y526700D03*
X323400Y494700D03*
X388200Y562400D03*
X388200Y594400D03*
X340200Y594400D03*
X340200Y562400D03*
X458200Y614000D03*
X458200Y646000D03*
X410200Y646000D03*
X410200Y614000D03*
X481800Y594400D03*
X481800Y562400D03*
X529800Y562400D03*
X529800Y594400D03*
X498400Y526700D03*
X498400Y494700D03*
X546400Y494700D03*
X546400Y526700D03*
X481800Y462900D03*
X481800Y430900D03*
X529800Y430900D03*
X529800Y462900D03*
X410200Y406000D03*
X410200Y374000D03*
X458200Y374000D03*
X458200Y406000D03*
X638200Y374000D03*
X638200Y406000D03*
X590200Y406000D03*
X590200Y374000D03*
X638200Y454000D03*
X638200Y486000D03*
X590200Y486000D03*
X590200Y454000D03*
X638200Y534000D03*
X638200Y566000D03*
X590200Y566000D03*
X590200Y534000D03*
X638200Y614000D03*
X638200Y646000D03*
X590200Y646000D03*
X590200Y614000D03*
X724800Y599000D03*
X724800Y631000D03*
X676800Y631000D03*
X676800Y599000D03*
X746000Y567300D03*
X746000Y535300D03*
X794000Y535300D03*
X794000Y567300D03*
X746000Y487300D03*
X746000Y455300D03*
X794000Y455300D03*
X794000Y487300D03*
X676800Y426000D03*
X676800Y394000D03*
X724800Y394000D03*
X724800Y426000D03*
X889800Y374000D03*
X889800Y406000D03*
X841800Y406000D03*
X841800Y374000D03*
X891400Y454000D03*
X891400Y486000D03*
X843400Y486000D03*
X843400Y454000D03*
X893000Y534000D03*
X893000Y566000D03*
X845000Y566000D03*
X845000Y534000D03*
X893200Y614000D03*
X893200Y646000D03*
X845200Y646000D03*
X845200Y614000D03*
X969800Y614000D03*
X969800Y646000D03*
X921800Y646000D03*
X921800Y614000D03*
X923600Y526700D03*
X923600Y494700D03*
X971600Y494700D03*
X971600Y526700D03*
X925000Y406000D03*
X925000Y374000D03*
X973000Y374000D03*
X973000Y406000D03*
D14*
X266390Y945000D03*
X248610Y945000D03*
X198890Y910000D03*
X181110Y910000D03*
X68890Y900000D03*
X51110Y900000D03*
X101110Y965000D03*
X118890Y965000D03*
D11*
X50000Y808890D03*
X50000Y791110D03*
X85000Y738890D03*
X85000Y721110D03*
X270000Y706110D03*
X270000Y723890D03*
X300000Y743890D03*
X300000Y726110D03*
X432500Y711110D03*
X432500Y728890D03*
X435000Y776110D03*
X435000Y793890D03*
X335000Y861110D03*
X335000Y878890D03*
X335000Y931110D03*
X335000Y948890D03*
D14*
G36*
X493084Y909698D02*
X497080Y898720D01*
X482998Y893594D01*
X479002Y904572D01*
X493084Y909698D01*
G37*
G36*
X487002Y926406D02*
X490998Y915428D01*
X476916Y910302D01*
X472920Y921280D01*
X487002Y926406D01*
G37*
D11*
X457500Y738890D03*
X457500Y721110D03*
D14*
X468890Y685000D03*
X451110Y685000D03*
G36*
X576502Y780428D02*
X580498Y791406D01*
X594580Y786280D01*
X590584Y775302D01*
X576502Y780428D01*
G37*
G36*
X570420Y763720D02*
X574416Y774698D01*
X588498Y769572D01*
X584502Y758594D01*
X570420Y763720D01*
G37*
G36*
X594002Y822928D02*
X597998Y833906D01*
X612080Y828780D01*
X608084Y817802D01*
X594002Y822928D01*
G37*
G36*
X587920Y806220D02*
X591916Y817198D01*
X605998Y812072D01*
X602002Y801094D01*
X587920Y806220D01*
G37*
D11*
X692500Y908890D03*
X692500Y891110D03*
X692500Y861390D03*
X692500Y843610D03*
X692500Y808890D03*
X692500Y791110D03*
X692500Y718610D03*
X692500Y736390D03*
D14*
X808890Y685000D03*
X791110Y685000D03*
D11*
X830000Y783610D03*
X830000Y801390D03*
X832500Y843610D03*
X832500Y861390D03*
X857500Y868890D03*
X857500Y851110D03*
X915000Y918610D03*
X915000Y936390D03*
D14*
X938610Y897500D03*
X956390Y897500D03*
D11*
X875000Y806110D03*
X875000Y823890D03*
D14*
X861110Y772500D03*
X878890Y772500D03*
X236110Y620000D03*
X253890Y620000D03*
X123890Y650000D03*
X106110Y650000D03*
D11*
X42500Y621390D03*
X42500Y603610D03*
D14*
X48890Y575000D03*
X31110Y575000D03*
D11*
X30000Y476390D03*
X30000Y458610D03*
X70000Y403890D03*
X70000Y386110D03*
X247500Y378610D03*
X247500Y396390D03*
X297500Y443610D03*
X297500Y461390D03*
X410000Y438610D03*
X410000Y456390D03*
X395000Y496110D03*
X395000Y513890D03*
X410000Y563610D03*
X410000Y581390D03*
X480000Y628610D03*
X480000Y646390D03*
D14*
X503610Y617500D03*
X521390Y617500D03*
D11*
X477500Y523890D03*
X477500Y506110D03*
X460000Y461390D03*
X460000Y443610D03*
X435000Y438610D03*
X435000Y456390D03*
X567500Y391110D03*
X567500Y408890D03*
X660000Y456110D03*
X660000Y473890D03*
X660000Y541110D03*
X660000Y558890D03*
D14*
X638890Y590000D03*
X621110Y590000D03*
D11*
X747500Y601110D03*
X747500Y618890D03*
X725000Y563890D03*
X725000Y546110D03*
X725000Y493890D03*
X725000Y476110D03*
D14*
X688610Y450000D03*
X706390Y450000D03*
X901110Y350000D03*
X918890Y350000D03*
D11*
X912500Y451110D03*
X912500Y468890D03*
D14*
X893890Y510000D03*
X876110Y510000D03*
X888890Y590000D03*
X871110Y590000D03*
X951110Y585000D03*
X968890Y585000D03*
X931110Y550000D03*
X948890Y550000D03*
X941110Y430000D03*
X958890Y430000D03*
M02*
