G04 EAGLE Gerber RS-274X export*
G75*
%MOMM*%
%FSLAX34Y34*%
%LPD*%
%AMOC8*
5,1,8,0,0,1.08239X$1,22.5*%
G01*
%ADD10C,3.203200*%
%ADD11R,1.553200X1.153200*%
%ADD12R,1.701800X1.371600*%
%ADD13R,1.728200X0.853200*%
%ADD14R,2.082800X2.082800*%
%ADD15C,2.082800*%
%ADD16R,1.403200X1.003200*%
%ADD17C,2.387600*%
%ADD18R,1.371600X1.701800*%
%ADD19C,1.303200*%


D10*
X510000Y960000D03*
D11*
X248400Y921000D03*
X248400Y889000D03*
X296400Y889000D03*
X296400Y921000D03*
X168000Y966000D03*
X168000Y934000D03*
X216000Y934000D03*
X216000Y966000D03*
D12*
X337400Y399390D03*
X337400Y381610D03*
X364900Y400190D03*
X364900Y382410D03*
X259900Y308490D03*
X259900Y290710D03*
D13*
X303480Y352150D03*
X303480Y339450D03*
X303480Y326750D03*
X303480Y314050D03*
X357720Y314050D03*
X357720Y326750D03*
X357720Y339450D03*
X357720Y352150D03*
D14*
X600200Y309300D03*
D15*
X574800Y309300D03*
X549400Y309300D03*
X524000Y309300D03*
X498600Y309300D03*
X473200Y309300D03*
X447800Y309300D03*
X422400Y309300D03*
D16*
X259700Y347900D03*
X259700Y329900D03*
D17*
X171061Y329300D03*
X236339Y329300D03*
D11*
X91000Y941000D03*
X91000Y909000D03*
X139000Y909000D03*
X139000Y941000D03*
X70200Y876000D03*
X70200Y844000D03*
X118200Y844000D03*
X118200Y876000D03*
X75200Y806000D03*
X75200Y774000D03*
X123200Y774000D03*
X123200Y806000D03*
X110200Y741000D03*
X110200Y709000D03*
X158200Y709000D03*
X158200Y741000D03*
X244800Y709000D03*
X244800Y741000D03*
X196800Y741000D03*
X196800Y709000D03*
X301600Y769000D03*
X301600Y801000D03*
X253600Y801000D03*
X253600Y769000D03*
X409800Y707900D03*
X409800Y739900D03*
X361800Y739900D03*
X361800Y707900D03*
X409800Y775800D03*
X409800Y807800D03*
X361800Y807800D03*
X361800Y775800D03*
X409800Y846500D03*
X409800Y878500D03*
X361800Y878500D03*
X361800Y846500D03*
X409800Y912200D03*
X409800Y944200D03*
X361800Y944200D03*
X361800Y912200D03*
G36*
X447035Y855444D02*
X452347Y840850D01*
X441511Y836906D01*
X436199Y851500D01*
X447035Y855444D01*
G37*
G36*
X477106Y866389D02*
X482418Y851795D01*
X471582Y847851D01*
X466270Y862445D01*
X477106Y866389D01*
G37*
G36*
X460689Y911494D02*
X466001Y896900D01*
X455165Y892956D01*
X449853Y907550D01*
X460689Y911494D01*
G37*
G36*
X430618Y900549D02*
X435930Y885955D01*
X425094Y882011D01*
X419782Y896605D01*
X430618Y900549D01*
G37*
G36*
X475135Y780844D02*
X480447Y766250D01*
X469611Y762306D01*
X464299Y776900D01*
X475135Y780844D01*
G37*
G36*
X505206Y791789D02*
X510518Y777195D01*
X499682Y773251D01*
X494370Y787845D01*
X505206Y791789D01*
G37*
G36*
X488789Y836894D02*
X494101Y822300D01*
X483265Y818356D01*
X477953Y832950D01*
X488789Y836894D01*
G37*
G36*
X458718Y825949D02*
X464030Y811355D01*
X453194Y807411D01*
X447882Y822005D01*
X458718Y825949D01*
G37*
X486800Y745700D03*
X486800Y713700D03*
X534800Y713700D03*
X534800Y745700D03*
G36*
X564370Y811355D02*
X569682Y825949D01*
X580518Y822005D01*
X575206Y807411D01*
X564370Y811355D01*
G37*
G36*
X534299Y822300D02*
X539611Y836894D01*
X550447Y832950D01*
X545135Y818356D01*
X534299Y822300D01*
G37*
G36*
X517882Y777195D02*
X523194Y791789D01*
X534030Y787845D01*
X528718Y773251D01*
X517882Y777195D01*
G37*
G36*
X547953Y766250D02*
X553265Y780844D01*
X564101Y776900D01*
X558789Y762306D01*
X547953Y766250D01*
G37*
G36*
X589370Y885955D02*
X594682Y900549D01*
X605518Y896605D01*
X600206Y882011D01*
X589370Y885955D01*
G37*
G36*
X559299Y896900D02*
X564611Y911494D01*
X575447Y907550D01*
X570135Y892956D01*
X559299Y896900D01*
G37*
G36*
X542882Y851795D02*
X548194Y866389D01*
X559030Y862445D01*
X553718Y847851D01*
X542882Y851795D01*
G37*
G36*
X572953Y840850D02*
X578265Y855444D01*
X589101Y851500D01*
X583789Y836906D01*
X572953Y840850D01*
G37*
X669800Y911600D03*
X669800Y943600D03*
X621800Y943600D03*
X621800Y911600D03*
X621800Y878500D03*
X621800Y846500D03*
X669800Y846500D03*
X669800Y878500D03*
X621800Y807800D03*
X621800Y775800D03*
X669800Y775800D03*
X669800Y807800D03*
X669800Y710100D03*
X669800Y742100D03*
X621800Y742100D03*
X621800Y710100D03*
X808200Y709500D03*
X808200Y741500D03*
X760200Y741500D03*
X760200Y709500D03*
X808200Y779500D03*
X808200Y811500D03*
X760200Y811500D03*
X760200Y779500D03*
X808200Y843000D03*
X808200Y875000D03*
X760200Y875000D03*
X760200Y843000D03*
X808200Y908000D03*
X808200Y940000D03*
X760200Y940000D03*
X760200Y908000D03*
X891400Y900000D03*
X891400Y932000D03*
X843400Y932000D03*
X843400Y900000D03*
X905200Y873500D03*
X905200Y841500D03*
X953200Y841500D03*
X953200Y873500D03*
X905200Y803500D03*
X905200Y771500D03*
X953200Y771500D03*
X953200Y803500D03*
X843400Y748500D03*
X843400Y716500D03*
X891400Y716500D03*
X891400Y748500D03*
X223600Y596000D03*
X223600Y564000D03*
X271600Y564000D03*
X271600Y596000D03*
X149000Y646000D03*
X149000Y614000D03*
X197000Y614000D03*
X197000Y646000D03*
X71000Y621000D03*
X71000Y589000D03*
X119000Y589000D03*
X119000Y621000D03*
X50200Y551000D03*
X50200Y519000D03*
X98200Y519000D03*
X98200Y551000D03*
X51800Y476000D03*
X51800Y444000D03*
X99800Y444000D03*
X99800Y476000D03*
X90200Y406000D03*
X90200Y374000D03*
X138200Y374000D03*
X138200Y406000D03*
X224800Y374000D03*
X224800Y406000D03*
X176800Y406000D03*
X176800Y374000D03*
X276600Y439000D03*
X276600Y471000D03*
X228600Y471000D03*
X228600Y439000D03*
X388200Y430900D03*
X388200Y462900D03*
X340200Y462900D03*
X340200Y430900D03*
X371400Y494700D03*
X371400Y526700D03*
X323400Y526700D03*
X323400Y494700D03*
X388200Y562400D03*
X388200Y594400D03*
X340200Y594400D03*
X340200Y562400D03*
X458200Y614000D03*
X458200Y646000D03*
X410200Y646000D03*
X410200Y614000D03*
X481800Y594400D03*
X481800Y562400D03*
X529800Y562400D03*
X529800Y594400D03*
X498400Y526700D03*
X498400Y494700D03*
X546400Y494700D03*
X546400Y526700D03*
X481800Y462900D03*
X481800Y430900D03*
X529800Y430900D03*
X529800Y462900D03*
X410200Y406000D03*
X410200Y374000D03*
X458200Y374000D03*
X458200Y406000D03*
X638200Y374000D03*
X638200Y406000D03*
X590200Y406000D03*
X590200Y374000D03*
X638200Y454000D03*
X638200Y486000D03*
X590200Y486000D03*
X590200Y454000D03*
X638200Y534000D03*
X638200Y566000D03*
X590200Y566000D03*
X590200Y534000D03*
X638200Y614000D03*
X638200Y646000D03*
X590200Y646000D03*
X590200Y614000D03*
X724800Y599000D03*
X724800Y631000D03*
X676800Y631000D03*
X676800Y599000D03*
X746000Y567300D03*
X746000Y535300D03*
X794000Y535300D03*
X794000Y567300D03*
X746000Y487300D03*
X746000Y455300D03*
X794000Y455300D03*
X794000Y487300D03*
X676800Y426000D03*
X676800Y394000D03*
X724800Y394000D03*
X724800Y426000D03*
X889800Y374000D03*
X889800Y406000D03*
X841800Y406000D03*
X841800Y374000D03*
X891400Y454000D03*
X891400Y486000D03*
X843400Y486000D03*
X843400Y454000D03*
X893000Y534000D03*
X893000Y566000D03*
X845000Y566000D03*
X845000Y534000D03*
X893200Y614000D03*
X893200Y646000D03*
X845200Y646000D03*
X845200Y614000D03*
X969800Y614000D03*
X969800Y646000D03*
X921800Y646000D03*
X921800Y614000D03*
X923600Y526700D03*
X923600Y494700D03*
X971600Y494700D03*
X971600Y526700D03*
X925000Y406000D03*
X925000Y374000D03*
X973000Y374000D03*
X973000Y406000D03*
D15*
X648800Y310500D03*
X674200Y310500D03*
D18*
X266390Y945000D03*
X248610Y945000D03*
X198890Y910000D03*
X181110Y910000D03*
X68890Y900000D03*
X51110Y900000D03*
X101110Y965000D03*
X118890Y965000D03*
D12*
X50000Y808890D03*
X50000Y791110D03*
X85000Y738890D03*
X85000Y721110D03*
X270000Y706110D03*
X270000Y723890D03*
X300000Y743890D03*
X300000Y726110D03*
X432500Y711110D03*
X432500Y728890D03*
X435000Y776110D03*
X435000Y793890D03*
X335000Y861110D03*
X335000Y878890D03*
X335000Y931110D03*
X335000Y948890D03*
D18*
G36*
X493691Y911000D02*
X498382Y898112D01*
X482391Y892292D01*
X477700Y905180D01*
X493691Y911000D01*
G37*
G36*
X487609Y927708D02*
X492300Y914820D01*
X476309Y909000D01*
X471618Y921888D01*
X487609Y927708D01*
G37*
D12*
X457500Y738890D03*
X457500Y721110D03*
D18*
X468890Y685000D03*
X451110Y685000D03*
G36*
X575200Y779820D02*
X579891Y792708D01*
X595882Y786888D01*
X591191Y774000D01*
X575200Y779820D01*
G37*
G36*
X569118Y763112D02*
X573809Y776000D01*
X589800Y770180D01*
X585109Y757292D01*
X569118Y763112D01*
G37*
G36*
X592700Y822320D02*
X597391Y835208D01*
X613382Y829388D01*
X608691Y816500D01*
X592700Y822320D01*
G37*
G36*
X586618Y805612D02*
X591309Y818500D01*
X607300Y812680D01*
X602609Y799792D01*
X586618Y805612D01*
G37*
D12*
X692500Y908890D03*
X692500Y891110D03*
X692500Y861390D03*
X692500Y843610D03*
X692500Y808890D03*
X692500Y791110D03*
X692500Y718610D03*
X692500Y736390D03*
D18*
X808890Y685000D03*
X791110Y685000D03*
D12*
X830000Y783610D03*
X830000Y801390D03*
X832500Y843610D03*
X832500Y861390D03*
X857500Y868890D03*
X857500Y851110D03*
X915000Y918610D03*
X915000Y936390D03*
D18*
X938610Y897500D03*
X956390Y897500D03*
D12*
X875000Y806110D03*
X875000Y823890D03*
D18*
X861110Y772500D03*
X878890Y772500D03*
X236110Y620000D03*
X253890Y620000D03*
X123890Y650000D03*
X106110Y650000D03*
D12*
X42500Y621390D03*
X42500Y603610D03*
D18*
X48890Y575000D03*
X31110Y575000D03*
D12*
X30000Y476390D03*
X30000Y458610D03*
X70000Y403890D03*
X70000Y386110D03*
X247500Y378610D03*
X247500Y396390D03*
X297500Y443610D03*
X297500Y461390D03*
X410000Y438610D03*
X410000Y456390D03*
X395000Y496110D03*
X395000Y513890D03*
X410000Y563610D03*
X410000Y581390D03*
X480000Y628610D03*
X480000Y646390D03*
D18*
X503610Y617500D03*
X521390Y617500D03*
D12*
X477500Y523890D03*
X477500Y506110D03*
X460000Y461390D03*
X460000Y443610D03*
X435000Y438610D03*
X435000Y456390D03*
X567500Y391110D03*
X567500Y408890D03*
X660000Y456110D03*
X660000Y473890D03*
X660000Y541110D03*
X660000Y558890D03*
D18*
X638890Y590000D03*
X621110Y590000D03*
D12*
X747500Y601110D03*
X747500Y618890D03*
X725000Y563890D03*
X725000Y546110D03*
X725000Y493890D03*
X725000Y476110D03*
D18*
X688610Y450000D03*
X706390Y450000D03*
X901110Y350000D03*
X918890Y350000D03*
D12*
X912500Y451110D03*
X912500Y468890D03*
D18*
X893890Y510000D03*
X876110Y510000D03*
X888890Y590000D03*
X871110Y590000D03*
X951110Y585000D03*
X968890Y585000D03*
X931110Y550000D03*
X948890Y550000D03*
X941110Y430000D03*
X958890Y430000D03*
D19*
X430000Y690000D03*
X850000Y822500D03*
X787500Y857500D03*
X535000Y405000D03*
X112500Y390000D03*
X140000Y452500D03*
X435000Y495000D03*
X537500Y805000D03*
X385000Y877500D03*
X300000Y860000D03*
X282500Y967500D03*
X192500Y962500D03*
X670000Y830000D03*
X315000Y387500D03*
X287500Y297500D03*
X72500Y682500D03*
X272500Y365000D03*
X385000Y360000D03*
X600000Y350000D03*
M02*
